<svg width="56" height="46" viewBox="0 0 56 46" fill="none" xmlns="http://www.w3.org/2000/svg">
<path opacity="0.15" d="M23 46C35.7025 46 46 35.7025 46 23C46 10.2975 35.7025 0 23 0C10.2975 0 0 10.2975 0 23C0 35.7025 10.2975 46 23 46Z" fill="#0A9A73"/>
<path d="M17.8047 31.1004V39.4894H46.8777C47.2786 39.4854 47.6616 39.3227 47.9428 39.0369C48.224 38.751 48.3804 38.3654 48.3777 37.9644V31.1004L33.0887 29.0664L17.8047 31.1004Z" fill="#8B9BA9"/>
<path d="M45.3737 30.6943V36.4393H17.8047V39.4893H46.8777C47.2786 39.4854 47.6616 39.3226 47.9428 39.0368C48.224 38.7509 48.3804 38.3653 48.3777 37.9643V31.1003L45.3737 30.6943Z" fill="#6C7A88"/>
<path d="M49.7306 11H22.3136C21.9127 11.004 21.5297 11.1667 21.2485 11.4525C20.9673 11.7384 20.811 12.124 20.8136 12.525V17.279H10.7786C10.0915 17.2823 9.42609 17.5201 8.89254 17.9531C8.35899 18.3861 7.98929 18.9883 7.84462 19.66L6.70563 24.794C6.41334 26.113 6.2658 27.46 6.26562 28.811V39.489H20.8136V31.1H49.7306C50.1316 31.096 50.5146 30.9333 50.7957 30.6474C51.0769 30.3616 51.2333 29.9759 51.2306 29.575V12.525C51.2333 12.124 51.0769 11.7384 50.7957 11.4525C50.5146 11.1667 50.1316 11.004 49.7306 11Z" fill="#FF7E40"/>
<path d="M55.2456 24.55H51.2346V21.813H53.2406C53.4381 21.8058 53.625 21.7224 53.7622 21.5802C53.8994 21.438 53.976 21.2481 53.976 21.0505C53.976 20.8529 53.8994 20.663 53.7622 20.5208C53.625 20.3786 53.4381 20.2951 53.2406 20.288H51.2346V17.551H54.2426C54.445 17.551 54.6391 17.4706 54.7821 17.3275C54.9252 17.1844 55.0056 16.9904 55.0056 16.788C55.0056 16.5856 54.9252 16.3916 54.7821 16.2485C54.6391 16.1054 54.445 16.025 54.2426 16.025H51.2346V13.288H55.2456C55.4431 13.2808 55.63 13.1974 55.7672 13.0551C55.9044 12.9129 55.981 12.7231 55.981 12.5255C55.981 12.3279 55.9044 12.138 55.7672 11.9958C55.63 11.8536 55.4431 11.7702 55.2456 11.763H51.0316C50.9015 11.5324 50.7128 11.3403 50.4844 11.2063C50.2561 11.0723 49.9964 11.0011 49.7316 11H48.2316V28.05H20.8136V17.279H17.8006V31.1H15.5446C13.4307 31.1018 11.3994 31.9218 9.87662 33.388H6.26562V39.488H20.8136V31.1H49.7306C49.9953 31.0989 50.2549 31.0279 50.4833 30.8941C50.7116 30.7602 50.9004 30.5684 51.0306 30.338H54.2416C54.444 30.338 54.6381 30.2576 54.7811 30.1145C54.9242 29.9714 55.0046 29.7773 55.0046 29.575C55.0046 29.3726 54.9242 29.1786 54.7811 29.0355C54.6381 28.8924 54.444 28.812 54.2416 28.812H51.2346V26.075H55.2456C55.4431 26.0678 55.63 25.9844 55.7672 25.8422C55.9044 25.6999 55.981 25.5101 55.981 25.3125C55.981 25.1149 55.9044 24.925 55.7672 24.7828C55.63 24.6406 55.4431 24.5571 55.2456 24.55Z" fill="#FF6344"/>
<path d="M6.16608 39.4894H11.6661V36.4395H6.16608C6.06667 36.4401 5.96836 36.4603 5.87677 36.499C5.78517 36.5376 5.70209 36.5939 5.63226 36.6647C5.56243 36.7355 5.50722 36.8193 5.46978 36.9114C5.43235 37.0035 5.41342 37.102 5.41408 37.2014V38.7274C5.41342 38.8269 5.43235 38.9254 5.46978 39.0175C5.50722 39.1096 5.56243 39.1934 5.63226 39.2642C5.70209 39.3349 5.78517 39.3913 5.87677 39.4299C5.96836 39.4685 6.06667 39.4888 6.16608 39.4894Z" fill="#8B9BA9"/>
<path d="M17.8019 20.3291H10.6019L9.17188 26.7781H17.8029L17.8019 20.3291Z" fill="#9DC6FB"/>
<path d="M14.9749 23.7271H9.84788L9.17188 26.7781H17.8029V20.3291H14.9749V23.7271Z" fill="#80B4FB"/>
<path d="M41.1117 44.8274C44.0189 44.8274 46.3757 42.4375 46.3757 39.4894C46.3757 36.5413 44.0189 34.1514 41.1117 34.1514C38.2044 34.1514 35.8477 36.5413 35.8477 39.4894C35.8477 42.4375 38.2044 44.8274 41.1117 44.8274Z" fill="#4D5967"/>
<path d="M42.1899 34.2646C41.8814 34.8429 41.7654 35.5044 41.8588 36.1531C41.9521 36.8018 42.2499 37.4039 42.7089 37.8717L39.5189 41.1077C39.0644 40.644 38.4707 40.3416 37.8284 40.2466C37.186 40.1516 36.5302 40.2693 35.9609 40.5817C36.1687 41.5055 36.6213 42.3563 37.2714 43.0447C37.9214 43.7332 38.7448 44.2339 39.6552 44.4944C40.5655 44.7548 41.5292 44.7653 42.445 44.5247C43.3608 44.2842 44.1949 43.8015 44.8598 43.1273C45.5247 42.4532 45.9957 41.6125 46.2236 40.6934C46.4514 39.7744 46.4275 38.8109 46.1545 37.9043C45.8815 36.9977 45.3694 36.1813 44.6719 35.5408C43.9745 34.9004 43.1165 34.4596 42.1899 34.2646Z" fill="#35404A"/>
<path d="M41.1115 41.7772C42.3574 41.7772 43.3675 40.7528 43.3675 39.4892C43.3675 38.2255 42.3574 37.2012 41.1115 37.2012C39.8655 37.2012 38.8555 38.2255 38.8555 39.4892C38.8555 40.7528 39.8655 41.7772 41.1115 41.7772Z" fill="#FFF9EB"/>
<path d="M15.5452 44.8274C18.4525 44.8274 20.8092 42.4375 20.8092 39.4894C20.8092 36.5413 18.4525 34.1514 15.5452 34.1514C12.638 34.1514 10.2812 36.5413 10.2812 39.4894C10.2812 42.4375 12.638 44.8274 15.5452 44.8274Z" fill="#4D5967"/>
<path d="M16.6206 34.2646C16.3121 34.8429 16.1961 35.5044 16.2894 36.1531C16.3828 36.8018 16.6806 37.4039 17.1396 37.8717L13.9486 41.1077C13.4941 40.644 12.9004 40.3416 12.258 40.2466C11.6157 40.1516 10.9599 40.2693 10.3906 40.5817C10.5984 41.5055 11.051 42.3563 11.7011 43.0447C12.3511 43.7332 13.1745 44.2339 14.0849 44.4944C14.9952 44.7548 15.9589 44.7653 16.8747 44.5247C17.7905 44.2842 18.6246 43.8015 19.2895 43.1273C19.9543 42.4532 20.4254 41.6125 20.6532 40.6934C20.8811 39.7744 20.8572 38.8109 20.5842 37.9043C20.3112 36.9977 19.799 36.1813 19.1016 35.5408C18.4042 34.9004 17.5472 34.4596 16.6206 34.2646Z" fill="#35404A"/>
<path d="M15.5451 41.7772C16.791 41.7772 17.8011 40.7528 17.8011 39.4892C17.8011 38.2255 16.791 37.2012 15.5451 37.2012C14.2991 37.2012 13.2891 38.2255 13.2891 39.4892C13.2891 40.7528 14.2991 41.7772 15.5451 41.7772Z" fill="#FFF9EB"/>
<path d="M28.4161 19.525V20.288H29.3681C29.5655 20.2951 29.7525 20.3786 29.8896 20.5208C30.0268 20.663 30.1034 20.8529 30.1034 21.0505C30.1034 21.2481 30.0268 21.438 29.8896 21.5802C29.7525 21.7224 29.5655 21.8058 29.3681 21.813H28.4161V23.338C28.4236 23.4411 28.4098 23.5446 28.3755 23.6422C28.3412 23.7397 28.2872 23.8291 28.2168 23.9048C28.1465 23.9805 28.0612 24.0409 27.9665 24.0822C27.8717 24.1235 27.7694 24.1448 27.6661 24.1448C27.5627 24.1448 27.4604 24.1235 27.3657 24.0822C27.2709 24.0409 27.1857 23.9805 27.1153 23.9048C27.0449 23.8291 26.9909 23.7397 26.9566 23.6422C26.9223 23.5446 26.9085 23.4411 26.9161 23.338V18.763C26.9153 18.6635 26.9341 18.5648 26.9715 18.4726C27.0089 18.3804 27.064 18.2965 27.1339 18.2256C27.2037 18.1547 27.2869 18.0983 27.3785 18.0596C27.4702 18.0209 27.5686 18.0007 27.6681 18H29.9741C30.1715 18.0072 30.3585 18.0906 30.4956 18.2328C30.6328 18.375 30.7094 18.5649 30.7094 18.7625C30.7094 18.9601 30.6328 19.1499 30.4956 19.2921C30.3585 19.4344 30.1715 19.5178 29.9741 19.525H28.4161Z" fill="#FFF9EB"/>
<path d="M35.5876 22.8009C35.7286 22.9448 35.8077 23.1384 35.8077 23.3399C35.8077 23.5415 35.7286 23.735 35.5876 23.8789C35.5181 23.9495 35.4353 24.0056 35.344 24.0439C35.2527 24.0822 35.1546 24.1019 35.0556 24.1019C34.9565 24.1019 34.8585 24.0822 34.7671 24.0439C34.6758 24.0056 34.593 23.9495 34.5236 23.8789L33.2536 22.5789H32.8536V23.3419C32.8611 23.445 32.8473 23.5485 32.813 23.6461C32.7787 23.7436 32.7247 23.833 32.6543 23.9087C32.584 23.9844 32.4987 24.0448 32.404 24.0861C32.3092 24.1274 32.2069 24.1487 32.1036 24.1487C32.0002 24.1487 31.8979 24.1274 31.8032 24.0861C31.7084 24.0448 31.6232 23.9844 31.5528 23.9087C31.4824 23.833 31.4284 23.7436 31.3941 23.6461C31.3598 23.5485 31.346 23.445 31.3536 23.3419V18.7669C31.3528 18.6674 31.3716 18.5687 31.409 18.4765C31.4464 18.3843 31.5015 18.3004 31.5714 18.2295C31.6412 18.1586 31.7244 18.1022 31.816 18.0635C31.9077 18.0248 32.0061 18.0046 32.1056 18.0039H33.5716C34.1722 18.0105 34.7457 18.2551 35.1662 18.6841C35.5867 19.113 35.8199 19.6912 35.8146 20.2919C35.8155 20.6438 35.7357 20.9913 35.5812 21.3075C35.4267 21.6238 35.2017 21.9003 34.9236 22.1159L35.5876 22.8009ZM34.3016 20.2879C34.3045 20.0888 34.2284 19.8966 34.0898 19.7536C33.9513 19.6106 33.7617 19.5283 33.5626 19.5249H32.8486V21.0499H33.5626C33.7616 21.0467 33.9512 20.9647 34.0898 20.8218C34.2283 20.679 34.3045 20.4869 34.3016 20.2879Z" fill="#FFF9EB"/>
<path d="M40.4663 23.338C40.4669 23.4374 40.448 23.536 40.4106 23.6281C40.3731 23.7201 40.3179 23.804 40.2481 23.8747C40.1783 23.9455 40.0952 24.0018 40.0036 24.0405C39.912 24.0791 39.8137 24.0993 39.7143 24.1H37.4083C37.3089 24.0993 37.2105 24.0791 37.119 24.0405C37.0274 24.0018 36.9443 23.9455 36.8744 23.8747C36.8046 23.804 36.7494 23.7201 36.712 23.6281C36.6745 23.536 36.6556 23.4374 36.6563 23.338V18.762C36.6556 18.6626 36.6745 18.564 36.712 18.4719C36.7494 18.3798 36.8046 18.296 36.8744 18.2253C36.9443 18.1545 37.0274 18.0982 37.119 18.0595C37.2105 18.0209 37.3089 18.0007 37.4083 18H39.7163C39.9137 18.0072 40.1007 18.0906 40.2378 18.2328C40.375 18.375 40.4516 18.5649 40.4516 18.7625C40.4516 18.9601 40.375 19.1499 40.2378 19.2921C40.1007 19.4344 39.9137 19.5178 39.7163 19.525H38.1603V20.288H39.1163C39.3137 20.2951 39.5007 20.3786 39.6378 20.5208C39.775 20.663 39.8516 20.8529 39.8516 21.0505C39.8516 21.2481 39.775 21.438 39.6378 21.5802C39.5007 21.7224 39.3137 21.8058 39.1163 21.813H38.1643V22.575H39.7163C39.9171 22.5766 40.1091 22.6578 40.2501 22.8009C40.3911 22.9439 40.4696 23.1371 40.4683 23.338H40.4663Z" fill="#FFF9EB"/>
<path d="M45.1303 23.338C45.131 23.4374 45.1121 23.536 45.0746 23.6281C45.0372 23.7201 44.982 23.804 44.9122 23.8747C44.8423 23.9455 44.7592 24.0018 44.6676 24.0405C44.5761 24.0791 44.4777 24.0993 44.3783 24.1H42.0723C41.9729 24.0993 41.8746 24.0791 41.783 24.0405C41.6914 24.0018 41.6083 23.9455 41.5385 23.8747C41.4687 23.804 41.4135 23.7201 41.376 23.6281C41.3386 23.536 41.3197 23.4374 41.3203 23.338V18.762C41.3197 18.6626 41.3386 18.564 41.376 18.4719C41.4135 18.3798 41.4687 18.296 41.5385 18.2253C41.6083 18.1545 41.6914 18.0982 41.783 18.0595C41.8746 18.0209 41.9729 18.0007 42.0723 18H44.3783C44.5758 18.0072 44.7628 18.0906 44.8999 18.2328C45.0371 18.375 45.1137 18.5649 45.1137 18.7625C45.1137 18.9601 45.0371 19.1499 44.8999 19.2921C44.7628 19.4344 44.5758 19.5178 44.3783 19.525H42.8243V20.288H43.7763C43.9738 20.2951 44.1608 20.3786 44.2979 20.5208C44.4351 20.663 44.5117 20.8529 44.5117 21.0505C44.5117 21.2481 44.4351 21.438 44.2979 21.5802C44.1608 21.7224 43.9738 21.8058 43.7763 21.813H42.8243V22.575H44.3783C44.5792 22.5766 44.7712 22.6578 44.9122 22.8009C45.0532 22.9439 45.1317 23.1371 45.1303 23.338Z" fill="#FFF9EB"/>
</svg>
