<svg width="50" height="47" viewBox="0 0 50 47" fill="none" xmlns="http://www.w3.org/2000/svg">
<path opacity="0.14" d="M23 46C35.7025 46 46 35.7025 46 23C46 10.2975 35.7025 0 23 0C10.2975 0 0 10.2975 0 23C0 35.7025 10.2975 46 23 46Z" fill="#0A9A73"/>
<path d="M26.4161 21.525V22.288H27.3681C27.5655 22.2951 27.7525 22.3786 27.8896 22.5208C28.0268 22.663 28.1034 22.8529 28.1034 23.0505C28.1034 23.2481 28.0268 23.438 27.8896 23.5802C27.7525 23.7224 27.5655 23.8058 27.3681 23.813H26.4161V25.338C26.4236 25.4411 26.4098 25.5446 26.3755 25.6422C26.3412 25.7397 26.2872 25.8291 26.2168 25.9048C26.1465 25.9805 26.0612 26.0409 25.9665 26.0822C25.8717 26.1235 25.7694 26.1448 25.6661 26.1448C25.5627 26.1448 25.4604 26.1235 25.3657 26.0822C25.2709 26.0409 25.1857 25.9805 25.1153 25.9048C25.0449 25.8291 24.9909 25.7397 24.9566 25.6422C24.9223 25.5446 24.9085 25.4411 24.9161 25.338V20.763C24.9153 20.6635 24.9341 20.5648 24.9715 20.4726C25.0089 20.3804 25.064 20.2965 25.1339 20.2256C25.2037 20.1547 25.2869 20.0983 25.3785 20.0596C25.4702 20.0209 25.5686 20.0007 25.6681 20H27.9741C28.1715 20.0072 28.3585 20.0906 28.4956 20.2328C28.6328 20.375 28.7094 20.5649 28.7094 20.7625C28.7094 20.9601 28.6328 21.1499 28.4956 21.2921C28.3585 21.4344 28.1715 21.5178 27.9741 21.525H26.4161Z" fill="#FFF9EB"/>
<path d="M33.5876 24.8009C33.7286 24.9448 33.8077 25.1384 33.8077 25.3399C33.8077 25.5415 33.7286 25.735 33.5876 25.8789C33.5181 25.9495 33.4353 26.0056 33.344 26.0439C33.2527 26.0822 33.1546 26.1019 33.0556 26.1019C32.9565 26.1019 32.8585 26.0822 32.7671 26.0439C32.6758 26.0056 32.593 25.9495 32.5236 25.8789L31.2536 24.5789H30.8536V25.3419C30.8611 25.445 30.8473 25.5485 30.813 25.6461C30.7787 25.7436 30.7247 25.833 30.6543 25.9087C30.584 25.9844 30.4987 26.0448 30.404 26.0861C30.3092 26.1274 30.2069 26.1487 30.1036 26.1487C30.0002 26.1487 29.8979 26.1274 29.8032 26.0861C29.7084 26.0448 29.6232 25.9844 29.5528 25.9087C29.4824 25.833 29.4284 25.7436 29.3941 25.6461C29.3598 25.5485 29.346 25.445 29.3536 25.3419V20.7669C29.3528 20.6674 29.3716 20.5687 29.409 20.4765C29.4464 20.3843 29.5015 20.3004 29.5714 20.2295C29.6412 20.1586 29.7244 20.1022 29.816 20.0635C29.9077 20.0248 30.0061 20.0046 30.1056 20.0039H31.5716C32.1722 20.0105 32.7457 20.2551 33.1662 20.6841C33.5867 21.113 33.8199 21.6912 33.8146 22.2919C33.8155 22.6438 33.7357 22.9913 33.5812 23.3075C33.4267 23.6238 33.2017 23.9003 32.9236 24.1159L33.5876 24.8009ZM32.3016 22.2879C32.3045 22.0888 32.2284 21.8966 32.0898 21.7536C31.9513 21.6106 31.7617 21.5283 31.5626 21.5249H30.8486V23.0499H31.5626C31.7616 23.0467 31.9512 22.9647 32.0898 22.8218C32.2283 22.679 32.3045 22.4869 32.3016 22.2879Z" fill="#FFF9EB"/>
<path d="M38.4663 25.338C38.4669 25.4374 38.448 25.536 38.4106 25.6281C38.3731 25.7201 38.3179 25.804 38.2481 25.8747C38.1783 25.9455 38.0952 26.0018 38.0036 26.0405C37.912 26.0791 37.8137 26.0993 37.7143 26.1H35.4083C35.3089 26.0993 35.2105 26.0791 35.119 26.0405C35.0274 26.0018 34.9443 25.9455 34.8744 25.8747C34.8046 25.804 34.7494 25.7201 34.712 25.6281C34.6745 25.536 34.6556 25.4374 34.6563 25.338V20.762C34.6556 20.6626 34.6745 20.564 34.712 20.4719C34.7494 20.3798 34.8046 20.296 34.8744 20.2253C34.9443 20.1545 35.0274 20.0982 35.119 20.0595C35.2105 20.0209 35.3089 20.0007 35.4083 20H37.7163C37.9137 20.0072 38.1007 20.0906 38.2378 20.2328C38.375 20.375 38.4516 20.5649 38.4516 20.7625C38.4516 20.9601 38.375 21.1499 38.2378 21.2921C38.1007 21.4344 37.9137 21.5178 37.7163 21.525H36.1603V22.288H37.1163C37.3137 22.2951 37.5007 22.3786 37.6378 22.5208C37.775 22.663 37.8516 22.8529 37.8516 23.0505C37.8516 23.2481 37.775 23.438 37.6378 23.5802C37.5007 23.7224 37.3137 23.8058 37.1163 23.813H36.1643V24.575H37.7163C37.9171 24.5766 38.1091 24.6578 38.2501 24.8009C38.3911 24.9439 38.4696 25.1371 38.4683 25.338H38.4663Z" fill="#FFF9EB"/>
<path d="M43.1303 25.338C43.131 25.4374 43.1121 25.536 43.0746 25.6281C43.0372 25.7201 42.982 25.804 42.9122 25.8747C42.8423 25.9455 42.7592 26.0018 42.6676 26.0405C42.5761 26.0791 42.4777 26.0993 42.3783 26.1H40.0723C39.9729 26.0993 39.8746 26.0791 39.783 26.0405C39.6914 26.0018 39.6083 25.9455 39.5385 25.8747C39.4687 25.804 39.4135 25.7201 39.376 25.6281C39.3386 25.536 39.3197 25.4374 39.3203 25.338V20.762C39.3197 20.6626 39.3386 20.564 39.376 20.4719C39.4135 20.3798 39.4687 20.296 39.5385 20.2253C39.6083 20.1545 39.6914 20.0982 39.783 20.0595C39.8746 20.0209 39.9729 20.0007 40.0723 20H42.3783C42.5758 20.0072 42.7628 20.0906 42.8999 20.2328C43.0371 20.375 43.1137 20.5649 43.1137 20.7625C43.1137 20.9601 43.0371 21.1499 42.8999 21.2921C42.7628 21.4344 42.5758 21.5178 42.3783 21.525H40.8243V22.288H41.7763C41.9738 22.2951 42.1608 22.3786 42.2979 22.5208C42.4351 22.663 42.5117 22.8529 42.5117 23.0505C42.5117 23.2481 42.4351 23.438 42.2979 23.5802C42.1608 23.7224 41.9738 23.8058 41.7763 23.813H40.8243V24.575H42.3783C42.5792 24.5766 42.7712 24.6578 42.9122 24.8009C43.0532 24.9439 43.1317 25.1371 43.1303 25.338Z" fill="#FFF9EB"/>
<path d="M49.0536 31.4621C49.0536 24.5071 43.0116 18.8691 35.5536 18.8691C28.0956 18.8691 22.0586 24.5071 22.0586 31.4621C22.0586 38.4171 28.1006 44.0551 35.5536 44.0551C36.5021 44.0555 37.4483 43.9627 38.3786 43.7781L43.7256 45.4391L42.7796 42.1001C44.662 41.0282 46.2312 39.4823 47.3311 37.616C48.4311 35.7498 49.0235 33.6282 49.0496 31.4621H49.0536Z" fill="#B3DAFE"/>
<path d="M49.0527 31.4621C49.0527 24.5071 43.0107 18.8691 35.5527 18.8691C35.104 18.8691 34.6607 18.8894 34.2227 18.9301C41.0517 19.5541 46.3877 24.9301 46.3877 31.4621C46.3616 33.6282 45.7691 35.7498 44.6692 37.616C43.5692 39.4823 42.0001 41.0282 40.1177 42.1001L40.8077 44.5331L43.7247 45.4391L42.7787 42.1001C44.6618 41.0287 46.2318 39.483 47.3324 37.6167C48.4331 35.7504 49.0262 33.6286 49.0527 31.4621Z" fill="#8AC9FE"/>
<path d="M43.0232 37.0516L38.7292 25.8926C38.6252 25.5992 38.4329 25.3453 38.1787 25.1657C37.9245 24.9861 37.6209 24.8896 37.3097 24.8896C36.9984 24.8896 36.6948 24.9861 36.4406 25.1657C36.1864 25.3453 35.9941 25.5992 35.8902 25.8926L33.4022 32.3516L31.5952 37.0516C31.4877 37.3233 31.4892 37.626 31.5993 37.8966C31.7094 38.1673 31.9196 38.385 32.1862 38.5046C32.3176 38.5583 32.4586 38.5848 32.6006 38.5826C32.7426 38.5803 32.8826 38.5493 33.0123 38.4915C33.142 38.4336 33.2586 38.3501 33.3552 38.246C33.4518 38.1419 33.5262 38.0193 33.5742 37.8856L35.1062 33.9046H39.5062L41.0392 37.8856C41.1137 38.0887 41.2482 38.2644 41.4248 38.3894C41.6014 38.5144 41.8118 38.5828 42.0282 38.5856C42.1656 38.5856 42.3016 38.5581 42.4282 38.5046C42.6947 38.3851 42.9049 38.1672 43.0148 37.8965C43.1247 37.6259 43.1259 37.3232 43.0182 37.0516H43.0232ZM35.9662 31.6716L37.3102 28.1816L38.6532 31.6716H35.9662Z" fill="#0078C8"/>
<path d="M20.1367 9.66992C12.6827 9.66992 6.63672 15.3079 6.63672 22.2629C6.66268 24.4289 7.25508 26.5504 8.35505 28.4165C9.45502 30.2826 11.0242 31.8282 12.9067 32.8999L11.9607 36.2399L17.3077 34.5789C18.238 34.7635 19.1843 34.8563 20.1327 34.8559C27.5857 34.8559 33.6327 29.2179 33.6327 22.2629C33.6327 15.3079 27.5907 9.66992 20.1327 9.66992H20.1367Z" fill="#F9C6C6"/>
<path d="M20.1357 9.66992C19.687 9.66992 19.2434 9.69026 18.8047 9.73093C25.6337 10.3539 30.9697 15.7309 30.9697 22.2629C30.9697 28.7949 25.6357 34.1689 18.8097 34.7949C19.2457 34.8349 19.6877 34.8553 20.1357 34.8559C27.5887 34.8559 33.6357 29.2179 33.6357 22.2629C33.6357 15.3079 27.5937 9.66992 20.1357 9.66992Z" fill="#F9B1B1"/>
<path d="M20.2383 27.1684C19.9453 27.1616 19.667 27.0388 19.4645 26.8269C19.262 26.615 19.1518 26.3314 19.1583 26.0384V22.1384C19.1494 21.7121 19.3099 21.2996 19.6045 20.9912C19.8991 20.6829 20.3039 20.5039 20.7303 20.4934C20.9932 20.4877 21.2524 20.4302 21.4931 20.3242C21.7338 20.2182 21.9512 20.0657 22.1328 19.8756C22.3145 19.6855 22.4569 19.4614 22.5519 19.2161C22.6469 18.9709 22.6925 18.7094 22.6863 18.4464V17.8264C22.6958 17.4855 22.6369 17.1462 22.5131 16.8285C22.3892 16.5108 22.2029 16.2211 21.9652 15.9766C21.7275 15.7321 21.4431 15.5378 21.129 15.4051C20.8148 15.2724 20.4773 15.204 20.1363 15.204C19.7953 15.204 19.4577 15.2724 19.1436 15.4051C18.8294 15.5378 18.5451 15.7321 18.3074 15.9766C18.0696 16.2211 17.8833 16.5108 17.7595 16.8285C17.6356 17.1462 17.5767 17.4855 17.5863 17.8264C17.594 17.973 17.5718 18.1196 17.5211 18.2573C17.4703 18.395 17.392 18.5209 17.291 18.6273C17.19 18.7338 17.0684 18.8186 16.9336 18.8765C16.7987 18.9345 16.6535 18.9644 16.5068 18.9644C16.36 18.9644 16.2148 18.9345 16.08 18.8765C15.9452 18.8186 15.8235 18.7338 15.7225 18.6273C15.6215 18.5209 15.5433 18.395 15.4925 18.2573C15.4417 18.1196 15.4196 17.973 15.4273 17.8264C15.4002 16.5492 15.8805 15.3133 16.763 14.3896C17.6455 13.4659 18.8581 12.9296 20.1353 12.8984C21.4122 12.9299 22.6247 13.4662 23.5069 14.3899C24.3892 15.3136 24.8694 16.5494 24.8423 17.8264V18.4464C24.8593 19.4609 24.5133 20.448 23.8665 21.2297C23.2198 22.0114 22.3149 22.5362 21.3153 22.7094V26.0374C21.322 26.3301 21.2124 26.6135 21.0105 26.8255C20.8086 27.0375 20.5309 27.1608 20.2383 27.1684Z" fill="#D83131"/>
<path d="M20.2363 31.2473C20.8327 31.2473 21.3163 30.7414 21.3163 30.1173C21.3163 29.4932 20.8327 28.9873 20.2363 28.9873C19.6398 28.9873 19.1562 29.4932 19.1562 30.1173C19.1562 30.7414 19.6398 31.2473 20.2363 31.2473Z" fill="#D83131"/>
<path d="M21.9547 23.2566C22.9834 22.944 23.8831 22.3064 24.519 21.4394C25.1549 20.5724 25.4926 19.5227 25.4817 18.4475V17.8275C25.5131 16.3765 24.9679 14.9722 23.9656 13.9225C22.9632 12.8727 21.5856 12.2632 20.1347 12.2275C18.6835 12.2629 17.3056 12.8723 16.3031 13.9221C15.3006 14.9718 14.7553 16.3763 14.7867 17.8275C14.777 18.0594 14.8143 18.2908 14.8963 18.5079C14.9784 18.7249 15.1035 18.9232 15.2641 19.0906C15.4247 19.2581 15.6175 19.3914 15.831 19.4824C16.0444 19.5735 16.2741 19.6204 16.5062 19.6204C16.7382 19.6204 16.9679 19.5735 17.1813 19.4824C17.3948 19.3914 17.5876 19.2581 17.7482 19.0906C17.9089 18.9232 18.0339 18.7249 18.116 18.5079C18.198 18.2908 18.2353 18.0594 18.2257 17.8275C18.2124 17.5687 18.2519 17.3099 18.3419 17.0668C18.4318 16.8237 18.5702 16.6014 18.7488 16.4135C18.9273 16.2256 19.1422 16.076 19.3803 15.9738C19.6185 15.8715 19.875 15.8188 20.1342 15.8188C20.3933 15.8188 20.6498 15.8715 20.888 15.9738C21.1262 16.076 21.341 16.2256 21.5196 16.4135C21.6981 16.6014 21.8365 16.8237 21.9264 17.0668C22.0164 17.3099 22.0559 17.5687 22.0427 17.8275V18.4475C22.0504 18.8047 21.9163 19.1503 21.6696 19.4086C21.4229 19.667 21.0838 19.8169 20.7267 19.8256C20.1267 19.8402 19.557 20.0921 19.1424 20.526C18.7278 20.9599 18.502 21.5405 18.5147 22.1406V26.0406C18.5034 26.2734 18.5396 26.5061 18.621 26.7246C18.7023 26.943 18.8272 27.1427 18.988 27.3115C19.1489 27.4802 19.3423 27.6146 19.5566 27.7064C19.7708 27.7982 20.0015 27.8455 20.2347 27.8455C20.4678 27.8455 20.6985 27.7982 20.9128 27.7064C21.127 27.6146 21.3205 27.4802 21.4813 27.3115C21.6421 27.1427 21.767 26.943 21.8484 26.7246C21.9297 26.5061 21.9659 26.2734 21.9547 26.0406V23.2566ZM21.2237 22.0475C21.0679 22.0741 20.9267 22.1555 20.8258 22.2772C20.7249 22.3988 20.6709 22.5525 20.6737 22.7105V26.0385C20.6737 26.155 20.6274 26.2666 20.5451 26.349C20.4627 26.4313 20.3511 26.4775 20.2347 26.4775C20.1182 26.4775 20.0066 26.4313 19.9242 26.349C19.8419 26.2666 19.7957 26.155 19.7957 26.0385V22.1385C19.79 21.8858 19.8849 21.6411 20.0594 21.4581C20.2339 21.2751 20.4739 21.1688 20.7267 21.1625C21.4316 21.1465 22.1013 20.8514 22.5888 20.342C23.0763 19.8326 23.3417 19.1505 23.3267 18.4456V17.8256C23.3452 16.9605 23.02 16.1235 22.4224 15.4978C21.8249 14.8721 21.0036 14.5088 20.1387 14.4875C19.2735 14.5085 18.452 14.8717 17.8542 15.4974C17.2564 16.1231 16.9311 16.9604 16.9497 17.8256C16.9525 17.885 16.9432 17.9445 16.9224 18.0003C16.9016 18.0561 16.8697 18.107 16.8286 18.1501C16.7875 18.1932 16.7381 18.2275 16.6834 18.251C16.6286 18.2744 16.5697 18.2865 16.5102 18.2865C16.4506 18.2865 16.3917 18.2744 16.3369 18.251C16.2822 18.2275 16.2328 18.1932 16.1917 18.1501C16.1506 18.107 16.1187 18.0561 16.0979 18.0003C16.0771 17.9445 16.0678 17.885 16.0707 17.8256C16.0473 16.722 16.4624 15.6541 17.2249 14.856C17.9874 14.0579 19.0352 13.5945 20.1387 13.5675C21.2421 13.5945 22.2898 14.0579 23.0521 14.8561C23.8145 15.6542 24.2293 16.7221 24.2057 17.8256V18.4456C24.2188 19.3027 23.9258 20.1363 23.3791 20.7966C22.8325 21.4569 22.0682 21.9005 21.2237 22.0475Z" fill="black"/>
<path d="M20.2355 28.3162C19.8765 28.3003 19.5209 28.3921 19.2146 28.5799C18.9083 28.7678 18.6651 29.043 18.5166 29.3702C18.368 29.6973 18.3207 30.0615 18.3809 30.4158C18.441 30.77 18.6058 31.0982 18.8541 31.358C19.1023 31.6178 19.4227 31.7973 19.7738 31.8735C20.125 31.9497 20.4909 31.919 20.8245 31.7855C21.1581 31.6519 21.4441 31.4216 21.6457 31.1241C21.8472 30.8266 21.9551 30.4756 21.9555 30.1162C21.9654 29.6496 21.7899 29.1981 21.4675 28.8607C21.1451 28.5233 20.702 28.3275 20.2355 28.3162ZM20.2355 30.5762C20.1437 30.5804 20.0528 30.557 19.9744 30.5091C19.8961 30.4612 19.8339 30.3909 19.7958 30.3073C19.7578 30.2237 19.7456 30.1306 19.7609 30.04C19.7762 29.9495 19.8183 29.8656 19.8817 29.7991C19.9451 29.7327 20.027 29.6867 20.1167 29.6672C20.2065 29.6477 20.3 29.6555 20.3853 29.6896C20.4706 29.7237 20.5437 29.7826 20.5952 29.8586C20.6468 29.9347 20.6744 30.0244 20.6745 30.1162C20.6766 30.2352 20.6317 30.3501 20.5495 30.4361C20.4672 30.5221 20.3544 30.5731 20.2355 30.5762Z" fill="black"/>
<path d="M35.557 18.1986C34.9137 18.199 34.2711 18.2401 33.633 18.3216C32.8095 15.9737 31.3691 13.8909 29.4629 12.2918C27.5568 10.6927 25.2553 9.63631 22.8 9.23357C21.9222 9.07785 21.0325 8.99954 20.141 8.99956C16.3492 8.96691 12.6959 10.4228 9.966 13.0546C9.84122 13.1784 9.76826 13.3451 9.76194 13.5208C9.75563 13.6965 9.81643 13.8681 9.932 14.0006C9.9876 14.0639 10.0555 14.1152 10.1316 14.1514C10.2076 14.1877 10.2903 14.208 10.3745 14.2113C10.4587 14.2146 10.5427 14.2007 10.6213 14.1705C10.7 14.1403 10.7717 14.0944 10.832 14.0356C13.3283 11.6326 16.6672 10.3042 20.132 10.3356C20.9514 10.3352 21.7692 10.4071 22.576 10.5506C29.599 11.8056 33.689 17.9116 32.881 23.7846C32.071 29.6406 26.662 34.1846 20.131 34.1846C19.2245 34.1844 18.3202 34.0956 17.431 33.9196C17.3312 33.8996 17.2281 33.9051 17.131 33.9356L12.913 35.2456L13.524 33.0906C13.5658 32.9465 13.559 32.7927 13.5048 32.6529C13.4506 32.513 13.352 32.3948 13.224 32.3166C11.4393 31.3083 9.95091 29.8488 8.90772 28.0843C7.86454 26.3198 7.30323 24.3122 7.28 22.2626C7.28373 20.1497 7.88186 18.0805 9.006 16.2916C9.09942 16.1427 9.13231 15.9637 9.09791 15.7913C9.06351 15.6189 8.96442 15.4662 8.821 15.3646C8.75088 15.3166 8.67169 15.2835 8.5883 15.2673C8.50492 15.2511 8.41909 15.2521 8.33611 15.2703C8.25313 15.2884 8.17474 15.3234 8.10576 15.373C8.03678 15.4226 7.97867 15.4857 7.935 15.5586C6.67356 17.5673 6.00299 19.8906 6 22.2626C6.01668 24.459 6.58991 26.6153 7.66612 28.5301C8.74233 30.4448 10.2864 32.0555 12.154 33.2116L11.354 36.0486C11.3209 36.1637 11.3183 36.2855 11.3465 36.4019C11.3748 36.5183 11.4328 36.6254 11.515 36.7126C11.5729 36.775 11.6429 36.8249 11.7208 36.8593C11.7987 36.8937 11.8829 36.9118 11.968 36.9126C12.0297 36.9125 12.0911 36.9031 12.15 36.8846L17.35 35.2696C18.9036 35.5609 20.4932 35.6068 22.061 35.4056C23.0536 38.1761 24.89 40.5656 27.3117 42.2378C29.7334 43.91 32.6185 44.7808 35.561 44.7276C36.4967 44.7276 37.4303 44.6409 38.35 44.4686L43.55 46.0836C43.6089 46.1022 43.6703 46.1116 43.732 46.1116C43.817 46.1106 43.9008 46.0924 43.9785 46.058C44.0562 46.0236 44.1261 45.9738 44.184 45.9116C44.2661 45.8241 44.3241 45.7169 44.3523 45.6003C44.3805 45.4838 44.378 45.3619 44.345 45.2466L43.545 42.4096C44.5958 41.7361 45.5511 40.9242 46.385 39.9956C46.5015 39.8636 46.5634 39.6922 46.558 39.5163C46.5526 39.3404 46.4804 39.1731 46.356 39.0486C46.2961 38.9892 46.2248 38.9427 46.1463 38.9119C46.0678 38.8811 45.9838 38.8667 45.8995 38.8695C45.8153 38.8723 45.7324 38.8923 45.6562 38.9282C45.5799 38.9642 45.5118 39.0153 45.456 39.0786C44.5927 40.0372 43.5885 40.859 42.478 41.5156C42.3501 41.5937 42.2515 41.7117 42.1973 41.8513C42.1431 41.991 42.1363 42.1446 42.178 42.2886L42.789 44.4446L38.573 43.1346C38.4758 43.1046 38.3728 43.0992 38.273 43.1186C37.3838 43.2947 36.4795 43.3834 35.573 43.3836C32.9407 43.4383 30.3555 42.6804 28.1694 41.2131C25.9833 39.7458 24.3025 37.6404 23.356 35.1836C26.264 34.5606 28.9066 33.0492 30.918 30.8586C32.2915 29.3688 33.2886 27.5719 33.826 25.6181C34.3634 23.6643 34.4254 21.6103 34.007 19.6276C34.5269 19.5687 35.0498 19.5393 35.573 19.5396C42.661 19.5396 48.428 24.8886 48.428 31.4626C48.4317 33.2879 47.9852 35.086 47.128 36.6976C47.0453 36.8527 47.0253 37.0336 47.072 37.2031C47.1187 37.3725 47.2286 37.5177 47.379 37.6086C47.4528 37.6507 47.5344 37.6774 47.6188 37.6869C47.7033 37.6965 47.7888 37.6887 47.8701 37.6641C47.9514 37.6395 48.0269 37.5986 48.0919 37.5438C48.1569 37.489 48.21 37.4216 48.248 37.3456C49.2123 35.5348 49.7148 33.5141 49.711 31.4626C49.711 24.1496 43.37 18.1996 35.575 18.1996L35.557 18.1986Z" fill="black"/>
<path d="M37.9005 27.9304C37.8569 27.8079 37.7764 27.7019 37.6702 27.6269C37.5639 27.552 37.4371 27.5117 37.307 27.5117C37.177 27.5117 37.0501 27.552 36.9439 27.6269C36.8376 27.7019 36.7572 27.8079 36.7135 27.9304L35.3705 31.4204C35.3315 31.5224 35.3168 31.6322 35.3277 31.7409C35.3387 31.8496 35.3749 31.9542 35.4335 32.0464C35.4896 32.1369 35.5675 32.2118 35.6602 32.2642C35.7528 32.3166 35.8571 32.3449 35.9635 32.3464H38.6505C38.757 32.3449 38.8613 32.3166 38.9539 32.2642C39.0465 32.2118 39.1245 32.1369 39.1805 32.0464C39.2392 31.9542 39.2754 31.8496 39.2863 31.7409C39.2973 31.6322 39.2826 31.5224 39.2435 31.4204L37.9005 27.9304ZM36.9115 31.0014L37.3065 29.9734L37.7065 31.0014H36.9115Z" fill="black"/>
<path d="M39.3192 25.6428C39.1718 25.2265 38.8991 24.8662 38.5385 24.6114C38.1779 24.3566 37.7473 24.2197 37.3057 24.2197C36.8642 24.2197 36.4335 24.3566 36.0729 24.6114C35.7123 24.8662 35.4396 25.2265 35.2922 25.6428L30.9982 36.8008C30.8265 37.2354 30.8288 37.7196 31.0048 38.1526C31.1808 38.5856 31.5169 38.9342 31.9432 39.1258C32.1536 39.2116 32.3791 39.2539 32.6062 39.2503C32.8334 39.2467 33.0575 39.1971 33.265 39.1046C33.4724 39.0122 33.6591 38.8786 33.8136 38.7121C33.9682 38.5456 34.0874 38.3496 34.1642 38.1358L35.5352 34.5748H39.0762L40.4472 38.1358C40.5655 38.4616 40.7804 38.7434 41.0634 38.9436C41.3463 39.1438 41.6837 39.2527 42.0302 39.2558C42.2494 39.2555 42.4664 39.2113 42.6682 39.1258C43.0945 38.9342 43.4306 38.5856 43.6066 38.1526C43.7826 37.7196 43.785 37.2354 43.6132 36.8008L39.3192 25.6428ZM42.1902 37.8828C42.1397 37.9044 42.0852 37.9156 42.0302 37.9158C41.9429 37.9157 41.8577 37.8888 41.7861 37.8387C41.7146 37.7887 41.6602 37.7178 41.6302 37.6358L40.0982 33.6538C40.0532 33.5321 39.9723 33.4269 39.8662 33.3521C39.7602 33.2773 39.634 33.2364 39.5042 33.2348H35.0982C34.9685 33.2364 34.8422 33.2773 34.7362 33.3521C34.6302 33.4269 34.5493 33.5321 34.5042 33.6538L32.9722 37.6358C32.953 37.6891 32.9231 37.7381 32.8845 37.7796C32.8458 37.8212 32.7992 37.8545 32.7474 37.8776C32.6955 37.9006 32.6396 37.913 32.5828 37.9139C32.5261 37.9148 32.4698 37.9042 32.4172 37.8828C32.3105 37.835 32.2263 37.748 32.1822 37.6398C32.138 37.5316 32.1373 37.4105 32.1802 37.3018L36.4802 26.1438C36.5403 25.9728 36.652 25.8247 36.7999 25.7199C36.9477 25.6152 37.1245 25.5589 37.3057 25.5589C37.4869 25.5589 37.6637 25.6152 37.8116 25.7199C37.9594 25.8247 38.0711 25.9728 38.1312 26.1438L42.4312 37.3018C42.4742 37.4104 42.4736 37.5314 42.4297 37.6396C42.3857 37.7478 42.3017 37.8349 42.1952 37.8828H42.1902Z" fill="black"/>
</svg>
