<svg width="48" height="47" viewBox="0 0 48 47" fill="none" xmlns="http://www.w3.org/2000/svg">
<path opacity="0.21" d="M23 0C27.549 0 31.9958 1.34893 35.7781 3.8762C39.5604 6.40347 42.5084 9.99558 44.2492 14.1983C45.99 18.401 46.4455 23.0255 45.5581 27.4871C44.6706 31.9486 42.4801 36.0468 39.2635 39.2635C36.0468 42.4801 31.9486 44.6706 27.4871 45.5581C23.0255 46.4455 18.401 45.99 14.1983 44.2492C9.99558 42.5084 6.40347 39.5604 3.8762 35.7781C1.34893 31.9958 0 27.549 0 23C0 16.9 2.42321 11.0499 6.73654 6.73654C11.0499 2.42321 16.9 0 23 0Z" fill="#0A9A73"/>
<path d="M39.7617 12.9913L41.3157 11.4473L42.6847 12.4113L41.1307 13.9543L39.7617 12.9913Z" fill="#D1E4FF"/>
<path d="M32.2266 20.4734L38.2536 14.4854L39.6236 15.4494L33.5956 21.4374L32.2266 20.4734Z" fill="#D1E4FF"/>
<path d="M12.6836 12.4181L14.0526 11.4541L15.6066 12.9981L14.2366 13.9611L12.6836 12.4181Z" fill="#D1E4FF"/>
<path d="M15.7422 15.4644L17.0932 14.4844L23.3012 20.4684L21.9502 21.4484L15.7422 15.4644Z" fill="#D1E4FF"/>
<path d="M27.6882 21.7051L42.0072 7.48608L36.6372 2.99609H18.7372L13.3672 7.48608L27.6882 21.7051Z" fill="#7DAFFF"/>
<path d="M34.8453 7.49033L27.6863 21.7053L20.5273 7.48633L34.8453 7.49033Z" fill="#548AFF"/>
<path d="M34.8477 7.48999L36.6377 3L42.0077 7.48999H34.8477Z" fill="#4976F2"/>
<path d="M20.5273 7.48999L27.6863 3L34.8453 7.48999H20.5273Z" fill="#A6CFFF"/>
<path d="M42.0065 7.49023H34.8465L27.6875 21.7052L42.0065 7.49023Z" fill="#4367E0"/>
<path d="M20.5272 7.48999L18.7372 3L13.3672 7.48999H20.5272Z" fill="#A6CFFF"/>
<path d="M8 19.4639H47.376V46.4049H8V19.4639Z" fill="#FFC431"/>
<path d="M8 19.4639H18.739V46.4049H8V19.4639Z" fill="#FFB401"/>
<path d="M8 46.405L13.369 41.915L18.739 46.405H8Z" fill="#FFA100"/>
<path d="M12.4766 32.9336H14.2656V43.4116H12.4766V32.9336Z" fill="#FFA100"/>
<path d="M12.4766 29.9414H14.2656V31.4414H12.4766V29.9414Z" fill="#FFA100"/>
<path d="M12.4766 19.4639H14.2656V28.4439H12.4766V19.4639Z" fill="#FFA100"/>
<path d="M26.793 22.457H31.268V23.957H26.793V22.457Z" fill="#FFB401"/>
<path d="M35.7422 22.457H40.2172V23.957H35.7422V22.457Z" fill="#FFB401"/>
<path d="M36.3874 32.9341C35.5204 32.9486 34.6639 32.743 33.8981 32.3363C33.1322 31.9297 32.4821 31.3354 32.0084 30.6091L28.1824 24.209C28.1334 24.1187 28.1048 24.0186 28.0988 23.916C28.0929 23.8133 28.1095 23.7106 28.1477 23.6152C28.1859 23.5197 28.2447 23.4338 28.3198 23.3636C28.3949 23.2935 28.4846 23.2407 28.5824 23.209C28.7903 23.1177 29.0233 23.1011 29.242 23.162C29.4607 23.2229 29.6516 23.3575 29.7824 23.5431L33.6454 30.0041C34.0989 30.6498 34.7622 31.1184 35.5223 31.3301C36.2824 31.5418 37.0925 31.4835 37.8144 31.1651C38.1573 31.0577 38.4719 30.8752 38.7354 30.6309C38.9989 30.3866 39.2047 30.0867 39.3377 29.7529C39.4707 29.4191 39.5277 29.0599 39.5045 28.7013C39.4813 28.3428 39.3784 27.9939 39.2034 27.6801L37.1304 24.2131C37.0814 24.1227 37.0528 24.0226 37.0468 23.92C37.0408 23.8173 37.0575 23.7146 37.0957 23.6192C37.1339 23.5237 37.1927 23.4378 37.2678 23.3676C37.3429 23.2975 37.4326 23.2447 37.5304 23.2131C37.7383 23.1218 37.9713 23.1051 38.19 23.166C38.4087 23.2269 38.5996 23.3615 38.7304 23.5471L40.8034 27.015C42.0134 29.038 41.0324 31.4981 38.6134 32.5091C37.9074 32.7983 37.1504 32.9428 36.3874 32.9341Z" fill="#FFD873"/>
</svg>
