<svg width="49" height="47" viewBox="0 0 49 47" fill="none" xmlns="http://www.w3.org/2000/svg">
<path opacity="0.11" d="M23 46C35.7025 46 46 35.7025 46 23C46 10.2975 35.7025 0 23 0C10.2975 0 0 10.2975 0 23C0 35.7025 10.2975 46 23 46Z" fill="#0A9A73"/>
<path d="M28.3819 39.2153C35.7013 39.2153 41.6349 33.3909 41.6349 26.2063C41.6349 19.0216 35.7013 13.1973 28.3819 13.1973C21.0625 13.1973 15.1289 19.0216 15.1289 26.2063C15.1289 33.3909 21.0625 39.2153 28.3819 39.2153Z" fill="#FABE2C"/>
<path d="M28.3828 13.2061V39.2281C30.1108 39.2584 31.8275 38.9443 33.4327 38.3039C35.0379 37.6636 36.4995 36.71 37.7322 35.4987C38.9649 34.2875 39.944 32.8428 40.6124 31.249C41.2807 29.6553 41.625 27.9444 41.625 26.2161C41.625 24.4879 41.2807 22.777 40.6124 21.1832C39.944 19.5895 38.9649 18.1448 37.7322 16.9335C36.4995 15.7223 35.0379 14.7686 33.4327 14.1283C31.8275 13.488 30.1108 13.1739 28.3828 13.2041V13.2061Z" fill="#FF9100"/>
<path d="M42.7977 12.0684C39.6713 8.99358 35.6366 7.00903 31.2927 6.40936L32.5627 5.16235C32.6823 5.04588 32.7774 4.90664 32.8423 4.75284C32.9072 4.59904 32.9406 4.43381 32.9406 4.26688C32.9406 4.09994 32.9072 3.93469 32.8423 3.78088C32.7774 3.62708 32.6823 3.48784 32.5627 3.37137C32.3186 3.13386 31.9914 3.00098 31.6508 3.00098C31.3101 3.00098 30.9829 3.13386 30.7388 3.37137L27.4708 6.57837C27.3513 6.69491 27.2563 6.83418 27.1915 6.98798C27.1267 7.14177 27.0933 7.30698 27.0933 7.47388C27.0933 7.64077 27.1267 7.80595 27.1915 7.95975C27.2563 8.11354 27.3513 8.25281 27.4708 8.36935L30.7377 11.5764C30.982 11.8142 31.3094 11.9472 31.6503 11.9472C31.9911 11.9472 32.3185 11.8142 32.5627 11.5764C32.6823 11.46 32.7773 11.3208 32.8422 11.1671C32.9071 11.0134 32.9406 10.8482 32.9406 10.6814C32.9406 10.5145 32.9071 10.3493 32.8422 10.1956C32.7773 10.0419 32.6823 9.90276 32.5627 9.78638L31.8347 9.07135C35.0608 9.77667 38.0217 11.3796 40.3759 13.6953C42.7301 16.0109 44.3818 18.9449 45.1403 22.1588C45.8989 25.3727 45.7334 28.7356 44.663 31.8595C43.5927 34.9835 41.661 37.7411 39.0908 39.8145C36.5206 41.8878 33.4166 43.1924 30.1369 43.5776C26.8573 43.9628 23.5355 43.4131 20.5548 41.9917C17.5742 40.5703 15.056 38.3353 13.2909 35.5445C11.5258 32.7536 10.5856 29.5206 10.5787 26.2184C10.5733 22.5591 11.7392 18.9942 13.9057 16.0453C16.0304 13.133 18.9929 10.938 22.3977 9.75336C22.5562 9.69959 22.7024 9.6148 22.8277 9.50394C22.953 9.39307 23.055 9.25835 23.1277 9.10764C23.2004 8.95692 23.2424 8.79323 23.2512 8.62613C23.2599 8.45903 23.2353 8.29186 23.1788 8.13437C23.0586 7.81648 22.8187 7.55831 22.5104 7.41513C22.2022 7.27196 21.8502 7.25518 21.5297 7.36838C17.6325 8.72367 14.2413 11.2354 11.8087 14.5684C8.99978 18.4075 7.67174 23.1319 8.06897 27.8723C8.46621 32.6128 10.562 37.0503 13.9707 40.3684C17.8279 44.1263 23.0001 46.2293 28.3853 46.2293C33.7704 46.2293 38.9426 44.1263 42.7997 40.3684C44.6893 38.5279 46.1911 36.3276 47.2165 33.8974C48.2419 31.4671 48.7702 28.8561 48.7702 26.2184C48.7702 23.5806 48.2419 20.9696 47.2165 18.5393C46.1911 16.1091 44.6893 13.9088 42.7997 12.0684H42.7977Z" fill="#5C7099"/>
<path d="M29.957 24.9616C28.9797 24.6711 28.0472 24.2471 27.186 23.7016C27.0991 23.6017 27.0388 23.4816 27.0105 23.3523C26.9822 23.223 26.9868 23.0886 27.024 22.9616C27.0567 22.7601 27.1434 22.5713 27.275 22.4153C27.4065 22.2593 27.5779 22.1419 27.771 22.0756C28.0907 21.9674 28.4314 21.9358 28.7656 21.9834C29.0998 22.031 29.4181 22.1564 29.695 22.3496C29.9699 22.551 30.3126 22.6369 30.6501 22.5891C30.9875 22.5413 31.2928 22.3634 31.501 22.0936C31.6024 21.9608 31.6761 21.8091 31.7179 21.6474C31.7598 21.4857 31.7688 21.3173 31.7445 21.152C31.7201 20.9868 31.663 20.8281 31.5763 20.6853C31.4897 20.5425 31.3753 20.4185 31.24 20.3206C30.747 19.9689 30.1909 19.7156 29.602 19.5746V19.2346C29.5926 18.8985 29.4525 18.5794 29.2115 18.345C28.9706 18.1106 28.6476 17.9795 28.3115 17.9795C27.9753 17.9795 27.6524 18.1106 27.4114 18.345C27.1704 18.5794 27.0303 18.8985 27.021 19.2346V19.6526C26.3785 19.8474 25.8022 20.2156 25.3553 20.7166C24.9085 21.2176 24.6083 21.8321 24.488 22.4926C24.357 23.0761 24.3911 23.6845 24.5864 24.2497C24.7818 24.8149 25.1307 25.3145 25.594 25.6926C26.6704 26.4177 27.8505 26.9757 29.094 27.3476C29.424 27.4242 29.7105 27.6277 29.8915 27.9141C30.0725 28.2005 30.1334 28.5466 30.061 28.8776C29.9912 29.2918 29.7759 29.6676 29.4538 29.9372C29.1318 30.2069 28.724 30.3527 28.304 30.3486C27.5219 30.449 26.7311 30.2462 26.094 29.7816C25.8073 29.5975 25.46 29.5329 25.1262 29.6014C24.7925 29.67 24.4988 29.8664 24.308 30.1486C24.2153 30.2875 24.1514 30.4436 24.12 30.6076C24.0886 30.7717 24.0903 30.9403 24.1251 31.1037C24.1598 31.267 24.2269 31.4218 24.3224 31.5588C24.4179 31.6958 24.5398 31.8124 24.681 31.9016C25.3763 32.3917 26.1791 32.7075 27.022 32.8226V33.2026C27.0313 33.5386 27.1714 33.8578 27.4124 34.0921C27.6534 34.3265 27.9763 34.4576 28.3125 34.4576C28.6486 34.4576 28.9716 34.3265 29.2125 34.0921C29.4535 33.8578 29.5936 33.5386 29.603 33.2026V32.6926C30.2123 32.5113 30.7734 32.1959 31.245 31.7696C31.9627 31.1217 32.4429 30.2522 32.609 29.2996C32.775 28.3773 32.5968 27.4262 32.1082 26.6266C31.6195 25.827 30.8534 25.2345 29.957 24.9616Z" fill="#FFE666"/>
<path d="M31.2922 6.40945L32.5632 5.16245C32.6828 5.04598 32.7779 4.90673 32.8428 4.75293C32.9077 4.59913 32.9411 4.4339 32.9411 4.26697C32.9411 4.10003 32.9077 3.93478 32.8428 3.78098C32.7779 3.62717 32.6828 3.48793 32.5632 3.37146C32.3189 3.13389 31.9915 3.00098 31.6507 3.00098C31.3099 3.00098 30.9825 3.13389 30.7382 3.37146L27.4712 6.57846C27.3517 6.695 27.2568 6.83427 27.192 6.98807C27.1271 7.14186 27.0937 7.30707 27.0938 7.47397C27.0937 7.64087 27.1271 7.80605 27.192 7.95984C27.2568 8.11363 27.3517 8.25291 27.4712 8.36945L30.7382 11.5764C30.9824 11.8142 31.3098 11.9473 31.6507 11.9473C31.9916 11.9473 32.319 11.8142 32.5632 11.5764C32.6828 11.4601 32.7778 11.3209 32.8427 11.1672C32.9076 11.0135 32.941 10.8483 32.941 10.6815C32.941 10.5146 32.9076 10.3494 32.8427 10.1957C32.7778 10.042 32.6828 9.90285 32.5632 9.78647L31.8352 9.07144C36.1563 9.84967 40.0253 12.2281 42.6706 15.7323C45.3159 19.2365 46.5433 23.609 46.1078 27.978C45.6723 32.347 43.6061 36.3912 40.3212 39.3044C37.0362 42.2175 32.7739 43.7854 28.3842 43.6955V46.2285C33.7736 46.2513 38.954 44.1448 42.7982 40.3675C44.6877 38.527 46.1895 36.3267 47.2149 33.8965C48.2404 31.4662 48.7687 28.8552 48.7687 26.2175C48.7687 23.5797 48.2404 20.9687 47.2149 18.5385C46.1895 16.1082 44.6877 13.9079 42.7982 12.0674C39.6715 8.99247 35.6364 7.00791 31.2922 6.40845V6.40945Z" fill="#404A80"/>
<path d="M29.9578 24.9613C29.4328 24.7793 28.8808 24.5783 28.3828 24.3613V27.0953C28.6198 27.1833 28.8588 27.2683 29.0978 27.3503C29.4278 27.4269 29.7144 27.6305 29.8954 27.9168C30.0764 28.2032 30.1372 28.5494 30.0648 28.8803C29.9963 29.281 29.7915 29.6457 29.485 29.9127C29.1784 30.1796 28.7891 30.3325 28.3828 30.3453V34.4663C28.7091 34.4518 29.0174 34.3127 29.2444 34.0778C29.4713 33.8429 29.5996 33.5299 29.6028 33.2033V32.6933C30.2123 32.5124 30.7735 32.197 31.2448 31.7703C31.9626 31.1224 32.4428 30.2529 32.6088 29.3003C32.7749 28.3781 32.5966 27.4269 32.108 26.6273C31.6194 25.8278 30.8543 25.2353 29.9578 24.9623V24.9613Z" fill="#FABE2C"/>
<path d="M28.3828 17.9717V21.9717C28.8506 21.9454 29.3135 22.0787 29.6958 22.3497C29.9707 22.5511 30.3135 22.637 30.6509 22.5892C30.9883 22.5414 31.2937 22.3635 31.5018 22.0937C31.6032 21.9609 31.677 21.8092 31.7188 21.6475C31.7606 21.4858 31.7696 21.3173 31.7453 21.1521C31.721 20.9869 31.6638 20.8282 31.5772 20.6854C31.4905 20.5426 31.3762 20.4186 31.2408 20.3207C30.7479 19.969 30.1917 19.7157 29.6028 19.5747V19.2347C29.5996 18.9081 29.4713 18.5951 29.2444 18.3602C29.0174 18.1253 28.7091 17.9862 28.3828 17.9717Z" fill="#FABE2C"/>
</svg>
