<svg width="14" height="14" viewBox="0 0 14 14" fill="none" xmlns="http://www.w3.org/2000/svg">
<path d="M7.10317 13.0214C6.91058 13.0208 6.72488 12.9497 6.58117 12.8215C6.03617 12.3405 5.51017 11.8875 5.04617 11.4895C3.8456 10.523 2.72497 9.46116 1.69517 8.31444C0.861833 7.40647 0.385468 6.22745 0.35417 4.99543C0.335489 3.92637 0.717543 2.88902 1.42517 2.08745C1.76655 1.71105 2.18346 1.41088 2.6487 1.20652C3.11393 1.00216 3.61704 0.898202 4.12517 0.901441C4.89579 0.898477 5.64424 1.15926 6.24617 1.64045C6.57327 1.89808 6.86186 2.20114 7.10317 2.54045C7.3448 2.20108 7.63372 1.89801 7.96117 1.64045C8.56284 1.15948 9.31089 0.898706 10.0812 0.901441C10.5893 0.898202 11.0924 1.00216 11.5576 1.20652C12.0229 1.41088 12.4398 1.71105 12.7812 2.08745C13.4889 2.88897 13.8709 3.92635 13.8522 4.99543C13.8214 6.22719 13.3458 7.40617 12.5132 8.31444C11.4833 9.4608 10.3627 10.5223 9.16217 11.4884C8.69717 11.8884 8.17117 12.3404 7.62417 12.8234C7.48042 12.9507 7.29516 13.0211 7.10317 13.0214ZM4.12517 1.70143C3.7265 1.69858 3.33171 1.77985 2.96659 1.93992C2.60146 2.1 2.2742 2.33531 2.00617 2.63044C1.43386 3.28436 1.12675 4.12865 1.14517 4.99745C1.17478 6.04397 1.58632 7.04348 2.30217 7.80745C3.30311 8.91656 4.39052 9.94447 5.55417 10.8815C6.02017 11.2815 6.54717 11.7354 7.09717 12.2204C7.64917 11.7344 8.17817 11.2804 8.64517 10.8794C9.81144 9.94152 10.9012 8.91227 11.9042 7.80143C12.62 7.03747 13.0316 6.03796 13.0612 4.99144C13.0796 4.12264 12.7725 3.27835 12.2002 2.62443C11.9321 2.32929 11.6049 2.09402 11.2398 1.93394C10.8746 1.77386 10.4798 1.6926 10.0812 1.69545C9.48621 1.69365 8.90854 1.89549 8.44417 2.26744C8.07773 2.56382 7.76864 2.92477 7.53217 3.33244C7.48778 3.40659 7.42492 3.46798 7.34973 3.5106C7.27455 3.55322 7.1896 3.5756 7.10317 3.5756C7.01674 3.5756 6.93179 3.55322 6.85661 3.5106C6.78142 3.46798 6.71856 3.40659 6.67417 3.33244C6.43781 2.92469 6.1287 2.56372 5.76217 2.26744C5.297 1.89765 4.71941 1.69793 4.12517 1.70143Z" fill="#232323"/>
</svg>
