<svg width="15" height="15" viewBox="0 0 15 15" fill="none" xmlns="http://www.w3.org/2000/svg">
<path d="M7.5 14.0869C8.88447 14.0869 10.2378 13.6764 11.389 12.9072C12.5401 12.138 13.4373 11.0448 13.9672 9.7657C14.497 8.48662 14.6356 7.07915 14.3655 5.72129C14.0954 4.36342 13.4287 3.11614 12.4497 2.13717C11.4708 1.1582 10.2235 0.491517 8.86563 0.22142C7.50776 -0.0486763 6.1003 0.0899471 4.82122 0.619761C3.54213 1.14957 2.44888 2.04678 1.67971 3.19793C0.910543 4.34907 0.5 5.70245 0.5 7.08692C0.5 8.94343 1.2375 10.7239 2.55025 12.0367C3.86301 13.3494 5.64348 14.0869 7.5 14.0869Z" fill="#F0F0F0"/>
<path d="M1.94819 2.8252C1.3903 3.55024 0.980522 4.37795 0.742188 5.2612H4.38419L1.94819 2.8252Z" fill="#0052B4"/>
<path d="M14.2592 5.2612C14.0208 4.37796 13.611 3.55025 13.0532 2.8252L10.6172 5.2612H14.2592Z" fill="#0052B4"/>
<path d="M0.742188 8.91309C0.980547 9.79632 1.39033 10.624 1.94819 11.3491L4.38419 8.91309H0.742188Z" fill="#0052B4"/>
<path d="M11.7641 1.53413C11.0391 0.976264 10.2114 0.566484 9.32812 0.328125V3.97012L11.7641 1.53413Z" fill="#0052B4"/>
<path d="M3.23828 12.6401C3.96336 13.1979 4.79107 13.6077 5.67428 13.8461V10.2041L3.23828 12.6401Z" fill="#0052B4"/>
<path d="M5.67428 0.328125C4.79105 0.566484 3.96334 0.976264 3.23828 1.53413L5.67428 3.97012V0.328125Z" fill="#0052B4"/>
<path d="M9.32812 13.8461C10.2113 13.6077 11.039 13.1979 11.7641 12.6401L9.32812 10.2041V13.8461Z" fill="#0052B4"/>
<path d="M10.6172 8.91309L13.0532 11.3491C13.611 10.624 14.0208 9.79632 14.2592 8.91309H10.6172Z" fill="#0052B4"/>
<path d="M14.4412 6.17416H8.41325V0.146164C7.80715 0.0671642 7.19335 0.0671642 6.58725 0.146164V6.17416H0.55925C0.48025 6.78027 0.48025 7.39406 0.55925 8.00016H6.58725V14.0282C7.19335 14.1072 7.80715 14.1072 8.41325 14.0282V8.00016H14.4412C14.5203 7.39406 14.5203 6.78026 14.4412 6.17416Z" fill="#D80027"/>
<path d="M9.32812 8.91309L12.4521 12.0371C12.5955 11.8938 12.7325 11.7441 12.8631 11.5881L10.1891 8.91309H9.32812Z" fill="#D80027"/>
<path d="M5.67478 8.91309L2.55078 12.0371C2.69411 12.1804 2.84378 12.3174 2.99978 12.4481L5.67478 9.77409V8.91309Z" fill="#D80027"/>
<path d="M5.67562 5.26072L2.55162 2.13672C2.40829 2.28005 2.27129 2.42972 2.14062 2.58572L4.81463 5.26072H5.67562Z" fill="#D80027"/>
<path d="M9.32812 5.26156L12.4521 2.13756C12.3088 1.99356 12.1591 1.85656 12.0031 1.72656L9.32812 4.40056V5.26156Z" fill="#D80027"/>
</svg>
