<svg width="39" height="33" viewBox="0 0 39 33" fill="none" xmlns="http://www.w3.org/2000/svg">
<path d="M20.7642 30.3268C20.7667 29.9022 20.895 29.4878 21.1328 29.1359C21.3706 28.7841 21.7073 28.5105 22.1003 28.3498C22.4934 28.1891 22.9253 28.1483 23.3415 28.2327C23.7577 28.3171 24.1396 28.523 24.439 28.8242C24.7383 29.1254 24.9418 29.5084 25.0237 29.9251C25.1057 30.3418 25.0623 30.7735 24.8992 31.1656C24.7361 31.5577 24.4606 31.8927 24.1073 32.1284C23.754 32.364 23.3389 32.4898 22.9142 32.4898C22.3423 32.488 21.7945 32.2591 21.3914 31.8535C20.9882 31.4478 20.7626 30.8987 20.7642 30.3268ZM13.7001 30.3268C13.7027 29.9022 13.831 29.4878 14.0688 29.1359C14.3066 28.7841 14.6433 28.5105 15.0364 28.3498C15.4295 28.1891 15.8613 28.1483 16.2775 28.2327C16.6937 28.3171 17.0756 28.523 17.375 28.8242C17.6744 29.1254 17.8779 29.5084 17.9598 29.9251C18.0417 30.3418 17.9983 30.7735 17.8352 31.1656C17.6721 31.5577 17.3966 31.8927 17.0433 32.1284C16.69 32.364 16.2748 32.4898 15.8502 32.4898C15.2783 32.488 14.7305 32.2591 14.3273 31.8535C13.9242 31.4478 13.6985 30.8987 13.7001 30.3268ZM7.99414 26.1318C7.63381 26.0897 7.30154 25.9168 7.06036 25.6458C6.81918 25.3748 6.68591 25.0246 6.68591 24.6618C6.68591 24.299 6.81918 23.9489 7.06036 23.6779C7.30154 23.4069 7.63381 23.2339 7.99414 23.1918H27.7701L34.7172 6.68384L19.5922 6.70184C19.2325 6.66081 18.9005 6.48884 18.6595 6.21875C18.4185 5.94866 18.2852 5.5993 18.2852 5.2373C18.2852 4.87531 18.4185 4.52601 18.6595 4.25592C18.9005 3.98583 19.2325 3.81386 19.5922 3.77283L36.7042 3.75482C36.9246 3.74075 37.1445 3.78855 37.3392 3.89282C37.6637 4.08607 37.9064 4.39119 38.0217 4.75085C38.137 5.11052 38.1168 5.49994 37.9651 5.84583L29.8202 25.1998C29.7392 25.4635 29.5778 25.6952 29.3588 25.8629C29.1397 26.0305 28.8738 26.1256 28.5981 26.1348L7.99414 26.1318ZM1.31213 26.1318C0.951806 26.0897 0.619536 25.9168 0.378357 25.6458C0.137178 25.3748 0.00390625 25.0246 0.00390625 24.6618C0.00390625 24.299 0.137178 23.9489 0.378357 23.6779C0.619536 23.4069 0.951806 23.2339 1.31213 23.1918H4.08813C4.44846 23.2339 4.78079 23.4069 5.02197 23.6779C5.26315 23.9489 5.39642 24.299 5.39642 24.6618C5.39642 25.0246 5.26315 25.3748 5.02197 25.6458C4.78079 25.9168 4.44846 26.0897 4.08813 26.1318H1.31213ZM3.48816 19.1318C3.12783 19.0897 2.7955 18.9168 2.55432 18.6458C2.31314 18.3748 2.17993 18.0246 2.17993 17.6618C2.17993 17.299 2.31314 16.9489 2.55432 16.6779C2.7955 16.4069 3.12783 16.2339 3.48816 16.1918H25.7742C26.1345 16.2339 26.4668 16.4069 26.708 16.6779C26.9492 16.9489 27.0824 17.299 27.0824 17.6618C27.0824 18.0246 26.9492 18.3748 26.708 18.6458C26.4668 18.9168 26.1345 19.0897 25.7742 19.1318H3.48816ZM25.1882 12.3778C24.8278 12.3357 24.4955 12.1627 24.2543 11.8917C24.0132 11.6207 23.8799 11.2706 23.8799 10.9078C23.8799 10.5451 24.0132 10.1949 24.2543 9.92389C24.4955 9.65289 24.8278 9.47991 25.1882 9.43781H27.9642C28.3245 9.47991 28.6568 9.65289 28.898 9.92389C29.1392 10.1949 29.2724 10.5451 29.2724 10.9078C29.2724 11.2706 29.1392 11.6207 28.898 11.8917C28.6568 12.1627 28.3245 12.3357 27.9642 12.3778H25.1882ZM6.97314 12.3778C6.61282 12.3357 6.28055 12.1627 6.03937 11.8917C5.79819 11.6207 5.66492 11.2706 5.66492 10.9078C5.66492 10.5451 5.79819 10.1949 6.03937 9.92389C6.28055 9.65289 6.61282 9.47991 6.97314 9.43781H8.72314L6.90015 2.93781H2.42316C2.0626 2.89778 1.7295 2.72623 1.48755 2.45593C1.2456 2.18564 1.11182 1.83561 1.11182 1.47284C1.11182 1.11007 1.2456 0.760044 1.48755 0.489746C1.7295 0.219449 2.0626 0.0478395 2.42316 0.0078125H7.86115C8.15298 0.0191755 8.43306 0.126005 8.65833 0.31189C8.88359 0.497774 9.0416 0.752431 9.10815 1.0368L11.4651 9.44183H21.2802C21.6405 9.48393 21.9728 9.65692 22.214 9.92792C22.4552 10.1989 22.5884 10.549 22.5884 10.9118C22.5884 11.2746 22.4552 11.6248 22.214 11.8958C21.9728 12.1668 21.6405 12.3397 21.2802 12.3818L6.97314 12.3778Z" fill="#76A713"/>
</svg>
