<svg width="205" height="272" viewBox="0 0 205 272" fill="none" xmlns="http://www.w3.org/2000/svg">
<g opacity="0.13">
<path d="M-38.1451 195.729C-36.793 193.9 -35.4874 192.034 -34.0793 190.252C-32.4181 188.149 -30.7023 186.089 -28.9517 184.061C-27.7117 182.625 -26.3807 181.27 -25.0775 179.891C-23.6557 178.39 -22.172 176.956 -20.6261 175.589C-17.965 173.238 -15.1953 171.036 -12.3409 168.946C-6.17721 164.55 0.408114 160.777 7.31805 157.684C11.4595 155.709 15.7099 153.971 20.0486 152.478C22.247 151.749 24.4596 151.063 26.6631 150.355C26.9118 150.271 27.1494 150.18 27.417 150.084C27.3828 149.947 27.3874 149.825 27.3335 149.773C25.1871 147.664 23.3593 145.253 21.9079 142.617C20.3735 139.957 19.1298 137.14 18.1984 134.214C17.6605 132.477 17.271 130.698 17.0342 128.895C16.3846 124.136 16.1169 119.333 16.2338 114.531C16.3104 110.242 17.0584 105.992 18.4506 101.934C20.051 97.3007 22.4461 92.9816 25.5284 89.1701C27.2614 87.0871 29.2333 85.2149 31.4034 83.5922C36.1999 80.0535 41.4518 77.1778 47.0169 75.0426C49.1402 74.1804 51.2743 73.3468 53.4193 72.5419C57.754 70.897 61.9432 68.8916 65.9428 66.5467C70.0779 64.1 74.4121 62.0066 78.8994 60.289C85.6353 57.7746 92.6782 56.1753 99.8395 55.5338C110.129 54.5157 120.515 55.1055 130.623 57.2821C134.649 58.1744 138.686 59.0329 142.767 59.6988C146.274 60.2717 149.806 60.6965 153.363 60.9733C157.129 61.2371 160.91 61.2282 164.675 60.9468C168.031 60.7267 171.384 60.4744 174.74 60.2687C175.582 60.2169 176.426 60.2878 177.268 60.3177C177.461 60.3297 177.651 60.371 177.831 60.4403C177.956 60.4819 178.065 60.5599 178.145 60.6642C178.224 60.7685 178.271 60.8943 178.279 61.0254C178.33 61.5228 178.405 62.0135 178.414 62.5067C178.458 66.3896 178.968 70.2115 179.308 74.0546C179.546 76.7406 179.787 79.4228 179.808 82.1342C179.814 90.1158 178.307 98.0261 175.367 105.447C173.946 109.011 172.343 112.499 170.562 115.898C168.156 120.62 165.793 125.362 163.763 130.256C162.035 134.427 160.465 138.657 158.925 142.893C157.008 148.148 155.119 153.413 153.172 158.658C151.838 162.249 150.477 165.832 148.89 169.329C147.656 172.128 146.162 174.805 144.427 177.323C143.009 179.313 141.414 181.171 139.662 182.874C137.415 185.082 135.071 187.176 132.632 189.157C131.216 190.304 129.845 191.509 128.414 192.634C126.239 194.342 124.046 196.023 121.835 197.676C119.36 199.528 116.791 201.252 114.139 202.84C106.229 207.694 97.3655 210.785 88.1522 211.901C83.3273 212.45 78.4599 212.519 73.6214 212.107C67.4407 211.611 61.4366 209.804 56.0091 206.806C52.2385 204.742 48.7204 202.247 45.5256 199.372C41.9045 196.075 38.59 192.457 35.6229 188.561C32.7128 184.855 30.2892 180.792 28.4113 176.47C26.7612 172.63 25.9245 168.49 25.9539 164.311C25.97 162.799 26.1023 161.29 26.3496 159.798C26.6865 157.722 27.34 155.71 28.2872 153.832C28.5137 153.516 28.6518 153.146 28.6875 152.76C28.4904 152.766 28.2941 152.786 28.1001 152.821C27.3975 153.002 26.6953 153.19 25.9968 153.394C15.6524 156.449 5.68442 160.657 -3.719 165.941C-6.64402 167.587 -9.47399 169.397 -12.1955 171.361C-15.4163 173.645 -18.4839 176.138 -21.3788 178.822C-23.4061 180.717 -25.3177 182.733 -27.1907 184.79C-30.5268 188.453 -33.5735 192.359 -36.6201 196.268C-36.7869 196.482 -36.9639 196.687 -37.135 196.892C-37.4711 196.507 -37.8078 196.119 -38.1451 195.729ZM141.976 176.771C141.762 176.484 141.569 176.191 141.343 175.923C139.341 173.531 136.924 171.518 134.209 169.98C130.434 167.918 126.45 166.263 122.325 165.042C120.418 164.463 118.489 163.954 116.556 163.455C109.566 161.732 102.874 158.97 96.7038 155.26C92.9316 152.944 88.9468 150.994 84.8036 149.436C80.8659 147.953 76.8425 146.714 72.7766 145.6C70.904 145.114 69.0049 144.736 67.0887 144.469C66.4751 144.372 65.8472 144.433 65.2637 144.646C63.8253 145.147 62.379 145.63 60.9176 146.041C58.5976 146.694 56.2642 147.279 53.9359 147.896C53.6614 147.964 53.3563 147.96 53.1509 148.203C53.1601 148.263 53.1525 148.308 53.1719 148.325C53.2614 148.414 53.3593 148.494 53.4642 148.565C54.7647 149.394 55.9402 150.406 56.9552 151.567C58.5238 153.32 60.092 155.07 61.6826 156.8C62.6631 157.865 63.6517 158.924 64.6936 159.926C67.5387 162.668 70.4557 165.327 73.4886 167.852C75.9588 169.947 78.662 171.752 81.5448 173.229C82.6319 173.775 83.716 174.338 84.8347 174.817C88.6385 176.447 92.4393 178.082 96.2672 179.639C101.923 181.939 107.728 183.857 113.641 185.378C116.603 186.143 119.519 187.051 122.409 188.027C124.033 188.535 125.586 189.249 127.027 190.154C127.181 190.255 127.35 190.336 127.551 190.446C128.001 190.1 128.437 189.788 128.852 189.447C130.334 188.221 131.8 186.972 133.287 185.754C135.795 183.686 138.135 181.423 140.288 178.987C140.942 178.323 141.51 177.578 141.976 176.771ZM96.619 58.0238C96.2873 57.7836 95.9554 57.9342 95.6448 57.9774C93.4032 58.2895 91.1761 58.7012 88.9633 59.2126C85.4812 60.011 82.0609 61.0581 78.7287 62.3459C78.5065 62.414 78.306 62.5391 78.1473 62.7089C77.9887 62.8786 77.8772 63.087 77.8242 63.3133C77.3774 64.8368 77.0211 66.3855 76.7571 67.9511C76.585 69.0143 76.4171 70.08 76.2104 71.1423C75.4364 75.1692 75.0969 79.2675 75.1978 83.3668C75.2691 86.6401 75.3807 89.9084 75.4409 93.1808C75.4651 94.4472 75.4621 95.724 75.3668 96.9932C74.9879 101.591 73.7136 106.071 71.6155 110.18C70.9819 111.455 70.2707 112.695 69.5749 113.941C65.2736 121.344 62.6882 129.618 62.0093 138.152C61.8778 139.515 61.9331 140.89 62.1738 142.238C62.2228 142.429 62.2822 142.617 62.3516 142.802C62.7276 142.691 63.0454 142.618 63.3544 142.504C65.561 141.679 67.7795 140.894 69.9638 140.006C74.3399 138.255 78.5304 136.072 82.4731 133.489C82.9822 133.158 83.384 132.687 83.6293 132.132C85.4701 128.242 86.3575 123.97 86.2179 119.669C86.1776 118.402 86.0418 117.144 85.9718 115.879C85.894 114.482 85.8141 113.083 85.7875 111.685C85.7608 109.73 86.0161 107.781 86.5458 105.899C86.815 104.921 87.0886 103.943 87.3508 102.963C88.4302 99.7301 88.6535 96.2725 87.999 92.9275C87.8014 91.48 87.6172 90.0312 87.3948 88.5898C86.7056 84.2529 87.5834 79.8124 89.8708 76.0639C90.4046 75.1561 90.9178 74.2361 91.4544 73.3312C92.6242 71.4171 93.541 69.3594 94.1819 67.2096C94.9863 64.3797 95.7327 61.5336 96.4994 58.6927C96.5613 58.4732 96.5806 58.241 96.619 58.0238ZM44.594 149.784C44.7453 149.962 44.8349 150.09 44.9479 150.195C45.7409 150.952 46.4527 151.79 47.0717 152.695C48.287 154.462 49.3515 156.327 50.2536 158.273C51.1815 160.211 52.057 162.179 53.021 164.099C54.2048 166.372 55.512 168.579 56.9369 170.709C58.9323 173.842 61.2032 176.79 63.7225 179.519C65.3492 181.252 67.1184 182.846 69.0116 184.283C71.191 185.915 73.464 187.418 75.8191 188.785C78.7555 190.493 81.5573 192.423 84.1999 194.558C86.0084 196.045 87.742 197.62 89.4546 199.221C91.4241 201.022 93.2934 202.929 95.0539 204.934C95.6411 205.617 96.2968 206.236 96.9348 206.872C97.7182 207.649 97.5495 207.621 98.7166 207.269L98.8112 207.24C106.009 204.927 112.789 201.474 118.892 197.012C120.696 195.719 122.475 194.389 124.256 193.059C124.824 192.636 125.362 192.174 125.908 191.724C125.958 191.655 125.997 191.579 126.025 191.498C125.836 191.174 125.532 190.933 125.174 190.821C123.884 190.168 122.525 189.66 121.123 189.305C117.328 188.307 113.529 187.316 109.727 186.331C107.076 185.649 104.448 184.91 101.844 184.077C95.4768 182.034 89.3101 179.483 83.1527 176.916C78.085 174.793 73.438 171.78 69.4314 168.02C68.1147 166.796 66.7843 165.587 65.4661 164.366C63.4458 162.524 61.5382 160.563 59.7536 158.492C58.8768 157.46 58.0097 156.42 57.1282 155.392C56.3329 154.461 55.5492 153.519 54.7146 152.627C53.3883 151.227 51.8921 150 50.2608 148.972C50.1274 148.882 49.9773 148.82 49.8194 148.789C49.6615 148.758 49.4991 148.76 49.3417 148.793C47.9195 149.051 46.4954 149.299 45.0769 149.561C44.9084 149.619 44.7464 149.694 44.5935 149.785L44.594 149.784ZM66.1625 68.7402C65.7434 68.9387 65.5003 69.0422 65.2716 69.1627C64.2423 69.7108 63.2272 70.3072 62.1779 70.8165C60.3487 71.7077 58.501 72.5481 56.6611 73.4083C56.2835 73.546 55.9436 73.7706 55.6687 74.0639C54.7627 75.1621 53.8145 76.2256 52.9124 77.3251C51.4035 79.1157 49.9886 80.9836 48.6737 82.9213C46.1244 86.8542 43.8549 90.9616 41.882 95.2129C40.4448 98.2471 39.2379 101.385 38.2715 104.6C37.0309 108.767 36.4606 113.105 36.5818 117.45C36.626 119.542 36.902 121.622 37.4047 123.653C37.5562 124.261 37.71 124.869 37.8746 125.471C38.6848 128.543 39.2618 131.672 39.6005 134.831C39.8512 136.964 39.7562 139.123 39.3193 141.226C38.93 143.222 38.321 145.168 37.5034 147.029C37.3938 147.267 37.3239 147.522 37.2131 147.858C37.5518 147.828 37.8049 147.82 38.056 147.781C39.0277 147.63 39.9938 147.468 40.9667 147.313C44.3654 146.755 47.7637 146.196 51.1614 145.636C52.0355 145.488 52.9042 145.305 53.7742 145.128C54.0027 145.068 54.2278 144.995 54.4486 144.911C54.4727 144.537 54.5014 144.207 54.5122 143.877C54.588 141.465 54.6405 139.054 54.7415 136.647C54.8597 133.747 54.7481 130.841 54.4079 127.958C54.1591 125.815 53.9461 123.665 53.7689 121.508C53.4415 117.914 53.3898 114.3 53.6142 110.698C53.9701 106.258 54.7848 101.867 56.0452 97.5948C57.0997 93.8827 58.2826 90.2092 59.6793 86.5954C60.5355 84.3822 61.3816 82.1665 62.2648 79.9626C63.2167 77.6017 64.1081 75.223 64.842 72.7882C65.1647 71.721 65.5578 70.6727 65.914 69.6139C65.9829 69.3964 66.0379 69.1728 66.1625 68.7402ZM36.0451 151.17C36.0689 151.288 36.1056 151.404 36.1548 151.514C36.5822 152.219 36.8406 153.013 36.9097 153.834C36.9839 154.462 37.0291 155.093 37.0568 155.725C37.2511 160.307 37.1525 164.898 36.7615 169.468C36.6449 170.838 36.5382 172.214 36.4965 173.584C36.4567 174.55 36.4911 175.518 36.5995 176.479C36.8703 178.913 37.2969 181.328 37.8765 183.708C38.0997 184.606 38.2606 185.519 38.3578 186.439C38.4037 186.96 38.6048 187.455 38.9351 187.86C41.7165 191.365 44.7752 194.641 48.0818 197.655C51.2862 200.519 54.8184 202.994 58.6046 205.028C62.2867 207.08 66.2907 208.492 70.4457 209.203C74.9114 209.853 79.4298 210.068 83.937 209.843C84.095 209.828 84.2518 209.803 84.4067 209.768C84.5588 209.414 84.4059 209.142 84.3109 208.875C83.9194 207.84 83.3703 206.871 82.6833 206.004C80.8704 203.54 78.6979 201.362 76.2385 199.543C73.8553 197.813 71.4815 196.069 69.1172 194.308C66.7501 192.595 64.5445 190.67 62.5278 188.556C59.6035 185.46 56.9147 182.15 54.4839 178.653C52.8038 176.187 51.2907 173.611 49.9545 170.942C48.7983 168.643 47.8386 166.247 46.8525 163.861C45.8472 161.282 44.6131 158.799 43.165 156.44C42.0292 154.67 40.8348 152.94 39.6526 151.203C39.4876 150.982 39.3097 150.771 39.1198 150.571C38.0699 150.609 37.0325 150.811 36.0451 151.17ZM103.467 114.829L103.615 114.971C103.753 114.898 103.886 114.817 104.014 114.729C106.746 112.662 109.626 110.8 112.631 109.156C114.04 108.386 115.464 107.65 116.894 106.934C117.129 106.847 117.343 106.71 117.521 106.534C117.699 106.357 117.837 106.144 117.926 105.909C118.066 105.563 118.25 105.236 118.472 104.935C119.969 102.585 121.204 100.078 122.154 97.4578C122.344 96.9486 122.545 96.4458 122.743 95.9448C123.622 93.7343 124.671 91.5953 125.88 89.5468C126.464 88.5505 127.069 87.5675 127.664 86.5775C130.325 82.2308 132.406 77.5546 133.854 72.6679C134.106 71.7904 134.413 70.926 134.693 70.0547C135.624 67.0688 136.988 64.2356 138.741 61.6455C138.847 61.4931 139.031 61.3437 138.928 61.1137C133.374 59.6696 127.738 58.5677 122.049 57.8143C121.97 57.8682 121.897 57.93 121.83 57.9988C121.661 58.2113 121.496 58.4259 121.347 58.6525C118.25 63.367 115.57 68.3427 113.337 73.5231C110.279 80.5404 108.398 88.0138 107.769 95.6429C107.637 97.3165 107.493 98.9895 107.337 100.662C107.106 103.215 106.663 105.745 106.013 108.225C105.475 110.365 104.688 112.435 103.669 114.392C103.594 114.533 103.533 114.683 103.467 114.829ZM95.8036 125.221C95.6162 125.393 95.4913 125.5 95.3736 125.618C94.0419 126.918 92.7456 128.26 91.3683 129.511C89.9681 130.781 88.5121 131.995 87.0374 133.168C85.8534 134.113 84.5984 134.969 83.3819 135.871C83.2392 135.977 82.993 136.045 83.1046 136.358C83.2804 136.37 83.469 136.39 83.664 136.398C85.6688 136.445 87.6568 136.775 89.5689 137.379C91.221 137.905 92.8811 138.426 94.4796 139.087C97.5303 140.353 100.556 141.673 103.557 143.047C109.095 145.585 114.712 147.941 120.408 150.114C124.16 151.541 128.034 152.623 131.883 153.776C134.324 154.493 136.801 155.08 139.305 155.535C141.716 155.988 144.18 156.149 146.618 156.456C148.173 156.541 149.694 156.939 151.091 157.627C151.187 157.476 151.272 157.319 151.345 157.156C152.175 154.861 153.001 152.565 153.821 150.266C153.862 150.103 153.888 149.937 153.898 149.769C153.677 149.682 153.503 149.606 153.325 149.541C152.323 149.2 151.317 148.865 150.313 148.524C146.405 147.26 142.578 145.76 138.852 144.031C134.324 141.84 129.993 139.263 125.907 136.327C124.085 135.024 122.238 133.75 120.312 132.604C117.801 131.072 114.956 130.174 112.021 129.988C110.79 129.914 109.562 129.832 108.331 129.76C106.587 129.686 104.86 129.383 103.195 128.86C101.006 128.122 98.9052 127.147 96.9294 125.951C96.5695 125.738 96.2323 125.499 95.8036 125.221ZM60.344 143.425C60.3114 143.256 60.2628 143.09 60.1989 142.93C59.4821 141.573 59.1986 140.028 59.3867 138.504C59.5387 136.729 59.7441 134.96 59.9692 133.191C60.1936 131.448 60.5872 129.731 61.1446 128.064C61.8624 125.912 62.587 123.759 63.3779 121.629C64.3811 118.921 65.6462 116.318 67.1552 113.855C67.5665 113.19 67.9505 112.509 68.3479 111.837C71.8292 106.113 73.5606 99.4948 73.3291 92.7986C73.2542 90.6653 73.2253 88.527 73.1548 86.394C72.9064 80.8542 73.3434 75.305 74.456 69.8723C74.8028 67.8717 75.352 65.9115 76.0952 64.022C76.1446 63.8385 76.1729 63.6501 76.1796 63.4602C75.7443 63.6373 75.406 63.7595 75.0784 63.9068C73.0477 64.8321 71.0741 65.8897 69.1074 66.9689C68.8554 67.0985 68.6315 67.2767 68.4487 67.4932C68.2659 67.7098 68.1279 67.9604 68.0424 68.2306C67.2809 70.3731 66.6117 72.5399 66.0347 74.731C65.3573 77.2514 64.5284 79.7286 63.5526 82.1492C63.1888 83.0634 62.8074 83.9717 62.4363 84.8827C60.4076 89.8484 58.6021 94.888 57.0198 100.001C55.4074 105.152 54.6474 110.531 54.7697 115.926C54.8032 117.294 54.8633 118.661 54.9501 120.026C55.1411 122.987 55.5118 125.917 55.9287 128.841C56.2531 131.049 56.417 133.279 56.4193 135.511C56.4129 138.254 56.3306 140.998 56.0593 143.745C56.0351 143.999 55.9181 144.281 56.1831 144.542C57.5295 144.226 58.8935 143.851 60.344 143.425ZM32.1825 148.962C32.2412 148.298 32.3072 147.73 32.3395 147.163C32.4236 145.752 32.6045 144.348 32.8812 142.961C33.6204 139.243 33.7041 135.424 33.1284 131.677C32.9706 130.629 32.7852 129.584 32.5629 128.552C31.6373 124.17 31.0249 119.728 30.7303 115.26C30.6674 114.394 30.6526 113.525 30.6633 112.653C30.7556 110.03 31.0653 107.42 31.5894 104.848C31.9169 103.083 32.4269 101.356 33.1112 99.696C34.4167 96.4869 36.0413 93.417 37.9603 90.5326C40.191 87.0802 42.0156 83.3818 43.3976 79.5108C43.4503 79.3115 43.4884 79.1086 43.5116 78.9038C43.1261 78.9481 42.7556 79.0793 42.4282 79.2876C39.0696 80.8882 35.8781 82.8178 32.9003 85.0482C30.8824 86.5335 29.0523 88.2584 27.4503 90.1849C21.8104 97.0448 18.7015 105.636 18.6451 114.516C18.576 119.219 18.8684 123.92 19.5196 128.578C19.8314 130.797 20.393 132.974 21.1935 135.067C21.8185 136.715 22.53 138.329 23.3252 139.901C24.8621 143.082 26.8716 146.011 29.2854 148.59C29.464 148.775 29.6475 148.958 29.8273 149.139C29.9171 149.233 30.0308 149.3 30.1562 149.335C30.2816 149.369 30.4139 149.368 30.539 149.333L32.1825 148.962ZM91.1438 126.252C92.0601 125.644 92.8996 124.927 93.6441 124.118C95.3806 122.41 97.1165 120.698 98.8688 119.007C99.2949 118.62 99.6621 118.172 99.9586 117.678C100.126 117.384 100.319 117.103 100.503 116.818C101.669 115.022 102.581 113.074 103.213 111.029C104.271 107.574 104.993 104.024 105.367 100.43C105.603 98.29 105.814 96.1493 106.02 94.0108C106.974 84.172 110.001 74.6467 114.901 66.062C116.35 63.2926 118.022 60.6459 119.9 58.1483C120.014 58.0032 120.204 57.8641 120.1 57.5861C119.995 57.5404 119.886 57.5059 119.774 57.4831C115.409 57.0568 111.021 56.9115 106.637 57.0483C105.54 57.0497 104.444 57.1087 103.353 57.2251C103.047 57.8481 102.763 58.4218 102.482 58.9975C101.907 60.1511 101.558 61.4037 101.452 62.6882C101.313 64.4566 101.282 66.2317 101.358 68.0039C101.409 69.136 101.452 70.2701 101.468 71.4053C101.505 73.771 101.105 76.1232 100.288 78.3436C99.8467 79.551 99.3406 80.7389 98.836 81.9244C98.315 83.1408 97.738 84.3341 97.225 85.5529C96.3936 87.4827 95.8114 89.5106 95.4925 91.5876C95.2767 93.0165 95.0541 94.4531 94.9547 95.8901C94.7366 99.0373 94.5912 102.184 94.4159 105.33C94.2708 107.975 94.1362 110.618 93.9804 113.264C93.6985 117.515 92.7945 121.701 91.2973 125.69C91.2319 125.869 91.1942 126.06 91.143 126.246L91.1438 126.252ZM160.076 133.052C159.637 132.943 159.298 132.853 158.956 132.781C158.543 132.691 158.131 132.623 157.721 132.545C154.079 131.836 150.508 130.88 146.926 129.93C139.709 128.017 132.592 125.811 125.516 123.473C123.748 122.887 121.964 122.344 120.17 121.834C117.877 121.176 115.538 120.687 113.173 120.371C108.915 119.969 104.622 120.165 100.419 120.953C100.053 121.01 99.718 121.19 99.4678 121.462C98.78 122.164 98.0845 122.856 97.3932 123.556C97.2832 123.667 97.1375 123.787 97.2309 123.995C98.1324 124.384 99.0496 124.76 99.9475 125.172C100.878 125.6 101.781 126.087 102.716 126.508C103.953 127.057 105.267 127.416 106.611 127.572C107.639 127.698 108.674 127.772 109.703 127.864C110.992 127.983 112.287 128.068 113.568 128.225C115.681 128.48 117.733 129.102 119.632 130.064C120.497 130.481 121.339 130.943 122.156 131.449C124.248 132.809 126.324 134.196 128.384 135.612C132.616 138.621 137.145 141.189 141.9 143.276C145.915 144.97 149.994 146.528 154.046 148.139C154.2 148.18 154.359 148.201 154.519 148.203C156.371 143.166 158.199 138.174 160.075 133.046L160.076 133.052ZM113.921 110.882C114.115 110.967 114.315 111.036 114.519 111.089C116.332 111.377 118.107 111.869 119.809 112.556C121.416 113.182 123.015 113.863 124.594 114.566C126.702 115.503 128.787 116.489 130.886 117.448C134.785 119.267 138.836 120.74 142.992 121.851C144.547 122.257 146.084 122.724 147.632 123.162C152.396 124.508 157.2 125.729 161.82 127.507C161.976 127.547 162.136 127.571 162.297 127.578C162.41 127.366 162.52 127.195 162.598 127.012C164.434 122.776 166.524 118.659 168.583 114.529C169.294 113.1 169.969 111.655 170.653 110.216C170.749 110.01 170.91 109.803 170.735 109.533C169.368 109.269 167.97 109.044 166.556 108.915C162.706 108.573 158.837 108.477 154.974 108.626C152.208 108.724 149.441 108.814 146.673 108.968C142.849 109.163 139.014 108.933 135.241 108.282C131.067 107.585 126.85 107.162 122.615 106.861C122.225 106.818 121.83 106.874 121.467 107.024C119.092 108.075 116.748 109.193 114.465 110.46C114.274 110.585 114.092 110.724 113.921 110.876L113.921 110.882ZM69.5499 143.087L69.5738 143.288C69.7914 143.328 70.0097 143.37 70.2263 143.412C71.1763 143.592 72.1371 143.736 73.0762 143.957C74.9255 144.401 76.7662 144.869 78.5984 145.362C85.2536 147.089 91.6393 149.724 97.576 153.193C102.574 156.155 107.904 158.52 113.455 160.236C115.449 160.859 117.453 161.451 119.453 162.052C123.435 163.193 127.322 164.644 131.079 166.391C133.714 167.57 136.181 169.092 138.418 170.918C139.864 172.098 141.168 173.443 142.304 174.925C142.461 175.119 142.629 175.306 142.806 175.483C144.388 174.188 148.666 164.713 149.531 161.683C149.428 161.619 149.317 161.569 149.201 161.533C148.28 161.371 147.364 161.16 146.432 161.078C143.206 160.794 139.995 160.407 136.794 159.953C133.18 159.438 129.54 159.064 125.947 158.428C121.17 157.686 116.46 156.566 111.861 155.076C109.496 154.256 107.14 153.406 104.815 152.485C101.863 151.317 98.9525 150.048 96.011 148.854C91.2335 146.867 86.316 145.235 81.2985 143.971C78.1735 143.147 74.9743 142.634 71.7481 142.442C70.9716 142.459 70.2131 142.679 69.5482 143.08L69.5499 143.087ZM176.1 64.029C175.945 64.1232 175.796 64.2266 175.653 64.3385C175.016 64.9448 174.371 65.5407 173.753 66.1678C171.19 68.7774 168.827 71.5739 166.496 74.3989C164.057 77.3537 161.701 80.3773 159.13 83.2155C157.105 85.451 155.058 87.6624 152.841 89.7032C152.642 89.8856 152.438 90.064 152.251 90.2585C152.164 90.3831 152.091 90.5169 152.033 90.6574C152.353 90.6513 152.574 90.6662 152.79 90.6453C153.799 90.5356 154.805 90.4248 155.812 90.2997C158.074 89.9867 160.357 89.8595 162.639 89.9195C167.064 90.118 171.462 90.7051 175.784 91.6742C175.991 91.7189 176.214 91.7362 176.487 91.7708C176.567 91.2845 176.651 90.8591 176.709 90.4299C177.267 86.2808 177.385 82.0844 177.06 77.9105C176.723 73.5325 176.266 69.1675 176.188 64.7589C176.172 64.5142 176.142 64.2706 176.1 64.029ZM141.145 95.9914L141.284 96.1251C141.548 95.9946 141.805 95.8496 142.052 95.6908C143.51 94.6672 144.981 93.6648 146.405 92.5898C148.237 91.2066 149.978 89.7073 151.618 88.1012C153.652 86.1131 155.559 84.0052 157.429 81.8572C157.932 81.3515 158.364 80.7803 158.715 80.1591C159.946 77.7814 160.637 75.161 160.738 72.4852C160.752 71.5496 160.798 70.6126 160.833 69.6755C160.86 67.6143 161.265 65.5755 162.026 63.6596C162.088 63.5151 162.184 63.3476 161.995 63.1549C161.821 63.1383 161.646 63.1306 161.471 63.1317C158.583 63.2697 155.689 63.2293 152.806 63.0105C152.616 63.0103 152.426 63.025 152.238 63.0544C151.939 63.6646 151.644 64.2373 151.373 64.8209C150.364 66.9702 149.338 69.1119 148.361 71.2766C147.669 72.8218 147.197 74.4564 146.96 76.1326C146.716 77.7994 146.459 79.4611 146.246 81.1298C145.756 85.236 144.542 89.2229 142.661 92.9054C142.24 93.7178 141.826 94.5353 141.414 95.3529C141.303 95.5614 141.228 95.7776 141.14 95.9897L141.145 95.9914ZM126.338 102.646C126.744 102.533 126.927 102.499 127.101 102.431C129.64 101.449 132.181 100.484 134.706 99.4675C135.937 98.9718 137.129 98.3686 138.345 97.8308C138.686 97.6841 138.963 97.4194 139.125 97.0853C140.176 95.0684 141.286 93.0827 142.288 91.0445C143.561 88.5353 144.293 85.7866 144.436 82.9766C144.484 81.8726 144.537 80.7693 144.597 79.6666C144.642 78.7954 144.678 77.9243 144.748 77.0564C145.199 72.029 147.178 67.2599 150.418 63.3895C150.504 63.2655 150.581 63.1361 150.65 63.0021C150.552 62.9115 150.514 62.8408 150.46 62.8325C148.254 62.5245 146.047 62.2199 143.838 61.9189C143.716 61.9127 143.593 61.917 143.471 61.9317C143.016 62.7616 142.588 63.57 142.129 64.3601C141.229 65.9175 140.519 67.5769 140.014 69.3029C139.387 71.4137 138.927 73.5552 138.47 75.7016C138.14 77.2507 137.773 78.7943 137.37 80.3324C136.545 83.4852 135.263 86.5002 133.564 89.2815C131.737 92.2623 130.069 95.3377 128.567 98.4948C128.045 99.5964 127.419 100.65 126.839 101.725C126.716 101.959 126.583 102.191 126.334 102.644L126.338 102.646ZM85.167 131.363C85.3342 131.347 85.4513 131.363 85.5143 131.315C86.4928 130.542 87.4657 129.762 88.4389 128.983C88.6447 128.802 88.7853 128.559 88.839 128.29C89.0033 127.704 89.1684 127.118 89.3714 126.544C90.7978 122.495 91.6981 118.279 92.05 114.001C92.2683 111.424 92.367 108.845 92.4827 106.266C92.594 103.79 92.64 101.311 92.7488 98.8334C92.8646 95.9449 93.1432 93.0653 93.5832 90.2082C93.9002 88.1317 94.4813 86.1042 95.3124 84.1751C95.7717 83.1176 96.2692 82.0761 96.7681 81.0342C97.5266 79.5168 98.1924 77.9549 98.7618 76.357C99.2903 74.8251 99.5655 73.2173 99.5768 71.5968C99.5766 70.5934 99.5227 69.5939 99.5162 68.5913C99.5077 67.0871 99.5004 65.5847 99.5274 64.0797C99.5511 61.9442 100.035 59.839 100.945 57.9071C100.994 57.7599 101.027 57.6076 101.042 57.4531C100.129 57.3885 99.2126 57.4909 98.3368 57.7551C98.2711 57.9887 98.1925 58.2436 98.1294 58.502C97.5655 60.7997 96.9825 63.0942 96.4513 65.3976C95.6521 68.9456 94.245 72.3285 92.2923 75.3968C91.5129 76.6333 90.8324 77.9295 90.2571 79.2732C89.4328 81.1301 89.0062 83.139 89.0048 85.1706C89.0177 86.5361 89.1208 87.8993 89.3132 89.2513C89.5385 90.9616 89.78 92.6701 89.9776 94.3859C90.2478 96.7258 90.0892 99.0954 89.5092 101.378C89.3175 102.132 89.1312 102.887 88.9316 103.639C88.6541 104.683 88.3741 105.732 88.0951 106.778C87.6499 108.403 87.4269 110.081 87.432 111.765C87.4439 113.035 87.4887 114.302 87.5316 115.57C87.5794 116.937 87.6849 118.301 87.6923 119.669C87.7498 123.496 86.957 127.289 85.3711 130.773C85.2922 130.966 85.224 131.163 85.1665 131.364L85.167 131.363ZM132.97 102.412C133.137 102.465 133.309 102.504 133.483 102.529C134.033 102.548 134.587 102.539 135.137 102.563C139.481 102.721 143.828 102.415 148.107 101.652C150.793 101.196 153.477 100.727 156.169 100.314C158.371 99.9757 160.582 99.6914 162.789 99.4244C166.537 98.9674 170.333 99.1045 174.038 99.8308C174.191 99.861 174.351 99.8613 174.491 99.8758C175.168 98.2404 175.645 96.5293 175.912 94.7796C176.052 94.419 176.089 94.0265 176.018 93.6462C175.604 93.5913 175.188 93.5572 174.778 93.4846C172.525 93.0793 170.269 92.6747 168.02 92.2473C164.834 91.6173 161.578 91.4114 158.337 91.6349C157.491 91.6987 156.645 91.7584 155.799 91.8138C153.978 91.9319 152.155 92.0358 150.335 92.1697C150.109 92.2032 149.897 92.2962 149.719 92.4391C148.775 93.1432 147.848 93.8814 146.904 94.581C144.754 96.1919 142.508 97.6695 140.177 99.0055C138.167 100.122 136.08 101.091 133.93 101.908C133.576 102.002 133.248 102.174 132.97 102.413L132.97 102.412ZM95.3263 208.213C95.1943 208.04 95.0524 207.875 94.9013 207.718C93.8771 206.789 92.9127 205.795 92.0141 204.743C91.7747 204.483 91.5224 204.235 91.2581 204C90.3058 203.138 89.3475 202.285 88.3957 201.422C86.6129 199.805 84.8074 198.216 82.915 196.729C80.0856 194.522 77.1144 192.503 74.0206 190.685C69.5246 188.132 65.3979 184.977 61.7549 181.309C60.6155 180.124 59.5436 178.876 58.5443 177.571C56.8427 175.335 55.2818 172.992 53.7789 170.606C52.1658 168.085 50.7561 165.44 49.5634 162.695C48.7431 160.773 47.9356 158.843 47.0766 156.941C46.144 154.796 44.9109 152.795 43.4143 150.998C42.3767 149.791 42.7149 149.941 41.113 150.168C40.8374 150.206 40.5157 150.137 40.3006 150.458C40.3275 150.549 40.365 150.637 40.4123 150.719C40.8998 151.362 41.389 152.006 41.881 152.643C44.0174 155.419 45.8735 158.399 47.4223 161.54C48.4429 163.614 49.4022 165.722 50.4082 167.805C52.4099 171.99 54.8578 175.947 57.7095 179.607C59.1417 181.435 60.6779 183.177 62.1783 184.947C64.576 187.676 67.2226 190.175 70.0838 192.412C72.35 194.25 74.6497 196.043 76.9055 197.895C79.2996 199.803 81.42 202.031 83.2072 204.516C84.3356 205.957 85.1542 207.615 85.6118 209.387C85.6592 209.51 85.7191 209.626 85.7907 209.736C89.0108 209.536 92.2042 209.027 95.3266 208.214L95.3263 208.213ZM74.2929 141.127C74.5861 141.186 74.7922 141.235 74.9999 141.265C76.4724 141.462 77.9549 141.618 79.4171 141.862C81.983 142.333 84.5183 142.957 87.0092 143.732C91.8291 145.208 96.558 146.966 101.171 148.997C104.917 150.597 108.696 152.118 112.567 153.41C118.212 155.227 123.996 156.58 129.861 157.458C135.027 158.282 140.19 159.123 145.397 159.737C146.877 159.866 148.332 160.199 149.72 160.728C149.769 160.751 149.846 160.713 149.964 160.691C150.195 160.257 150.386 159.802 150.534 159.333C150.628 159.085 150.686 158.824 150.773 158.529C150.584 158.469 150.437 158.413 150.281 158.377C148.564 158.047 146.824 157.853 145.077 157.795C142.005 157.66 138.945 157.321 135.918 156.778C133.668 156.341 131.468 155.726 129.257 155.149C122.638 153.41 116.156 151.188 109.862 148.499C106.084 146.895 102.374 145.145 98.6486 143.43C95.9081 142.166 93.1493 140.966 90.3118 139.929C87.011 138.775 83.5352 138.201 80.0385 138.234C79.7453 138.235 79.4563 138.304 79.1936 138.434C77.6749 139.203 76.1674 139.999 74.6613 140.789C74.5272 140.889 74.4038 141.003 74.2933 141.128L74.2929 141.127ZM102.653 118.764C103.04 118.703 103.267 118.667 103.49 118.635C104.817 118.436 106.144 118.184 107.475 118.049C110.971 117.738 114.494 118.026 117.892 118.899C120.73 119.608 123.524 120.484 126.259 121.522C128.308 122.275 130.352 123.038 132.414 123.755C139.726 126.298 147.113 128.61 154.637 130.526C156.447 130.986 158.26 131.433 160.072 131.885C160.192 131.914 160.318 131.926 160.484 131.951C160.924 131.064 161.304 130.148 161.621 129.21C161.439 129.108 161.251 129.019 161.057 128.943C158.872 128.279 156.702 127.572 154.499 126.978C150.925 126.018 147.323 125.135 143.744 124.215C139.974 123.262 136.286 122.01 132.715 120.469C130.627 119.564 128.562 118.608 126.492 117.663C123.926 116.497 121.356 115.336 118.705 114.347C116.448 113.478 114.092 112.892 111.691 112.603C111.17 112.533 110.641 112.659 110.208 112.957C107.861 114.473 105.602 116.121 103.44 117.891C103.108 118.111 102.837 118.412 102.654 118.766L102.653 118.764ZM53.2373 75.0447L53.1228 74.8779C52.8793 74.9649 52.6297 75.0482 52.3904 75.1378C51.0927 75.6413 49.7898 76.1418 48.4919 76.6593C47.5985 77.0161 46.7192 77.4234 45.815 77.7516C45.5591 77.8331 45.3288 77.9795 45.1463 78.1766C44.9639 78.3737 44.8357 78.6147 44.7742 78.8761C44.6826 79.2014 44.5491 79.5167 44.4365 79.8399C42.899 84.3434 40.7616 88.6191 38.0819 92.5516C36.1654 95.3631 34.7216 98.469 33.8076 101.747C32.7862 105.518 32.2755 109.41 32.2894 113.317C32.2817 113.951 32.3171 114.585 32.3952 115.215C32.6985 117.516 32.9636 119.83 33.3703 122.11C33.8109 124.584 34.4077 127.022 34.9117 129.482C35.9637 134.275 35.8759 139.248 34.6554 144C34.3272 145.242 33.9272 146.467 33.5597 147.699C33.4755 147.981 33.3966 148.264 33.2947 148.618C34.1113 148.587 34.9188 148.435 35.6905 148.167C36.0118 146.892 36.3231 145.683 36.6165 144.468C36.8483 143.516 37.0756 142.563 37.2724 141.604C37.6731 139.798 37.805 137.943 37.664 136.098C37.4677 133.978 37.2744 131.856 36.9503 129.76C36.6785 127.995 36.2523 126.262 35.8454 124.528C35.3974 122.725 35.1118 120.886 34.9919 119.032C34.7034 114.225 35.2114 109.402 36.4953 104.76C37.7589 100.39 39.4566 96.1569 41.563 92.1245C43.7657 87.7551 46.3969 83.6152 49.4181 79.766C50.5188 78.3846 51.661 77.0409 52.7778 75.6774C52.9425 75.4789 53.084 75.2571 53.2373 75.0447ZM174.046 101.336C173.763 101.303 173.511 101.256 173.256 101.249C171.895 101.199 170.533 101.156 169.169 101.118C166.951 101.059 164.731 101.196 162.537 101.529C159.457 101.994 156.381 102.476 153.308 102.975C151.496 103.273 149.69 103.629 147.885 103.976C144.351 104.618 140.754 104.856 137.166 104.687C135.641 104.633 134.118 104.556 132.595 104.507C131.755 104.547 130.92 104.354 130.183 103.948C129.975 103.818 129.737 103.744 129.491 103.734C129.246 103.725 129.003 103.779 128.785 103.893C127.875 104.302 126.941 104.652 126.025 105.035C125.764 105.168 125.51 105.314 125.264 105.473C125.742 105.527 126.019 105.577 126.302 105.59C128.369 105.715 130.427 105.943 132.471 106.275C133.458 106.435 134.449 106.582 135.435 106.748C138.866 107.325 142.358 107.442 145.819 107.095C146.177 107.058 146.536 107.03 146.894 107.001C149.496 106.805 152.099 106.592 154.707 106.423C159.921 106.153 165.145 106.666 170.207 107.944C170.611 108.038 171.007 108.165 171.387 108.272C172.326 106.608 173.071 104.842 173.606 103.007C173.851 102.48 173.999 101.914 174.045 101.335L174.046 101.336ZM31.8041 151.967C31.2836 153.155 30.7531 154.328 30.255 155.516C29.5059 157.332 29.033 159.25 28.852 161.206C28.4127 165.416 28.9536 169.67 30.4325 173.636C31.8324 177.176 33.6436 180.538 35.8286 183.655C35.9674 183.815 36.1177 183.965 36.2781 184.104C36.2536 183.886 36.2165 183.669 36.1671 183.454C35.5708 181.465 35.0789 179.445 34.6936 177.404C34.4357 176.268 34.3152 175.105 34.3348 173.94C34.367 172.333 34.4165 170.722 34.5085 169.121C34.78 164.469 35.0924 159.815 35.3533 155.162C35.378 154.228 35.346 153.293 35.2573 152.363C35.2693 152.17 35.2416 151.977 35.1759 151.796C35.1102 151.614 35.008 151.448 34.8754 151.307C33.8408 151.473 32.8156 151.693 31.8041 151.967ZM120.133 105.249C120.248 105.252 120.364 105.243 120.477 105.222C121.029 104.991 121.569 104.722 122.13 104.525C122.584 104.403 123.008 104.19 123.376 103.899C123.745 103.608 124.05 103.245 124.274 102.832C124.292 102.804 124.313 102.777 124.337 102.753C125.236 101.687 125.991 100.508 126.582 99.2447C127.274 97.8078 127.897 96.3373 128.617 94.9152C129.831 92.5229 131.076 90.1461 132.351 87.7848C133.588 85.5596 134.563 83.1982 135.256 80.7479C135.743 78.9525 136.182 77.1452 136.636 75.3449C137.071 73.6069 137.456 71.8582 137.925 70.1291C138.684 67.2644 140.037 64.5913 141.896 62.2836C142.026 62.087 142.143 61.8821 142.246 61.6702C141.568 61.4789 140.871 61.3605 140.167 61.317C140.023 61.5081 139.868 61.6859 139.746 61.881C137.784 64.9019 136.247 68.1788 135.178 71.6192C134.836 72.7903 134.476 73.9528 134.132 75.1224C133.565 77.0052 132.889 78.8536 132.109 80.6581C130.835 83.5495 129.366 86.3508 127.712 89.0425C125.92 91.9672 124.429 95.0662 123.263 98.292C122.535 100.376 121.634 102.396 120.569 104.33C120.416 104.595 120.308 104.876 120.133 105.249ZM161.328 76.7231L161.461 76.8393C161.606 76.7058 161.743 76.5645 161.873 76.4159C163.105 74.8429 164.306 73.2454 165.567 71.6943C166.934 70.0133 168.33 68.3577 169.757 66.7276C170.98 65.3252 172.307 64.0168 173.727 62.8133C173.869 62.6925 174.068 62.5877 174.012 62.2787C173.803 62.2561 173.593 62.2469 173.383 62.2511C170.46 62.4771 167.535 62.7085 164.609 62.9454C164.419 62.9762 164.232 63.0238 164.05 63.0877C163.72 64.0476 163.371 64.9661 163.09 65.9033C162.895 66.5481 162.753 67.2076 162.666 67.8754C162.451 69.5395 162.276 71.209 162.098 72.8786C161.997 73.9857 161.784 75.0798 161.463 76.1442C161.401 76.3367 161.37 76.5317 161.327 76.7226L161.328 76.7231Z" fill="white"/>
</g>
</svg>
