<svg width="144" height="194" viewBox="0 0 144 194" fill="none" xmlns="http://www.w3.org/2000/svg">
<g opacity="0.15">
<path d="M114.61 63.6584C114.337 63.8184 114.054 63.9584 113.802 64.1344C111.472 65.7313 109.513 67.8119 108.059 70.2344C105.99 73.8012 104.328 77.5889 103.103 81.5264C102.503 83.3894 101.956 85.3005 101.418 87.2195C99.5299 94.1925 96.6327 100.852 92.8185 106.987C90.3904 110.856 88.3205 114.938 86.6345 119.182C84.9835 123.303 83.5345 127.574 82.1765 131.935C81.5515 133.935 81.0905 135.994 80.6575 138.071C80.5169 138.726 80.5217 139.404 80.6715 140.056C81.0195 141.63 81.3484 143.206 81.6065 144.797C82.0125 147.321 82.3455 149.854 82.7065 152.372C82.7495 152.672 82.7065 152.998 82.9195 153.222C82.9755 153.212 83.0195 153.222 83.0355 153.197C83.129 153.099 83.2143 152.992 83.2905 152.879C84.174 151.49 85.2335 150.221 86.4425 149.103C88.2325 147.418 90.0225 145.752 91.7865 144.079C92.8745 143.049 93.9555 142.014 94.9865 140.933C97.8055 137.978 100.543 134.998 103.15 131.948C105.306 129.472 107.197 126.777 108.792 123.907C109.38 122.825 109.984 121.754 110.508 120.648C112.292 116.886 114.063 113.171 115.744 109.469C118.201 104.075 120.286 98.5183 121.986 92.8394C122.826 90.0234 123.791 87.2944 124.805 84.6174C125.324 83.1347 126.048 81.7317 126.955 80.4494C127.055 80.3164 127.136 80.1644 127.248 79.9874C126.933 79.5034 126.647 79.0354 126.338 78.5874C125.22 76.9725 124.078 75.3574 122.961 73.7154C121.043 70.9241 118.95 68.2568 116.696 65.7294C116.076 64.9665 115.377 64.2722 114.61 63.6584ZM1.28147 98.1784C1.1207 98.5665 1.08949 98.9962 1.19248 99.4034C1.38248 102.262 1.66447 105.11 2.02247 107.951C2.57268 112.363 3.34737 116.743 4.34348 121.075C4.37185 121.33 4.46468 121.574 4.61323 121.782C4.76178 121.991 4.96115 122.159 5.19248 122.269C6.57807 122.911 8.01178 123.444 9.48048 123.862C10.4695 124.135 11.4585 124.398 12.4415 124.71C16.139 125.87 19.9832 126.494 23.8575 126.565C26.9375 126.635 30.0205 126.657 33.1005 126.739C34.2973 126.759 35.492 126.848 36.6785 127.006C41.0412 127.711 45.1847 129.405 48.7915 131.958C49.9425 132.74 51.0515 133.606 52.1665 134.445C54.0288 135.905 56.0014 137.218 58.0665 138.373C63.0801 141.143 68.5931 142.89 74.2865 143.515C75.5689 143.676 76.8686 143.632 78.1375 143.386C78.3232 143.336 78.5056 143.273 78.6835 143.199C78.6135 142.789 78.5755 142.436 78.4935 142.099C77.9095 139.677 77.3555 137.231 76.6935 134.813C75.3977 129.98 73.6531 125.278 71.4825 120.769C71.2228 120.21 70.8058 119.739 70.2825 119.412C66.8373 117.156 62.8438 115.877 58.7285 115.712C57.5345 115.671 56.3425 115.743 55.1485 115.737C53.8285 115.731 52.5115 115.731 51.1895 115.663C49.3303 115.56 47.504 115.13 45.7945 114.391C44.8945 114.009 43.9875 113.621 43.0815 113.244C39.1205 111.592 37.7815 111.362 33.6815 111.744C32.3095 111.871 30.9355 111.982 29.5675 112.144C25.3675 112.644 21.5045 111.333 17.9245 108.173C17.0985 107.446 16.2605 106.743 15.4365 106.004C13.7567 104.442 11.8643 103.125 9.81547 102.092C7.19147 100.834 4.54846 99.6295 1.90946 98.3925C1.70485 98.3077 1.49511 98.2358 1.28147 98.1774V98.1784ZM83.5285 162.458C83.7085 162.292 83.8394 162.189 83.9504 162.064C84.7302 161.201 85.5916 160.415 86.5225 159.716C88.2733 158.394 90.1337 157.223 92.0835 156.216C93.9995 155.2 95.9344 154.25 97.8305 153.216C100.102 151.983 102.263 150.538 104.413 149.099C107.546 147.027 110.517 144.721 113.3 142.199C115.066 140.575 116.711 138.824 118.222 136.959C119.922 134.831 121.512 132.616 122.985 130.324C124.786 127.521 126.802 124.863 129.014 122.371C130.535 120.694 132.128 119.11 133.745 117.571C135.547 115.81 137.456 114.161 139.462 112.635C140.139 112.135 140.761 111.564 141.392 111.012C142.17 110.337 142.133 110.495 141.87 109.37L141.847 109.28C139.994 102.179 137.06 95.4043 133.147 89.1944C131.994 87.3084 130.798 85.4285 129.602 83.5305C129.221 82.9305 128.803 82.3465 128.394 81.7554C128.358 81.7064 128.285 81.6794 128.184 81.6094C127.826 81.6974 127.691 82.0384 127.519 82.3314C126.855 83.5015 126.331 84.7453 125.956 86.0374C124.884 89.5821 123.801 93.1634 122.705 96.7814C121.945 99.3034 121.124 101.815 120.205 104.309C117.957 110.409 115.188 116.377 112.355 122.462C109.986 127.499 106.817 132.12 102.972 136.145C101.714 137.477 100.472 138.834 99.2105 140.19C97.3048 142.271 95.2956 144.253 93.1905 146.131C92.1415 147.055 91.0855 147.972 90.0365 148.91C89.0905 149.76 88.1305 150.601 87.2115 151.5C85.7461 152.962 84.4493 154.583 83.3455 156.333C83.1482 156.628 83.0562 156.98 83.0845 157.333C83.1845 158.87 83.2705 160.405 83.3675 161.938C83.402 162.117 83.4556 162.291 83.5275 162.457L83.5285 162.458ZM9.42048 137.126C9.57148 137.655 9.64648 137.961 9.74348 138.253C10.1745 139.558 10.6435 140.837 11.0365 142.153C11.7135 144.453 12.3365 146.767 12.9735 149.065C13.0582 149.511 13.2376 149.933 13.4995 150.303C14.4455 151.438 15.3535 152.616 16.2995 153.734C17.7996 155.566 19.4142 157.301 21.1335 158.928C24.475 161.949 28.1005 164.639 31.9595 166.961C34.6168 168.594 37.4379 169.943 40.3765 170.986C44.1908 172.304 48.2373 172.815 52.2595 172.486C54.2766 172.34 56.2672 171.94 58.1845 171.296C58.7725 171.096 59.3605 170.896 59.9455 170.691C62.8703 169.67 65.8783 168.905 68.9355 168.403C70.9156 168.05 72.9451 168.079 74.9145 168.487C76.7355 168.839 78.5013 169.434 80.1645 170.254C80.3775 170.361 80.6115 170.422 80.9095 170.533C80.9215 170.166 80.9425 169.891 80.9345 169.62C80.9015 168.569 80.8595 167.52 80.8145 166.464C80.6638 162.78 80.4928 159.09 80.3015 155.392C80.2515 154.442 80.1625 153.498 80.0785 152.552C80.0575 152.316 79.9915 152.086 79.9395 151.817C79.5895 151.792 79.2835 151.764 78.9735 151.751C76.7175 151.679 74.4575 151.63 72.2025 151.525C69.4643 151.402 66.7206 151.535 64.0075 151.925C61.9702 152.211 59.9295 152.458 57.8855 152.668C54.5095 153.056 51.1045 153.125 47.7155 152.875C43.5754 152.475 39.5104 151.504 35.6355 149.992C32.2105 148.72 28.8727 147.225 25.6435 145.515C23.6435 144.444 21.6325 143.372 19.6435 142.242C17.5281 141.015 15.3516 139.896 13.1225 138.889C12.1455 138.46 11.1935 137.941 10.2275 137.465C10.0215 137.37 9.81647 137.294 9.41947 137.126H9.42048ZM83.8904 171.666C84.0062 171.633 84.1184 171.589 84.2255 171.533C84.8986 171.054 85.6747 170.74 86.4915 170.614C87.0915 170.507 87.6915 170.431 88.2855 170.376C92.5674 169.974 96.8724 169.873 101.168 170.076C102.445 170.133 103.724 170.176 105.009 170.16C105.925 170.155 106.839 170.074 107.741 169.918C110.086 169.519 112.404 168.973 114.68 168.284C115.538 168.019 116.414 167.815 117.3 167.674C117.817 167.594 118.302 167.373 118.7 167.034C122.278 164.111 125.673 160.971 128.868 157.634C131.85 154.475 134.509 151.027 136.808 147.34C139.043 143.881 140.712 140.088 141.751 136.102C142.72 131.939 143.26 127.688 143.363 123.415C143.36 123.266 143.347 123.118 143.324 122.97C143.188 122.918 143.042 122.895 142.897 122.903C142.751 122.911 142.608 122.949 142.478 123.015C141.474 123.329 140.525 123.799 139.666 124.406C137.199 126.026 134.994 128.011 133.124 130.294C131.319 132.531 129.492 134.787 127.644 137.062C125.83 139.355 123.836 141.499 121.68 143.473C118.498 146.368 115.146 149.069 111.641 151.563C109.17 153.29 106.603 154.875 103.953 156.312C101.677 157.547 99.3265 158.6 96.9855 159.69C94.4109 160.833 91.9463 162.209 89.6225 163.801C87.8385 165.069 86.0855 166.414 84.3225 167.754C84.0949 167.943 83.8773 168.143 83.6705 168.354C83.5874 169.463 83.6621 170.578 83.8904 171.666ZM55.0785 95.7214L55.2155 95.5694C55.1542 95.4065 55.0845 95.247 55.0065 95.0914C53.148 91.7037 51.5028 88.2032 50.0805 84.6104C49.3995 82.9004 48.7495 81.1704 48.1105 79.4304C47.9765 78.8858 47.6414 78.4121 47.1725 78.1044C46.8422 77.8882 46.5399 77.6319 46.2725 77.3414C44.1407 75.3237 41.804 73.5339 39.3005 72.0014C38.8245 71.7014 38.3545 71.3914 37.8825 71.0824C35.7661 69.6898 33.7647 68.1298 31.8975 66.4174C30.9665 65.5694 30.0475 64.6934 29.1185 63.8274C25.1635 60.0487 20.7647 56.7637 16.0185 54.0444C15.1905 53.5824 14.3735 53.0554 13.5495 52.5604C10.5941 50.786 7.91273 48.591 5.58949 46.0444C5.44449 45.8885 5.30149 45.6274 5.08949 45.7144C4.44549 47.8284 1.93349 63.7804 1.86549 66.1714C1.91319 66.2763 1.97007 66.3766 2.03547 66.4714C2.23547 66.7134 2.43548 66.9554 2.64448 67.1714C6.87087 71.6049 11.5105 75.6252 16.5005 79.1774C22.6963 83.6638 29.7253 86.8684 37.1755 88.6035C38.7468 88.9561 40.3181 89.3201 41.8895 89.6954C44.3172 90.2704 46.6861 91.0702 48.9655 92.0844C50.9977 92.9677 52.9151 94.0946 54.6755 95.4404C54.8025 95.5444 54.9445 95.6284 55.0785 95.7214ZM64.4965 105.359C64.6495 105.583 64.7445 105.733 64.8465 105.874C65.9995 107.474 67.1915 109.028 68.2885 110.652C69.4055 112.302 70.4555 114.001 71.4715 115.709C72.2885 117.08 73.0095 118.509 73.7715 119.904C73.8625 120.068 73.9105 120.341 74.2125 120.236C74.2355 120.045 74.2685 119.836 74.2845 119.628C74.4552 117.449 74.8886 115.297 75.5754 113.221C76.1654 111.45 76.7525 109.681 77.4625 107.998C78.8191 104.784 80.2135 101.633 81.6455 98.5435C84.2885 92.8435 86.7305 87.1534 88.9455 81.4434C90.4025 77.6854 91.5225 73.7904 92.6855 69.9694C93.4121 67.5337 94.0063 65.0604 94.4655 62.5604C94.9245 60.1444 95.1004 57.6354 95.4035 55.1844C95.4744 53.6683 95.8591 52.1833 96.5335 50.8234C96.3913 50.6961 96.2421 50.5769 96.0865 50.4664C93.9118 49.1511 91.7325 47.8254 89.5485 46.4894C89.3975 46.4143 89.2402 46.3524 89.0785 46.3044C88.9955 46.5154 88.9235 46.6804 88.8655 46.8544C88.5445 47.8274 88.2265 48.8104 87.9015 49.7874C86.7025 53.6125 85.2599 57.3568 83.5825 60.9974C81.4551 65.4061 78.9455 69.6199 76.0825 73.5904C74.8095 75.3654 73.5615 77.1844 72.4255 79.1294C70.8679 81.8028 69.9346 84.7937 69.6955 87.8784C69.5795 89.2225 69.4575 90.5695 69.3415 91.9174C69.2057 93.8113 68.8486 95.6827 68.2775 97.4934C67.494 99.8181 66.4747 102.056 65.2355 104.173C65.0215 104.548 64.7795 104.905 64.4955 105.358L64.4965 105.359ZM79.0865 145.395C78.9218 145.431 78.7609 145.482 78.6065 145.549C77.3355 146.309 75.8431 146.612 74.3765 146.407C72.7245 146.226 71.0765 145.986 69.4365 145.719C67.8154 145.455 66.2324 144.995 64.7225 144.348C62.7645 143.515 60.8045 142.663 58.8735 141.725C56.3715 140.512 54.0249 139.001 51.8845 137.225C51.2945 136.737 50.6845 136.273 50.0845 135.792C45.1881 131.644 39.0013 129.328 32.5845 129.241C30.5725 129.241 28.5615 129.181 26.5495 129.173C21.3099 129.245 16.0946 128.449 11.1145 126.819C9.22528 126.278 7.41592 125.489 5.73347 124.473C5.56688 124.403 5.39112 124.356 5.21147 124.335C5.34647 124.895 5.43748 125.324 5.55348 125.745C6.27948 128.345 7.12449 130.872 7.98149 133.373C8.06066 133.666 8.19913 133.94 8.38835 134.177C8.57756 134.414 8.8135 134.61 9.08149 134.752C11.0108 135.764 12.996 136.666 15.0275 137.452C17.3551 138.374 19.6145 139.46 21.7885 140.701C22.6165 141.167 23.4375 141.651 24.2615 142.121C28.6822 144.658 33.2651 146.9 37.9805 148.834C42.6509 150.766 47.679 151.681 52.7305 151.518C54.0195 151.479 55.3075 151.418 56.5965 151.313C59.3965 151.093 62.1865 150.671 64.9715 150.203C67.0569 149.844 69.1693 149.664 71.2855 149.663C73.8575 149.655 76.4281 149.788 78.9855 150.063C79.2235 150.09 79.4755 150.217 79.7455 149.928C79.5885 148.463 79.3575 146.979 79.0845 145.394L79.0865 145.395ZM81.3605 175.97C80.7395 175.939 80.2145 175.9 79.6885 175.894C78.3856 175.876 77.0866 175.748 75.8055 175.51C72.2974 174.881 68.6975 174.978 65.2285 175.795C64.2285 176.023 63.2215 176.283 62.2285 176.585C58.0684 177.842 53.8165 178.771 49.5115 179.364C48.6976 179.476 47.8785 179.547 47.0575 179.575C44.6314 179.608 42.2091 179.373 39.8345 178.875C38.2165 178.574 36.6491 178.046 35.1785 177.307C32.2602 175.854 29.5533 174.009 27.1325 171.825C24.1926 169.264 20.9117 167.123 17.3835 165.463C17.2019 165.402 17.0147 165.359 16.8245 165.334C16.82 165.79 16.9028 166.242 17.0685 166.666C18.1477 170.639 19.5922 174.504 21.3835 178.21C22.4729 180.523 23.8702 182.678 25.5375 184.615C28.6788 188.219 32.736 190.906 37.2795 192.391C40.5125 193.374 43.9004 193.745 47.2695 193.485C51.7675 193.181 56.2297 192.478 60.6035 191.385C62.7968 190.834 64.9197 190.033 66.9305 188.998C68.5692 188.171 70.1771 187.26 71.7545 186.266C75.0132 184.273 78.008 181.878 80.6685 179.136C80.8685 178.931 81.0555 178.724 81.2485 178.514C81.3484 178.411 81.4246 178.287 81.4714 178.152C81.5182 178.016 81.5346 177.871 81.5195 177.728C81.4685 177.187 81.4185 176.639 81.3585 175.97H81.3605ZM65.2075 110.651C64.6985 109.596 64.0737 108.601 63.3445 107.683C61.8315 105.594 60.3085 103.488 58.8015 101.348C58.4669 100.842 58.063 100.384 57.6015 99.9894C57.3325 99.7694 57.0755 99.5254 56.8155 99.2894C55.2213 97.8185 53.4272 96.5802 51.4865 95.6115C48.3253 94.0503 45.0065 92.8311 41.5865 91.9745C39.5865 91.4575 37.5735 90.9744 35.5645 90.4865C32.2729 89.6735 29.0602 88.5692 25.9645 87.1864C19.9503 84.4062 14.3965 80.723 9.49549 76.2644C6.84349 74.0211 4.38083 71.5632 2.13249 68.9154C1.99749 68.7514 1.87149 68.4944 1.60649 68.5804C1.55981 68.7101 1.52631 68.8441 1.50648 68.9804C0.997479 74.3734 0.800472 79.8805 0.755472 85.4355C0.743472 86.8295 0.711476 88.2244 0.803476 89.5974C1.38048 90.0554 1.91048 90.4754 2.44248 90.8904C3.44352 91.7106 4.61823 92.292 5.87748 92.5905C7.52347 92.9503 9.19536 93.1793 10.8775 93.2755C11.9455 93.3325 13.0155 93.4004 14.0855 93.5014C16.3814 93.7339 18.5965 94.4756 20.5695 95.6725C21.6875 96.3335 22.7835 97.0724 23.8765 97.7984C24.9985 98.5494 26.0975 99.3585 27.2185 100.098C28.9409 101.255 30.8292 102.143 32.8185 102.731C34.1555 103.117 35.4965 103.511 36.8435 103.757C39.7925 104.297 42.7435 104.742 45.6995 105.216C48.1805 105.616 50.6625 105.996 53.1435 106.398C57.1857 107.112 61.0848 108.479 64.6875 110.445C64.8555 110.522 65.0335 110.579 65.2055 110.651H65.2075ZM73.1565 36.1324C73.0565 36.5814 72.9765 36.9264 72.9105 37.2774C72.8335 37.7004 72.7735 38.1294 72.6995 38.5544C72.0605 42.3184 71.1705 45.9794 70.2715 49.6804C68.4565 57.1464 66.2915 64.5674 63.9325 72.0644C63.3445 73.9364 62.7871 75.8381 62.2605 77.7694C61.569 80.2765 61.0375 82.825 60.6695 85.3994C60.1482 90.1823 60.1599 95.0082 60.7045 99.7885C60.7371 100.195 60.8876 100.584 61.1375 100.906C61.7645 101.745 62.3815 102.591 63.0065 103.424C63.1065 103.557 63.2135 103.73 63.4125 103.648C63.8245 102.671 64.2235 101.684 64.6545 100.721C65.1015 99.7214 65.6025 98.7654 66.0395 97.7684C66.6198 96.4245 67.0145 95.0079 67.2125 93.5574C67.3715 92.4324 67.4815 91.2954 67.6125 90.1654C67.7735 88.7534 67.8985 87.3315 68.0925 85.9355C68.3831 83.7026 69.0324 81.5312 70.0155 79.5054C70.426 78.6236 70.8847 77.765 71.3895 76.9334C72.7268 74.8381 74.0845 72.7878 75.4625 70.7824C78.3968 66.6665 80.8893 62.2528 82.8985 57.6144C84.5335 53.6674 86.0195 49.6884 87.5365 45.7934C87.5738 45.6354 87.5932 45.4738 87.5945 45.3114C82.8075 42.3264 78.0535 39.3034 73.1545 36.1324H73.1565ZM51.7435 83.3535C51.8309 83.1394 51.9021 82.9191 51.9565 82.6944C52.2732 80.7083 52.787 78.7586 53.4905 76.8744C54.1255 75.1324 54.8025 73.4264 55.4985 71.7494C56.4295 69.5104 57.3985 67.3204 58.3355 65.1284C60.1231 61.0262 61.5524 56.777 62.6075 52.4284C62.9965 50.7844 63.4395 49.1774 63.8535 47.5624C65.1265 42.5914 66.2375 37.5924 67.8585 32.9874C67.8951 32.8232 67.9152 32.6557 67.9185 32.4874C67.7185 32.3154 67.5505 32.1594 67.3745 32.0294C63.3165 29.0595 59.3575 25.7824 55.3745 22.4844C53.9965 21.3454 52.6015 20.2354 51.2085 19.1064C51.0085 18.9484 50.8085 18.7164 50.5565 18.8434C50.3435 20.3084 50.1675 21.8214 50.0765 23.3834C49.8325 27.6134 49.8325 31.9534 50.0085 36.3604C50.1365 39.5064 50.2425 42.6524 50.3975 45.8154C50.597 50.1104 50.3688 54.4146 49.7165 58.6644C49.0215 63.2924 48.5575 68.0454 48.1825 72.8584C48.1324 73.3092 48.176 73.7654 48.3105 74.1984C49.2455 77.0734 50.2375 79.9124 51.3615 82.6824C51.4748 82.9138 51.6024 83.1379 51.7435 83.3535ZM79.5495 135.353C79.6135 135.345 79.6754 135.341 79.7394 135.332C79.7954 135.096 79.8535 134.86 79.9075 134.626C80.1535 133.598 80.3645 132.559 80.6465 131.548C81.2058 129.56 81.7818 127.587 82.3745 125.629C84.3782 118.714 87.2479 112.079 90.9155 105.882C93.9582 100.889 96.4244 95.5662 98.2665 90.0164C98.9285 88.0275 99.5574 86.0354 100.187 84.0564C101.358 80.1986 102.834 76.44 104.601 72.8164C105.729 70.3886 107.218 68.1458 109.017 66.1644C110.142 64.9314 111.437 63.8662 112.864 63.0014C113.051 62.88 113.23 62.7464 113.399 62.6014C112.199 60.8284 103.255 54.7344 100.381 53.2244C100.318 53.3164 100.269 53.4176 100.236 53.5244C100.079 54.4294 99.8745 55.3244 99.7895 56.2564C99.4995 59.4924 99.0985 62.7044 98.6185 65.9104C98.0745 69.5324 97.6475 73.2204 96.9525 76.8414C96.1286 81.6637 94.9198 86.4123 93.3375 91.0414C92.4725 93.4204 91.5705 95.8004 90.5995 98.1604C89.3655 101.152 88.0255 104.12 86.7435 107.16C84.5839 112.193 82.7501 117.36 81.2535 122.628C80.2597 125.997 79.5453 129.442 79.1175 132.928C79.0673 133.76 79.2132 134.591 79.5435 135.355L79.5495 135.353ZM6.94947 0.773438C7.11347 1.10144 7.17747 1.26144 7.26447 1.39944C7.87247 2.33544 8.47047 3.27745 9.09547 4.18845C11.6955 7.98345 14.4455 11.5394 17.2105 15.0264C20.1015 18.6734 23.0425 22.1974 25.7975 25.8854C27.9665 28.7854 30.1065 31.6854 32.0705 34.7204C32.2465 34.9934 32.4165 35.2704 32.6065 35.5314C32.7222 35.6557 32.8491 35.7692 32.9855 35.8704C32.9775 35.4944 32.9855 35.2404 32.9625 34.9774C32.8465 33.7774 32.7245 32.5774 32.5895 31.3774C32.257 28.7053 32.0901 26.0152 32.0895 23.3224C32.1573 18.3579 32.5804 13.4046 33.3555 8.50044C33.3905 8.26844 33.3965 8.02045 33.4215 7.71445C32.9535 7.49045 32.5435 7.28143 32.1305 7.09843C28.2979 5.39101 24.2814 4.13071 20.1605 3.34244C15.9925 2.56844 11.8455 1.94243 7.63749 0.861435C7.41044 0.818891 7.18101 0.790173 6.95048 0.775436L6.94947 0.773438ZM38.1125 49.6404L38.2385 49.5024C38.1035 49.1764 37.9905 48.8374 37.8285 48.5254C36.8575 46.6394 35.9035 44.7254 34.8775 42.8524C33.5582 40.4431 32.1225 38.0994 30.5705 35.8214C28.6565 33.0094 26.6235 30.2964 24.5445 27.5954C24.0674 26.9016 23.5172 26.2609 22.9035 25.6844C20.7872 23.7693 18.2805 22.3363 15.5565 21.4844C14.6665 21.2484 13.7745 20.9754 12.8825 20.7124C10.7948 20.1378 8.83887 19.1627 7.12348 17.8414C6.98448 17.7304 6.82347 17.5744 6.64347 17.7594C6.64347 17.9334 6.62449 18.1594 6.63749 18.3934C6.85132 21.9228 6.88167 25.4609 6.72846 28.9934C6.73159 29.2303 6.74896 29.4667 6.78047 29.7014C7.36647 30.2014 7.91649 30.6824 8.47349 31.1444C10.5305 32.8444 12.5735 34.5444 14.6425 36.1744C16.0457 37.2911 17.6036 38.1983 19.2675 38.8674C20.8485 39.4974 22.4295 40.1444 24.0125 40.7334C28.088 42.257 31.8696 44.4732 35.1905 47.2844C35.9625 47.9331 36.7365 48.5734 37.5125 49.2054C37.7075 49.3674 37.9125 49.4994 38.1135 49.6424L38.1125 49.6404ZM44.2755 67.9344C44.1755 67.4484 44.1475 67.2284 44.0855 67.0174C43.2015 63.9364 42.3185 60.8354 41.3765 57.7374C40.9175 56.2294 40.3525 54.7374 39.8475 53.2304C39.7209 52.8225 39.4775 52.4606 39.1475 52.1894C37.2475 50.5984 35.3625 48.9304 33.4315 47.3604C31.2013 45.462 28.5915 44.0618 25.7765 43.2534C24.7295 42.9804 23.6825 42.6934 22.6365 42.4054C21.8105 42.1794 20.9855 41.9644 20.1615 41.7054C15.2875 40.1974 11.0105 36.8144 7.13148 32.0054C7.0149 31.8752 6.89139 31.7514 6.76148 31.6344C6.67848 31.7344 6.61049 31.7724 6.60249 31.8344C6.34515 34.4818 6.08382 37.1374 5.81849 39.8014C5.814 39.9529 5.81834 40.1045 5.83149 40.2554C6.62249 40.9844 7.39147 41.6674 8.14347 42.3834C9.56083 43.7468 11.136 44.9359 12.8355 45.9254C14.8355 47.0914 16.8665 48.0534 18.8975 49.0014C20.3641 49.6868 21.8251 50.4118 23.2805 51.1764C26.3661 52.8161 29.2103 54.8742 31.7325 57.2924C34.48 59.9137 37.3701 62.3815 40.3895 64.6844C41.4245 65.4684 42.4095 66.3634 43.4155 67.2004C43.6365 67.3874 43.8525 67.5754 44.2765 67.9374L44.2755 67.9344ZM69.6585 117.657C69.6485 117.466 69.6755 117.341 69.6335 117.271C68.9695 116.136 68.2945 115.003 67.6215 113.864C67.476 113.633 67.2553 113.459 66.9965 113.371C66.4565 113.145 65.9145 112.917 65.3865 112.649C61.7133 110.771 57.7907 109.427 53.7375 108.657C51.3265 108.199 48.9035 107.875 46.4855 107.528C44.1595 107.196 41.8295 106.928 39.5045 106.6C36.7759 106.217 34.0781 105.639 31.4315 104.872C29.4447 104.293 27.5592 103.411 25.8415 102.257C24.8685 101.606 23.9105 100.909 22.9545 100.205C21.5798 99.154 20.1392 98.1917 18.6415 97.3244C17.2718 96.5407 15.7597 96.0376 14.1935 95.8445C13.2475 95.7445 12.3045 95.7044 11.3605 95.6084C9.94448 95.4664 8.52749 95.3214 7.11149 95.1344C5.01191 94.8506 3.02563 94.0133 1.35649 92.7084C1.22395 92.6314 1.0812 92.5735 0.932474 92.5364C0.83551 93.6876 0.892695 94.8465 1.10249 95.9825C1.31949 96.0895 1.55746 96.2124 1.79746 96.3194C3.93746 97.2614 6.06946 98.2194 8.21546 99.1024C11.6389 100.522 14.7628 102.576 17.4225 105.156C18.517 106.195 19.7005 107.136 20.9595 107.968C22.5845 109.091 24.4723 109.775 26.4395 109.953C27.7234 110.045 29.0126 110.027 30.2935 109.9C31.9165 109.765 33.5365 109.607 35.1615 109.51C37.3996 109.382 39.6379 109.758 41.7115 110.61C42.4115 110.889 43.1115 111.166 43.8055 111.453C44.7745 111.853 45.7425 112.26 46.7055 112.662C48.1839 113.292 49.7567 113.67 51.3595 113.783C52.5535 113.859 53.7495 113.898 54.9435 113.937C56.2325 113.98 57.5225 113.955 58.8095 114.048C62.4703 114.278 66.0136 115.43 69.1095 117.397C69.2875 117.496 69.4711 117.584 69.6595 117.66L69.6585 117.657ZM44.1475 60.2444C44.2006 60.0573 44.2393 59.8664 44.2635 59.6734C44.2865 59.0414 44.2825 58.4034 44.3095 57.7734C44.49 52.7346 44.2051 47.6899 43.4585 42.7034C43.0095 39.5284 42.5375 36.3514 42.1055 33.1764C41.7515 30.5764 41.4395 27.9824 41.1365 25.3884C40.6171 21.1524 40.6413 16.8673 41.2085 12.6374C41.2258 12.4713 41.2348 12.3044 41.2355 12.1374C39.7084 10.9782 38.0613 9.98619 36.3225 9.17844C36.0086 8.9364 35.6315 8.79022 35.2365 8.75745C35.1995 9.21945 35.1805 9.68944 35.1265 10.1404C34.8185 12.6314 34.5075 15.1334 34.1665 17.6354C33.6576 21.3127 33.541 25.0336 33.8185 28.7354C33.8935 29.7354 33.9675 30.7354 34.0335 31.7354C34.1745 33.8844 34.2985 36.0354 34.4435 38.1834C34.4796 38.4562 34.569 38.7192 34.7065 38.9574C35.3815 40.2054 36.0865 41.4324 36.7595 42.6744C38.2975 45.5124 39.7165 48.3884 40.9665 51.3294C42.0179 53.8538 42.9237 56.4364 43.6795 59.0644C43.7658 59.4831 43.9245 59.8834 44.1485 60.2474L44.1475 60.2444ZM142.561 112.623C142.39 112.735 142.226 112.856 142.071 112.986C141.13 113.882 140.137 114.72 139.097 115.496C138.835 115.703 138.586 115.925 138.351 116.161C137.48 117.007 136.617 117.861 135.744 118.718C134.107 120.318 132.495 121.973 130.963 123.726C128.665 126.392 126.55 129.21 124.632 132.161C121.844 136.548 118.546 140.59 114.806 144.2C113.591 145.337 112.331 146.425 111.006 147.441C108.748 149.173 106.401 150.784 104.013 152.362C101.508 154.046 98.8858 155.55 96.1675 156.862C94.2805 157.762 92.3845 158.654 90.5095 159.61C88.3413 160.689 86.3332 162.062 84.5425 163.692C83.2945 164.847 83.4745 164.482 83.5135 166.21C83.5195 166.51 83.4185 166.858 83.6975 167.08C83.7875 167.047 83.8737 167.004 83.9545 166.951C84.6125 166.401 85.2685 165.851 85.9225 165.299C88.6919 162.955 91.6885 160.892 94.8675 159.142C96.9205 158.019 98.9985 156.975 101.053 155.893C105.207 153.72 109.153 151.172 112.843 148.281C114.693 146.824 116.467 145.281 118.263 143.795C121.024 141.428 123.593 138.846 125.946 136.072C127.858 133.89 129.72 131.703 131.628 129.589C133.575 127.368 135.823 125.431 138.308 123.834C139.732 122.839 141.349 122.152 143.053 121.817C143.172 121.78 143.286 121.731 143.394 121.669C143.422 118.634 143.144 115.604 142.562 112.625L142.561 112.623ZM78.0805 130.115C78.1575 129.797 78.2195 129.575 78.2625 129.349C78.5625 127.749 78.8125 126.149 79.1445 124.565C79.7604 121.821 80.5154 119.109 81.4065 116.44C83.0558 111.424 84.9708 106.499 87.1435 101.685C88.8325 97.8535 90.4305 94.0264 91.7935 90.1144C93.7189 84.4231 95.1699 78.5822 96.1315 72.6514C97.0215 67.4364 97.8925 62.2734 98.5115 57.0644C98.6359 55.6207 98.9611 54.2014 99.4775 52.8474C99.4965 52.8024 99.4614 52.7184 99.4425 52.5904C99.0363 52.2733 98.606 51.9885 98.1555 51.7384C97.9215 51.5905 97.6735 51.4794 97.3935 51.3304C97.3375 51.5154 97.2835 51.6524 97.2505 51.8004C96.9321 53.5252 96.7393 55.2708 96.6735 57.0234C96.5273 60.1286 96.1712 63.2203 95.6075 66.2774C95.1585 68.5284 94.5335 70.7064 93.9415 72.9144C92.1337 79.5686 89.8358 86.0797 87.0665 92.3944C85.4025 96.2204 83.5855 100.008 81.7825 103.864C80.4575 106.696 79.1765 109.588 78.0325 112.597C76.7399 116.169 75.9804 119.912 75.7785 123.704C75.7589 124.022 75.8038 124.341 75.9105 124.64C76.5255 126.34 77.1625 128.026 77.7955 129.703C77.8756 129.85 77.9711 129.989 78.0805 130.115ZM58.7435 97.0534C58.7045 96.6064 58.6795 96.3534 58.6585 96.0974C58.5285 94.5764 58.3485 93.0514 58.2715 91.5334C58.1091 87.6264 58.4979 83.716 59.4265 79.9174C60.1598 76.8805 61.0537 73.8846 62.1045 70.9424C62.8595 68.7794 63.6135 66.6324 64.3225 64.4694C66.8285 56.8064 69.0495 49.1754 70.8105 41.4444C71.2345 39.5854 71.6425 37.7274 72.0485 35.8784C72.0755 35.7554 72.0835 35.6194 72.1065 35.4474C71.2681 34.7821 70.3927 34.1647 69.4845 33.5984C69.3887 33.7753 69.3065 33.9592 69.2385 34.1484C68.6385 36.3624 67.9885 38.5634 67.4385 40.8394C66.5545 44.5274 65.7295 48.2894 64.8475 52.0574C63.9427 55.9914 62.7275 59.8475 61.2135 63.5894C60.3255 65.7584 59.3925 67.9154 58.4635 70.0894C57.3105 72.7894 56.1555 75.5154 55.1505 78.3784C54.2544 80.8818 53.6308 83.4744 53.2905 86.1115C53.2077 86.7041 53.3063 87.308 53.5735 87.8434C54.9225 90.6874 56.3735 93.4434 57.9525 96.0754C58.1351 96.4594 58.4062 96.7946 58.7435 97.0534ZM14.1805 153.333C14.1245 153.378 14.0685 153.427 14.0125 153.475C14.0705 153.775 14.1205 154.082 14.1865 154.382C14.5325 155.995 14.8715 157.608 15.2235 159.211C15.4675 160.317 15.7575 161.401 15.9705 162.511C15.9926 162.791 16.0934 163.059 16.2611 163.284C16.4288 163.509 16.6567 163.682 16.9185 163.783C17.2185 163.892 17.4955 164.05 17.7855 164.183C21.9072 166.043 25.7025 168.555 29.0255 171.621C31.3573 173.79 34.1367 175.419 37.1675 176.395C40.6313 177.446 44.2543 177.873 47.8675 177.655C48.4703 177.633 49.0703 177.562 49.6615 177.442C51.8615 176.978 54.0695 176.562 56.2615 175.987C58.6395 175.363 61.0005 174.573 63.3725 173.894C67.7908 172.517 72.5034 172.386 76.9915 173.515C78.1195 173.815 79.2245 174.196 80.3395 174.537C80.5965 174.613 80.8545 174.687 81.1715 174.779C81.239 173.914 81.1902 173.044 81.0265 172.191C79.8635 171.9 78.7625 171.612 77.6555 171.341C76.7865 171.13 75.9175 170.918 75.0375 170.741C73.354 170.369 71.6182 170.296 69.9095 170.525C67.8955 170.825 65.8775 171.13 63.8725 171.578C62.1815 171.956 60.5035 172.512 58.8285 173.047C57.1185 173.627 55.3547 174.033 53.5635 174.26C49.1173 174.822 44.6024 174.422 40.3245 173.086C36.3125 171.738 32.5089 169.835 29.0245 167.432C25.0422 164.78 21.4186 161.625 18.2435 158.045C17.0595 156.699 15.9115 155.291 14.7435 153.903C14.5645 153.7 14.3695 153.522 14.1855 153.333H14.1805ZM42.6435 13.0214C42.6225 13.3354 42.5875 13.6084 42.5875 13.8954C42.5875 15.4288 42.5875 16.9681 42.5875 18.5134C42.5983 21.0768 42.7844 23.6365 43.1445 26.1744C43.6555 29.7944 44.1565 33.4154 44.6715 37.0314C44.9715 39.1654 45.3295 41.3004 45.6665 43.4314C46.2901 47.5314 46.5148 51.6821 46.3375 55.8254C46.2755 57.5594 46.1905 59.2914 46.1285 61.0324C46.1676 61.9575 45.9762 62.8777 45.5715 63.7104C45.4437 63.9558 45.3711 64.2263 45.3591 64.5027C45.347 64.7791 45.3956 65.0548 45.5015 65.3104C45.8735 66.4224 46.1885 67.5514 46.5365 68.6664C46.6135 68.9124 46.7365 69.1464 46.9365 69.6064C46.9965 69.0704 47.0445 68.7564 47.0665 68.4344C47.2231 66.0764 47.4682 63.7574 47.8015 61.4774C47.9655 60.3774 48.1145 59.2694 48.2795 58.1774C48.8573 54.2848 48.9775 50.338 48.6375 46.4174C48.6028 46.0028 48.5718 45.5894 48.5445 45.1774C48.3445 42.1774 48.1265 39.1824 47.9315 36.1924C47.5937 30.4538 47.9746 24.6955 49.0655 19.0514C49.1445 18.6204 49.2535 18.2104 49.3445 17.8074C47.7746 16.3668 46.0705 15.0796 44.2555 13.9634C43.7738 13.5626 43.2291 13.2443 42.6435 13.0214ZM84.1435 176.221C85.1985 176.721 86.2435 177.227 87.2935 177.697C88.9322 178.4 90.6874 178.793 92.4695 178.854C96.5654 179.011 100.639 178.182 104.348 176.438C107.887 174.746 111.251 172.711 114.392 170.361C114.56 170.213 114.719 170.054 114.866 169.885C114.655 169.92 114.447 169.968 114.241 170.029C112.318 170.79 110.341 171.267 108.386 171.829C107.314 172.15 106.205 172.334 105.086 172.377C103.579 172.424 102.075 172.461 100.576 172.443C96.2345 172.396 91.8965 172.291 87.5525 172.23C86.6692 172.25 85.7883 172.329 84.9155 172.466C84.7206 172.469 84.5282 172.511 84.3502 172.59C84.1722 172.67 84.0123 172.785 83.8805 172.928C83.9225 173.989 83.9945 175.087 84.1435 176.215V176.221ZM46.6085 75.4714C46.614 75.3379 46.6094 75.2042 46.5945 75.0714C46.3875 74.4024 46.1475 73.7414 45.9735 73.0664C45.7791 72.0089 45.2312 71.0487 44.4195 70.3434C44.3917 70.3183 44.3669 70.2901 44.3455 70.2594C43.3845 69.0843 42.2852 68.0293 41.0715 67.1174C39.7265 66.0874 38.3455 65.1284 37.0095 64.0554C34.7668 62.2474 32.5335 60.3874 30.3095 58.4754C28.276 56.6729 26.0486 55.1016 23.6685 53.7904C21.9685 52.8904 20.2685 52.0334 18.5585 51.1614C16.9135 50.3224 15.2585 49.5324 13.6205 48.6394C10.7365 47.041 8.20415 44.878 6.17448 42.2794C5.99189 42.0834 5.79716 41.8991 5.59147 41.7274C5.41225 42.55 5.30419 43.3864 5.26847 44.2274C5.45047 44.4384 5.62047 44.6644 5.80647 44.8554C8.52869 47.7318 11.6338 50.2198 15.0345 52.2494C16.1345 52.8774 17.2425 53.5154 18.3455 54.1414C20.1489 55.1763 21.893 56.3115 23.5695 57.5414C26.3265 59.5902 28.9576 61.8032 31.4485 64.1684C34.0952 66.6863 36.9995 68.9186 40.1135 70.8284C42.0979 72.0129 43.9837 73.3552 45.7525 74.8424C45.9985 75.0524 46.2595 75.2154 46.6085 75.4714ZM19.5725 21.7714L19.6805 21.6404C19.5435 21.4404 19.4155 21.2304 19.2665 21.0494C17.7355 19.2044 16.1805 17.3774 14.6665 15.4834C13.0238 13.4268 11.3978 11.3268 9.78849 9.18344C8.38689 7.31113 7.08924 5.36319 5.90147 3.34843C5.77947 3.14343 5.67146 2.87044 5.37947 2.86044C5.36592 3.11326 5.36592 3.36663 5.37947 3.61945C5.71813 7.24811 6.04781 10.8814 6.36848 14.5194C6.40495 14.7625 6.45672 15.0029 6.52348 15.2394C7.44848 15.8754 8.33249 16.5224 9.23249 17.0884C9.83393 17.4701 10.4665 17.8002 11.1235 18.0754C12.7145 18.7344 14.3065 19.3394 15.8995 19.9514C16.9914 20.352 18.0387 20.8651 19.0245 21.4824C19.2035 21.5924 19.3885 21.6754 19.5725 21.7714Z" fill="white"/>
</g>
</svg>
