<svg width="51" height="52" viewBox="0 0 51 52" fill="none" xmlns="http://www.w3.org/2000/svg">
<path d="M50.2113 29.0917C50.2113 36.1697 45.9212 41.9617 40.6782 41.9617H35.0852C33.6379 41.9512 32.2247 41.5207 31.0173 40.7227C27.4513 38.4327 25.5522 33.6817 25.5522 29.0917C25.4804 26.0422 26.5462 23.0752 28.5422 20.7687C29.6272 19.571 30.4547 18.1633 30.9732 16.6327C31.3847 15.4525 31.6496 14.2264 31.7622 12.9817C31.8082 12.4817 31.8323 11.9817 31.8323 11.4737C31.8323 6.98066 34.5563 3.30566 37.8833 3.30566C38.7346 3.33965 39.5658 3.57486 40.3087 3.99203C41.0516 4.40919 41.6851 4.99645 42.1572 5.70566C43.3447 7.39239 43.9668 9.41214 43.9342 11.4747C43.8451 14.8744 45.0166 18.1869 47.2232 20.7747C48.1822 21.8293 48.9222 23.0638 49.4002 24.4067C49.944 25.9106 50.2191 27.4984 50.2132 29.0977L50.2113 29.0917Z" fill="#35E298"/>
<path d="M37.3673 25.0095C37.279 27.4493 36.6455 29.8384 35.5133 32.0015L31.0133 40.7205C27.4473 38.4305 25.5483 33.6795 25.5483 29.0895C25.4768 26.0399 26.543 23.0729 28.5393 20.7665C29.6234 19.5685 30.4501 18.1608 30.9683 16.6305C31.3796 15.4503 31.6445 14.2242 31.7573 12.9795C34.1301 14.4298 35.8555 16.7358 36.5773 19.4215C37.158 21.2256 37.4239 23.1162 37.3633 25.0105L37.3673 25.0095Z" fill="#1AB975"/>
<path d="M45.2563 29.535C45.1664 30.9366 44.6685 32.2813 43.824 33.4035C42.9794 34.5257 41.8251 35.3764 40.5032 35.8508C39.1812 36.3252 37.7494 36.4027 36.3841 36.0736C35.0187 35.7445 33.7793 35.0233 32.8187 33.9987C31.858 32.9741 31.2181 31.691 30.9775 30.3073C30.7369 28.9235 30.9063 27.4997 31.4648 26.211C32.0233 24.9223 32.9465 23.8251 34.1207 23.0545C35.2949 22.2839 36.6688 21.8736 38.0733 21.874C40.0411 21.9393 41.9026 22.7826 43.2493 24.2189C44.596 25.6552 45.3178 27.5671 45.2563 29.535Z" fill="#AE583E"/>
<path d="M37.1787 21.9326C30.8387 22.7736 28.6337 31.4116 33.6677 35.5836L35.5137 32.0026C36.6459 29.8396 37.2794 27.4505 37.3677 25.0106C37.3997 23.9806 37.3361 22.9499 37.1777 21.9316L37.1787 21.9326Z" fill="#7C3F2C"/>
<path d="M16.8485 8.92072C16.4735 7.09772 14.5365 0.496723 6.35746 1.99872C6.30019 2.01205 6.24663 2.03802 6.2007 2.07474C6.15478 2.11145 6.11765 2.15798 6.09205 2.21092C6.06645 2.26385 6.05301 2.32184 6.05274 2.38064C6.05246 2.43944 6.06536 2.49755 6.09047 2.55072C6.93747 4.45072 10.5315 11.4817 16.5135 9.52472C16.6326 9.48239 16.7323 9.39817 16.7939 9.28778C16.8555 9.17739 16.8749 9.04835 16.8485 8.92472V8.92072Z" fill="#1ED688"/>
<path d="M16.5125 9.52513C10.5315 11.4861 6.93746 4.44913 6.09046 2.55113C6.06535 2.49796 6.05246 2.43985 6.05274 2.38105C6.05301 2.32225 6.06644 2.26426 6.09205 2.21133C6.11765 2.15839 6.15478 2.11186 6.2007 2.07514C6.24663 2.03843 6.30019 2.01245 6.35746 1.99913C7.00701 1.87767 7.66496 1.80646 8.32546 1.78613C9.58046 4.14713 12.3895 8.26913 16.5985 7.95113C16.7185 8.34113 16.7985 8.67713 16.8485 8.92413C16.8749 9.04776 16.8555 9.1768 16.7939 9.28719C16.7323 9.39758 16.6326 9.4818 16.5135 9.52413L16.5125 9.52513Z" fill="#1AB975"/>
<path d="M31.2883 32.0042L26.0693 42.1242C25.3992 43.2685 24.3075 44.1047 23.0283 44.4539C21.749 44.8031 20.3839 44.6373 19.2253 43.9922C18.6226 43.6524 17.9423 43.4739 17.2503 43.4739C16.5584 43.4739 15.8781 43.6524 15.2753 43.9922C14.1172 44.6383 12.7519 44.8046 11.4725 44.4554C10.1931 44.1061 9.10161 43.2692 8.43235 42.1242L3.21235 32.0042C2.20482 30.0842 1.59132 27.9821 1.40791 25.8216C1.2245 23.661 1.47489 21.4856 2.14435 19.4232C3.74435 14.4512 6.87735 12.7172 9.03835 12.1182C9.73023 11.9214 10.4451 11.8168 11.1643 11.8072C11.2873 11.8072 11.3534 11.8072 11.3534 11.8072C12.3011 11.8062 13.2414 11.9738 14.1303 12.3022C14.9835 12.6184 15.7756 13.0799 16.4713 13.6662C16.6831 13.8641 16.962 13.9742 17.2518 13.9742C17.5417 13.9742 17.8206 13.8641 18.0323 13.6662C18.7277 13.0798 19.5194 12.6183 20.3723 12.3022C21.2613 11.9737 22.2016 11.8061 23.1493 11.8072C23.1493 11.8072 29.7573 11.3582 32.3573 19.4202C33.0277 21.483 33.2785 23.6591 33.0949 25.8203C32.9113 27.9815 32.297 30.0841 31.2883 32.0042Z" fill="#C42D2D"/>
<path d="M31.2878 32.0043L26.0688 42.1243C25.3986 43.2685 24.307 44.1048 23.0277 44.4539C21.7485 44.8031 20.3834 44.6374 19.2248 43.9923C18.622 43.6525 17.9418 43.474 17.2498 43.474C16.5579 43.474 15.8776 43.6525 15.2748 43.9923C14.636 44.3475 13.9277 44.56 13.1988 44.6153C13.1588 44.5303 9.01481 34.8093 7.95781 32.3313C4.79781 24.9223 6.02281 16.6653 9.03781 12.1173C9.72969 11.9204 10.4445 11.8159 11.1638 11.8063C11.2868 11.8063 11.3528 11.8063 11.3528 11.8063C12.3005 11.8052 13.2408 11.9728 14.1298 12.3013C14.983 12.6174 15.775 13.0789 16.4708 13.6653C16.6825 13.8632 16.9615 13.9732 17.2513 13.9732C17.5411 13.9732 17.8201 13.8632 18.0318 13.6653C18.7272 13.0788 19.5189 12.6173 20.3718 12.3013C21.2608 11.9728 22.2011 11.8051 23.1488 11.8063C23.1488 11.8063 29.7568 11.3573 32.3568 19.4193C33.0273 21.4822 33.2781 23.6585 33.0945 25.8198C32.9109 27.9812 32.2966 30.084 31.2878 32.0043Z" fill="#F44545"/>
<path d="M7.83744 34.5224C7.43071 34.7664 7.13128 35.1551 6.99922 35.6106C6.86716 36.0661 6.91225 36.5548 7.12544 36.9784C7.62127 37.9733 8.25669 38.8923 9.01244 39.7074L3.32744 39.0314C3.09801 39.0111 2.86681 39.0366 2.64736 39.1066C2.42791 39.1766 2.2246 39.2896 2.0493 39.439C1.874 39.5884 1.73023 39.7712 1.62637 39.9768C1.52252 40.1824 1.46068 40.4067 1.44444 40.6364C1.38458 41.1012 1.50831 41.5709 1.78935 41.9459C2.07038 42.3209 2.48656 42.5715 2.94944 42.6444L8.63444 43.3204C7.73023 43.9387 6.92162 44.6864 6.23444 45.5394C5.939 45.9124 5.79429 46.3827 5.82892 46.8573C5.86354 47.3319 6.07499 47.7762 6.42144 48.1024C6.5877 48.2563 6.78417 48.3739 6.99836 48.4477C7.21254 48.5214 7.43974 48.5498 7.66549 48.531C7.89125 48.5122 8.11061 48.4466 8.30963 48.3384C8.50864 48.2302 8.68294 48.0817 8.82144 47.9024C10.7694 45.4734 14.2994 44.4324 17.2874 44.3274C17.5723 44.3034 17.8474 44.2124 18.0904 44.0618C18.3334 43.9112 18.5373 43.7052 18.6855 43.4608C18.8337 43.2163 18.922 42.9403 18.9432 42.6552C18.9644 42.3702 18.9179 42.0841 18.8074 41.8204C18.7095 41.5567 18.5493 41.3207 18.3403 41.1324C18.1313 40.9442 17.8799 40.8094 17.6074 40.7394C17.5534 40.7264 12.1514 39.3394 10.1444 35.2824C10.0497 35.0758 9.91338 34.8909 9.74397 34.7394C9.57456 34.5878 9.37572 34.4729 9.15987 34.4016C8.94402 34.3304 8.71579 34.3044 8.48946 34.3254C8.26313 34.3464 8.04355 34.4138 7.84444 34.5234L7.83744 34.5224Z" fill="#1AB975"/>
<path d="M50.0229 46.4216C49.9415 47.5137 49.4587 48.537 48.6674 49.2942C47.8761 50.0513 46.8325 50.4885 45.7379 50.5216L21.6679 50.5716C17.4559 50.5796 14.1739 46.6716 14.6399 42.2116C14.7366 41.2689 15.0022 40.3513 15.4239 39.5026C15.9884 38.3263 16.8693 37.3304 17.9679 36.6264C19.0664 35.9224 20.3393 35.5381 21.6439 35.5166C22.1766 35.5167 22.7074 35.5808 23.2249 35.7076L43.6369 40.6816L45.0948 41.0376L46.6949 41.4266C47.5506 41.6532 48.3203 42.1275 48.9074 42.7901C49.4945 43.4526 49.8728 44.2738 49.9949 45.1506C50.0598 45.5712 50.0692 45.9985 50.0229 46.4216Z" fill="#FFA90B"/>
<path d="M49.9897 45.1426C49.6045 45.695 49.0929 46.1474 48.4975 46.4621C47.902 46.7767 47.2401 46.9446 46.5667 46.9516L22.4987 47.0016C20.5673 46.942 18.7383 46.1191 17.4126 44.7132C16.087 43.3073 15.3728 41.4332 15.4267 39.5016C15.9912 38.3253 16.872 37.3293 17.9706 36.6253C19.0692 35.9213 20.3421 35.537 21.6467 35.5156C21.9316 35.5156 22.2162 35.5343 22.4987 35.5716C22.7443 35.603 22.988 35.6481 23.2287 35.7066L23.9577 35.8836C42.8277 40.4836 26.0057 36.3836 43.6407 40.6836L45.0987 41.0396L46.6987 41.4286C47.5544 41.6552 48.3241 42.1296 48.9112 42.7921C49.4983 43.4546 49.8767 44.2758 49.9987 45.1526L49.9897 45.1426Z" fill="#FFB52D"/>
<path d="M46.8561 40.6479L46.3081 40.5139C51.6161 35.8749 52.7471 25.5769 47.7481 20.2139C45.689 17.7754 44.5957 14.6664 44.6751 11.4759C44.6751 6.53588 41.6281 2.51688 37.8831 2.51688C34.1381 2.51688 31.0911 6.53688 31.0911 11.4759C31.0916 12.5795 30.9706 13.6798 30.7301 14.7569C27.2401 10.4569 21.6991 9.96887 17.9941 12.7149V2.63588C18.0005 2.53453 17.9861 2.43295 17.9518 2.33738C17.9175 2.24182 17.8639 2.15431 17.7944 2.08026C17.7249 2.00621 17.641 1.94719 17.5478 1.90685C17.4546 1.8665 17.3541 1.84569 17.2526 1.84569C17.151 1.84569 17.0506 1.8665 16.9574 1.90685C16.8642 1.94719 16.7803 2.00621 16.7108 2.08026C16.6413 2.15431 16.5877 2.24182 16.5534 2.33738C16.519 2.43295 16.5046 2.53453 16.5111 2.63588V5.74188C14.2941 1.47988 10.2631 0.339875 5.74909 1.30888C5.63807 1.33718 5.53443 1.38901 5.44517 1.46084C5.35591 1.53267 5.28313 1.62284 5.23174 1.72524C5.18035 1.82764 5.15155 1.93989 5.1473 2.05438C5.14305 2.16887 5.16344 2.28295 5.20709 2.38888C5.93967 4.17176 6.94242 5.8312 8.18009 7.30888C10.4641 9.97088 13.2991 11.2889 16.5071 10.3449V12.7119C12.1531 9.48388 4.85909 10.6429 1.86309 18.0029C1.78353 18.1929 1.77914 18.406 1.85081 18.5991C1.92248 18.7922 2.06485 18.9508 2.24909 19.0429C2.33961 19.0834 2.43748 19.1049 2.53664 19.106C2.63581 19.1072 2.73415 19.0879 2.82557 19.0495C2.91698 19.011 2.99953 18.9542 3.06808 18.8825C3.13664 18.8109 3.18974 18.7259 3.22409 18.6329C5.96609 11.8979 12.5241 11.3539 16.0011 14.2749C16.3423 14.5876 16.7883 14.7611 17.2511 14.7611C17.7139 14.7611 18.1599 14.5876 18.5011 14.2749C22.4601 10.9489 29.3091 12.3969 31.6561 19.6749C32.3095 21.6898 32.542 23.8175 32.339 25.9259C32.136 28.0344 31.5019 30.0786 30.4761 31.9319C29.6071 33.5889 28.8871 34.9749 28.2961 36.1249C23.7031 35.0699 23.0471 34.6839 21.4841 34.7249C21.2827 34.7405 21.0948 34.8326 20.959 34.9821C20.8232 35.1317 20.7497 35.3275 20.7536 35.5295C20.7574 35.7315 20.8383 35.9244 20.9797 36.0687C21.121 36.213 21.3122 36.2979 21.5141 36.3059C21.8149 36.3001 22.1158 36.3171 22.4141 36.3569L21.9691 40.6169C21.9427 40.8191 21.9964 41.0236 22.1188 41.1868C22.2412 41.3499 22.4225 41.4587 22.6241 41.4899C22.724 41.4986 22.8247 41.4874 22.9202 41.4568C23.0157 41.4262 23.1042 41.3769 23.1804 41.3117C23.2567 41.2465 23.3192 41.1668 23.3643 41.0772C23.4094 40.9876 23.4362 40.8899 23.4431 40.7899L23.8731 36.6709L31.0611 38.4229L30.8491 40.4549C30.8224 40.6573 30.876 40.8621 30.9984 41.0254C31.1208 41.1888 31.3023 41.2977 31.5041 41.3289C31.604 41.3378 31.7048 41.3266 31.8003 41.2961C31.8959 41.2655 31.9844 41.2162 32.0607 41.151C32.137 41.0858 32.1995 41.0061 32.2445 40.9164C32.2896 40.8267 32.3163 40.729 32.3231 40.6289L32.5171 38.7769L43.6341 41.4859L43.0611 46.9699C43.0344 47.1723 43.088 47.3771 43.2104 47.5404C43.3328 47.7038 43.5143 47.8127 43.7161 47.8439C43.816 47.8526 43.9167 47.8414 44.0122 47.8108C44.1077 47.7802 44.1962 47.7309 44.2724 47.6657C44.3487 47.6005 44.4112 47.5208 44.4563 47.4312C44.5014 47.3416 44.5282 47.2439 44.5351 47.1439L45.0891 41.8389L46.5281 42.1899C47.4113 42.4296 48.1775 42.9815 48.6849 43.7431C49.1922 44.5048 49.4062 45.4245 49.2871 46.3319C49.2193 47.2358 48.8193 48.0827 48.1642 48.7092C47.509 49.3357 46.6452 49.6975 45.7391 49.7249L38.1481 49.7409L38.4181 47.1619C38.4448 46.9595 38.3912 46.7547 38.2688 46.5913C38.1464 46.428 37.9648 46.3191 37.7631 46.2879C37.6631 46.279 37.5624 46.2902 37.4669 46.3207C37.3713 46.3512 37.2827 46.4006 37.2065 46.4657C37.1302 46.5309 37.0677 46.6107 37.0226 46.7004C36.9776 46.79 36.9509 46.8878 36.9441 46.9879L36.6561 49.7459L29.3801 49.7609L29.6341 47.3359C29.6605 47.1337 29.6068 46.9291 29.4844 46.766C29.362 46.6028 29.1806 46.4941 28.9791 46.4629C28.8791 46.454 28.7784 46.4652 28.6828 46.4957C28.5873 46.5262 28.4987 46.5756 28.4225 46.6407C28.3462 46.7059 28.2837 46.7857 28.2386 46.8754C28.1936 46.965 28.1669 47.0628 28.1601 47.1629C28.0971 47.7629 27.8951 49.7019 27.8881 49.7629L24.4051 49.7699L24.8461 45.5489C24.8728 45.3465 24.8192 45.1417 24.6968 44.9783C24.5743 44.815 24.3928 44.7061 24.1911 44.6749C24.0912 44.6661 23.9905 44.6774 23.895 44.708C23.7995 44.7386 23.711 44.7879 23.6347 44.8531C23.5585 44.9182 23.496 44.9979 23.4509 45.0875C23.4058 45.1771 23.379 45.2748 23.3721 45.3749L22.9131 49.7749H22.8861H21.6581C20.2206 49.7416 18.836 49.2261 17.7267 48.3111C16.6175 47.3962 15.8481 46.1348 15.5421 44.7299C15.1593 43.2378 15.2877 41.6605 15.9068 40.25C16.5258 38.8395 17.5998 37.6772 18.9571 36.9489C19.1384 36.8505 19.2756 36.6869 19.3409 36.4913C19.4063 36.2956 19.3949 36.0825 19.3091 35.8949C19.2718 35.803 19.2159 35.7198 19.145 35.6504C19.0741 35.581 18.9897 35.527 18.897 35.4918C18.8043 35.4565 18.7053 35.4407 18.6062 35.4454C18.5071 35.45 18.4101 35.475 18.3211 35.5189C16.8844 36.2518 15.703 37.4022 14.9321 38.8189C13.1864 37.9741 11.743 36.6125 10.7981 34.9189C10.5535 34.4117 10.1401 34.0054 9.6289 33.7695C9.11764 33.5337 8.54028 33.4829 7.9957 33.6259C7.45111 33.7689 6.97319 34.0968 6.64378 34.5534C6.31438 35.01 6.15399 35.567 6.19009 36.1289L3.86309 31.6169C2.22843 28.5087 1.70517 24.9352 2.38009 21.4889C2.42352 21.2887 2.38768 21.0794 2.28008 20.9051C2.17249 20.7307 2.00152 20.6048 1.80309 20.5539C1.70501 20.5348 1.60408 20.5357 1.50635 20.5565C1.40862 20.5774 1.3161 20.6177 1.23432 20.6751C1.15254 20.7325 1.08318 20.8058 1.03039 20.8907C0.977601 20.9755 0.942467 21.0701 0.927091 21.1689C0.181093 24.9827 0.757825 28.937 2.56209 32.3789L5.73009 38.5209L3.40709 38.2449C3.07823 38.2158 2.74687 38.2524 2.43232 38.3527C2.11778 38.453 1.82635 38.6149 1.57503 38.829C1.32371 39.0431 1.11753 39.305 0.968511 39.5996C0.819496 39.8942 0.730628 40.2156 0.707091 40.5449C0.619759 41.212 0.796818 41.8869 1.20043 42.4252C1.60405 42.9636 2.20221 43.3227 2.86709 43.4259L6.70709 43.8889C5.75409 44.7989 4.98609 45.6239 5.08309 46.9249C5.08901 47.4226 5.24832 47.9063 5.53929 48.3102C5.83026 48.714 6.23872 49.0183 6.70896 49.1814C7.1792 49.3446 7.68833 49.3587 8.16689 49.2219C8.64546 49.0851 9.07017 48.804 9.38309 48.4169C10.6563 46.984 12.3495 45.9897 14.2211 45.5759C14.6726 47.2107 15.6395 48.6562 16.9781 49.6977C18.3166 50.7392 19.9555 51.321 21.6511 51.3569L45.7361 51.3069C47.1214 51.2586 48.431 50.6631 49.378 49.6509C50.325 48.6387 50.8321 47.2923 50.7881 45.9069C50.8174 44.7161 50.4453 43.5501 49.7315 42.5965C49.0177 41.643 48.0039 40.9573 46.8531 40.6499L46.8561 40.6479ZM6.98709 2.68888C11.9181 1.96988 15.0281 4.47788 16.0661 8.83288C12.0491 9.98888 8.89009 6.59988 6.98709 2.68888ZM44.3741 40.0419L29.8071 36.4889C30.2281 35.6659 30.6951 34.7589 31.2151 33.7599C31.8701 35.0183 32.8536 36.0759 34.0613 36.8205C35.2689 37.565 36.6555 37.9688 38.0741 37.9889C39.9567 37.9393 41.763 37.2343 43.1814 35.9955C44.5999 34.7567 45.5416 33.0617 45.8441 31.2029C45.8864 31.0027 45.8494 30.7938 45.7409 30.6204C45.6323 30.4469 45.4607 30.3223 45.2621 30.2729C45.1639 30.2546 45.0631 30.2562 44.9656 30.2777C44.8681 30.2992 44.7759 30.3401 44.6946 30.3979C44.6132 30.4558 44.5443 30.5294 44.492 30.6144C44.4397 30.6995 44.405 30.7942 44.3901 30.8929C44.1438 32.4035 43.3782 33.7808 42.2252 34.7874C41.0722 35.794 39.6041 36.3667 38.0741 36.4069C36.7546 36.3818 35.4743 35.954 34.4048 35.1808C33.3352 34.4076 32.5276 33.326 32.0901 32.0809C33.2892 29.6686 33.9058 27.0087 33.8901 24.3149C37.6111 20.9209 43.3481 23.0619 44.3661 28.0759C44.3825 28.1744 44.4186 28.2686 44.4722 28.3528C44.5259 28.4371 44.596 28.5096 44.6783 28.5661C44.7607 28.6226 44.8536 28.6619 44.9515 28.6816C45.0494 28.7013 45.1503 28.7011 45.2481 28.6809C45.4461 28.628 45.616 28.5004 45.7219 28.3249C45.8278 28.1495 45.8616 27.9397 45.8161 27.7399C45.448 25.8986 44.4866 24.2287 43.0791 22.9859C41.8146 21.863 40.2089 21.1985 38.5208 21.0994C36.8326 21.0004 35.1602 21.4726 33.7731 22.4399C33.5334 20.316 32.8776 18.2602 31.8431 16.3899C32.3312 14.7977 32.5766 13.1411 32.5711 11.4759C32.5711 7.82588 34.7021 4.09888 37.8801 4.09888C41.0241 4.09888 43.1891 7.77588 43.1891 11.4759C43.0902 15.0814 44.338 18.5945 46.6891 21.3299C50.5521 25.4719 50.1781 33.1629 46.8221 37.6939C46.1526 38.6198 45.3208 39.4167 44.3671 40.0459L44.3741 40.0419ZM13.9071 44.0169C11.7141 44.514 9.73569 45.6948 8.25709 47.3889C8.17875 47.4904 8.08013 47.5744 7.96752 47.6357C7.8549 47.6969 7.73076 47.7341 7.603 47.7447C7.47524 47.7553 7.34666 47.7392 7.22547 47.6974C7.10428 47.6556 6.99312 47.589 6.89909 47.5019C6.7037 47.3176 6.58443 47.0668 6.56481 46.799C6.54519 46.5311 6.62664 46.2656 6.79309 46.0549C7.43605 45.2606 8.19171 44.5645 9.03609 43.9889C9.16576 43.8975 9.26553 43.7698 9.32286 43.6219C9.3802 43.4739 9.39255 43.3124 9.35836 43.1574C9.32417 43.0025 9.24497 42.8612 9.1307 42.7511C9.01643 42.6411 8.87219 42.5672 8.71609 42.5389L3.03109 41.8629C2.76931 41.8223 2.53378 41.681 2.37478 41.4691C2.21577 41.2572 2.14591 40.9916 2.18009 40.7289C2.18928 40.599 2.22424 40.4724 2.28292 40.3562C2.34161 40.24 2.42284 40.1367 2.52189 40.0523C2.62094 39.9678 2.73582 39.904 2.85981 39.8644C2.98381 39.8249 3.11445 39.8104 3.24409 39.8219H3.26209H3.27909H3.27209L8.40909 40.4329C8.64509 40.4169 9.36309 40.7429 9.67809 40.0549C9.74504 39.9077 9.76764 39.7442 9.74313 39.5843C9.71862 39.4245 9.64807 39.2753 9.54009 39.1549C8.83573 38.3946 8.24312 37.5381 7.78009 36.6109C7.65966 36.3717 7.63396 36.0958 7.70812 35.8385C7.78228 35.5812 7.95083 35.3613 8.18009 35.2229C8.29258 35.1607 8.41671 35.1224 8.54469 35.1105C8.67266 35.0985 8.80173 35.1132 8.92379 35.1535C9.04584 35.1937 9.15826 35.2588 9.25399 35.3446C9.34972 35.4303 9.4267 35.535 9.48009 35.6519C10.5759 37.6443 12.2622 39.2482 14.3071 40.2429C13.9048 41.458 13.7684 42.7444 13.9071 44.0169Z" fill="black"/>
</svg>
