<svg width="16" height="20" viewBox="0 0 16 20" fill="none" xmlns="http://www.w3.org/2000/svg">
<path d="M7.94149 9.73448C8.98781 9.73436 10.0017 9.37148 10.8105 8.70765C11.6193 8.04383 12.1729 7.12016 12.3771 6.09395C12.5812 5.06773 12.4232 4.00247 11.9301 3.07966C11.4369 2.15685 10.6391 1.43355 9.67243 1.033C8.70581 0.632459 7.63021 0.579447 6.62888 0.882978C5.62756 1.18651 4.76244 1.82781 4.1809 2.69764C3.59937 3.56748 3.33739 4.61202 3.43961 5.65333C3.54183 6.69465 4.00191 7.66834 4.74149 8.40849C5.15641 8.83584 5.65429 9.17388 6.20457 9.4019C6.75484 9.62992 7.3459 9.7431 7.94149 9.73448ZM5.52349 2.78648C6.0831 2.22541 6.81995 1.87574 7.60847 1.79707C8.397 1.7184 9.18841 1.9156 9.84784 2.35505C10.5073 2.79451 10.9939 3.44903 11.2248 4.20707C11.4558 4.96512 11.4167 5.77979 11.1143 6.51225C10.8118 7.24471 10.2648 7.84966 9.56633 8.22398C8.86787 8.5983 8.06122 8.71882 7.28384 8.56505C6.50646 8.41127 5.80646 7.99268 5.30312 7.38063C4.79979 6.76857 4.52426 6.00092 4.52349 5.20848C4.51368 4.75757 4.59748 4.30953 4.76961 3.89265C4.94173 3.47577 5.19842 3.09912 5.52349 2.78648Z" fill="#202834"/>
<path d="M15.8506 15.131C15.8206 14.7329 15.7696 14.3367 15.6976 13.944C15.6266 13.54 15.5291 13.1411 15.4056 12.75C15.2811 12.3631 15.1169 11.9901 14.9156 11.637C14.7177 11.2809 14.4687 10.9558 14.1766 10.672C13.8695 10.3823 13.5087 10.1554 13.1146 10.004C12.6826 9.8369 12.2228 9.75342 11.7596 9.75799C11.4894 9.78701 11.234 9.89561 11.0256 10.07C10.8046 10.214 10.5476 10.381 10.2596 10.565C9.94878 10.7505 9.61626 10.8969 9.26959 11.001C8.48333 11.2619 7.63384 11.2619 6.84759 11.001C6.50076 10.8973 6.1682 10.7509 5.85759 10.565C5.57259 10.382 5.31459 10.217 5.09159 10.07C4.88284 9.89559 4.62706 9.787 4.35659 9.75799C3.89342 9.75342 3.43359 9.8369 3.00159 10.004C2.60772 10.1559 2.24706 10.3827 1.93959 10.672C1.64775 10.9559 1.3991 11.281 1.20159 11.637C1.00029 11.9901 0.836082 12.3631 0.711588 12.75C0.588218 13.1412 0.490675 13.54 0.419589 13.944C0.346961 14.3369 0.295885 14.7335 0.266589 15.132C0.242589 15.49 0.22959 15.864 0.22959 16.242C0.210367 16.6783 0.282846 17.1137 0.442347 17.5202C0.601848 17.9267 0.844823 18.2952 1.15559 18.602C1.80399 19.1958 2.66106 19.509 3.53959 19.473H12.5756C13.4544 19.5088 14.3117 19.1957 14.9606 18.602C15.2713 18.2952 15.5142 17.9267 15.6736 17.5202C15.8329 17.1136 15.9051 16.6782 15.8856 16.242C15.8876 15.862 15.8756 15.493 15.8506 15.131ZM14.2046 17.804C13.9842 18.0012 13.727 18.1529 13.4478 18.2504C13.1686 18.3479 12.8728 18.3892 12.5776 18.372H3.54159C3.24649 18.3894 2.95086 18.3481 2.67179 18.2506C2.39271 18.1531 2.1357 18.0013 1.91559 17.804C1.71351 17.5996 1.55699 17.3548 1.45633 17.0855C1.35568 16.8163 1.31316 16.5288 1.33159 16.242C1.33159 15.889 1.34359 15.542 1.36659 15.209C1.39321 14.8501 1.43894 14.493 1.50359 14.139C1.56616 13.7828 1.65201 13.431 1.76059 13.086C1.86256 12.7714 1.9966 12.4682 2.16059 12.181C2.30618 11.9186 2.48909 11.6788 2.70359 11.469C2.90825 11.278 3.14802 11.1286 3.40959 11.029C3.68645 10.9224 3.97995 10.8655 4.27659 10.861C4.31459 10.881 4.38359 10.921 4.49359 10.993C4.72059 11.14 4.98059 11.309 5.26859 11.493C5.65796 11.7297 6.07557 11.9165 6.51159 12.049C7.51811 12.3819 8.60507 12.3819 9.61159 12.049C10.0476 11.9165 10.4652 11.7297 10.8546 11.493C11.1496 11.304 11.4026 11.14 11.6286 10.993C11.7396 10.921 11.8076 10.881 11.8466 10.861C12.1432 10.8656 12.4367 10.9225 12.7136 11.029C12.975 11.1284 13.2145 11.2778 13.4186 11.469C13.634 11.6786 13.8173 11.9189 13.9626 12.182C14.1265 12.4674 14.2606 12.769 14.3626 13.082C14.4712 13.427 14.557 13.7788 14.6196 14.135C14.6842 14.489 14.7299 14.8461 14.7566 15.205C14.7796 15.537 14.7916 15.885 14.7916 16.238C14.8099 16.5257 14.7671 16.814 14.6659 17.0839C14.5648 17.3538 14.4075 17.5992 14.2046 17.804Z" fill="#202834"/>
</svg>
