<svg width="19" height="18" viewBox="0 0 19 18" fill="none" xmlns="http://www.w3.org/2000/svg">
<path d="M6.17399 11.8245H16.222C16.3435 11.8237 16.4615 11.783 16.5577 11.7088C16.654 11.6346 16.7233 11.5308 16.755 11.4135L18.971 3.50449C18.9954 3.41977 18.9999 3.33057 18.9841 3.24384C18.9683 3.1571 18.9327 3.07518 18.88 3.00449C18.829 2.93517 18.7624 2.87881 18.6856 2.8399C18.6089 2.801 18.524 2.78064 18.438 2.78049H4.89699L4.49699 0.962494C4.47092 0.838075 4.40301 0.726332 4.30457 0.645905C4.20613 0.565477 4.0831 0.521237 3.95599 0.520508H0.634986C0.489382 0.526637 0.351777 0.588776 0.250919 0.69397C0.150061 0.799163 0.09375 0.939259 0.09375 1.08499C0.09375 1.23072 0.150061 1.37082 0.250919 1.47601C0.351777 1.58121 0.489382 1.64338 0.634986 1.64951H3.51499C3.58499 1.97151 5.41499 10.3495 5.51499 10.8275C5.21604 10.9626 4.96256 11.1813 4.78512 11.4572C4.60768 11.7331 4.51387 12.0545 4.51499 12.3825C4.51248 12.6033 4.55348 12.8223 4.63564 13.0273C4.71781 13.2322 4.83954 13.4189 4.99387 13.5768C5.14821 13.7346 5.33212 13.8605 5.53512 13.9473C5.73812 14.0341 5.95623 14.08 6.17699 14.0825H16.222C16.3718 14.0825 16.5155 14.023 16.6215 13.917C16.7275 13.8111 16.787 13.6673 16.787 13.5175C16.787 13.3676 16.7275 13.2239 16.6215 13.118C16.5155 13.012 16.3718 12.9525 16.222 12.9525H6.18099C6.03538 12.9464 5.89778 12.8842 5.79692 12.779C5.69606 12.6738 5.63975 12.5337 5.63975 12.388C5.63975 12.2423 5.69606 12.1022 5.79692 11.997C5.89778 11.8918 6.03538 11.8296 6.18099 11.8235L6.17399 11.8245ZM17.704 3.91449L15.804 10.6935H6.61999L5.14199 3.91449H17.704Z" fill="#202834"/>
<path d="M5.62116 15.7799C5.62747 16.1075 5.73036 16.4258 5.91692 16.6951C6.10349 16.9643 6.36542 17.1725 6.66985 17.2935C6.97428 17.4144 7.30766 17.4427 7.62814 17.3749C7.94862 17.3071 8.24193 17.1462 8.47127 16.9123C8.70062 16.6784 8.85578 16.3819 8.91728 16.0602C8.97878 15.7384 8.94389 15.4057 8.81699 15.1037C8.69008 14.8017 8.47681 14.5439 8.20393 14.3627C7.93106 14.1814 7.61074 14.0848 7.28316 14.085C6.83811 14.0897 6.41314 14.2709 6.10153 14.5887C5.78993 14.9064 5.61716 15.3349 5.62116 15.7799ZM7.28316 15.2149C7.39535 15.2128 7.50565 15.244 7.6 15.3048C7.69435 15.3655 7.76848 15.453 7.81293 15.556C7.85739 15.659 7.87016 15.773 7.84961 15.8833C7.82907 15.9936 7.77615 16.0953 7.69758 16.1754C7.61902 16.2555 7.51838 16.3105 7.4085 16.3332C7.29861 16.3559 7.18445 16.3453 7.08056 16.3029C6.97668 16.2605 6.88778 16.1881 6.8252 16.095C6.76262 16.0018 6.72918 15.8921 6.72916 15.7799C6.72783 15.6315 6.78538 15.4886 6.88922 15.3825C6.99307 15.2764 7.13472 15.2168 7.28316 15.2149Z" fill="#202834"/>
<path d="M13.4532 15.7799C13.4597 16.1072 13.5627 16.4252 13.7492 16.6942C13.9357 16.9631 14.1975 17.171 14.5017 17.2917C14.8059 17.4125 15.139 17.4407 15.4592 17.3729C15.7794 17.3051 16.0724 17.1442 16.3016 16.9106C16.5307 16.6769 16.6858 16.3807 16.7473 16.0592C16.8088 15.7378 16.774 15.4053 16.6473 15.1035C16.5206 14.8018 16.3076 14.5441 16.035 14.3629C15.7625 14.1817 15.4425 14.085 15.1152 14.085C14.6701 14.0897 14.2452 14.2709 13.9336 14.5887C13.622 14.9064 13.4492 15.3349 13.4532 15.7799ZM15.1152 15.2149C15.2274 15.2128 15.3377 15.244 15.432 15.3048C15.5264 15.3655 15.6005 15.453 15.645 15.556C15.6894 15.659 15.7022 15.773 15.6816 15.8833C15.6611 15.9936 15.6082 16.0953 15.5296 16.1754C15.4511 16.2555 15.3504 16.3105 15.2405 16.3332C15.1306 16.3559 15.0165 16.3453 14.9126 16.3029C14.8087 16.2605 14.7198 16.1881 14.6572 16.095C14.5946 16.0018 14.5612 15.8921 14.5612 15.7799C14.5604 15.7064 14.5741 15.6334 14.6015 15.5652C14.6289 15.4969 14.6695 15.4348 14.721 15.3822C14.7724 15.3296 14.8337 15.2877 14.9013 15.2589C14.969 15.23 15.0417 15.2157 15.1152 15.2149Z" fill="#202834"/>
</svg>
