<svg width="40" height="60" viewBox="0 0 40 60" fill="none" xmlns="http://www.w3.org/2000/svg">
<path d="M28.9465 58.2031H10.7565C10.4598 58.212 10.1716 58.1027 9.95544 57.8992C9.73924 57.6958 9.61266 57.4148 9.60352 57.1181V54.5381H30.1035V57.1181C30.099 57.2654 30.0655 57.4103 30.0048 57.5446C29.9442 57.6789 29.8576 57.7999 29.7502 57.9007C29.6427 58.0015 29.5164 58.0801 29.3785 58.132C29.2406 58.1838 29.0938 58.208 28.9465 58.2031Z" fill="#8DCAFC"/>
<path d="M30.0989 54.5381V57.1191C30.0892 57.4154 29.9626 57.6958 29.7467 57.8989C29.5308 58.1021 29.2432 58.2115 28.9469 58.2031H25.2949C25.5916 58.212 25.8797 58.1029 26.096 57.8997C26.3123 57.6964 26.4393 57.4157 26.4489 57.1191V54.5381H30.0989Z" fill="#64B9FC"/>
<path d="M30.637 54.9202H9.06605C8.7909 54.927 8.52276 54.833 8.31194 54.6561C8.10113 54.4792 7.96212 54.2314 7.92104 53.9592L3.99805 21.7402H35.7051L31.7821 53.9592C31.741 54.2314 31.602 54.4792 31.3912 54.6561C31.1803 54.833 30.9122 54.927 30.637 54.9202Z" fill="#D9ECFD"/>
<path d="M3.99805 21.7402L4.42805 25.2732H28.679C28.9445 25.2641 29.2088 25.3115 29.4545 25.4122C29.7002 25.513 29.9217 25.6647 30.1044 25.8575C30.287 26.0503 30.4267 26.2796 30.514 26.5304C30.6014 26.7812 30.6344 27.0477 30.6111 27.3122L27.3671 53.9602C27.3262 54.2325 27.1872 54.4804 26.9764 54.6574C26.7655 54.8343 26.4972 54.9282 26.222 54.9212H30.6371C30.9123 54.9282 31.1805 54.8343 31.3914 54.6574C31.6022 54.4804 31.7412 54.2325 31.782 53.9602L35.705 21.7412L3.99805 21.7402Z" fill="#B5DBFD"/>
<path d="M4.76953 28.0752L7.92053 53.9592C7.96161 54.2313 8.1006 54.4792 8.31142 54.6561C8.52223 54.833 8.79039 54.9269 9.06554 54.9202H30.6405C30.9157 54.9269 31.1838 54.833 31.3946 54.6561C31.6055 54.4792 31.7445 54.2313 31.7855 53.9592L34.9365 28.0752H4.76953Z" fill="#FDDD45"/>
<path d="M30.5197 28.0752L27.3676 53.9592C27.3268 54.2314 27.1878 54.4794 26.977 54.6563C26.7661 54.8333 26.4979 54.9271 26.2227 54.9202H30.6376C30.9128 54.9271 31.1811 54.8333 31.392 54.6563C31.6028 54.4794 31.7418 54.2314 31.7827 53.9592L34.9346 28.0752H30.5197Z" fill="#F8C52D"/>
<path d="M21.7686 1.92186V19.9579H17.9355V1.92186C17.9405 1.76545 18.0073 1.61739 18.1213 1.51016C18.2353 1.40293 18.3871 1.34528 18.5435 1.34986H21.1606C21.317 1.34528 21.4688 1.40293 21.5828 1.51016C21.6968 1.61739 21.7636 1.76545 21.7686 1.92186Z" fill="#FC5A95"/>
<path d="M19.8526 5.51466C19.2122 5.51397 18.5723 5.54735 17.9355 5.61466V7.68666C19.2087 7.53412 20.4954 7.53412 21.7686 7.68666V5.61666C21.1321 5.5487 20.4926 5.51465 19.8526 5.51466Z" fill="#FB1466"/>
<path d="M37.0134 22.3992H2.69035C2.40164 22.4075 2.12141 22.301 1.91108 22.1031C1.70075 21.9051 1.5775 21.6319 1.56836 21.3432V19.6102C1.5775 19.3215 1.70075 19.0482 1.91108 18.8502C2.12141 18.6523 2.40164 18.5458 2.69035 18.5542H37.0134C37.3021 18.5458 37.5823 18.6523 37.7926 18.8502C38.003 19.0482 38.1262 19.3215 38.1354 19.6102V21.3472C38.1254 21.6352 38.0018 21.9077 37.7915 22.1048C37.5813 22.302 37.3015 22.4078 37.0134 22.3992Z" fill="#EAF6FF"/>
<path d="M38.1361 19.6111V21.3471C38.127 21.6358 38.0038 21.909 37.7934 22.107C37.5831 22.305 37.3029 22.4114 37.0142 22.4031H33.2852C33.5739 22.4114 33.8541 22.305 34.0644 22.107C34.2747 21.909 34.398 21.6358 34.4072 21.3471V19.6141C34.398 19.3254 34.2747 19.0521 34.0644 18.8542C33.8541 18.6562 33.5739 18.5497 33.2852 18.5581H37.0142C37.3024 18.5497 37.5821 18.6558 37.7924 18.8531C38.0026 19.0504 38.1262 19.3229 38.1361 19.6111Z" fill="#C5E2FF"/>
<path d="M26.5583 51.6979C26.6383 51.7718 26.701 51.8623 26.7419 51.9632C26.7829 52.064 26.8011 52.1726 26.7953 52.2813C26.7895 52.39 26.7597 52.496 26.7082 52.5919C26.6567 52.6878 26.5847 52.7711 26.4973 52.8359C24.6134 54.2828 22.2796 55.0189 19.9065 54.9147C17.5333 54.8104 15.273 53.8725 13.5233 52.266C11.8344 50.7211 10.8234 48.5721 10.7099 46.286C10.5964 44 11.3897 41.7615 12.9173 40.0569C12.9927 39.9734 13.0838 39.9056 13.1855 39.8575C13.2872 39.8093 13.3974 39.7818 13.5097 39.7764C13.6221 39.771 13.7344 39.7879 13.8403 39.8261C13.9461 39.8643 14.0433 39.923 14.1263 39.999L26.5583 51.6979Z" fill="#FDE784"/>
<path d="M24.7867 50.023C23.5758 51.1362 21.991 51.754 20.3462 51.754C18.7014 51.754 17.1165 51.1362 15.9057 50.023C15.3261 49.4922 14.8632 48.8466 14.5466 48.1272C14.2299 47.4078 14.0664 46.6305 14.0664 45.8445C14.0664 45.0585 14.2299 44.2812 14.5466 43.5618C14.8632 42.8424 15.3261 42.1968 15.9057 41.666L24.7867 50.023Z" fill="#FEF5C8"/>
<path d="M37.0132 17.6968H36.5802C35.9982 13.9611 34.0792 10.5638 31.1802 8.13683C28.7564 6.08836 25.8158 4.74606 22.6802 4.25683V1.92183C22.6677 1.5312 22.5009 1.16144 22.2164 0.893446C21.9319 0.625455 21.5529 0.481052 21.1622 0.49183H18.5452C18.1542 0.480513 17.7746 0.624676 17.4897 0.892724C17.2048 1.16077 17.0377 1.53084 17.0252 1.92183V4.25783C13.8896 4.74706 10.949 6.08936 8.5252 8.13783C5.62619 10.5648 3.70725 13.9621 3.12521 17.6978H2.6922C2.16896 17.683 1.66116 17.8761 1.27995 18.2348C0.898745 18.5935 0.675186 19.0887 0.658203 19.6118V21.3448C0.675186 21.868 0.898745 22.3631 1.27995 22.7219C1.66116 23.0806 2.16896 23.2737 2.6922 23.2588H3.2672L7.0172 54.0588C7.07897 54.483 7.27539 54.8761 7.5775 55.1802C7.87961 55.4843 8.27144 55.6833 8.69521 55.7478V57.1198C8.71245 57.6508 8.93928 58.1533 9.32609 58.5174C9.71289 58.8815 10.2282 59.0777 10.7592 59.0628H28.9492C29.4802 59.0777 29.9955 58.8815 30.3823 58.5174C30.7691 58.1533 30.996 57.6508 31.0132 57.1198V55.7458C31.4368 55.6811 31.8284 55.482 32.1303 55.1779C32.4322 54.8739 32.6285 54.4809 32.6902 54.0568L36.4402 23.2568H37.0152C37.5384 23.2717 38.0462 23.0786 38.4275 22.7199C38.8087 22.3611 39.0322 21.866 39.0492 21.3428V19.6108C39.0322 19.0877 38.8087 18.5925 38.4275 18.2338C38.0462 17.8751 37.5384 17.682 37.0152 17.6968H37.0132ZM29.9572 9.40983C32.4783 11.5217 34.1715 14.4571 34.7372 17.6968H22.6792V6.00083C25.3637 6.47353 27.8757 7.64986 29.9572 9.40983ZM18.8472 2.20983H20.8562V4.06283C20.5222 4.04383 20.1882 4.03383 19.8562 4.03383C19.5242 4.03383 19.1852 4.04383 18.8562 4.06283V2.20783L18.8472 2.20983ZM9.7472 9.40983C11.8287 7.64986 14.3397 6.47353 17.0242 6.00083V9.15383C17.0376 9.38653 17.1394 9.60532 17.3089 9.76534C17.4784 9.92537 17.7026 10.0145 17.9357 10.0145C18.1688 10.0145 18.393 9.92537 18.5625 9.76534C18.732 9.60532 18.8339 9.38653 18.8472 9.15383V5.78183C19.1805 5.76116 19.5139 5.7505 19.8472 5.74983C20.1805 5.74916 20.5139 5.75983 20.8472 5.78183V17.6968H18.8382V13.3048C18.8248 13.0721 18.723 12.8533 18.5535 12.6933C18.384 12.5333 18.1598 12.4441 17.9267 12.4441C17.6936 12.4441 17.4694 12.5333 17.2999 12.6933C17.1304 12.8533 17.0286 13.0721 17.0152 13.3048V17.6968H4.9622C5.52752 14.4571 7.22031 11.5218 9.7412 9.40983H9.7472ZM28.9472 57.3448H10.7572C10.6952 57.3464 10.6351 57.3235 10.5899 57.281C10.5448 57.2385 10.5183 57.1798 10.5162 57.1178V55.7778H29.1882V57.1178C29.1861 57.18 29.1595 57.2388 29.1141 57.2813C29.0687 57.3239 29.0094 57.3467 28.9472 57.3448ZM25.8392 52.2308C24.1526 53.5059 22.0733 54.1511 19.9612 54.0548C17.8044 53.9776 15.7477 53.1255 14.1682 51.6548C12.6393 50.24 11.7244 48.2833 11.6192 46.2028C11.5302 44.1786 12.2242 42.1978 13.5572 40.6718L14.6572 41.7058C13.592 42.9857 13.0601 44.6264 13.1718 46.2879C13.2835 47.9493 14.0303 49.504 15.2572 50.6298C16.5329 51.7983 18.1718 52.4923 19.8986 52.5956C21.6255 52.6988 23.3353 52.205 24.7412 51.1968L25.8392 52.2308ZM30.8772 53.8618C30.8685 53.9185 30.8394 53.9701 30.7954 54.0069C30.7514 54.0437 30.6955 54.0632 30.6382 54.0618H26.2722C26.5492 53.8838 26.8202 53.6948 27.0802 53.4908C27.2633 53.3503 27.414 53.172 27.522 52.9681C27.63 52.7641 27.6929 52.5392 27.7062 52.3088C27.7163 52.0811 27.6768 51.8539 27.5904 51.6429C27.5041 51.4319 27.373 51.2422 27.2062 51.0868L22.5312 46.6868C22.3555 46.5252 22.1255 46.4355 21.8867 46.4355C21.648 46.4355 21.4179 46.5252 21.2422 46.6868C21.1582 46.7639 21.091 46.8577 21.0451 46.9621C20.9992 47.0665 20.9755 47.1793 20.9755 47.2933C20.9755 47.4074 20.9992 47.5202 21.0451 47.6246C21.091 47.729 21.1582 47.8227 21.2422 47.8998L23.4422 49.9688C22.3955 50.6559 21.1497 50.9744 19.9017 50.8741C18.6537 50.7737 17.4747 50.2603 16.5512 49.4148C15.6636 48.6011 15.1113 47.4855 15.0024 46.2863C14.8934 45.087 15.2357 43.8902 15.9622 42.9298L18.1242 44.9638C18.2999 45.1255 18.53 45.2152 18.7687 45.2152C19.0074 45.2152 19.2375 45.1255 19.4132 44.9638C19.4973 44.8867 19.5644 44.793 19.6103 44.6886C19.6562 44.5842 19.6799 44.4714 19.6799 44.3573C19.6799 44.2433 19.6562 44.1305 19.6103 44.0261C19.5644 43.9216 19.4973 43.8279 19.4132 43.7508L14.7702 39.3918C14.5954 39.2306 14.3903 39.1057 14.1669 39.0242C13.9434 38.9427 13.7061 38.9063 13.4685 38.9171C13.2309 38.9279 12.9979 38.9857 12.7827 39.0871C12.5676 39.1884 12.3747 39.3315 12.2152 39.5078C10.5555 41.3635 9.68737 43.7946 9.7962 46.2818C9.92372 48.7966 11.0299 51.1618 12.8782 52.8718C13.3512 53.3164 13.8644 53.7161 14.4112 54.0658H9.0622C9.00486 54.0672 8.94898 54.0477 8.905 54.0109C8.86101 53.9741 8.83194 53.9225 8.8232 53.8658L5.7882 28.9368H33.9082L30.8772 53.8618ZM37.2242 21.3448C37.2242 21.372 37.2187 21.3988 37.2081 21.4237C37.1974 21.4487 37.1818 21.4712 37.1621 21.4899C37.1425 21.5086 37.1193 21.5231 37.0938 21.5326C37.0684 21.542 37.0413 21.5462 37.0142 21.5448H28.6972C28.5796 21.5368 28.4616 21.553 28.3505 21.5925C28.2395 21.632 28.1377 21.6939 28.0516 21.7743C27.9654 21.8548 27.8967 21.9521 27.8498 22.0602C27.8028 22.1683 27.7786 22.285 27.7786 22.4028C27.7786 22.5207 27.8028 22.6373 27.8498 22.7454C27.8967 22.8536 27.9654 22.9509 28.0516 23.0313C28.1377 23.1118 28.2395 23.1737 28.3505 23.2132C28.4616 23.2526 28.5796 23.2689 28.6972 23.2608H34.6042L34.1222 27.2198H5.5822L5.1002 23.2608H24.2842C24.4018 23.2689 24.5198 23.2526 24.6309 23.2132C24.7419 23.1737 24.8437 23.1118 24.9298 23.0313C25.016 22.9509 25.0847 22.8536 25.1316 22.7454C25.1786 22.6373 25.2028 22.5207 25.2028 22.4028C25.2028 22.285 25.1786 22.1683 25.1316 22.0602C25.0847 21.9521 25.016 21.8548 24.9298 21.7743C24.8437 21.6939 24.7419 21.632 24.6309 21.5925C24.5198 21.553 24.4018 21.5368 24.2842 21.5448H2.6902C2.66311 21.5462 2.63602 21.542 2.61059 21.5326C2.58516 21.5231 2.56192 21.5086 2.54227 21.4899C2.52263 21.4712 2.50699 21.4487 2.49632 21.4237C2.48565 21.3988 2.48017 21.372 2.4802 21.3448V19.6108C2.48017 19.5837 2.48565 19.5569 2.49632 19.5319C2.50699 19.507 2.52263 19.4845 2.54227 19.4658C2.56192 19.447 2.58516 19.4325 2.61059 19.4231C2.63602 19.4136 2.66311 19.4095 2.6902 19.4108H37.0132C37.0403 19.4095 37.0674 19.4136 37.0928 19.4231C37.1182 19.4325 37.1415 19.447 37.1611 19.4658C37.1808 19.4845 37.1964 19.507 37.2071 19.5319C37.2178 19.5569 37.2232 19.5837 37.2232 19.6108L37.2242 21.3448Z" fill="black"/>
<path d="M17.2589 45.7751L17.0479 45.8591C16.9401 45.8982 16.8413 45.959 16.7578 46.0377C16.6743 46.1165 16.6079 46.2115 16.5625 46.3169C16.5172 46.4223 16.4939 46.5359 16.4941 46.6506C16.4944 46.7654 16.5182 46.8789 16.564 46.9841C16.6389 47.1428 16.758 47.2766 16.907 47.3695C17.0559 47.4624 17.2284 47.5105 17.4039 47.5081C17.5255 47.5082 17.646 47.4851 17.7589 47.4401L17.9699 47.3561C18.0778 47.317 18.1766 47.2562 18.2601 47.1775C18.3435 47.0987 18.41 47.0037 18.4554 46.8983C18.5007 46.7929 18.524 46.6793 18.5237 46.5646C18.5235 46.4498 18.4998 46.3363 18.454 46.2311C18.3502 46.0173 18.1688 45.8512 17.9467 45.7665C17.7247 45.6817 17.4788 45.6848 17.2589 45.7751Z" fill="black"/>
<path d="M19.9315 47.6218C19.7117 47.5315 19.4658 47.5284 19.2437 47.6131C19.0217 47.6979 18.8403 47.864 18.7365 48.0778L18.6476 48.2778C18.6019 48.3829 18.5783 48.4963 18.5781 48.611C18.578 48.7256 18.6013 48.8391 18.6466 48.9444C18.6919 49.0497 18.7584 49.1446 18.8418 49.2232C18.9252 49.3019 19.0238 49.3627 19.1315 49.4018C19.2445 49.4467 19.365 49.4698 19.4865 49.4698C19.6621 49.4722 19.8346 49.4241 19.9835 49.3312C20.1325 49.2383 20.2516 49.1045 20.3266 48.9458L20.4155 48.7458C20.4612 48.6406 20.4848 48.5272 20.485 48.4126C20.4851 48.2979 20.4618 48.1845 20.4165 48.0792C20.3711 47.9739 20.3047 47.879 20.2213 47.8003C20.1379 47.7216 20.0393 47.6609 19.9315 47.6218Z" fill="black"/>
<path d="M25.3144 32.9014H25.3014C25.1838 32.8934 25.0658 32.9096 24.9548 32.9491C24.8437 32.9886 24.7419 33.0504 24.6558 33.1309C24.5696 33.2114 24.501 33.3087 24.454 33.4168C24.4071 33.5249 24.3828 33.6415 24.3828 33.7594C24.3828 33.8773 24.4071 33.9939 24.454 34.102C24.501 34.2101 24.5696 34.3074 24.6558 34.3879C24.7419 34.4684 24.8437 34.5303 24.9548 34.5697C25.0658 34.6092 25.1838 34.6255 25.3014 34.6174H25.3144C25.432 34.6255 25.55 34.6092 25.6611 34.5697C25.7722 34.5303 25.8739 34.4684 25.9601 34.3879C26.0462 34.3074 26.1149 34.2101 26.1619 34.102C26.2088 33.9939 26.2331 33.8773 26.2331 33.7594C26.2331 33.6415 26.2088 33.5249 26.1619 33.4168C26.1149 33.3087 26.0462 33.2114 25.9601 33.1309C25.8739 33.0504 25.7722 32.9886 25.6611 32.9491C25.55 32.9096 25.432 32.8934 25.3144 32.9014Z" fill="black"/>
<path d="M21.7788 34.3311H21.7618C21.6456 34.3255 21.5295 34.3435 21.4206 34.3841C21.3116 34.4247 21.212 34.487 21.1278 34.5672C21.0436 34.6474 20.9766 34.7439 20.9308 34.8508C20.885 34.9577 20.8613 35.0728 20.8613 35.1891C20.8613 35.3054 20.885 35.4204 20.9308 35.5273C20.9766 35.6342 21.0436 35.7307 21.1278 35.811C21.212 35.8912 21.3116 35.9535 21.4206 35.9941C21.5295 36.0347 21.6456 36.0527 21.7618 36.0471H21.7788C21.8949 36.0527 22.011 36.0347 22.12 35.9941C22.229 35.9535 22.3286 35.8912 22.4128 35.811C22.497 35.7307 22.564 35.6342 22.6098 35.5273C22.6556 35.4204 22.6792 35.3054 22.6792 35.1891C22.6792 35.0728 22.6556 34.9577 22.6098 34.8508C22.564 34.7439 22.497 34.6474 22.4128 34.5672C22.3286 34.487 22.229 34.4247 22.12 34.3841C22.011 34.3435 21.8949 34.3255 21.7788 34.3311Z" fill="black"/>
<path d="M25.1811 40.6944H25.1641C25.0479 40.6887 24.9319 40.7068 24.8229 40.7474C24.7139 40.788 24.6143 40.8502 24.5301 40.9305C24.4459 41.0107 24.3789 41.1072 24.3331 41.2141C24.2873 41.321 24.2637 41.4361 24.2637 41.5524C24.2637 41.6687 24.2873 41.7837 24.3331 41.8906C24.3789 41.9975 24.4459 42.094 24.5301 42.1742C24.6143 42.2545 24.7139 42.3168 24.8229 42.3574C24.9319 42.3979 25.0479 42.416 25.1641 42.4104H25.1811C25.2973 42.416 25.4134 42.3979 25.5223 42.3574C25.6313 42.3168 25.7309 42.2545 25.8151 42.1742C25.8993 42.094 25.9663 41.9975 26.0121 41.8906C26.0579 41.7837 26.0815 41.6687 26.0815 41.5524C26.0815 41.4361 26.0579 41.321 26.0121 41.2141C25.9663 41.1072 25.8993 41.0107 25.8151 40.9305C25.7309 40.8502 25.6313 40.788 25.5223 40.7474C25.4134 40.7068 25.2973 40.6887 25.1811 40.6944Z" fill="black"/>
</svg>
