<svg width="13" height="18" viewBox="0 0 13 18" fill="none" xmlns="http://www.w3.org/2000/svg">
<path d="M6.71636 0.785156C5.10981 0.797579 3.5738 1.44682 2.44538 2.59042C1.31696 3.73403 0.688309 5.27856 0.697362 6.88513C0.733051 7.69115 0.905857 8.48521 1.20836 9.23315C1.40668 9.68928 1.639 10.1298 1.90336 10.5511L6.03136 16.8851C6.09811 17.0088 6.19707 17.1121 6.31775 17.1841C6.43843 17.2561 6.57633 17.2941 6.71686 17.2941C6.85738 17.2941 6.99529 17.2561 7.11597 17.1841C7.23665 17.1121 7.33561 17.0088 7.40236 16.8851L11.5304 10.5501C11.796 10.1288 12.03 9.68822 12.2304 9.23215C12.5319 8.48395 12.7044 7.69003 12.7404 6.88416C12.7491 5.27689 12.1197 3.73185 10.9902 2.58832C9.86075 1.44479 8.32361 0.796261 6.71636 0.785156ZM11.5734 8.95215C11.3919 9.36744 11.1797 9.76854 10.9384 10.1521L6.81136 16.4872C6.73036 16.6122 6.70436 16.6122 6.62236 16.4872L2.49536 10.1521C2.25398 9.76874 2.04204 9.36761 1.86136 8.95215C1.59591 8.29247 1.44182 7.5933 1.40536 6.88315C1.39571 6.1795 1.52596 5.48095 1.78855 4.82806C2.05115 4.17518 2.44085 3.58096 2.93503 3.07996C3.42921 2.57895 4.01801 2.18114 4.66723 1.90961C5.31645 1.63808 6.01314 1.49826 6.71686 1.49826C7.42057 1.49826 8.11728 1.63808 8.7665 1.90961C9.41572 2.18114 10.0045 2.57895 10.4987 3.07996C10.9929 3.58096 11.3826 4.17518 11.6452 4.82806C11.9078 5.48095 12.038 6.1795 12.0284 6.88315C11.9911 7.59319 11.838 8.29223 11.5734 8.95215Z" fill="white"/>
<path d="M6.71631 3.65555C6.07591 3.64722 5.4475 3.82951 4.91097 4.17926C4.37445 4.52901 3.95405 5.03039 3.70323 5.61969C3.45241 6.20899 3.3825 6.85957 3.50239 7.48871C3.62228 8.11784 3.92656 8.69711 4.37652 9.15286C4.82649 9.60862 5.40182 9.92027 6.02937 10.0482C6.65692 10.1761 7.30834 10.1145 7.9008 9.87128C8.49325 9.62801 8.99999 9.21405 9.35656 8.68204C9.71314 8.15003 9.90346 7.524 9.90331 6.88354C9.90784 6.03313 9.57483 5.21564 8.97735 4.61047C8.37986 4.0053 7.56671 3.66189 6.71631 3.65555ZM6.71631 9.39453C6.21837 9.40088 5.72979 9.25902 5.31267 8.987C4.89555 8.71497 4.56873 8.32505 4.37377 7.86682C4.1788 7.40859 4.12448 6.90275 4.21772 6.41357C4.31097 5.9244 4.54756 5.47401 4.89742 5.11963C5.24728 4.76525 5.69461 4.52288 6.18255 4.42337C6.67049 4.32386 7.177 4.37168 7.6377 4.56076C8.09839 4.74983 8.49246 5.07163 8.76981 5.48523C9.04716 5.89882 9.19527 6.38556 9.19531 6.88354C9.19825 7.54487 8.93903 8.18041 8.4744 8.65103C8.00978 9.12165 7.37762 9.38898 6.71631 9.39453Z" fill="white"/>
</svg>
