<svg width="18" height="19" viewBox="0 0 18 19" fill="none" xmlns="http://www.w3.org/2000/svg">
<g clip-path="url(#clip0_8_1069)">
<path d="M4.24078 5.13965C3.9269 5.13965 3.63874 5.24045 3.40267 5.40965L3.40825 5.41526L9.70825 11.3328C9.84753 11.4635 10.154 11.4635 10.2932 11.3328L16.5932 5.41526L16.5988 5.40965C16.3628 5.24045 16.0746 5.13965 15.7607 5.13965H4.24078ZM2.9414 5.9609C2.85235 6.14839 2.80078 6.35755 2.80078 6.57965V13.4197C2.80078 14.2174 3.44302 14.8597 4.24078 14.8597H15.7608C16.5585 14.8597 17.2008 14.2174 17.2008 13.4197V6.57965C17.2008 6.35755 17.1492 6.14839 17.0602 5.9609L10.7883 11.8559C10.3477 12.2696 9.65381 12.2695 9.21328 11.8559L2.9414 5.9609Z" fill="#76A713"/>
</g>
<defs>
<clipPath id="clip0_8_1069">
<rect width="18" height="18.18" fill="white"/>
</clipPath>
</defs>
</svg>
