<svg width="46" height="47" viewBox="0 0 46 47" fill="none" xmlns="http://www.w3.org/2000/svg">
<path d="M35.7105 0.8125H13.3715C9.91352 0.8125 7.08452 3.9065 7.08452 7.6885C7.07029 8.84529 7.34132 9.98776 7.87363 11.0149C8.40595 12.042 9.18315 12.9222 10.1365 13.5775V32.0775C10.1365 35.8595 12.9655 38.9535 16.4235 38.9535H32.6555C36.1135 38.9535 38.9425 35.8595 38.9425 32.0775V13.5775C39.8959 12.9222 40.6731 12.042 41.2054 11.0149C41.7377 9.98776 42.0087 8.84529 41.9945 7.6885C41.9945 3.9065 39.1655 0.8125 35.7105 0.8125Z" fill="#FFB655"/>
<path d="M37.7626 29.6175C41.7424 29.6175 44.9686 26.089 44.9686 21.7365C44.9686 17.3839 41.7424 13.8555 37.7626 13.8555C33.7829 13.8555 30.5566 17.3839 30.5566 21.7365C30.5566 26.089 33.7829 29.6175 37.7626 29.6175Z" fill="#FF0C38"/>
<path d="M37.7619 27.1246C40.4825 27.1246 42.6879 24.7123 42.6879 21.7366C42.6879 18.7609 40.4825 16.3486 37.7619 16.3486C35.0414 16.3486 32.8359 18.7609 32.8359 21.7366C32.8359 24.7123 35.0414 27.1246 37.7619 27.1246Z" fill="#D80027"/>
<path d="M44.4474 18.7951C43.9201 17.3214 42.958 16.0424 41.6884 15.1271C40.8994 14.5682 40.0008 14.1828 39.052 13.9965C38.1032 13.8101 37.1256 13.8269 36.1838 14.0459C35.242 14.2648 34.3572 14.6808 33.5879 15.2666C32.8185 15.8523 32.182 16.5944 31.7204 17.4441C30.9288 18.7869 30.5264 20.3236 30.5584 21.882C32.1603 23.1162 34.1242 23.7882 36.1464 23.7941C37.8476 23.7651 39.511 23.2876 40.9686 22.4099C42.4261 21.5321 43.6261 20.2852 44.4474 18.7951Z" fill="#D80027"/>
<path d="M24.4946 32.0282L19.3446 41.3362C19.043 41.9324 18.6192 42.4584 18.1008 42.8799C17.5823 43.3013 16.981 43.6089 16.3358 43.7825C15.6906 43.9561 15.016 43.9918 14.3561 43.8873C13.6962 43.7829 13.0657 43.5406 12.5056 43.1762L3.99561 37.5432C2.84659 36.7195 2.04036 35.5022 1.73024 34.1229C1.42012 32.7436 1.62774 31.2984 2.31361 30.0622L7.46361 20.7542C7.76521 20.158 8.18903 19.632 8.70745 19.2105C9.22587 18.789 9.82726 18.4815 10.4725 18.3079C11.1177 18.1343 11.7922 18.0986 12.4521 18.203C13.112 18.3075 13.7426 18.5498 14.3026 18.9142L22.8126 24.5472C23.9616 25.3709 24.7679 26.5881 25.078 27.9674C25.3881 29.3468 25.1805 30.7919 24.4946 32.0282Z" fill="#EEBF00"/>
<path d="M24.4298 29.4952C24.7 29.3019 24.9576 29.0915 25.2008 28.8652C25.1633 28.01 24.9283 27.1751 24.5144 26.4259C24.1005 25.6766 23.5188 25.0333 22.8148 24.5462L14.3048 18.9132C13.7448 18.5488 13.1143 18.3065 12.4543 18.2021C11.7944 18.0976 11.1199 18.1333 10.4747 18.3069C9.82948 18.4805 9.22809 18.7881 8.70967 19.2096C8.19125 19.631 7.76743 20.157 7.46583 20.7532L3.04883 28.7352L5.57383 32.9842C6.21484 34.1175 7.14191 35.0628 8.26249 35.7257C9.38306 36.3886 10.6579 36.746 11.9598 36.7622C13.4424 36.7584 14.8866 36.2905 16.0898 35.4242L24.4298 29.4952Z" fill="#DDB200"/>
<path d="M22.9995 27.0927L14.6595 33.0217C14.1135 33.4062 13.4926 33.671 12.8372 33.7989C12.1818 33.9268 11.5068 33.9148 10.8564 33.7638C10.2059 33.6127 9.59475 33.326 9.06279 32.9224C8.53084 32.5188 8.09012 32.0074 7.76948 31.4217L2.34948 22.3017C1.62875 21.0844 1.3794 19.645 1.64865 18.2562C1.9179 16.8674 2.68706 15.6255 3.81048 14.7657L12.1505 8.83668C12.6964 8.45219 13.3174 8.18734 13.9728 8.05946C14.6282 7.93157 15.3032 7.94355 15.9536 8.09459C16.604 8.24563 17.2152 8.53234 17.7472 8.93594C18.2791 9.33955 18.7199 9.85096 19.0405 10.4367L24.4615 19.5587C25.1815 20.7759 25.4304 22.2149 25.161 23.6033C24.8916 24.9916 24.1226 26.2331 22.9995 27.0927Z" fill="#FFCD00"/>
<path d="M42.6528 21.0948C42.5784 20.33 42.3433 19.5895 41.963 18.9217C41.5827 18.254 41.0657 17.674 40.4458 17.2198C39.9064 16.8378 39.2922 16.5744 38.6436 16.447C37.995 16.3197 37.3268 16.3312 36.6829 16.4809C36.0391 16.6305 35.4343 16.9149 34.9084 17.3153C34.3825 17.7157 33.9474 18.223 33.6318 18.8038C33.2427 19.4672 32.9893 20.2014 32.8863 20.9636C32.7833 21.7258 32.8328 22.5009 33.0318 23.2438C34.0286 23.6097 35.082 23.7969 36.1438 23.7968C38.5834 23.7821 40.9201 22.8121 42.6528 21.0948Z" fill="#C70024"/>
<path d="M36.1455 20.928C40.1252 20.928 43.3515 17.3996 43.3515 13.047C43.3515 8.69446 40.1252 5.16602 36.1455 5.16602C32.1657 5.16602 28.9395 8.69446 28.9395 13.047C28.9395 17.3996 32.1657 20.928 36.1455 20.928Z" fill="#FF3F62"/>
<path d="M41.849 14.9078C41.9143 12.7302 41.2347 10.5954 39.9228 8.85619C38.6108 7.11694 36.7448 5.87722 34.633 5.3418C32.9575 5.80215 31.4853 6.81213 30.4527 8.2096C29.4201 9.60708 28.887 11.311 28.939 13.0478C28.939 17.4008 32.165 20.9288 36.145 20.9288C37.0779 20.9223 37.9998 20.7259 38.8542 20.3514C39.7087 19.977 40.478 19.4324 41.115 18.7508C41.5994 17.5274 41.8485 16.2236 41.849 14.9078Z" fill="#FF0C38"/>
<path d="M36.1467 18.4342C38.8673 18.4342 41.0727 16.0219 41.0727 13.0462C41.0727 10.0705 38.8673 7.6582 36.1467 7.6582C33.4261 7.6582 31.2207 10.0705 31.2207 13.0462C31.2207 16.0219 33.4261 18.4342 36.1467 18.4342Z" fill="#D80027"/>
<path d="M5.78516 15.7271C5.78516 17.5361 7.33616 19.0541 7.82016 20.6861C8.32016 22.3771 7.90115 24.5991 8.83715 26.0071C9.77315 27.4151 11.8512 27.6721 13.1522 28.7071C14.4532 29.7421 15.2852 31.8141 16.8312 32.3631C18.3232 32.8931 20.1192 31.7691 21.7732 31.7691C23.4272 31.7691 25.2232 32.8921 26.7152 32.3631C28.2612 31.8141 29.1072 29.7321 30.3942 28.7071C31.6812 27.6821 33.7622 27.4291 34.7092 26.0071C35.6562 24.5851 35.2242 22.3771 35.7262 20.6861C36.2102 19.0541 37.7612 17.5361 37.7612 15.7271C37.7612 13.9551 36.2282 12.6191 35.7612 11.2171C35.2352 9.63406 35.5282 7.52806 34.5082 6.39606C33.4882 5.26406 31.5232 5.53206 30.1302 4.83406C28.8482 4.19106 27.8182 2.35506 26.2972 2.05506C24.8972 1.77906 23.3042 3.07906 21.7712 3.07906C20.2382 3.07906 18.6412 1.77906 17.2452 2.05606C15.7232 2.35606 14.6942 4.19206 13.4122 4.83506C12.0192 5.53506 10.0452 5.27506 9.03415 6.39706C8.02315 7.51906 8.30715 9.63406 7.78115 11.2181C7.31815 12.6211 5.78516 13.9571 5.78516 15.7271Z" fill="#6DC82A"/>
<path d="M18.916 14.6146C17.576 15.6746 17.36 17.9386 16.435 19.3246C15.476 20.7606 13.583 21.6896 13.089 23.3446C12.589 25.0166 13.622 26.9926 13.617 28.7506C13.617 30.4916 12.565 32.4616 13.064 34.1506C13.546 35.7836 15.431 36.7176 16.4 38.1826C17.369 39.6476 17.589 41.8986 18.856 42.9106C20.169 43.9596 22.207 43.4886 23.721 44.0296C25.249 44.5756 26.642 46.2666 28.25 46.2716C29.842 46.2766 31.241 44.6016 32.788 44.0556C34.281 43.5286 36.315 44.0136 37.655 42.9556C38.968 41.9176 39.055 39.7756 39.825 38.5416C40.69 37.1476 42.425 36.1726 42.662 34.6066C42.899 33.0406 41.553 31.4546 41.254 29.8066C40.979 28.2936 41.736 26.3066 41.067 24.7806C40.453 23.3806 38.555 22.7276 37.657 21.3686C36.759 20.0096 36.786 17.8336 35.763 16.7576C34.649 15.5846 32.686 15.7486 31.458 14.9886C30.124 14.1636 29.158 12.2616 27.735 12.0236C26.312 11.7856 24.911 13.2766 23.43 13.7376C22.117 14.1516 20.228 13.5766 18.916 14.6146Z" fill="#6DC82A"/>
<path d="M22.814 24.5472L14.304 18.9142C13.744 18.5498 13.1134 18.3075 12.4535 18.203C11.7936 18.0986 11.1191 18.1343 10.4739 18.3079C9.82866 18.4815 9.22726 18.789 8.70884 19.2105C8.19042 19.632 7.76661 20.158 7.465 20.7542L4.75 25.6612V38.0412L12.507 43.1762C13.067 43.5406 13.6976 43.7829 14.3575 43.8873C15.0174 43.9918 15.6919 43.9561 16.3371 43.7825C16.9823 43.6089 17.5837 43.3013 18.1022 42.8799C18.6206 42.4584 19.0444 41.9324 19.346 41.3362L24.496 32.0282C25.1819 30.7919 25.3895 29.3468 25.0794 27.9674C24.7692 26.5881 23.963 25.3709 22.814 24.5472Z" fill="#DDB200"/>
<path d="M19.0412 10.4343C18.7204 9.84866 18.2796 9.33737 17.7477 8.93386C17.2157 8.53034 16.6045 8.24369 15.9542 8.09266C15.3038 7.94163 14.6288 7.92962 13.9735 8.05741C13.3181 8.18521 12.6972 8.44992 12.1512 8.83425L3.81117 14.7633C2.96718 15.3725 2.32048 16.216 1.95117 17.1893C2.37178 19.108 3.34519 20.8615 4.75117 22.2333V26.3333L7.77217 31.4163C8.09292 32.0019 8.5337 32.5131 9.06566 32.9167C9.59763 33.3202 10.2088 33.6068 10.8592 33.7579C11.5096 33.9089 12.1845 33.9209 12.8399 33.7931C13.4952 33.6653 14.1162 33.4006 14.6622 33.0163L23.0022 27.0873C24.1256 26.2275 24.8948 24.9856 25.164 23.5968C25.4333 22.2079 25.1839 20.7686 24.4632 19.5513L19.0412 10.4343Z" fill="#EEBF00"/>
<path d="M37.655 21.3745C36.755 20.0165 36.784 17.8395 35.761 16.7635C34.647 15.5905 32.684 15.7545 31.456 14.9945C30.122 14.1695 29.156 12.2675 27.733 12.0295C26.31 11.7915 24.909 13.2825 23.428 13.7435C22.117 14.1525 20.228 13.5765 18.916 14.6145C17.576 15.6745 17.36 17.9385 16.435 19.3245C15.476 20.7605 13.583 21.6895 13.089 23.3445C12.589 25.0165 13.622 26.9925 13.617 28.7505C13.617 30.4915 12.565 32.4615 13.064 34.1505C13.546 35.7835 15.431 36.7175 16.4 38.1825C17.369 39.6475 17.589 41.8985 18.856 42.9105C20.169 43.9595 22.207 43.4885 23.721 44.0295C25.249 44.5755 26.642 46.2665 28.25 46.2715C29.842 46.2765 31.241 44.6015 32.788 44.0555C34.281 43.5285 36.315 44.0135 37.655 42.9555C37.9855 42.6822 38.2576 42.3452 38.455 41.9645C38.6816 41.0929 38.7958 40.196 38.795 39.2955V22.5455C38.3568 22.2164 37.9722 21.8214 37.655 21.3745Z" fill="#5EAC24"/>
<path d="M35.7632 11.219C35.2372 9.63604 35.5302 7.53004 34.5102 6.39804C33.7102 5.50604 32.2962 5.48604 31.0512 5.16504H12.4962C11.2512 5.48604 9.83921 5.50604 9.03621 6.39804C8.01721 7.53004 8.3092 9.63504 7.7832 11.219C7.3172 12.619 5.7832 13.957 5.7832 15.729C5.7832 17.538 7.3342 19.056 7.8182 20.688C8.3182 22.379 7.89921 24.601 8.83521 26.009C9.7712 27.417 11.8492 27.674 13.1502 28.709C14.4512 29.744 15.2832 31.816 16.8292 32.365C18.3212 32.895 20.1172 31.771 21.7712 31.771C23.4252 31.771 25.2212 32.894 26.7132 32.365C28.2592 31.816 29.1052 29.733 30.3922 28.709C31.6792 27.685 33.7602 27.431 34.7072 26.009C35.6542 24.587 35.2222 22.379 35.7242 20.688C36.2082 19.056 37.7592 17.538 37.7592 15.729C37.7622 13.957 36.2292 12.621 35.7632 11.219Z" fill="#5EAC24"/>
<path d="M32.9429 8.03027H10.6059C7.14789 8.03027 4.31889 11.1243 4.31889 14.9063C4.30466 16.0631 4.57569 17.2055 5.108 18.2327C5.64032 19.2598 6.41752 20.1399 7.37089 20.7953V39.2953C7.37089 43.0773 10.1999 46.1713 13.6579 46.1713H29.8899C33.3479 46.1713 36.1769 43.0773 36.1769 39.2953V20.7953C37.1303 20.1399 37.9075 19.2598 38.4398 18.2327C38.9721 17.2055 39.2431 16.0631 39.2289 14.9063C39.2289 11.1243 36.3969 8.03027 32.9429 8.03027Z" fill="#FFDAAA"/>
<path d="M14.5369 39.2962V23.3273C14.5372 21.9532 14.0512 20.6233 13.1649 19.5732C12.0707 18.2655 11.4755 16.6123 11.4849 14.9072C11.4849 11.1252 14.3139 8.03125 17.7719 8.03125H10.6059C7.14789 8.03125 4.31889 11.1252 4.31889 14.9072C4.30466 16.064 4.57569 17.2065 5.108 18.2337C5.64032 19.2608 6.41752 20.1409 7.37089 20.7962V39.2962C7.37089 43.0783 10.1999 46.1723 13.6579 46.1723H20.8239C17.3659 46.1723 14.5369 43.0783 14.5369 39.2962Z" fill="#FFC477"/>
<path d="M20.9936 22.7C21.9694 22.7 22.7606 21.8346 22.7606 20.767C22.7606 19.6994 21.9694 18.834 20.9936 18.834C20.0177 18.834 19.2266 19.6994 19.2266 20.767C19.2266 21.8346 20.0177 22.7 20.9936 22.7Z" fill="#FFC477"/>
<path d="M20.1283 38.6961C21.1042 38.6961 21.8953 37.8306 21.8953 36.7631C21.8953 35.6955 21.1042 34.8301 20.1283 34.8301C19.1524 34.8301 18.3613 35.6955 18.3613 36.7631C18.3613 37.8306 19.1524 38.6961 20.1283 38.6961Z" fill="#FFC477"/>
<path d="M31.6244 31.5515C32.6003 31.5515 33.3914 30.6861 33.3914 29.6185C33.3914 28.551 32.6003 27.6855 31.6244 27.6855C30.6485 27.6855 29.8574 28.551 29.8574 29.6185C29.8574 30.6861 30.6485 31.5515 31.6244 31.5515Z" fill="#FFC477"/>
<path d="M23.2585 32.269C23.6203 32.269 23.9135 31.9479 23.9135 31.552C23.9135 31.156 23.6203 30.835 23.2585 30.835C22.8968 30.835 22.6035 31.156 22.6035 31.552C22.6035 31.9479 22.8968 32.269 23.2585 32.269Z" fill="#FFC477"/>
<path d="M28.9402 40.9994C29.3019 40.9994 29.5952 40.6784 29.5952 40.2824C29.5952 39.8864 29.3019 39.5654 28.9402 39.5654C28.5784 39.5654 28.2852 39.8864 28.2852 40.2824C28.2852 40.6784 28.5784 40.9994 28.9402 40.9994Z" fill="#FFC477"/>
<path d="M17.6706 25.8285C18.0324 25.8285 18.3256 25.5075 18.3256 25.1115C18.3256 24.7155 18.0324 24.3945 17.6706 24.3945C17.3089 24.3945 17.0156 24.7155 17.0156 25.1115C17.0156 25.5075 17.3089 25.8285 17.6706 25.8285Z" fill="#FFC477"/>
<path d="M25.2624 18.7709C25.6242 18.7709 25.9174 18.4499 25.9174 18.0539C25.9174 17.6579 25.6242 17.3369 25.2624 17.3369C24.9007 17.3369 24.6074 17.6579 24.6074 18.0539C24.6074 18.4499 24.9007 18.7709 25.2624 18.7709Z" fill="#FFC477"/>
<path d="M32.4304 24.2592C32.7921 24.2592 33.0854 23.9382 33.0854 23.5422C33.0854 23.1462 32.7921 22.8252 32.4304 22.8252C32.0686 22.8252 31.7754 23.1462 31.7754 23.5422C31.7754 23.9382 32.0686 24.2592 32.4304 24.2592Z" fill="#FFC477"/>
<path d="M43.5559 15.9256C43.7379 15.3628 43.8654 14.7838 43.9369 14.1966C43.9654 14.0157 43.9227 13.8307 43.8177 13.6806C43.7127 13.5305 43.5537 13.4269 43.3739 13.3916C43.2849 13.3823 43.195 13.3909 43.1094 13.4169C43.0239 13.443 42.9444 13.486 42.8758 13.5433C42.8071 13.6007 42.7507 13.6713 42.7098 13.7508C42.669 13.8304 42.6445 13.9174 42.6379 14.0066C42.5017 15.2943 42.0152 16.52 41.2314 17.5506C40.4476 18.5812 39.3964 19.3774 38.1919 19.8526C38.5999 19.3311 38.94 18.7599 39.2039 18.1526C39.9996 17.5634 40.6433 16.7929 41.0816 15.905C41.5198 15.0172 41.74 14.0376 41.7239 13.0476C41.7872 11.5 41.236 9.99025 40.1905 8.84751C39.1449 7.70477 37.69 7.02182 36.1429 6.94761C35.9649 6.94775 35.787 6.9571 35.6099 6.97561C35.48 6.61686 35.2907 6.28252 35.0499 5.98661C35.4105 5.92022 35.7763 5.88675 36.1429 5.88661C37.685 5.95264 39.1586 6.54229 40.3206 7.55832C41.4826 8.57435 42.2637 9.95607 42.5349 11.4756C42.5418 11.5666 42.569 11.6549 42.6143 11.7341C42.6597 11.8132 42.7222 11.8813 42.7972 11.9332C42.8723 11.9851 42.958 12.0197 43.048 12.0343C43.1381 12.0489 43.2303 12.0432 43.3179 12.0176C43.495 11.9661 43.6456 11.8486 43.7387 11.6894C43.8317 11.5301 43.8601 11.3412 43.8179 11.1616C43.6031 10.1122 43.2028 9.10949 42.6359 8.20061C42.6459 8.03161 42.6519 7.86161 42.6519 7.69261C42.6519 3.50561 39.5379 0.0996094 35.7099 0.0996094H13.3709C9.5429 0.0996094 6.4289 3.50561 6.4289 7.69261C6.42916 8.06051 6.45388 8.42799 6.5029 8.79261C4.92832 10.0892 3.92778 11.9537 3.7179 13.9826L3.4549 14.1696C2.1826 15.1407 1.31125 16.5452 1.00633 18.1164C0.701412 19.6876 0.98417 21.3161 1.8009 22.6926L3.7829 26.0276L1.7549 29.6916C0.975794 31.0894 0.738854 32.7253 1.08933 34.2867C1.4398 35.8482 2.35313 37.2258 3.6549 38.1566L6.7689 40.2176C6.89645 41.9823 7.6693 43.6382 8.93994 44.8694C10.2106 46.1006 11.8901 46.8208 13.6579 46.8926H29.8919C30.8676 46.8833 31.8294 46.6599 32.7094 46.2383C33.5894 45.8167 34.3662 45.2071 34.9849 44.4526C36.0717 44.4643 37.1365 44.1463 38.0389 43.5406C38.9038 42.7121 39.5023 41.6447 39.7579 40.4746C39.9036 39.9448 40.1082 39.4329 40.3679 38.9486C40.7016 38.4604 41.0854 38.0083 41.5129 37.5996C42.403 36.8592 43.0335 35.8541 43.3129 34.7306C43.3802 33.5962 43.1161 32.4667 42.5529 31.4796C42.1529 30.7415 41.9143 29.9269 41.8529 29.0896C42.8765 28.3975 43.7315 27.4844 44.3549 26.4176C45.3092 24.7965 45.7441 22.922 45.6013 21.0463C45.4584 19.1706 44.7446 17.3836 43.5559 15.9256ZM41.4559 19.3866C41.8378 20.111 42.0374 20.9177 42.0374 21.7366C42.0374 22.5556 41.8378 23.3622 41.4559 24.0866C40.9781 23.4033 40.3772 22.8149 39.6839 22.3516C39.235 22.0334 38.818 21.6724 38.4389 21.2736C39.5788 20.8908 40.6131 20.2442 41.4559 19.3866ZM40.4169 13.0476C40.4202 13.8437 40.2337 14.629 39.8729 15.3386C39.8809 15.1956 40.0329 10.3906 36.5059 8.39361C37.6186 8.54678 38.6348 9.1077 39.3575 9.96761C40.0801 10.8275 40.4576 11.9251 40.4169 13.0476ZM41.2329 6.49461C39.8648 5.18182 38.042 4.44903 36.1459 4.44961C35.2236 4.45666 34.3104 4.63326 33.4519 4.97061C33.0161 4.84173 32.5729 4.73888 32.1249 4.66261C31.5331 4.58015 30.955 4.41906 30.4059 4.18361C29.9012 3.87852 29.442 3.50383 29.0419 3.07061C28.461 2.43532 27.7677 1.91288 26.9969 1.52961H35.7079C37.0641 1.58019 38.3596 2.10472 39.3689 3.01191C40.3782 3.9191 41.0385 5.1515 41.2329 6.49461ZM24.6049 1.52961C24.2959 1.62961 23.9889 1.74261 23.6859 1.85861C23.0824 2.13503 22.4354 2.30422 21.7739 2.35861C21.1124 2.30416 20.4654 2.13497 19.8619 1.85861C19.5619 1.74261 19.2519 1.62561 18.9429 1.52961H24.6049ZM13.3709 1.52961H16.5509C15.78 1.91313 15.0867 2.43593 14.5059 3.07161C14.1058 3.50484 13.6466 3.87953 13.1419 4.18461C12.5931 4.42 12.0153 4.58109 11.4239 4.66361C10.3619 4.74361 9.35733 5.17739 8.5709 5.89561C8.1542 6.39092 7.86877 6.98308 7.7409 7.61761C7.69325 6.0672 8.25673 4.56015 9.30988 3.42133C10.363 2.28251 11.8215 1.60312 13.3709 1.52961ZM2.8709 30.4296L4.5709 27.3576L5.0589 28.1796C5.4909 28.7336 5.8589 28.4686 5.9649 28.3896C6.11327 28.2768 6.21487 28.1133 6.25029 27.9303C6.28571 27.7473 6.25246 27.5576 6.1569 27.3976L2.8999 21.9106C2.32813 20.9397 2.09719 19.8056 2.24376 18.6884C2.39034 17.5713 2.90603 16.5351 3.7089 15.7446C3.81054 16.8095 4.1299 17.8421 4.64717 18.7784C5.16443 19.7147 5.86857 20.5347 6.7159 21.1876V38.5046L4.3369 36.9306C3.33794 36.2161 2.63689 35.159 2.36744 33.9607C2.09798 32.7625 2.27898 31.507 2.8759 30.4336L2.8709 30.4296ZM29.8919 45.4566H13.6579C12.0959 45.3819 10.6268 44.6922 9.57163 43.538C8.51641 42.3839 7.96072 40.8591 8.0259 39.2966V20.7966C8.02756 20.6763 7.99961 20.5575 7.9445 20.4506C7.88939 20.3437 7.80882 20.252 7.7099 20.1836C6.85797 19.5942 6.16323 18.8052 5.68632 17.8856C5.20941 16.9659 4.96482 15.9435 4.9739 14.9076C4.90872 13.3451 5.46441 11.8204 6.51963 10.6662C7.57485 9.51207 9.04386 8.82233 10.6059 8.74761H17.7719C17.9497 8.73001 18.1146 8.64693 18.2346 8.51451C18.3546 8.38208 18.421 8.20979 18.421 8.03111C18.421 7.85243 18.3546 7.68013 18.2346 7.54771C18.1146 7.41529 17.9497 7.33221 17.7719 7.31461H10.6059C10.1198 7.31467 9.63532 7.37036 9.1619 7.48061C9.24021 7.26834 9.35605 7.07188 9.5039 6.90061C10.1181 6.41323 10.8665 6.12504 11.6489 6.07461C12.3528 5.97374 13.0393 5.77586 13.6889 5.48661C14.3148 5.12524 14.8834 4.6726 15.3759 4.14361C15.9017 3.51103 16.5895 3.03333 17.3659 2.76161C18.0814 2.73211 18.7925 2.88707 19.4309 3.21161C20.1705 3.5475 20.9652 3.74542 21.7759 3.79561C22.5863 3.74519 23.3806 3.54728 24.1199 3.21161C24.7581 2.88669 25.4693 2.7317 26.1849 2.76161C26.9613 3.03319 27.6492 3.51092 28.1749 4.14361C28.6674 4.67265 29.2359 5.12529 29.8619 5.48661C30.5115 5.77596 31.198 5.97384 31.9019 6.07461C32.6844 6.12498 33.4328 6.41317 34.0469 6.90061C34.1945 7.0719 34.31 7.26837 34.3879 7.48061C33.9148 7.37044 33.4307 7.31474 32.9449 7.31461H20.8239C20.6461 7.33221 20.4812 7.41529 20.3612 7.54771C20.2412 7.68013 20.1748 7.85243 20.1748 8.03111C20.1748 8.20979 20.2412 8.38208 20.3612 8.51451C20.4812 8.64693 20.6461 8.73001 20.8239 8.74761H32.9429C34.5049 8.82233 35.974 9.51207 37.0292 10.6662C38.0844 11.8204 38.6401 13.3451 38.5749 14.9076C38.584 15.9435 38.3394 16.9659 37.8625 17.8856C37.3856 18.8052 36.6908 19.5942 35.8389 20.1836C35.74 20.252 35.6594 20.3437 35.6043 20.4506C35.5492 20.5575 35.5212 20.6763 35.5229 20.7966V39.2966C35.5881 40.8589 35.0325 42.3835 33.9775 43.5377C32.9225 44.6918 31.4538 45.3816 29.8919 45.4566ZM42.0149 34.4876C41.7587 35.2973 41.2722 36.0148 40.6149 36.5526C40.1164 37.0325 39.6708 37.5646 39.2859 38.1396C38.96 38.7254 38.7045 39.3477 38.5249 39.9936C38.342 40.8901 37.9082 41.7162 37.2739 42.3756C36.9006 42.6488 36.4658 42.826 36.0079 42.8916C36.5574 41.7713 36.8411 40.5394 36.8369 39.2916V21.2756C36.9227 21.4545 37.0203 21.6276 37.1289 21.7936C37.6285 22.4705 38.2396 23.0575 38.9359 23.5296C39.5672 23.9222 40.0963 24.4589 40.4799 25.0956C40.7325 25.9295 40.7812 26.8119 40.6219 27.6686C40.5183 28.4256 40.516 29.193 40.6149 29.9506C40.7809 30.696 41.0358 31.4189 41.3739 32.1036C41.7939 32.8279 42.015 33.6503 42.0149 34.4876ZM43.2559 25.6386C42.9071 26.2285 42.4738 26.7642 41.9699 27.2286C42.013 26.7342 42.013 26.237 41.9699 25.7426C42.1417 25.5264 42.2987 25.2989 42.4399 25.0616C43.0434 24.0335 43.3557 22.8605 43.3434 21.6684C43.331 20.4763 42.9945 19.31 42.3699 18.2946C42.5816 17.9955 42.7739 17.6832 42.9459 17.3596C43.7815 18.5666 44.2547 19.9874 44.3096 21.4544C44.3645 22.9214 43.9989 24.3725 43.2559 25.6386Z" fill="black"/>
</svg>
