<svg width="12" height="12" viewBox="0 0 12 12" fill="none" xmlns="http://www.w3.org/2000/svg">
<path d="M11.673 10.8603L8.312 7.58735C8.98462 6.78523 9.35382 5.77216 9.355 4.72535C9.33813 3.50079 8.83607 2.33297 7.95901 1.47822C7.08196 0.623477 5.90158 0.151662 4.677 0.166348C3.45259 0.151929 2.27247 0.623862 1.39563 1.47858C0.518795 2.3333 0.0168668 3.50097 0 4.72535C0.0176533 5.94938 0.520066 7.11644 1.39704 7.97054C2.27401 8.82464 3.45393 9.29604 4.678 9.28135C5.74369 9.2835 6.7789 8.92586 7.616 8.26635L10.976 11.5393C11.0695 11.631 11.1951 11.6823 11.326 11.6823C11.4569 11.6823 11.5825 11.631 11.676 11.5393C11.7216 11.4953 11.7579 11.4424 11.7825 11.384C11.8072 11.3255 11.8198 11.2627 11.8195 11.1992C11.8192 11.1358 11.8061 11.073 11.7809 11.0148C11.7557 10.9566 11.719 10.904 11.673 10.8603ZM4.673 8.32235C3.70614 8.33383 2.77423 7.96119 2.08184 7.28624C1.38945 6.6113 0.993177 5.68919 0.98 4.72235C0.994748 3.75568 1.39241 2.83434 2.0857 2.16054C2.779 1.48674 3.7113 1.11552 4.678 1.12835C5.64486 1.11687 6.57677 1.4895 7.26916 2.16445C7.96154 2.8394 8.35782 3.76151 8.371 4.72835C8.35625 5.69414 7.95928 6.61471 7.26707 7.28837C6.57485 7.96203 5.64384 8.33384 4.678 8.32235H4.673Z" fill="white"/>
</svg>
