<svg width="50" height="50" viewBox="0 0 50 50" fill="none" xmlns="http://www.w3.org/2000/svg">
<path d="M45.7953 42.2321V39.1671L46.6403 39.0671C47.4986 38.9526 48.2764 38.5019 48.8024 37.814C49.3285 37.1261 49.5597 36.2575 49.4453 35.3991C49.3308 34.5407 48.8801 33.7629 48.1922 33.2369C47.5043 32.7109 46.6356 32.4796 45.7773 32.5941L4.72926 38.8181C3.03211 39.0719 1.50091 39.9778 0.461264 41.3431C0.395207 41.4294 0.346814 41.5279 0.318851 41.6329C0.290889 41.738 0.283905 41.8475 0.298301 41.9552C0.312697 42.0629 0.348189 42.1668 0.402748 42.2608C0.457307 42.3548 0.529862 42.4371 0.616264 42.5031C1.76714 43.3873 3.17793 43.8665 4.62926 43.8661C4.8859 43.8662 5.14232 43.8515 5.39726 43.8221L44.1363 39.3571V42.2321C44.1355 42.945 43.8519 43.6285 43.3478 44.1326C42.8437 44.6367 42.1602 44.9203 41.4473 44.9211H19.3203C18.662 44.9211 18.0307 45.1826 17.5652 45.648C17.0998 46.1135 16.8383 46.7448 16.8383 47.4031C16.8383 48.0613 17.0998 48.6927 17.5652 49.1581C18.0307 49.6236 18.662 49.8851 19.3203 49.8851H31.7303V48.2311H19.3203C19.1008 48.2311 18.8903 48.1439 18.7351 47.9887C18.5799 47.8335 18.4928 47.623 18.4928 47.4036C18.4928 47.1841 18.5799 46.9736 18.7351 46.8184C18.8903 46.6633 19.1008 46.5761 19.3203 46.5761H41.4513C42.603 46.575 43.7073 46.117 44.5218 45.3026C45.3362 44.4882 45.7942 43.3839 45.7953 42.2321ZM5.20726 42.1771C4.24082 42.2909 3.26227 42.117 2.39426 41.6771C3.11624 41.0246 4.01481 40.5998 4.97726 40.4561L46.0253 34.2351C46.2371 34.2023 46.4534 34.2121 46.6615 34.264C46.8695 34.3158 47.0651 34.4087 47.2368 34.5371C47.4084 34.6656 47.5527 34.827 47.6612 35.0119C47.7697 35.1968 47.8402 35.4015 47.8686 35.6141C47.8969 35.8266 47.8826 36.0426 47.8264 36.2495C47.7701 36.4564 47.6732 36.65 47.5412 36.819C47.4092 36.9879 47.2448 37.1288 47.0576 37.2334C46.8705 37.338 46.6643 37.4042 46.4513 37.4281L45.7953 37.5031V35.8201H44.1363V37.6901L5.20726 42.1771Z" fill="#76A713"/>
<path d="M35.0398 48.2305H33.3848V49.8855H35.0398V48.2305Z" fill="#76A713"/>
<path d="M34.257 31.6599C36.8382 31.5165 39.3443 30.7386 41.5532 29.3953C43.762 28.052 45.6054 26.1846 46.9202 23.9586C48.2349 21.7326 48.9804 19.2167 49.0905 16.6338C49.2006 14.0509 48.672 11.4807 47.5515 9.15083C46.431 6.82101 44.7532 4.80349 42.6667 3.27701C40.5803 1.75052 38.1495 0.76219 35.5898 0.399559C33.0301 0.0369287 30.4205 0.311195 27.9921 1.19806C25.5637 2.08493 23.3915 3.55702 21.668 5.48393L22.901 6.58993C24.4428 4.86544 26.3862 3.54786 28.5589 2.75392C30.7316 1.95998 33.0666 1.71419 35.357 2.03832C37.6474 2.36246 39.8226 3.24651 41.6897 4.61216C43.5568 5.97781 45.0582 7.78289 46.061 9.86748C47.0638 11.9521 47.5369 14.2518 47.4385 16.563C47.3401 18.8741 46.6731 21.1253 45.4968 23.1171C44.3204 25.1089 42.6709 26.7798 40.6945 27.9818C38.718 29.1837 36.4756 29.8797 34.166 30.0079L34.257 31.6599Z" fill="#76A713"/>
<path d="M35.1645 27.4111C36.8673 27.1461 38.4896 26.5045 39.913 25.5331C41.3365 24.5616 42.5253 23.2848 43.3927 21.7958C44.2602 20.3067 44.7844 18.6428 44.9273 16.9254C45.0702 15.208 44.8281 13.4803 44.2187 11.8683C43.6093 10.2564 42.6479 8.80067 41.4045 7.60736C40.1612 6.41404 38.6673 5.51317 37.0316 4.9704C35.396 4.42763 33.6599 4.25664 31.9498 4.46989C30.2397 4.68314 28.5987 5.27526 27.1465 6.20309L28.0355 7.59609C29.2802 6.80135 30.6866 6.2943 32.1521 6.11186C33.6176 5.92942 35.1054 6.0762 36.507 6.5415C37.9086 7.0068 39.1888 7.77891 40.2542 8.80156C41.3197 9.82422 42.1436 11.0717 42.6659 12.453C43.1882 13.8344 43.3958 15.3149 43.2736 16.7867C43.1514 18.2584 42.7023 19.6844 41.9593 20.9606C41.2162 22.2369 40.1978 23.3313 38.9782 24.1642C37.7586 24.9971 36.3686 25.5474 34.9095 25.7751L35.1645 27.4111Z" fill="#76A713"/>
<path d="M33.3843 8.51758C32.8935 8.51758 32.4136 8.66314 32.0054 8.93587C31.5973 9.2086 31.2791 9.59623 31.0913 10.0498C30.9034 10.5033 30.8543 11.0023 30.95 11.4838C31.0458 11.9653 31.2822 12.4075 31.6293 12.7546C31.9764 13.1017 32.4187 13.3381 32.9001 13.4339C33.3816 13.5297 33.8806 13.4805 34.3342 13.2926C34.7877 13.1048 35.1753 12.7867 35.4481 12.3785C35.7208 11.9703 35.8663 11.4905 35.8663 10.9996C35.8663 10.3413 35.6049 9.71 35.1394 9.24454C34.6739 8.77907 34.0426 8.51758 33.3843 8.51758ZM33.3843 11.8266C33.2208 11.8266 33.0609 11.7781 32.9249 11.6872C32.7889 11.5963 32.6829 11.4672 32.6203 11.3161C32.5577 11.1649 32.5413 10.9987 32.5732 10.8382C32.6051 10.6778 32.6839 10.5305 32.7996 10.4148C32.9152 10.2991 33.0626 10.2204 33.223 10.1885C33.3834 10.1566 33.5497 10.1729 33.7008 10.2355C33.8519 10.2981 33.9811 10.4041 34.072 10.5401C34.1628 10.6761 34.2113 10.836 34.2113 10.9996C34.2113 11.2189 34.1242 11.4293 33.9691 11.5844C33.814 11.7394 33.6037 11.8266 33.3843 11.8266Z" fill="#76A713"/>
<path d="M38.3492 18.4464C38.8401 18.4464 39.32 18.3009 39.7281 18.0281C40.1363 17.7554 40.4544 17.3678 40.6423 16.9142C40.8301 16.4607 40.8793 15.9617 40.7835 15.4802C40.6877 14.9987 40.4513 14.5565 40.1042 14.2094C39.7571 13.8623 39.3149 13.6259 38.8334 13.5301C38.3519 13.4343 37.8529 13.4835 37.3994 13.6714C36.9458 13.8592 36.5582 14.1773 36.2855 14.5855C36.0128 14.9937 35.8672 15.4735 35.8672 15.9644C35.8672 16.6227 36.1287 17.254 36.5942 17.7195C37.0596 18.1849 37.6909 18.4464 38.3492 18.4464ZM38.3492 15.1374C38.5128 15.1374 38.6726 15.1859 38.8086 15.2768C38.9446 15.3677 39.0506 15.4968 39.1132 15.6479C39.1758 15.7991 39.1922 15.9653 39.1603 16.1258C39.1284 16.2862 39.0496 16.4335 38.934 16.5492C38.8183 16.6649 38.671 16.7436 38.5105 16.7755C38.3501 16.8074 38.1838 16.7911 38.0327 16.7285C37.8816 16.6659 37.7524 16.5599 37.6616 16.4239C37.5707 16.2879 37.5222 16.128 37.5222 15.9644C37.5222 15.7451 37.6093 15.5347 37.7644 15.3796C37.9195 15.2246 38.1299 15.1374 38.3492 15.1374Z" fill="#76A713"/>
<path d="M1.58053 26.1326C1.91956 26.5445 2.18972 27.0085 2.38053 27.5066C2.47053 28.0563 2.47053 28.617 2.38053 29.1666C2.18611 30.1374 2.29973 31.1446 2.70553 32.0476C3.2906 32.8583 4.11484 33.4653 5.06253 33.7836C5.57466 33.9768 6.05191 34.252 6.47553 34.5986C6.822 35.0223 7.09726 35.4996 7.29053 36.0116C7.39053 36.2256 7.49053 36.4476 7.59753 36.6656L9.07753 35.9256C8.97753 35.7356 8.89253 35.5366 8.79653 35.3256C8.52953 34.6286 8.1397 33.9851 7.64553 33.4256C7.08614 32.9314 6.44261 32.5416 5.74553 32.2746C5.12304 32.0762 4.56665 31.7114 4.13653 31.2196C3.92832 30.608 3.89029 29.9512 4.02653 29.3196C4.14221 28.5744 4.12427 27.8145 3.97353 27.0756C3.74027 26.3812 3.3843 25.7343 2.92253 25.1656C2.47243 24.6722 2.16874 24.0631 2.04553 23.4066C2.16905 22.7503 2.4727 22.1413 2.92253 21.6476C3.38444 21.0791 3.74043 20.4321 3.97353 19.7376C4.12448 18.9987 4.14243 18.2388 4.02653 17.4936C3.89024 16.862 3.92827 16.2053 4.13653 15.5936C4.56648 15.1005 5.1233 14.7346 5.74653 14.5356C6.44316 14.2705 7.08666 13.8827 7.64653 13.3906C8.14068 12.8312 8.53052 12.1877 8.79753 11.4906C8.9966 10.8674 9.36249 10.3106 9.85553 9.88062C10.4672 9.67231 11.1239 9.63429 11.7555 9.77063C12.5008 9.88624 13.2606 9.8683 13.9995 9.71762C14.6939 9.48437 15.3409 9.12839 15.9095 8.66663C16.4025 8.21765 17.0104 7.91438 17.6655 7.79062C18.3219 7.91414 18.9309 8.21779 19.4245 8.66762C19.9931 9.12954 20.6401 9.48553 21.3345 9.71863C22.0735 9.86936 22.8333 9.88731 23.5785 9.77162C24.2101 9.63554 24.8668 9.67356 25.4785 9.88163C25.9715 10.3113 26.3374 10.8677 26.5365 11.4906C26.8035 12.1877 27.1933 12.8312 27.6875 13.3906C28.247 13.8848 28.8905 14.2746 29.5875 14.5416C30.2107 14.7407 30.7675 15.1066 31.1975 15.5996C31.4057 16.2113 31.4438 16.868 31.3075 17.4996C31.1919 18.2448 31.2098 19.0047 31.3605 19.7436C31.5938 20.438 31.9498 21.0849 32.4115 21.6536C32.861 22.1474 33.1643 22.7564 33.2875 23.4126C33.164 24.069 32.8604 24.678 32.4105 25.1716C31.9486 25.7402 31.5926 26.3871 31.3595 27.0816C31.2086 27.8205 31.1906 28.5804 31.3065 29.3256C31.4428 29.9572 31.4048 30.614 31.1965 31.2256C30.7666 31.7187 30.2098 32.0847 29.5865 32.2836C29.151 32.4694 28.7293 32.686 28.3245 32.9316L29.2175 34.3246C29.5562 34.1225 29.9084 33.9437 30.2715 33.7896C31.2193 33.4714 32.0435 32.8643 32.6285 32.0536C33.0344 31.1506 33.148 30.1434 32.9535 29.1726C32.8635 28.623 32.8635 28.0623 32.9535 27.5126C33.1443 27.0142 33.4145 26.5498 33.7535 26.1376C34.4253 25.3759 34.8393 24.4215 34.9365 23.4106C34.8371 22.4018 34.4221 21.45 33.7505 20.6906C33.4115 20.2788 33.1413 19.8148 32.9505 19.3166C32.8605 18.767 32.8605 18.2063 32.9505 17.6566C33.145 16.6859 33.0313 15.6787 32.6255 14.7756C32.0405 13.965 31.2162 13.3579 30.2685 13.0396C29.7564 12.8465 29.2792 12.5712 28.8555 12.2246C28.5091 11.8009 28.2338 11.3237 28.0405 10.8116C27.7224 9.86387 27.1153 9.0396 26.3045 8.45463C25.4015 8.0487 24.3943 7.93507 23.4235 8.12962C22.8739 8.21974 22.3132 8.21974 21.7635 8.12962C21.2651 7.93885 20.8007 7.66869 20.3885 7.32963C19.6288 6.65632 18.6758 6.24019 17.6655 6.14062C16.656 6.23962 15.7034 6.65466 14.9435 7.32662C14.5317 7.66566 14.0677 7.93581 13.5695 8.12663C13.0198 8.21651 12.4592 8.21651 11.9095 8.12663C10.9388 7.9322 9.93156 8.04583 9.02853 8.45162C8.2179 9.0367 7.61083 9.86093 7.29253 10.8086C7.09939 11.3208 6.82412 11.798 6.47753 12.2216C6.05383 12.5681 5.5766 12.8434 5.06453 13.0366C4.11627 13.3549 3.29162 13.9624 2.70653 14.7736C2.30067 15.6766 2.18704 16.6839 2.38153 17.6546C2.47156 18.2043 2.47156 18.765 2.38153 19.3146C2.19075 19.8131 1.9206 20.2774 1.58153 20.6896C0.909335 21.4491 0.493944 22.4013 0.394531 23.4106C0.493525 24.4202 0.908565 25.3727 1.58053 26.1326Z" fill="#76A713"/>
<path d="M17.665 11.8271C15.3741 11.8271 13.1347 12.5065 11.2299 13.7792C9.32505 15.052 7.84043 16.861 6.96374 18.9775C6.08705 21.094 5.85767 23.423 6.3046 25.6699C6.75153 27.9168 7.85471 29.9807 9.47462 31.6006C11.0945 33.2205 13.1584 34.3237 15.4053 34.7706C17.6522 35.2175 19.9811 34.9881 22.0977 34.1114C24.2142 33.2348 26.0232 31.7501 27.2959 29.8453C28.5687 27.9405 29.248 25.701 29.248 23.4101C29.248 20.3381 28.0277 17.392 25.8555 15.2197C23.6832 13.0475 20.737 11.8271 17.665 11.8271ZM17.665 33.3382C15.7015 33.3382 13.782 32.7559 12.1493 31.665C10.5167 30.5741 9.24419 29.0235 8.49276 27.2094C7.74133 25.3953 7.54473 23.3991 7.9278 21.4733C8.31087 19.5474 9.25642 17.7784 10.6449 16.39C12.0333 15.0015 13.8023 14.056 15.7282 13.6729C17.654 13.2898 19.6502 13.4864 21.4643 14.2379C23.2784 14.9893 24.829 16.2618 25.9199 17.8944C27.0108 19.5271 27.593 21.4466 27.593 23.4101C27.593 26.0432 26.5471 28.5684 24.6852 30.4303C22.8233 32.2922 20.2981 33.3382 17.665 33.3382Z" fill="#76A713"/>
<path d="M17.6656 20.9279C18.1565 20.9279 18.6364 20.7823 19.0445 20.5096C19.4527 20.2369 19.7708 19.8492 19.9587 19.3957C20.1465 18.9422 20.1957 18.4431 20.0999 17.9617C20.0041 17.4802 19.7677 17.0379 19.4206 16.6908C19.0735 16.3437 18.6313 16.1073 18.1498 16.0116C17.6683 15.9158 17.1693 15.9649 16.7158 16.1528C16.2622 16.3407 15.8746 16.6588 15.6019 17.0669C15.3292 17.4751 15.1836 17.955 15.1836 18.4459C15.1836 19.1041 15.4451 19.7354 15.9106 20.2009C16.376 20.6664 17.0073 20.9279 17.6656 20.9279ZM17.6656 17.6189C17.8292 17.6189 17.9891 17.6674 18.125 17.7582C18.261 17.8491 18.367 17.9783 18.4296 18.1294C18.4922 18.2805 18.5086 18.4468 18.4767 18.6072C18.4448 18.7676 18.366 18.915 18.2504 19.0306C18.1347 19.1463 17.9874 19.2251 17.8269 19.257C17.6665 19.2889 17.5002 19.2725 17.3491 19.2099C17.198 19.1473 17.0688 19.0413 16.978 18.9053C16.8871 18.7693 16.8386 18.6094 16.8386 18.4459C16.8386 18.2265 16.9257 18.0162 17.0808 17.8611C17.2359 17.706 17.4463 17.6189 17.6656 17.6189Z" fill="#76A713"/>
<path d="M12.7008 20.9277C12.2099 20.9277 11.73 21.0733 11.3218 21.346C10.9137 21.6188 10.5955 22.0064 10.4077 22.4599C10.2198 22.9134 10.1707 23.4125 10.2664 23.8939C10.3622 24.3754 10.5986 24.8177 10.9457 25.1648C11.2928 25.5119 11.7351 25.7483 12.2165 25.844C12.698 25.9398 13.197 25.8907 13.6506 25.7028C14.1041 25.5149 14.4917 25.1968 14.7645 24.7887C15.0372 24.3805 15.1828 23.9006 15.1828 23.4097C15.1828 22.7515 14.9213 22.1202 14.4558 21.6547C13.9903 21.1892 13.359 20.9277 12.7008 20.9277ZM12.7008 24.2367C12.5372 24.2367 12.3773 24.1882 12.2413 24.0974C12.1053 24.0065 11.9993 23.8773 11.9367 23.7262C11.8741 23.5751 11.8577 23.4088 11.8896 23.2484C11.9216 23.088 12.0003 22.9406 12.116 22.825C12.2316 22.7093 12.379 22.6305 12.5394 22.5986C12.6998 22.5667 12.8661 22.5831 13.0172 22.6457C13.1683 22.7083 13.2975 22.8143 13.3884 22.9503C13.4792 23.0863 13.5278 23.2462 13.5278 23.4097C13.5278 23.6291 13.4406 23.8394 13.2855 23.9945C13.1304 24.1496 12.9201 24.2367 12.7008 24.2367Z" fill="#76A713"/>
<path d="M17.6656 25.8906C17.1747 25.8906 16.6948 26.0362 16.2867 26.3089C15.8785 26.5816 15.5604 26.9693 15.3725 27.4228C15.1847 27.8763 15.1355 28.3754 15.2313 28.8568C15.3271 29.3383 15.5634 29.7806 15.9106 30.1277C16.2577 30.4748 16.6999 30.7112 17.1814 30.8069C17.6628 30.9027 18.1619 30.8536 18.6154 30.6657C19.0689 30.4778 19.4566 30.1597 19.7293 29.7516C20.002 29.3434 20.1476 28.8635 20.1476 28.3726C20.1476 27.7144 19.8861 27.0831 19.4206 26.6176C18.9552 26.1521 18.3239 25.8906 17.6656 25.8906ZM17.6656 29.1996C17.502 29.1996 17.3421 29.1511 17.2061 29.0603C17.0701 28.9694 16.9641 28.8402 16.9015 28.6891C16.839 28.538 16.8226 28.3717 16.8545 28.2113C16.8864 28.0509 16.9652 27.9035 17.0808 27.7878C17.1965 27.6722 17.3438 27.5934 17.5043 27.5615C17.6647 27.5296 17.831 27.546 17.9821 27.6086C18.1332 27.6712 18.2623 27.7772 18.3532 27.9132C18.4441 28.0492 18.4926 28.2091 18.4926 28.3726C18.493 28.4815 18.4719 28.5893 18.4305 28.69C18.3891 28.7907 18.3283 28.8822 18.2514 28.9593C18.1746 29.0365 18.0833 29.0976 17.9828 29.1394C17.8822 29.1811 17.7745 29.2026 17.6656 29.2026V29.1996Z" fill="#76A713"/>
<path d="M22.6285 20.9277C22.1376 20.9277 21.6577 21.0733 21.2496 21.346C20.8414 21.6188 20.5233 22.0064 20.3354 22.4599C20.1476 22.9134 20.0984 23.4125 20.1942 23.8939C20.2899 24.3754 20.5263 24.8177 20.8734 25.1648C21.2206 25.5119 21.6628 25.7483 22.1443 25.844C22.6257 25.9398 23.1248 25.8907 23.5783 25.7028C24.0318 25.5149 24.4195 25.1968 24.6922 24.7887C24.9649 24.3805 25.1105 23.9006 25.1105 23.4097C25.1105 22.7515 24.849 22.1202 24.3835 21.6547C23.9181 21.1892 23.2868 20.9277 22.6285 20.9277ZM22.6285 24.2367C22.4649 24.2367 22.305 24.1882 22.169 24.0974C22.033 24.0065 21.927 23.8773 21.8644 23.7262C21.8018 23.5751 21.7855 23.4088 21.8174 23.2484C21.8493 23.088 21.928 22.9406 22.0437 22.825C22.1594 22.7093 22.3067 22.6305 22.4671 22.5986C22.6276 22.5667 22.7938 22.5831 22.945 22.6457C23.0961 22.7083 23.2252 22.8143 23.3161 22.9503C23.407 23.0863 23.4555 23.2462 23.4555 23.4097C23.4555 23.6291 23.3684 23.8394 23.2133 23.9945C23.0582 24.1496 22.8478 24.2367 22.6285 24.2367Z" fill="#76A713"/>
<path d="M15.9043 37.0742H17.5363V45.0812H15.9043V37.0742Z" fill="#76A713"/>
<path d="M22.4336 37.0742H24.0656V45.0812H22.4336V37.0742Z" fill="#76A713"/>
<path d="M28.9629 37.0742H30.5949V45.0812H28.9629V37.0742Z" fill="#76A713"/>
<path d="M35.4922 38.6758H37.1242V43.4758H35.4922V38.6758Z" fill="#76A713"/>
<path d="M42.0215 39.4766H43.6535V42.6766H42.0215V39.4766Z" fill="#76A713"/>
</svg>
