<svg width="49" height="48" viewBox="0 0 49 48" fill="none" xmlns="http://www.w3.org/2000/svg">
<path d="M35.713 8.4367C35.4955 8.39526 35.2704 8.44148 35.0868 8.5653C34.9033 8.68912 34.7761 8.8805 34.733 9.0977L33.058 18.0557C23.99 37.9817 1.67403 45.4327 1.45003 45.5057C1.34614 45.5379 1.24973 45.5905 1.16646 45.6605C1.08318 45.7305 1.01471 45.8164 0.96507 45.9131C0.915426 46.0099 0.885604 46.1156 0.877354 46.2241C0.869104 46.3325 0.882591 46.4415 0.917025 46.5447C0.975004 46.7102 1.0833 46.8535 1.22675 46.9545C1.37019 47.0554 1.54162 47.109 1.71703 47.1077C1.80734 47.1077 1.89709 47.0935 1.98303 47.0657C2.21503 46.9897 25.291 39.3037 34.64 18.6317C34.6668 18.5726 34.6863 18.5105 34.698 18.4467L36.391 9.3927C36.4099 9.28534 36.4073 9.1753 36.3834 9.06895C36.3595 8.9626 36.3147 8.86205 36.2516 8.77314C36.1886 8.68422 36.1085 8.6087 36.016 8.55095C35.9236 8.4932 35.8206 8.45437 35.713 8.4367Z" fill="#76A713"/>
<path d="M37.9774 0.373241C37.8007 0.263925 37.5905 0.222026 37.3854 0.255241C33.9314 0.82124 31.0194 4.04324 30.1294 8.26824C29.2394 12.4932 30.6294 16.5682 33.5864 18.4062C33.7221 18.4905 33.8787 18.5352 34.0384 18.5352C34.0849 18.535 34.1314 18.5314 34.1774 18.5242C37.6324 17.9582 40.5484 14.7382 41.4344 10.5112C42.3204 6.28424 40.9304 2.20924 37.9774 0.373241ZM39.7834 10.1822C39.0774 13.5532 36.8174 16.2362 34.2204 16.8382C32.0744 15.2962 31.0734 11.9682 31.7794 8.59724C32.4854 5.22624 34.7464 2.54324 37.3424 1.94324C39.4894 3.48324 40.4894 6.81124 39.7834 10.1822Z" fill="#76A713"/>
<path d="M27.8684 22.2931C27.1174 17.5731 24.0684 13.8631 20.2884 13.0621C20.0841 13.0183 19.8709 13.0503 19.6884 13.1521C16.3304 15.0281 14.5794 19.4601 15.3304 24.1811C16.0814 28.9021 19.1304 32.6111 22.9104 33.4121C23.1147 33.4563 23.3281 33.4243 23.5104 33.3221C26.8674 31.4471 28.6184 27.0141 27.8684 22.2931ZM22.9524 31.7291C20.0344 30.9291 17.6104 27.7801 16.9984 23.9291C16.3864 20.0781 17.7164 16.3631 20.2494 14.7461C23.1674 15.5461 25.5914 18.6941 26.2034 22.5461C26.8154 26.3981 25.4844 30.1141 22.9524 31.7291Z" fill="#76A713"/>
<path d="M48.7489 23.2282C46.6189 20.0852 41.9679 18.6562 37.1699 19.6762C32.3719 20.6962 28.7559 23.8822 28.1699 27.6062C28.1381 27.8087 28.1846 28.0157 28.2999 28.1852C29.9719 30.6532 33.1999 32.0632 36.8259 32.0632C37.8522 32.0615 38.8754 31.9522 39.8789 31.7372C44.6789 30.7182 48.2939 27.5312 48.8789 23.8072C48.9107 23.6047 48.8642 23.3977 48.7489 23.2282ZM39.5179 30.1282C35.6039 30.9602 31.7079 29.8972 29.8919 27.5382C30.5309 24.6582 33.6149 22.1132 37.5279 21.2812C41.4409 20.4492 45.3369 21.5122 47.1539 23.8712C46.5149 26.7532 43.4309 29.2992 39.5179 30.1302V30.1282Z" fill="#76A713"/>
<path d="M32.1613 41.8062C31.3233 38.7352 28.0053 36.3802 23.9033 35.9462C19.8013 35.5122 16.0423 37.1192 14.5453 39.9462C14.4493 40.127 14.4257 40.3376 14.4793 40.5352C15.3173 43.6062 18.6363 45.9612 22.7373 46.3952C23.1764 46.4416 23.6177 46.465 24.0593 46.4652C27.6283 46.4652 30.7593 44.9152 32.0963 42.3982C32.1927 42.2164 32.216 42.0046 32.1613 41.8062ZM22.9183 44.7582C19.7043 44.4182 17.0023 42.6582 16.2043 40.4182C17.4783 38.4002 20.5043 37.2432 23.7213 37.5822C26.9383 37.9212 29.6373 39.6822 30.4353 41.9222C29.1623 43.9402 26.1323 45.0962 22.9183 44.7582Z" fill="#76A713"/>
<path d="M21.9018 22.8175C21.7841 22.6295 21.598 22.4945 21.3826 22.4411C21.1673 22.3878 20.9397 22.4202 20.7478 22.5315C20.6532 22.585 20.5704 22.6569 20.5041 22.743C20.4379 22.8291 20.3896 22.9277 20.3622 23.0328C20.3348 23.1379 20.3288 23.2475 20.3445 23.355C20.3602 23.4624 20.3974 23.5657 20.4538 23.6585C21.9008 26.5033 22.543 29.6894 22.3108 32.8725C22.3069 32.9815 22.3245 33.0901 22.3626 33.1922C22.4008 33.2943 22.4586 33.388 22.5329 33.4677C22.6072 33.5475 22.6964 33.6118 22.7956 33.6571C22.8948 33.7024 23.0019 33.7277 23.1108 33.7315H23.1508C23.3649 33.734 23.5717 33.6539 23.7282 33.5079C23.8848 33.3619 23.9792 33.1612 23.9918 32.9475C24.2496 29.4423 23.5259 25.9345 21.9018 22.8175Z" fill="#76A713"/>
<path d="M38.8828 25.4034C38.7967 25.1991 38.6339 25.0366 38.4294 24.9508C38.2249 24.865 37.995 24.8627 37.7888 24.9445C34.8965 25.9647 31.8557 26.5009 28.7888 26.5315C28.5708 26.5315 28.3617 26.6181 28.2076 26.7722C28.0534 26.9264 27.9668 27.1354 27.9668 27.3535C27.9668 27.5715 28.0534 27.7805 28.2076 27.9347C28.3617 28.0888 28.5708 28.1754 28.7888 28.1754C32.0678 28.1522 35.3195 27.5775 38.4078 26.4755C38.5105 26.4377 38.6045 26.3798 38.6843 26.305C38.7641 26.2302 38.8281 26.1401 38.8724 26.0401C38.9167 25.9401 38.9405 25.8322 38.9423 25.7228C38.944 25.6135 38.9238 25.5048 38.8828 25.4034Z" fill="#76A713"/>
</svg>
