<svg width="51" height="50" viewBox="0 0 51 50" fill="none" xmlns="http://www.w3.org/2000/svg">
<path d="M50.6008 28.2274C50.5878 26.4858 50.1635 24.7718 49.3625 23.2252C48.5616 21.6786 47.4067 20.3431 45.9918 19.3274C45.3937 18.8971 44.6756 18.6656 43.9388 18.6654C43.0371 18.664 42.1702 19.0137 41.5218 19.6404C41.4038 19.5404 41.2958 19.4404 41.1738 19.3404C40.7151 19.0067 40.1809 18.7919 39.6188 18.7154L39.9788 14.8334C39.9868 14.7404 39.9908 14.6464 39.9908 14.5534C39.9824 13.7238 39.6451 12.9314 39.053 12.3502C38.461 11.769 37.6625 11.4465 36.8328 11.4534H36.6208C35.7912 11.4465 34.9927 11.769 34.4006 12.3502C33.8086 12.9314 33.4713 13.7238 33.4628 14.5534C33.4628 14.6474 33.4628 14.7404 33.4758 14.8344L33.8378 18.7344C33.3191 18.8245 32.8271 19.0295 32.3978 19.3344C32.2518 19.4414 32.1218 19.5654 31.9818 19.6774C31.9088 19.6034 31.8328 19.5344 31.7528 19.4684C31.8704 18.8409 31.8561 18.1958 31.7108 17.5741C31.5655 16.9524 31.2924 16.3678 30.9088 15.8574C31.5085 15.0471 31.8317 14.0654 31.8308 13.0574C31.8238 12.3963 31.6821 11.7436 31.4142 11.1391C31.1464 10.5347 30.7581 9.99119 30.2731 9.54192C29.788 9.09264 29.2165 8.74701 28.5933 8.52615C27.9702 8.30529 27.3085 8.21384 26.6488 8.25739C26.3864 7.53298 25.9547 6.88172 25.3898 6.35782C24.8248 5.83392 24.1429 5.45253 23.4008 5.24539C22.9105 4.64065 22.2823 4.16232 21.5689 3.85052C20.8555 3.53871 20.0777 3.40253 19.3008 3.45339C18.9766 2.58278 18.4129 1.82152 17.6748 1.25734C16.9367 0.693152 16.0542 0.349003 15.129 0.264554C14.2038 0.180104 13.2736 0.358791 12.4456 0.780021C11.6175 1.20125 10.9254 1.84788 10.4488 2.64539C9.40187 2.68027 8.39365 3.04975 7.57207 3.69963C6.7505 4.34951 6.15881 5.24559 5.88383 6.25639C4.64761 6.70313 3.5777 7.51747 2.81779 8.59002C2.05789 9.66257 1.64439 10.942 1.63283 12.2564C1.63387 13.3055 1.89536 14.3379 2.39384 15.2611C2.89231 16.1842 3.61218 16.9691 4.48883 17.5454C4.0654 18.4985 3.96978 19.5651 4.21694 20.5783C4.4641 21.5915 5.04008 22.4943 5.85483 23.1454C5.76188 23.5101 5.71452 23.885 5.71383 24.2614C5.7249 25.4457 6.16941 26.585 6.96336 27.4639C7.75731 28.3428 8.84569 28.9004 10.0228 29.0314L11.8278 33.9914C10.9045 34.6578 10.1173 35.4949 9.50883 36.4574L5.23283 35.5254C4.90197 35.4519 4.55892 35.4528 4.22845 35.528C3.89798 35.6032 3.58833 35.7508 3.32187 35.9603C3.0554 36.1697 2.83877 36.4357 2.68762 36.7391C2.53647 37.0424 2.45457 37.3755 2.44783 37.7144V38.0314C2.45117 38.2495 2.48724 38.4659 2.55483 38.6734H2.44883C2.13366 38.6734 1.82157 38.7355 1.53039 38.8561C1.23921 38.9767 0.974633 39.1535 0.751772 39.3763C0.528911 39.5992 0.352129 39.8638 0.231517 40.1549C0.110906 40.4461 0.0488281 40.7582 0.0488281 41.0734C0.0488281 41.3886 0.110906 41.7006 0.231517 41.9918C0.352129 42.283 0.528911 42.5476 0.751772 42.7704C0.974633 42.9933 1.23921 43.1701 1.53039 43.2907C1.82157 43.4113 2.13366 43.4734 2.44883 43.4734H2.55583C2.48824 43.6808 2.45217 43.8972 2.44883 44.1154V44.4324C2.45584 44.771 2.53784 45.1038 2.68892 45.4069C2.84 45.7101 3.05641 45.9759 3.32257 46.1853C3.58872 46.3948 3.898 46.5426 4.22814 46.6182C4.55828 46.6938 4.90107 46.6952 5.23183 46.6224L9.50883 45.6894C10.3232 46.9753 11.4501 48.034 12.7844 48.7665C14.1186 49.499 15.6167 49.8816 17.1388 49.8784H17.3308C17.7877 49.879 18.2439 49.8456 18.6958 49.7784L46.6818 45.5554C47.7647 45.4063 48.7574 44.8713 49.4774 44.0488C50.1974 43.2263 50.5963 42.1715 50.6008 41.0784C50.599 40.2152 50.3483 39.3709 49.8788 38.6465C49.4093 37.9222 48.741 37.3486 47.9538 36.9944C49.6495 35.0224 50.5879 32.5112 50.6008 29.9104V28.2274ZM40.1808 20.6124C41.3865 21.5218 42.3652 22.6981 43.0401 24.0491C43.715 25.4002 44.0678 26.8892 44.0708 28.3994V31.3454C44.0707 32.9821 43.658 34.5924 42.8708 36.0274L36.3268 35.0394C36.0547 33.879 35.9158 32.6913 35.9128 31.4994V28.2454C35.9194 27.4372 35.9886 26.6308 36.1198 25.8334C36.3198 25.8504 36.5198 25.8674 36.7288 25.8674C39.0558 25.8674 40.8098 24.8344 40.8098 23.4674C40.7725 23.0491 40.6153 22.6504 40.3571 22.3192C40.0988 21.9881 39.7505 21.7385 39.3538 21.6004L39.4738 20.3004C39.731 20.3489 39.9738 20.4553 40.1838 20.6114L40.1808 20.6124ZM36.6198 13.0554H36.8328C37.234 13.0522 37.6201 13.2084 37.9062 13.4896C38.1923 13.7709 38.3551 14.1542 38.3588 14.5554C38.359 14.6008 38.3566 14.6462 38.3518 14.6914L37.6108 22.6914L38.2338 22.8914C38.9488 23.1154 39.1738 23.4114 39.1738 23.4744C39.1738 23.6744 38.3058 24.2744 36.7258 24.2744C35.1458 24.2744 34.2778 23.6744 34.2778 23.4744C34.2778 23.4114 34.5028 23.1154 35.2178 22.8904L35.8408 22.6904L35.0998 14.6904C35.0998 14.6444 35.0938 14.5994 35.0938 14.5544C35.0975 14.1532 35.2603 13.7699 35.5464 13.4886C35.8326 13.2074 36.2186 13.0512 36.6198 13.0544V13.0554ZM33.9838 20.3274L34.1018 21.5964C33.7052 21.7345 33.3568 21.9841 33.0986 22.3152C32.8403 22.6464 32.6831 23.0451 32.6458 23.4634C32.6458 24.3454 33.3798 25.0834 34.5198 25.4994C34.3663 26.4068 34.2854 27.3251 34.2778 28.2454V31.4954C34.2788 32.596 34.3849 33.694 34.5948 34.7744L29.7838 34.0454C29.5201 33.1668 29.3853 32.2547 29.3838 31.3374V28.3984C29.3927 26.8792 29.7585 25.3835 30.4518 24.0317C31.145 22.6799 32.1463 21.51 33.3748 20.6164C33.5584 20.4837 33.7648 20.3851 33.9838 20.3274ZM25.1638 33.3454C24.7177 32.2532 24.4868 31.0852 24.4838 29.9054V28.2264C24.4952 26.7357 24.8585 25.2688 25.5442 23.9451C26.23 22.6215 27.2187 21.4785 28.4298 20.6094C28.7461 20.3835 29.1251 20.2621 29.5138 20.2624C29.9919 20.2611 30.4513 20.4479 30.7928 20.7824C28.8536 22.8465 27.7662 25.5673 27.7488 28.3994V31.3454C27.7513 32.1677 27.8459 32.9871 28.0308 33.7884L25.1638 33.3454ZM25.2408 9.28939L25.3898 10.1134L26.2218 9.93139C26.4552 9.87843 26.6936 9.85093 26.9328 9.84939C27.7896 9.84218 28.6143 10.175 29.2262 10.7748C29.838 11.3747 30.1871 12.1926 30.1968 13.0494C30.1966 13.4663 30.1137 13.8791 29.9529 14.2638C29.792 14.6484 29.5565 14.9974 29.2598 15.2904L28.6988 15.8514L29.2598 16.4124C29.5565 16.7054 29.792 17.0543 29.9529 17.439C30.1137 17.8237 30.1966 18.2364 30.1968 18.6534C30.1968 18.6774 30.1968 18.7014 30.1968 18.7264C29.7257 18.6276 29.239 18.6289 28.7684 18.7302C28.2977 18.8315 27.8536 19.0305 27.4648 19.3144C26.0052 20.3731 24.8225 21.7682 24.0168 23.3814C23.7075 22.4367 23.3845 21.5337 23.0478 20.6724C23.5406 18.2725 24.7982 16.0971 26.6318 14.4724L26.1208 13.8484L25.6108 13.2234C24.0262 14.5871 22.803 16.3211 22.0498 18.2714C21.0771 16.0382 19.9407 13.88 18.6498 11.8144L17.2758 12.6804C18.2817 14.2941 19.1884 15.9675 19.9908 17.6914C18.2597 17.1237 16.4327 16.9071 14.6168 17.0544L14.7788 18.6474C16.0058 18.5264 19.4788 18.5854 21.1068 20.2114C21.6788 21.5914 22.2428 23.1034 22.7408 24.7234C20.9829 23.9202 19.0782 23.4886 17.1458 23.4554V25.0554C17.1838 25.0554 20.8178 25.0794 22.9678 26.7554C22.8979 27.239 22.8615 27.7268 22.8588 28.2154V29.8994C22.8614 30.9724 23.0249 32.0389 23.3438 33.0634L18.7028 32.3634C18.4578 32.3264 18.2108 32.3014 17.9628 32.2844C17.1025 32.2884 16.2757 31.951 15.6638 31.3462C15.052 30.7415 14.7049 29.9187 14.6988 29.0584C14.7023 28.6681 14.7783 28.2819 14.9228 27.9194L15.1608 27.3074L14.5948 26.9564C14.2272 26.7361 13.9085 26.4431 13.6582 26.0952C13.4078 25.7474 13.2312 25.3521 13.1391 24.9335C13.0469 24.515 13.0413 24.0821 13.1224 23.6613C13.2035 23.2405 13.3697 22.8407 13.6108 22.4864L14.1188 21.7374L13.3008 21.3294C12.4978 20.9383 11.8206 20.3297 11.3462 19.573C10.8717 18.8162 10.619 17.9416 10.6168 17.0484C10.6292 16.0009 10.9813 14.9858 11.6203 14.1557C12.2592 13.3256 13.1504 12.7254 14.1598 12.4454L14.6668 12.3024L14.7428 11.7904C14.8655 11.0267 15.2563 10.3317 15.8452 9.83006C16.434 9.32846 17.1823 9.0531 17.9558 9.05339C17.9857 9.05469 18.0154 9.05803 18.0448 9.06339C18.1018 9.07139 18.1598 9.07839 18.2178 9.08239L18.8028 9.12839L19.0328 8.59839C19.3149 7.96158 19.7926 7.43127 20.3966 7.08449C21.0006 6.73772 21.6995 6.59253 22.3916 6.67002C23.0838 6.7475 23.7332 7.04363 24.2456 7.51539C24.7579 7.98715 25.1066 8.60997 25.2408 9.29339V9.28939ZM11.1858 27.4674H10.6108C9.75403 27.4746 8.92933 27.1418 8.31749 26.542C7.70565 25.9421 7.35659 25.1242 7.34683 24.2674C7.35003 23.8771 7.426 23.4908 7.57083 23.1284L7.80983 22.5154L7.24383 22.1644C6.87615 21.9442 6.55732 21.6512 6.3069 21.3034C6.05648 20.9556 5.87973 20.5603 5.7875 20.1418C5.69528 19.7232 5.68951 19.2903 5.77056 18.8694C5.8516 18.4486 6.01776 18.0487 6.25883 17.6944L6.76683 16.9454L5.94883 16.5374C5.14568 16.1462 4.46838 15.5375 3.99392 14.7806C3.51945 14.0236 3.26685 13.1487 3.26483 12.2554C3.27496 11.2051 3.62677 10.1866 4.26707 9.35401C4.90737 8.52139 5.80134 7.91987 6.81383 7.64039L7.32083 7.49739L7.40083 6.98639C7.52278 6.22253 7.91285 5.5271 8.5011 5.0248C9.08935 4.52249 9.8373 4.24617 10.6108 4.24539C10.6413 4.24671 10.6717 4.25005 10.7018 4.25539C10.7568 4.26239 10.8128 4.26939 10.8698 4.27439L11.4578 4.32239L11.6888 3.79039C11.9715 3.15398 12.4497 2.62424 13.0539 2.27809C13.6581 1.93193 14.3569 1.78737 15.0489 1.86541C15.7409 1.94345 16.3899 2.24001 16.9019 2.71205C17.4138 3.18408 17.762 3.80701 17.8958 4.49039L18.0448 5.31439L18.8768 5.13239C19.4694 4.99085 20.0908 5.03021 20.6608 5.24539C19.4573 5.58577 18.4308 6.37598 17.7938 7.45239C16.7475 7.48695 15.7398 7.85571 14.9183 8.50463C14.0968 9.15355 13.5047 10.0485 13.2288 11.0584C11.9926 11.5051 10.9227 12.3195 10.1628 13.392C9.40289 14.4646 8.98939 15.744 8.97783 17.0584C8.9792 18.1072 9.24085 19.1392 9.73931 20.0619C10.2378 20.9847 10.9575 21.7693 11.8338 22.3454C11.4106 23.2985 11.315 24.3651 11.5622 25.3782C11.8093 26.3914 12.3852 27.2942 13.1998 27.9454C13.1069 28.3098 13.0595 28.6843 13.0588 29.0604C13.0602 29.7313 13.2028 30.3945 13.4774 31.0066C13.7521 31.6188 14.1526 32.1663 14.6528 32.6134C14.1723 32.7502 13.704 32.9268 13.2528 33.1414L11.1858 27.4674ZM4.08583 38.0344V37.7174C4.08881 37.6205 4.11305 37.5254 4.15682 37.4389C4.2006 37.3524 4.26284 37.2765 4.33915 37.2167C4.41546 37.1569 4.50398 37.1146 4.59844 37.0928C4.69291 37.0709 4.79101 37.0701 4.88583 37.0904L8.76983 37.9374C8.67483 38.1794 8.58983 38.4254 8.51783 38.6764H4.73583C4.56404 38.6777 4.39874 38.6109 4.27615 38.4905C4.15355 38.3702 4.08368 38.2062 4.08183 38.0344H4.08583ZM1.63283 41.0784C1.63547 40.8643 1.72279 40.6599 1.87571 40.51C2.02863 40.36 2.23469 40.2768 2.44883 40.2784H8.20083C8.17683 40.5424 8.15983 40.8084 8.15983 41.0784C8.15983 41.3484 8.17683 41.6144 8.20183 41.8784H2.44883C2.23469 41.88 2.02863 41.7967 1.87571 41.6468C1.72279 41.4969 1.63547 41.2925 1.63283 41.0784ZM4.87683 45.0664C4.78214 45.0854 4.68446 45.0837 4.5905 45.0613C4.49654 45.039 4.40853 44.9966 4.33252 44.937C4.25651 44.8774 4.19429 44.8021 4.15016 44.7162C4.10602 44.6303 4.081 44.5359 4.07683 44.4394V44.1224C4.07868 43.9504 4.14869 43.7862 4.2715 43.6659C4.39431 43.5455 4.55987 43.4788 4.73183 43.4804H8.50983C8.58283 43.7314 8.66783 43.9804 8.76183 44.2194L4.87683 45.0664ZM48.9678 41.0784C48.9662 41.7861 48.7089 42.4694 48.2432 43.0023C47.7775 43.5352 47.1349 43.8819 46.4338 43.9784L18.4488 48.2004C18.0788 48.2562 17.7051 48.2843 17.3308 48.2844H17.1388C16.1824 48.3003 15.2324 48.1257 14.3442 47.7707C13.4559 47.4157 12.6473 46.8875 11.9653 46.2168C11.2833 45.5461 10.7416 44.7463 10.3719 43.8641C10.0022 42.9819 9.81177 42.0349 9.81177 41.0784C9.81177 40.1218 10.0022 39.1749 10.3719 38.2927C10.7416 37.4105 11.2833 36.6107 11.9653 35.94C12.6473 35.2693 13.4559 34.741 14.3442 34.386C15.2324 34.0311 16.1824 33.8564 17.1388 33.8724H17.3308C17.7047 33.8725 18.078 33.9002 18.4478 33.9554L46.4328 38.1784C47.1339 38.275 47.7766 38.6217 48.2423 39.1546C48.7081 39.6874 48.9658 40.3706 48.9678 41.0784ZM48.9678 29.9104C48.9519 32.3961 47.9507 34.7739 46.1838 36.5224L44.5618 36.2774C45.3104 34.7388 45.6999 33.0504 45.7008 31.3394V28.3984C45.6897 25.5638 44.6197 22.8357 42.7008 20.7494C43.0372 20.4365 43.4794 20.2621 43.9388 20.2614C44.3278 20.261 44.7071 20.3831 45.0228 20.6104C46.2342 21.4793 47.2231 22.6222 47.9088 23.9459C48.5946 25.2696 48.9578 26.7366 48.9688 28.2274L48.9678 29.9104Z" fill="#76A713"/>
<path d="M16.3223 37.0752H17.9543V45.0822H16.3223V37.0752Z" fill="#76A713"/>
<path d="M22.8516 37.0752H24.4836V45.0822H22.8516V37.0752Z" fill="#76A713"/>
<path d="M29.3809 37.0752H31.0129V45.0822H29.3809V37.0752Z" fill="#76A713"/>
<path d="M35.9102 38.6758H37.5422V43.4758H35.9102V38.6758Z" fill="#76A713"/>
<path d="M42.4395 39.4775H44.0715V42.6775H42.4395V39.4775Z" fill="#76A713"/>
</svg>
