<svg width="45" height="45" viewBox="0 0 45 45" fill="none" xmlns="http://www.w3.org/2000/svg">
<path d="M22.6973 44.0664C34.8475 44.0664 44.6973 34.2167 44.6973 22.0664C44.6973 9.91614 34.8475 0.0664062 22.6973 0.0664062C10.547 0.0664062 0.697266 9.91614 0.697266 22.0664C0.697266 34.2167 10.547 44.0664 22.6973 44.0664Z" fill="#76A713"/>
<path d="M23.7393 19.3008C24.2498 18.9927 24.6874 18.902 25.0521 19.0289C25.4168 19.1558 25.6173 19.4186 25.6538 19.8173C25.7085 20.2161 25.6082 20.6783 25.353 21.2039C24.4595 22.8714 23.8122 23.7052 23.4111 23.7052C23.2288 23.7052 23.0555 23.4967 22.8914 23.0799C22.7273 22.6449 22.5177 21.9289 22.2624 20.932C22.2077 20.6602 22.1348 20.2524 22.0436 19.7086C21.9524 19.1648 21.8613 18.7027 21.7701 18.322C21.6972 17.9414 21.5878 17.5517 21.4419 17.153C21.296 16.7542 21.0863 16.4733 20.8128 16.3101C20.5576 16.1289 20.2476 16.0745 19.8829 16.147C19.3542 16.2558 18.7433 16.582 18.0505 17.1258C17.3576 17.6514 16.7832 18.1498 16.3274 18.6211C15.8898 19.0742 15.6801 19.3098 15.6984 19.328L16.2727 20.062C16.3092 20.0439 16.3456 20.0167 16.3821 19.9805C16.4368 19.9442 16.5371 19.8808 16.683 19.7902C16.8471 19.6995 16.9929 19.627 17.1206 19.5727C17.2482 19.5183 17.3758 19.4911 17.5035 19.4911C17.6493 19.4911 17.7587 19.5364 17.8317 19.627C17.9775 19.7902 18.3696 20.923 19.0077 23.0255C19.6641 25.128 20.0653 26.3333 20.2111 26.6414C20.3752 26.9858 20.594 27.294 20.8675 27.5658C21.1593 27.8196 21.5057 28.0099 21.9068 28.1368C22.308 28.2636 22.7273 28.1821 23.1649 27.8921C23.5661 27.6202 24.0584 27.2305 24.6419 26.723C25.2253 26.1974 25.8726 25.5449 26.5837 24.7655C27.2948 23.9861 27.933 23.0799 28.4982 22.0467C29.0635 20.9955 29.4372 19.9623 29.6196 18.9473C29.8748 17.5155 29.5011 16.6001 28.4982 16.2014C27.623 15.8389 26.6658 15.9658 25.6265 16.582C24.5507 17.2164 23.9216 18.1227 23.7393 19.3008Z" fill="white"/>
</svg>
