<svg width="12" height="10" viewBox="0 0 12 10" fill="none" xmlns="http://www.w3.org/2000/svg">
<path d="M11.6719 0.18658C11.1875 0.466451 10.6641 0.660805 10.1016 0.769644C9.61719 0.256548 9.01562 0 8.29688 0C7.625 0 7.04688 0.241 6.5625 0.722999C6.07812 1.205 5.83594 1.78029 5.83594 2.44887C5.83594 2.63545 5.85938 2.82203 5.90625 3.00861C4.90625 2.96196 3.96094 2.71319 3.07031 2.26229C2.19531 1.81138 1.45312 1.205 0.84375 0.443128C0.609375 0.816289 0.492188 1.22832 0.492188 1.67922C0.492188 2.54993 0.859375 3.22628 1.59375 3.70828C1.20312 3.70828 0.835938 3.60722 0.492188 3.40509V3.45174C0.492188 4.02702 0.671875 4.54012 1.03125 4.99102C1.40625 5.44193 1.88281 5.72957 2.46094 5.85396C2.24219 5.9006 2.02344 5.92392 1.80469 5.92392C1.64844 5.92392 1.49219 5.90838 1.33594 5.87728C1.50781 6.37483 1.79688 6.78686 2.20312 7.11337C2.625 7.42434 3.10156 7.57982 3.63281 7.57982C2.74219 8.2795 1.72656 8.62934 0.585938 8.62934C0.398438 8.62934 0.203125 8.62156 0 8.60602C1.15625 9.33679 2.41406 9.70218 3.77344 9.70218C4.86719 9.70218 5.86719 9.49227 6.77344 9.07247C7.67969 8.65266 8.41406 8.10847 8.97656 7.43989C9.55469 6.75576 10 6.00944 10.3125 5.20093C10.625 4.37686 10.7812 3.5528 10.7812 2.72874C10.7812 2.6199 10.7812 2.51883 10.7812 2.42554C11.2656 2.06793 11.6719 1.64035 12 1.1428C11.5469 1.34493 11.0781 1.47709 10.5938 1.53929C11.125 1.21277 11.4844 0.76187 11.6719 0.18658Z" fill="#76A713"/>
</svg>
