<svg width="16" height="14" viewBox="0 0 16 14" fill="none" xmlns="http://www.w3.org/2000/svg">
<path d="M5.07158 9.3709H13.4366C13.5352 9.37179 13.6315 9.34098 13.7112 9.28301C13.791 9.22503 13.85 9.14297 13.8796 9.04891L15.7246 2.84389C15.7442 2.77779 15.7476 2.70795 15.7345 2.64025C15.7215 2.57254 15.6924 2.50899 15.6496 2.45491C15.6053 2.39968 15.5491 2.35517 15.4852 2.32469C15.4213 2.29422 15.3514 2.27857 15.2806 2.27892H4.00758L3.67858 0.852892C3.65355 0.752667 3.59538 0.663872 3.51351 0.600878C3.43163 0.537885 3.33087 0.504409 3.22758 0.505908H0.460578C0.343087 0.505908 0.230408 0.55259 0.14733 0.635668C0.0642512 0.718747 0.0175781 0.83141 0.0175781 0.948901C0.0175781 1.06639 0.0642512 1.17909 0.14733 1.26216C0.230408 1.34524 0.343087 1.39189 0.460578 1.39189H2.86058C2.91858 1.64489 4.43758 8.21591 4.52558 8.59191C4.28158 8.6901 4.07214 8.85839 3.9237 9.07552C3.77527 9.29265 3.69449 9.5489 3.69158 9.81191C3.6992 10.1715 3.84904 10.5134 4.10827 10.7627C4.3675 11.0119 4.71498 11.1483 5.07458 11.1419H13.4386C13.4986 11.1447 13.5586 11.1354 13.6148 11.1144C13.6711 11.0934 13.7226 11.0612 13.7661 11.0197C13.8095 10.9783 13.8442 10.9284 13.8678 10.8732C13.8915 10.8179 13.9036 10.7585 13.9036 10.6984C13.9036 10.6383 13.8915 10.5789 13.8678 10.5236C13.8442 10.4684 13.8095 10.4186 13.7661 10.3771C13.7226 10.3356 13.6711 10.3034 13.6148 10.2824C13.5586 10.2614 13.4986 10.2521 13.4386 10.2549H5.07258C4.95509 10.2549 4.84241 10.2082 4.75933 10.1251C4.67625 10.0421 4.62958 9.9294 4.62958 9.81191C4.62958 9.69442 4.67625 9.58172 4.75933 9.49864C4.84241 9.41557 4.95509 9.36891 5.07258 9.36891L5.07158 9.3709ZM14.6716 3.1649L13.0906 8.4839H5.44258L4.21258 3.1649H14.6716Z" fill="#232323"/>
<path d="M4.61246 12.4729C4.6013 12.7488 4.67286 13.0217 4.81797 13.2567C4.96308 13.4916 5.1751 13.6778 5.42681 13.7914C5.67852 13.9049 5.95843 13.9406 6.23059 13.8939C6.50274 13.8472 6.75473 13.7202 6.95418 13.5292C7.15363 13.3383 7.29144 13.092 7.34992 12.8222C7.40839 12.5523 7.38486 12.2711 7.28235 12.0147C7.17983 11.7583 7.00301 11.5384 6.7746 11.3832C6.54618 11.2281 6.2766 11.1447 6.00046 11.1439C5.64018 11.1361 5.29156 11.2717 5.03127 11.5209C4.77098 11.7702 4.62033 12.1126 4.61246 12.4729ZM6.00046 12.0299C6.08752 12.0332 6.17167 12.0621 6.24243 12.1129C6.3132 12.1637 6.36745 12.2342 6.39843 12.3157C6.42942 12.3971 6.43576 12.4858 6.41668 12.5708C6.39759 12.6558 6.35392 12.7333 6.2911 12.7937C6.22829 12.854 6.1491 12.8946 6.0634 12.9103C5.97771 12.926 5.88929 12.9161 5.80916 12.8819C5.72904 12.8477 5.66074 12.7907 5.61279 12.718C5.56483 12.6452 5.53933 12.56 5.53946 12.4729C5.54209 12.3531 5.59207 12.2392 5.67847 12.1562C5.76487 12.0731 5.88065 12.0277 6.00046 12.0299Z" fill="#232323"/>
<path d="M11.13 12.4728C11.1189 12.7489 11.1906 13.0221 11.3359 13.2571C11.4812 13.4922 11.6935 13.6784 11.9455 13.7918C12.1975 13.9052 12.4777 13.9406 12.75 13.8935C13.0223 13.8464 13.2743 13.7189 13.4736 13.5274C13.6728 13.3359 13.8102 13.0892 13.8682 12.819C13.9261 12.5488 13.9018 12.2675 13.7985 12.0111C13.6952 11.7548 13.5176 11.5352 13.2886 11.3807C13.0595 11.2261 12.7894 11.1436 12.513 11.1438C12.1535 11.1371 11.8061 11.2732 11.5468 11.5224C11.2875 11.7715 11.1377 12.1133 11.13 12.4728ZM12.513 12.0298C12.6001 12.0331 12.6842 12.062 12.755 12.1128C12.8258 12.1636 12.88 12.2342 12.911 12.3156C12.942 12.397 12.9483 12.4857 12.9293 12.5707C12.9102 12.6557 12.8665 12.7332 12.8037 12.7936C12.7409 12.854 12.6617 12.8945 12.576 12.9102C12.4903 12.9259 12.4019 12.916 12.3217 12.8818C12.2416 12.8476 12.1733 12.7906 12.1254 12.7179C12.0774 12.6452 12.0519 12.5599 12.052 12.4728C12.0547 12.353 12.1047 12.2391 12.1911 12.1561C12.2775 12.0731 12.3932 12.0276 12.513 12.0298Z" fill="#232323"/>
</svg>
