<svg width="47" height="59" viewBox="0 0 47 59" fill="none" xmlns="http://www.w3.org/2000/svg">
<path d="M6.55193 28.422C5.05272 26.9633 3.86106 25.2189 3.04737 23.2918C2.23368 21.3648 1.81445 19.2943 1.81445 17.2025C1.81445 15.1107 2.23368 13.0401 3.04737 11.1131C3.86106 9.1861 5.05272 7.4417 6.55193 5.98298C9.61364 3.00382 13.717 1.33691 17.9889 1.33691C22.2609 1.33691 26.3642 3.00382 29.4259 5.98298L6.55193 28.422Z" fill="#FEC007"/>
<path d="M26.8439 8.51365L23.6849 11.6137L13.0559 22.0437L9.13191 25.8937C7.97083 24.764 7.04794 23.4132 6.41776 21.9209C5.78757 20.4286 5.46289 18.8251 5.46289 17.2052C5.46289 15.5852 5.78757 13.9818 6.41776 12.4894C7.04794 10.9971 7.97083 9.64626 9.13191 8.51666C11.5024 6.20964 14.6795 4.91853 17.9873 4.91797C21.2951 4.91741 24.4726 6.20744 26.8439 8.51365Z" fill="#FE9700"/>
<path d="M23.6862 11.6133L13.0572 22.0403L12.3472 13.1403C12.3335 12.9438 12.3607 12.7467 12.4269 12.5613C12.4932 12.3759 12.5972 12.2062 12.7323 12.0629C12.8673 11.9196 13.0306 11.8059 13.2119 11.7289C13.3931 11.6518 13.5883 11.6131 13.7852 11.6153L23.6862 11.6133Z" fill="#F26200"/>
<path d="M45.7287 13.2736L45.2717 19.0076L44.7657 25.3546L42.1827 57.7546H17.5997L15.0627 25.9206L14.7447 21.9206L14.0547 13.2676L45.7287 13.2736Z" fill="#CAEDFF"/>
<path d="M33.8643 23.1328H26.1133V30.7358H33.8643V23.1328Z" fill="#76C2E0"/>
<path d="M45.7297 13.2725L45.2727 19.0075L42.1837 57.7575H40.0527L43.1418 19.0075L43.5988 13.2725H45.7297Z" fill="#76C2E0"/>
<path d="M44.7685 25.3536L42.1865 57.7536H17.6015L15.0645 25.9196C18.2932 24.7744 21.8111 24.7354 25.0645 25.8086C31.4965 27.7256 36.7545 26.4766 42.6175 25.6326C43.3235 25.5319 44.0405 25.4389 44.7685 25.3536Z" fill="#FEC007"/>
<path d="M33.8643 26.7706V30.7366H26.1133V26.1016C28.6471 26.7225 31.2616 26.9481 33.8643 26.7706Z" fill="#F9DE69"/>
<path d="M44.7668 25.3535L42.1848 57.7535H40.0527L42.6137 25.6325C43.3211 25.5318 44.0388 25.4388 44.7668 25.3535Z" fill="#FE9700"/>
<path d="M30.3906 34.7197L27.7087 41.8516L20.4386 39.221L23.1205 32.0891L30.3906 34.7197Z" fill="#F9DE69"/>
<path d="M46.3675 12.6909C46.2855 12.6044 46.1867 12.5356 46.0771 12.4887C45.9676 12.4418 45.8496 12.4177 45.7305 12.4179H24.0885L27.4525 9.11787L27.4585 9.11287L27.4635 9.10687L30.0405 6.58387C30.1203 6.50566 30.1837 6.41231 30.227 6.30928C30.2703 6.20625 30.2926 6.09562 30.2926 5.98387C30.2926 5.87212 30.2703 5.76149 30.227 5.65846C30.1837 5.55544 30.1203 5.46208 30.0405 5.38387C26.8121 2.24996 22.4898 0.49707 17.9905 0.49707C13.4912 0.49707 9.16886 2.24996 5.94049 5.38387C2.96783 8.28281 1.1941 12.1937 0.971489 16.3399C0.966661 16.4526 0.984102 16.5651 1.02282 16.6711C1.06153 16.777 1.12076 16.8743 1.19711 16.9573C1.27345 17.0404 1.36542 17.1075 1.46776 17.155C1.57009 17.2024 1.68078 17.2292 1.79349 17.2339H1.84049C2.06081 17.2356 2.27339 17.1527 2.43449 17.0024C2.59559 16.8521 2.69293 16.6458 2.70649 16.4259C2.90637 12.702 4.4995 9.18944 7.16949 6.58587C9.96 3.87102 13.6688 2.30388 17.5605 2.19515C21.4523 2.08642 25.2428 3.44406 28.1805 5.99887L26.8245 7.32987C24.2488 5.12959 20.9447 3.96976 17.5588 4.07741C14.173 4.18505 10.9492 5.55242 8.51849 7.91187C6.12084 10.2501 4.72025 13.4249 4.60973 16.7721C4.49921 20.1193 5.68731 23.3796 7.92549 25.8709L6.56949 27.2009C4.61166 25.0652 3.32496 22.4011 2.86949 19.5399C2.83102 19.3148 2.7052 19.114 2.51942 18.9812C2.33363 18.8484 2.10291 18.7944 1.87749 18.8309C1.76595 18.8469 1.65869 18.8848 1.56187 18.9425C1.46506 19.0001 1.38062 19.0764 1.31342 19.1668C1.24621 19.2573 1.19756 19.3601 1.17029 19.4695C1.14301 19.5788 1.13764 19.6925 1.15449 19.8039C1.71462 23.3124 3.39291 26.5462 5.93949 29.0239C6.1038 29.1839 6.32412 29.2735 6.55349 29.2735C6.78286 29.2735 7.00317 29.1839 7.16749 29.0239L13.9145 22.4039L14.1985 25.9689C14.1985 25.9759 14.1985 25.9829 14.1985 25.9889L15.9775 48.3099C15.9968 48.5252 16.0963 48.7255 16.2564 48.8709C16.4164 49.0163 16.6253 49.0962 16.8415 49.0949H16.9105C17.0232 49.0876 17.1334 49.0582 17.2347 49.0082C17.336 48.9583 17.4264 48.8888 17.5007 48.8037C17.5751 48.7187 17.6319 48.6198 17.6679 48.5127C17.7039 48.4057 17.7184 48.2925 17.7105 48.1799L15.9815 26.5109C18.8672 25.6506 21.9466 25.6915 24.8085 26.6279C24.9555 26.6719 25.1005 26.7129 25.2465 26.7539V30.7369C25.2489 30.9648 25.3416 31.1824 25.5044 31.342C25.6671 31.5016 25.8866 31.59 26.1145 31.5879H33.8645C34.0924 31.59 34.3118 31.5016 34.4746 31.342C34.6374 31.1824 34.7301 30.9648 34.7325 30.7369V27.5669C36.6595 27.4129 38.5575 27.1189 40.4965 26.8189C41.5785 26.6509 42.6885 26.4799 43.8195 26.3309L41.3815 56.9069H18.4045L17.9715 51.4689C17.9539 51.2393 17.8458 51.0262 17.671 50.8763C17.4962 50.7265 17.269 50.6522 17.0395 50.6699C16.8099 50.6875 16.5968 50.7956 16.447 50.9704C16.2971 51.1452 16.2228 51.3723 16.2405 51.6019L16.7405 57.8249C16.7598 58.0404 16.8595 58.2408 17.0198 58.3862C17.18 58.5317 17.3891 58.6115 17.6055 58.6099H42.1885C42.4049 58.6115 42.614 58.5317 42.7742 58.3862C42.9345 58.2408 43.0342 58.0404 43.0535 57.8249L45.6355 25.4299L46.1915 18.4569C46.2091 18.2273 46.1348 18.0002 45.985 17.8254C45.8352 17.6506 45.622 17.5425 45.3925 17.5249C45.1629 17.5072 44.9358 17.5815 44.761 17.7313C44.5862 17.8812 44.4781 18.0943 44.4605 18.3239L43.9605 24.6009C42.6825 24.7619 41.4375 24.9529 40.2285 25.1409C38.3775 25.4279 36.5665 25.7089 34.7355 25.8589V23.1339C34.7331 22.906 34.6404 22.6883 34.4776 22.5287C34.3148 22.3692 34.0954 22.2807 33.8675 22.2829H26.1175C25.8896 22.2807 25.6701 22.3692 25.5074 22.5287C25.3446 22.6883 25.2519 22.906 25.2495 23.1339V24.9789C22.199 24.0209 18.9392 23.9491 15.8495 24.7719L15.0005 14.1249H44.8005L44.7285 15.0249C44.7108 15.2544 44.7851 15.4816 44.935 15.6564C45.0848 15.8311 45.2979 15.9392 45.5275 15.9569C45.757 15.9745 45.9842 15.9002 46.159 15.7504C46.3338 15.6006 46.4419 15.3874 46.4595 15.1579L46.6045 13.3369C46.6127 13.2186 46.5958 13.0999 46.555 12.9886C46.5142 12.8772 46.4502 12.7758 46.3675 12.6909ZM32.9965 29.8849H26.9815V27.1719C28.6673 27.513 30.3835 27.6822 32.1035 27.6769C32.4035 27.6769 32.7035 27.6709 32.9955 27.6629L32.9965 29.8849ZM32.9965 23.9849V25.9539C30.9777 26.0294 28.9575 25.8527 26.9825 25.4279V23.9849H32.9965ZM21.6335 12.4219H19.0565V5.82187C21.4637 6.03159 23.7472 6.98021 25.5945 8.53787L21.6335 12.4219ZM13.2215 13.7289L13.4455 16.5459H6.35749C6.50308 14.0278 7.48898 11.6314 9.15749 9.73987L13.2215 13.7289ZM9.15549 24.6639C7.57638 22.8728 6.60679 20.6265 6.38649 18.2489H13.5865L13.7395 20.1709L9.15549 24.6639ZM14.3405 12.4219L10.3835 8.53587C12.3356 6.89058 14.7711 5.92686 17.3205 5.79087V12.4209L14.3405 12.4219Z" fill="black"/>
<path d="M30.6917 33.9208L23.4187 31.2928C23.2025 31.2146 22.9642 31.224 22.7547 31.3188C22.6518 31.365 22.5589 31.4312 22.4816 31.5134C22.4042 31.5956 22.3437 31.6922 22.3037 31.7978L19.6247 38.9328C19.5858 39.0383 19.5682 39.1505 19.5731 39.2628C19.5779 39.3752 19.6051 39.4855 19.6531 39.5872C19.701 39.689 19.7687 39.7802 19.8523 39.8555C19.9358 39.9308 20.0336 39.9886 20.1397 40.0258L27.4127 42.6538C27.5089 42.6887 27.6104 42.7066 27.7127 42.7068C27.8891 42.7077 28.0615 42.6549 28.2071 42.5554C28.3527 42.4559 28.4645 42.3144 28.5277 42.1497L31.2067 35.0148C31.2458 34.9092 31.2635 34.7969 31.2587 34.6844C31.254 34.5719 31.2268 34.4615 31.1788 34.3597C31.1309 34.2578 31.0631 34.1665 30.9795 34.0912C30.8958 34.0158 30.798 33.9579 30.6917 33.9208ZM27.1987 40.7608L21.5547 38.7218L23.6337 33.1848L29.2777 35.2238L27.1987 40.7608Z" fill="black"/>
<path d="M38.8309 35.0182C39.0588 35.0204 39.2783 34.9319 39.441 34.7724C39.6038 34.6128 39.6965 34.3951 39.6989 34.1672V33.9842C39.6989 33.754 39.6074 33.5332 39.4446 33.3705C39.2819 33.2077 39.0611 33.1162 38.8309 33.1162C38.6007 33.1162 38.3799 33.2077 38.2171 33.3705C38.0543 33.5332 37.9629 33.754 37.9629 33.9842V34.1672C37.9653 34.3951 38.058 34.6128 38.2208 34.7724C38.3835 34.9319 38.603 35.0204 38.8309 35.0182Z" fill="black"/>
<path d="M26.8445 51.5127C26.6166 51.5106 26.3972 51.599 26.2344 51.7586C26.0717 51.9182 25.9789 52.1358 25.9766 52.3637V52.5468C25.9766 52.777 26.068 52.9977 26.2308 53.1605C26.3936 53.3233 26.6143 53.4147 26.8445 53.4147C27.0748 53.4147 27.2955 53.3233 27.4583 53.1605C27.6211 52.9977 27.7126 52.777 27.7126 52.5468V52.3637C27.7102 52.1358 27.6174 51.9182 27.4547 51.7586C27.2919 51.599 27.0725 51.5106 26.8445 51.5127Z" fill="black"/>
<path d="M29.9891 54.7662C30.217 54.7684 30.4365 54.6799 30.5992 54.5204C30.762 54.3608 30.8547 54.1431 30.8571 53.9152V53.7332C30.8571 53.503 30.7657 53.2823 30.6029 53.1195C30.4401 52.9567 30.2193 52.8652 29.9891 52.8652C29.7589 52.8652 29.5381 52.9567 29.3753 53.1195C29.2126 53.2823 29.1211 53.503 29.1211 53.7332V53.9152C29.1235 54.1431 29.2162 54.3608 29.379 54.5204C29.5418 54.6799 29.7612 54.7684 29.9891 54.7662Z" fill="black"/>
<path d="M37.1747 45.8682C36.9467 45.8661 36.7273 45.9545 36.5645 46.1141C36.4018 46.2736 36.309 46.4913 36.3066 46.7192V46.9022C36.3066 47.1324 36.3981 47.3532 36.5609 47.516C36.7237 47.6787 36.9444 47.7702 37.1747 47.7702C37.4049 47.7702 37.6256 47.6787 37.7884 47.516C37.9512 47.3532 38.0426 47.1324 38.0426 46.9022V46.7192C38.0403 46.4913 37.9475 46.2736 37.7848 46.1141C37.622 45.9545 37.4026 45.8661 37.1747 45.8682Z" fill="black"/>
<path d="M29.9919 44.466V44.283C29.9919 44.0528 29.9004 43.832 29.7376 43.6693C29.5748 43.5065 29.354 43.415 29.1238 43.415C28.8936 43.415 28.6729 43.5065 28.5101 43.6693C28.3473 43.832 28.2559 44.0528 28.2559 44.283V44.466C28.2559 44.6962 28.3473 44.917 28.5101 45.0798C28.6729 45.2426 28.8936 45.334 29.1238 45.334C29.354 45.334 29.5748 45.2426 29.7376 45.0798C29.9004 44.917 29.9919 44.6962 29.9919 44.466Z" fill="black"/>
<path d="M36.0457 32.0254C35.8178 32.0233 35.5984 32.1117 35.4356 32.2713C35.2729 32.4308 35.1801 32.6485 35.1777 32.8764V33.0594C35.1777 33.2896 35.2692 33.5104 35.4319 33.6732C35.5947 33.836 35.8155 33.9274 36.0457 33.9274C36.2759 33.9274 36.4967 33.836 36.6595 33.6732C36.8223 33.5104 36.9137 33.2896 36.9137 33.0594V32.8764C36.9114 32.6485 36.8186 32.4308 36.6559 32.2713C36.4931 32.1117 36.2736 32.0233 36.0457 32.0254Z" fill="black"/>
</svg>
