<svg width="51" height="38" viewBox="0 0 51 38" fill="none" xmlns="http://www.w3.org/2000/svg">
<path d="M11.9053 27.5725C10.8744 27.5425 9.85797 27.8207 8.98612 28.3716C8.11427 28.9226 7.42664 29.7211 7.01123 30.665C6.59582 31.609 6.47153 32.6555 6.65426 33.6705C6.83699 34.6855 7.31843 35.6229 8.03697 36.3627C8.75551 37.1025 9.67846 37.6111 10.6877 37.8234C11.6969 38.0356 12.7466 37.9419 13.7023 37.5542C14.6579 37.1665 15.4762 36.5025 16.0523 35.6471C16.6285 34.7917 16.9362 33.7839 16.9363 32.7525C16.9544 31.3989 16.435 30.0934 15.4918 29.1223C14.5487 28.1512 13.2588 27.5938 11.9053 27.5725ZM11.9053 36.2055C11.2179 36.2256 10.5402 36.0402 9.95883 35.6729C9.37748 35.3056 8.91896 34.7731 8.64197 34.1437C8.36497 33.5143 8.28209 32.8166 8.40394 32.1398C8.52578 31.463 8.84682 30.838 9.32595 30.3447C9.80507 29.8515 10.4205 29.5124 11.0934 29.3709C11.7664 29.2294 12.4662 29.292 13.1034 29.5506C13.7406 29.8091 14.2862 30.252 14.6702 30.8224C15.0543 31.3928 15.2594 32.0649 15.2593 32.7525C15.2713 33.6549 14.9249 34.5251 14.2962 35.1725C13.6674 35.8198 12.8076 36.1913 11.9053 36.2055Z" fill="#76A713"/>
<path d="M40.4092 27.5725C39.3783 27.5425 38.3619 27.8207 37.49 28.3716C36.6182 28.9226 35.9305 29.7211 35.5151 30.665C35.0997 31.609 34.9754 32.6555 35.1582 33.6705C35.3409 34.6855 35.8223 35.6229 36.5409 36.3627C37.2594 37.1025 38.1824 37.6111 39.1916 37.8234C40.2009 38.0356 41.2505 37.9419 42.2062 37.5542C43.1619 37.1665 43.9801 36.5025 44.5562 35.6471C45.1324 34.7917 45.4401 33.7839 45.4402 32.7525C45.4584 31.3989 44.9389 30.0934 43.9957 29.1223C43.0526 28.1512 41.7627 27.5938 40.4092 27.5725ZM40.4092 36.2055C39.7218 36.2256 39.0441 36.0402 38.4627 35.6729C37.8814 35.3056 37.4229 34.7731 37.1459 34.1437C36.8689 33.5143 36.786 32.8166 36.9078 32.1398C37.0297 31.463 37.3507 30.838 37.8299 30.3447C38.309 29.8515 38.9244 29.5124 39.5973 29.3709C40.2703 29.2294 40.9702 29.292 41.6074 29.5506C42.2445 29.8091 42.7901 30.252 43.1741 30.8224C43.5582 31.3928 43.7633 32.0649 43.7632 32.7525C43.7752 33.6549 43.4288 34.5251 42.8001 35.1725C42.1713 35.8198 41.3115 36.1913 40.4092 36.2055Z" fill="#76A713"/>
<path d="M50.3375 22.7887L42.7915 10.7057C42.7178 10.5845 42.6143 10.4841 42.4909 10.4141C42.3675 10.3441 42.2283 10.3068 42.0865 10.3057H32.8635C32.6379 10.3091 32.423 10.4019 32.2659 10.5637C32.1087 10.7256 32.0223 10.9431 32.0255 11.1687V32.7517C32.0238 32.8634 32.0441 32.9743 32.0853 33.0782C32.1265 33.182 32.1877 33.2768 32.2656 33.3569C32.3434 33.4371 32.4363 33.5011 32.5389 33.5453C32.6415 33.5895 32.7518 33.6131 32.8635 33.6147H36.2175V31.8877H33.7025V12.0327H41.6295L48.7945 23.5097V31.8887H44.6025V33.6157H49.6335C49.7452 33.6141 49.8555 33.5905 49.9581 33.5463C50.0607 33.5021 50.1536 33.438 50.2314 33.3579C50.3092 33.2777 50.3705 33.183 50.4117 33.0792C50.4529 32.9753 50.4732 32.8644 50.4715 32.7527V23.2527C50.471 23.0885 50.4246 22.9278 50.3375 22.7887Z" fill="#76A713"/>
<path d="M37.057 21.5268V15.4868H43.765V13.7598H36.2189C35.9934 13.7632 35.7785 13.856 35.6213 14.0178C35.4642 14.1796 35.3778 14.3972 35.381 14.6228V22.3928C35.3792 22.5045 35.3995 22.6154 35.4407 22.7193C35.4819 22.8231 35.5432 22.9178 35.621 22.998C35.6989 23.0781 35.7917 23.1422 35.8943 23.1864C35.9969 23.2306 36.1072 23.2542 36.2189 23.2558H48.7959V21.5268H37.057Z" fill="#76A713"/>
<path d="M32.8642 4.2627H1.00215C0.776617 4.26612 0.561669 4.35894 0.404537 4.52076C0.247404 4.68258 0.160942 4.90016 0.164149 5.12569V32.7517C0.160942 32.9772 0.247404 33.1948 0.404537 33.3566C0.561669 33.5185 0.776617 33.6113 1.00215 33.6147H7.71015V31.8877H1.84115V5.98769H32.0251V31.8877H16.0951V33.6147H32.8642C32.9759 33.6131 33.0862 33.5896 33.1888 33.5453C33.2914 33.5011 33.3842 33.4371 33.4621 33.3569C33.5399 33.2768 33.6012 33.1821 33.6424 33.0782C33.6836 32.9744 33.7039 32.8634 33.7021 32.7517V5.12569C33.7054 4.90016 33.6189 4.68258 33.4618 4.52076C33.3046 4.35894 33.0897 4.26612 32.8642 4.2627Z" fill="#76A713"/>
<path d="M6.03295 28.4355H1.00195V30.1625H6.03295V28.4355Z" fill="#76A713"/>
<path d="M32.0255 28.4355H17.7715V30.1625H32.0255V28.4355Z" fill="#76A713"/>
<path d="M49.6333 28.4355H46.2793V30.1625H49.6333V28.4355Z" fill="#76A713"/>
<path d="M32.8636 7.71484H3.51758V9.44184H32.8636V7.71484Z" fill="#76A713"/>
<path d="M12.7415 31.8887H11.0645V33.6157H12.7415V31.8887Z" fill="#76A713"/>
<path d="M41.2493 31.8887H39.5723V33.6157H41.2493V31.8887Z" fill="#76A713"/>
<path d="M15.2556 0.80957H3.51758V2.53657H15.2556V0.80957Z" fill="#76A713"/>
<path d="M1.84106 0.80957H0.164062V2.53657H1.84106V0.80957Z" fill="#76A713"/>
</svg>
