<svg width="45" height="45" viewBox="0 0 45 45" fill="none" xmlns="http://www.w3.org/2000/svg">
<path d="M22.6973 44.0664C34.8475 44.0664 44.6973 34.2167 44.6973 22.0664C44.6973 9.91614 34.8475 0.0664062 22.6973 0.0664062C10.547 0.0664062 0.697266 9.91614 0.697266 22.0664C0.697266 34.2167 10.547 44.0664 22.6973 44.0664Z" fill="#FBFBFD"/>
<path d="M30.2598 16.2488C29.6139 16.6219 28.916 16.8811 28.166 17.0262C27.5202 16.3421 26.7181 16 25.7598 16C24.8639 16 24.0931 16.3213 23.4473 16.964C22.8014 17.6067 22.4785 18.3737 22.4785 19.2652C22.4785 19.5139 22.5098 19.7627 22.5723 20.0115C21.2389 19.9493 19.9785 19.6176 18.791 19.0164C17.6243 18.4152 16.6348 17.6067 15.8223 16.5908C15.5098 17.0884 15.3535 17.6378 15.3535 18.239C15.3535 19.3999 15.8431 20.3017 16.8223 20.9444C16.3014 20.9444 15.8118 20.8096 15.3535 20.5401V20.6023C15.3535 21.3694 15.5931 22.0535 16.0723 22.6547C16.5723 23.2559 17.2077 23.6394 17.9785 23.8053C17.6868 23.8675 17.3952 23.8986 17.1035 23.8986C16.8952 23.8986 16.6868 23.8778 16.4785 23.8364C16.7077 24.4998 17.0931 25.0491 17.6348 25.4845C18.1973 25.8991 18.8327 26.1064 19.541 26.1064C18.3535 27.0393 16.9993 27.5058 15.4785 27.5058C15.2285 27.5058 14.9681 27.4954 14.6973 27.4747C16.2389 28.4491 17.916 28.9362 19.7285 28.9362C21.1868 28.9362 22.5202 28.6564 23.7285 28.0966C24.9368 27.5369 25.916 26.8113 26.666 25.9199C27.4368 25.0077 28.0306 24.0126 28.4473 22.9346C28.8639 21.8358 29.0723 20.7371 29.0723 19.6383C29.0723 19.4932 29.0723 19.3584 29.0723 19.2341C29.7181 18.7572 30.2598 18.1871 30.6973 17.5237C30.0931 17.7932 29.4681 17.9695 28.8223 18.0524C29.5306 17.617 30.0098 17.0158 30.2598 16.2488Z" fill="#425580"/>
<path d="M22.6973 43.5664C34.5714 43.5664 44.1973 33.9405 44.1973 22.0664C44.1973 10.1923 34.5714 0.566406 22.6973 0.566406C10.8231 0.566406 1.19727 10.1923 1.19727 22.0664C1.19727 33.9405 10.8231 43.5664 22.6973 43.5664Z" stroke="#E2E2EB"/>
</svg>
