<svg width="45" height="45" viewBox="0 0 45 45" fill="none" xmlns="http://www.w3.org/2000/svg">
<path d="M22.6973 44.0664C34.8475 44.0664 44.6973 34.2167 44.6973 22.0664C44.6973 9.91614 34.8475 0.0664062 22.6973 0.0664062C10.547 0.0664062 0.697266 9.91614 0.697266 22.0664C0.697266 34.2167 10.547 44.0664 22.6973 44.0664Z" fill="#FBFBFD"/>
<path d="M20.6973 29.7843H23.6973V22.3921H26.416L26.6973 19.8511H23.6973V18.5806C23.6973 18.1956 23.7598 17.9261 23.8848 17.7721C24.0098 17.618 24.3118 17.541 24.791 17.541H26.6973V15H23.9473C22.6973 15 21.8431 15.2791 21.3848 15.8374C20.9264 16.3764 20.6973 17.2138 20.6973 18.3496V19.8511H18.6973V22.3921H20.6973V29.7843Z" fill="#425580"/>
<path d="M22.6973 43.5664C34.5714 43.5664 44.1973 33.9405 44.1973 22.0664C44.1973 10.1923 34.5714 0.566406 22.6973 0.566406C10.8231 0.566406 1.19727 10.1923 1.19727 22.0664C1.19727 33.9405 10.8231 43.5664 22.6973 43.5664Z" stroke="#E2E2EB"/>
</svg>
