<svg width="216" height="282" viewBox="0 0 216 282" fill="none" xmlns="http://www.w3.org/2000/svg">
<path d="M204.999 187.493C203.274 187.686 201.55 187.902 199.82 188.026C195.955 188.302 192.089 188.536 188.221 188.777C178.829 189.367 169.445 190.103 160.071 190.985C149.333 191.988 138.576 192.611 127.822 193.299C123.999 193.524 120.163 193.292 116.394 192.609C115.279 192.414 114.181 192.125 113.094 191.824C111.976 191.518 110.912 191.04 109.941 190.407C109.37 190.044 108.834 189.629 108.34 189.166C108.017 188.897 107.761 188.556 107.591 188.172C107.421 187.787 107.342 187.369 107.36 186.949C107.378 186.529 107.493 186.118 107.695 185.75C107.897 185.381 108.181 185.064 108.525 184.822C108.691 184.681 108.866 184.547 109.039 184.411C109.777 183.861 110.582 183.408 111.436 183.062C114.121 181.918 116.902 181.013 119.746 180.357C125.939 178.909 132.268 178.126 138.626 178.02C144.013 177.883 149.384 178.112 154.759 178.225C159.772 178.333 164.752 178.715 169.722 179.252C174.468 179.765 179.219 180.241 183.982 180.65C191.073 181.184 198.104 182.345 204.99 184.119C205.146 184.163 205.339 184.26 205.496 184.003C205.403 183.678 205.241 183.377 205.021 183.121C204.395 182.189 203.754 181.266 203.133 180.33C200.537 176.41 197.831 172.559 195.016 168.778C192.081 164.825 189.064 160.928 185.898 157.139C185.071 156.148 185.03 156.118 183.688 156.132C183.357 156.149 183.028 156.193 182.705 156.264C181.617 156.466 180.535 156.739 179.44 156.875C176.468 157.243 173.544 157.934 170.722 158.937C167.627 160.033 164.575 161.241 161.523 162.452C154.972 165.052 148.334 167.427 141.661 169.706C137.285 171.189 132.814 172.374 128.279 173.252C123.817 174.127 119.345 174.924 114.847 175.58C111.627 176.05 108.404 176.458 105.165 176.724C101.418 177.028 97.6502 176.962 93.9162 176.525C92.4228 176.364 90.9468 176.07 89.5056 175.647C87.8686 175.183 86.3104 174.476 84.8827 173.551C84.2277 173.123 83.6477 172.591 83.1661 171.975C82.8102 171.537 82.5774 171.013 82.4916 170.455C82.4059 169.898 82.4702 169.327 82.6781 168.803C82.8505 168.335 83.082 167.89 83.3672 167.48C83.9533 166.643 84.7082 165.938 85.5832 165.41C86.6566 164.764 87.7799 164.205 88.9423 163.738C92.3037 162.391 95.766 161.311 99.2973 160.509C105.204 159.116 111.175 158.075 117.181 157.272C124.435 156.305 131.654 155.142 138.834 153.71C143.002 152.877 147.199 152.228 151.427 151.764C159.989 150.674 168.666 150.869 177.171 152.341C178.902 152.616 180.609 153.025 182.277 153.565C182.438 153.596 182.602 153.612 182.766 153.611C182.693 153.453 182.608 153.301 182.511 153.157C179.848 150.004 177.098 146.919 174.235 143.931C171.935 141.533 169.588 139.174 167.195 136.856C164.746 134.496 162.222 132.21 159.702 129.918C158.965 129.146 158.133 128.47 157.226 127.908C156.985 127.34 156.497 127.45 156.012 127.537C154.595 127.798 153.179 128.055 151.761 128.32C151.325 128.402 150.892 128.501 150.461 128.601C144.461 130.026 138.569 131.875 132.83 134.132C130.385 135.074 127.979 136.11 125.515 136.998C120.724 138.726 115.903 140.377 111.098 142.064C105.039 144.193 99.0338 146.472 92.9221 148.454C88.8814 149.765 84.8691 151.15 80.7485 152.208C75.4943 153.595 70.125 154.501 64.7068 154.917C61.1101 155.221 57.4884 155.018 53.9483 154.314C52.8465 154.068 51.7591 153.763 50.6909 153.398C49.7345 153.074 48.8548 152.557 48.106 151.879C47.382 151.303 46.8915 150.484 46.7254 149.573C46.5594 148.663 46.7292 147.723 47.2032 146.929C47.6053 146.201 48.1228 145.544 48.7356 144.982C50.717 143.177 52.95 141.669 55.3646 140.506C57.9261 139.267 60.6227 138.33 63.4005 137.714C67.7149 136.683 72.0831 135.893 76.4849 135.345C82.2358 134.609 87.992 133.905 93.741 133.184C98.7666 132.542 103.748 131.588 108.655 130.329C113.279 129.159 117.899 127.99 122.533 126.873C126.162 125.995 129.802 125.169 133.485 124.519C140.143 123.376 146.965 123.618 153.526 125.229C153.689 125.268 153.858 125.29 154.152 125.341C153.963 124.998 153.694 124.705 153.367 124.488C149.257 121.135 145.018 117.932 140.622 114.918C137.97 113.1 135.259 111.351 132.591 109.55C132.257 109.328 131.881 109.175 131.486 109.102C131.091 109.028 130.685 109.036 130.293 109.123C130.038 109.168 129.79 109.24 129.535 109.286C128.665 109.463 127.803 109.686 126.926 109.801C122.273 110.419 117.666 111.346 113.136 112.574C107.93 113.989 102.726 115.419 97.6515 117.239C94.1115 118.509 90.6314 119.95 87.1352 121.339C80.6563 123.913 74.1666 126.464 67.7178 129.106C63.3785 130.884 58.9303 132.383 54.4002 133.595C49.661 134.899 44.8512 135.933 39.9945 136.691C37.8792 137.027 35.7342 137.138 33.5957 137.021C32.5718 136.957 31.5534 136.824 30.5473 136.624C29.1592 136.346 27.8689 135.707 26.8066 134.771C26.2108 134.315 25.8105 133.65 25.687 132.91C25.5634 132.17 25.7257 131.411 26.141 130.786C26.4295 130.285 26.7888 129.829 27.2077 129.431C27.949 128.729 28.7398 128.08 29.5739 127.491C32.2764 125.641 35.1535 124.06 38.164 122.77C41.868 121.202 45.6725 119.884 49.5522 118.824C62.6784 115.138 75.787 111.393 88.9958 107.998C92.9308 106.988 96.8768 106.015 100.834 105.08C102.377 104.715 103.953 104.468 105.523 104.233C109.467 103.652 113.476 103.669 117.415 104.281C120.06 104.68 122.679 105.207 125.312 105.671C125.573 105.714 125.843 105.88 126.134 105.702C126.081 105.619 126.06 105.543 126.008 105.511C124.369 104.545 122.728 103.583 121.084 102.624C120.894 102.521 120.694 102.435 120.488 102.367C116.144 100.666 111.649 99.3766 107.063 98.5163C106.63 98.4439 106.204 98.3532 105.772 98.2581C96.3432 96.2539 86.8176 94.7367 77.2328 93.7125C71.2124 93.0272 65.1892 92.3702 59.1799 91.6311C47.5807 90.2481 36.0822 88.1216 24.7555 85.2648C20.3436 84.1735 16.0346 82.7017 11.877 80.866C11.1237 80.5259 10.3883 80.1476 9.67354 79.7327C9.23823 79.4867 8.83899 79.1816 8.48722 78.8263C8.21311 78.5843 7.99623 78.2843 7.85222 77.9482C7.70821 77.6121 7.64069 77.2482 7.65454 76.8828C7.66839 76.5174 7.76327 76.1596 7.93232 75.8353C8.10137 75.5111 8.34032 75.2284 8.63197 75.0079C9.21907 74.5077 9.87595 74.0957 10.5819 73.7849C11.7338 73.2825 12.9358 72.9038 14.1676 72.6553C16.8413 72.0815 19.5476 71.6716 22.2712 71.428C27.8173 70.951 33.3955 70.9886 38.9346 71.5404C44.0247 72.0278 49.0465 72.8595 54.0478 73.8068C64.3391 75.7083 74.4308 78.5649 84.1919 82.3395C91.0454 85.0212 97.8051 87.8918 104.471 90.9514C111.336 94.1029 118.06 97.4974 124.549 101.284C126.998 102.714 129.411 104.201 131.841 105.655C132.024 105.764 132.214 105.867 132.41 105.959C132.455 105.981 132.535 105.938 132.706 105.906C132.33 105.395 131.91 104.917 131.452 104.478C130.183 103.194 128.882 101.938 127.65 100.623C124.773 97.5536 121.961 94.4322 119.327 91.1651C114.943 85.7371 110.737 80.1851 106.632 74.5612C104.602 71.7793 102.572 68.998 100.542 66.2173C99.7763 65.1626 99.0279 64.1037 98.2825 63.0443C96.6822 60.7761 95.0812 58.5133 93.4923 56.2363C91.7271 53.6984 89.9474 51.173 88.2399 48.6002C86.6519 46.2026 85.1163 43.7728 83.633 41.3107C82.0527 38.7064 80.5388 36.0653 79.0258 33.4239C78.5967 32.6632 78.2182 31.8749 77.893 31.0643C77.6786 30.5502 77.5386 30.0081 77.4772 29.4545C77.4401 29.1927 77.4612 28.9259 77.539 28.6731C77.6167 28.4203 77.7492 28.1878 77.927 27.992C78.1048 27.7962 78.3236 27.642 78.5678 27.5404C78.8119 27.4388 79.0755 27.3923 79.3397 27.404C79.7785 27.3776 80.2189 27.4102 80.649 27.501C81.1498 27.6003 81.6397 27.7481 82.1118 27.9423C82.9783 28.3036 83.8383 28.6859 84.6727 29.108C87.3618 30.5339 89.89 32.2445 92.2137 34.2104C95.3067 36.7251 98.3136 39.3295 101.203 42.0564C103.242 43.981 105.219 45.9591 107.066 48.0471C111.98 53.5694 116.44 59.4792 120.403 65.7188C122.466 68.9824 124.339 72.339 126.089 75.7653C128.615 80.7168 130.874 85.7855 133.005 90.9075C135.016 95.742 137.166 100.518 139.573 105.177C140.89 107.563 142.025 110.046 142.968 112.603C143.13 112.999 143.419 113.329 143.79 113.543C144.995 114.376 146.193 115.22 147.384 116.073C152.969 120.064 158.283 124.354 163.415 128.854C163.531 128.957 163.674 129.029 163.985 129.236C163.939 129.009 163.873 128.787 163.788 128.572C162.44 126.201 161.109 123.819 159.723 121.465C157.113 117.026 154.786 112.445 152.522 107.836C150.228 103.164 147.946 98.4889 145.576 93.8522C143.396 89.5914 141.117 85.377 138.866 81.1489C135.27 74.4014 132.167 67.4024 129.581 60.2068C127.905 55.6941 126.689 51.0233 125.952 46.2659C125.655 44.4388 125.514 42.5896 125.533 40.7385C125.569 39.7933 125.662 38.8512 125.813 37.9173C125.931 37.104 126.246 36.3319 126.73 35.6683C127.061 35.1771 127.53 34.7961 128.079 34.5744C128.628 34.3528 129.231 34.3006 129.81 34.4247C130.493 34.5322 131.143 34.7968 131.707 35.1977C132.525 35.7649 133.306 36.3849 134.043 37.0537C136.527 39.4574 138.646 42.2099 140.336 45.2246C142.155 48.4113 143.774 51.7088 145.181 55.0978C148.006 61.7857 150.55 68.5754 152.951 75.4167C155.242 81.9271 157.622 88.4078 159.855 94.9388C162.067 101.407 164.146 107.906 165.875 114.52C166.719 117.757 167.485 121.015 168.439 124.22C169.714 128.492 171.144 132.719 172.492 136.971C172.649 137.401 172.906 137.786 173.243 138.095C175.015 139.923 176.799 141.741 178.558 143.582C181.319 146.472 183.978 149.446 186.535 152.505C189.411 155.938 192.205 159.431 195.022 162.909C195.799 163.866 196.524 164.862 197.277 165.836C197.397 165.993 197.485 166.219 197.834 166.132C197.85 165.901 197.85 165.669 197.835 165.437C197.592 163.571 197.431 161.688 197.071 159.845C195.968 154.202 194.82 148.568 193.627 142.943C192.005 135.24 190.263 127.559 188.711 119.841C187.348 113.074 186.194 106.274 184.922 99.4949C183.674 92.8503 182.37 86.2187 181.133 79.5735C180.443 75.8739 179.786 72.1679 179.416 68.4139C179.241 66.8865 179.188 65.3476 179.257 63.8118C179.306 63.112 179.397 62.4158 179.53 61.7269C179.634 61.1639 179.868 60.6331 180.214 60.1771C180.435 59.8567 180.748 59.6114 181.112 59.4746C181.476 59.3377 181.873 59.3158 182.249 59.4117C182.704 59.524 183.138 59.7095 183.533 59.9611C184.282 60.4409 184.95 61.0377 185.51 61.7286C186.953 63.4533 188.229 65.3115 189.319 67.278C190.836 69.9914 192.167 72.8043 193.304 75.6973C196.551 83.7907 198.938 92.2032 200.424 100.796C201.565 107.181 202.272 113.629 202.914 120.086C203.873 129.052 204.132 138.08 203.689 147.086C203.536 150.936 203.171 154.775 202.594 158.585C202.115 161.834 201.287 165.022 200.124 168.093C199.97 168.406 199.909 168.756 199.95 169.102C199.992 169.447 200.132 169.774 200.355 170.041C201.194 171.168 202 172.321 202.8 173.479C204.539 175.994 206.297 178.492 207.982 181.038C210.053 184.169 212.086 187.322 214.081 190.499C216.006 193.554 217.896 196.628 219.752 199.723C221.832 203.21 237.822 231.382 239.83 234.908C242.049 238.8 244.237 242.708 246.394 246.632C248.999 251.387 251.562 256.162 254.324 260.837C254.909 261.831 255.414 262.871 255.928 263.902C256.095 264.246 256.214 264.611 256.281 264.988C256.367 265.453 256.015 265.703 255.522 265.574C255.07 265.448 254.662 265.198 254.344 264.853C253.902 264.395 253.47 263.926 253.065 263.437C251.11 261.085 249.338 258.586 247.767 255.962C245.585 252.29 243.494 248.566 241.373 244.862C239.701 241.945 238.047 239.022 236.362 236.113C234.823 233.446 219.309 206.131 217.731 203.483C216.19 200.896 214.63 198.32 213.05 195.753C211.656 193.485 210.22 191.238 208.817 188.975C208.631 188.553 208.358 188.175 208.015 187.866C207.673 187.558 207.268 187.326 206.828 187.186C206.305 187.27 205.656 187.416 204.999 187.493ZM109.728 112.194C109.526 112.132 109.309 112.13 109.106 112.19C108.902 112.25 108.721 112.368 108.584 112.53C108.313 112.302 108.025 112.481 107.761 112.549C106.439 112.892 105.116 113.24 103.806 113.621C101.927 114.166 100.048 114.713 98.1856 115.312C93.5385 116.805 88.7835 117.867 84.0185 118.904C76.7292 120.484 69.4512 122.122 62.1709 123.75C58.2026 124.637 54.3226 125.83 50.4536 127.071C46.7637 128.261 43.0394 129.333 39.2475 130.161C37.4077 130.565 35.5484 130.874 33.6768 131.086C32.8329 131.179 31.9933 131.303 31.1481 131.402C29.9056 131.551 28.6605 131.692 27.3121 131.849C27.141 131.948 27.138 132.197 27.1549 132.443C27.1729 132.832 27.3421 133.198 27.6264 133.463C27.9438 133.748 28.2827 134.008 28.6402 134.24C29.3434 134.699 30.1419 134.991 30.975 135.094C32.0629 135.236 33.1607 135.346 34.2617 135.389C36.0689 135.441 37.8773 135.343 39.6684 135.096C48.2868 134.013 56.7306 131.828 64.7933 128.597C68.936 126.946 73.0225 125.158 77.2479 123.7C80.8755 122.452 84.4683 121.111 88.0264 119.678C90.5251 118.676 93.0312 117.695 95.5447 116.733C99.4396 115.24 103.427 114.019 107.446 112.892C107.831 112.785 108.205 112.627 108.585 112.493C108.992 112.507 109.392 112.391 109.728 112.161C109.83 112.178 109.935 112.164 110.029 112.122C110.124 112.079 110.203 112.01 110.259 111.922C110.317 111.947 110.374 111.976 110.432 112.005L110.251 111.944L109.728 112.194ZM111.348 111.655C111.36 111.633 111.364 111.604 111.382 111.59C111.406 111.573 111.433 111.561 111.462 111.554C111.488 111.548 111.513 111.542 111.541 111.542L111.538 111.614L111.444 111.545L111.348 111.655ZM191.796 186.841C191.463 186.68 191.463 186.68 191.018 186.8C190.795 186.544 190.479 186.633 190.198 186.628C188.579 186.607 186.958 186.61 185.337 186.589C178.932 186.502 172.527 186.381 166.121 186.331C157.504 186.268 148.888 186.145 140.269 186.381C139.454 186.405 138.645 186.419 137.837 186.474C132.319 186.858 126.796 187.107 121.279 187.657C119.883 187.797 118.484 187.877 117.09 188.025C115.365 188.208 113.645 188.431 111.922 188.642C111.75 188.684 111.581 188.74 111.418 188.81C111.606 188.96 111.802 189.099 112.005 189.226C113.139 189.803 114.341 190.232 115.584 190.503C119.488 191.413 123.502 191.765 127.505 191.548C129.127 191.465 130.74 191.337 132.357 191.229C140.564 190.676 148.774 190.191 156.972 189.446C162.558 188.936 168.145 188.449 173.737 188.038C179.146 187.635 184.557 187.339 189.968 186.988C190.323 186.966 190.714 187.073 191.019 186.779C191.25 187.001 191.522 186.909 191.794 186.846L191.796 186.841ZM104.013 93.9123C104.032 93.9316 104.107 93.9028 104.159 93.8931C104.147 93.8681 104.143 93.8249 104.123 93.8202C104.064 93.8068 104.005 93.7973 103.944 93.7917C103.682 93.6078 103.409 93.4402 103.126 93.2898C95.3435 89.6472 87.4964 86.1221 79.4605 82.9792C71.4677 79.9033 63.2313 77.5022 54.8377 75.8012C50.1463 74.8224 45.4301 73.9633 40.655 73.3775C34.5526 72.5735 28.3792 72.4585 22.2512 73.0346C19.7131 73.2749 17.1948 73.6917 14.7146 74.282C13.4894 74.561 12.305 74.9959 11.1904 75.5759C10.8023 75.7324 10.4873 76.0289 10.3076 76.4068C10.431 76.4836 10.5617 76.548 10.6979 76.5989C11.4031 76.782 12.126 76.9168 12.8198 77.1302C16.6882 78.2794 20.6874 78.9305 24.7206 79.0678C28.8739 79.2491 33.0357 79.3033 37.1967 79.3803C39.7373 79.427 42.2826 79.3874 44.8223 79.421C51.0277 79.5624 57.2058 80.2903 63.2742 81.5949C69.3089 82.8296 75.2414 84.5192 81.021 86.6492C83.031 87.3891 85.0327 88.1421 87.0662 88.8283C89.2681 89.573 91.4899 90.2701 93.7185 90.9481C96.8191 91.8867 99.9303 92.791 103.042 93.6983C103.329 93.7808 103.62 94.041 103.951 93.7603C103.959 93.8162 103.98 93.8697 104.011 93.9169L104.013 93.9123ZM167.469 153.968C165.111 153.978 162.75 153.928 160.396 154.03C153.347 154.367 146.334 155.228 139.413 156.606C134.95 157.464 130.494 158.371 125.988 158.97C122.803 159.398 119.611 159.759 116.425 160.171C110.893 160.887 105.377 161.707 99.9113 162.88C96.3259 163.608 92.8074 164.633 89.3924 165.945C88.7349 166.186 88.0937 166.469 87.4726 166.792C86.8044 167.171 86.1662 167.6 85.5636 168.076C85.2612 168.333 85.005 168.64 84.8063 168.984C84.5945 169.271 84.4935 169.626 84.522 169.982C84.5505 170.338 84.7064 170.672 84.9613 170.922C85.1528 171.131 85.3555 171.329 85.5686 171.516C85.7644 171.732 86.0174 171.888 86.2982 171.965C86.579 172.043 86.8761 172.039 87.1549 171.955C87.5148 171.87 87.883 171.825 88.2527 171.82C92.3383 171.544 96.4281 171.295 100.511 170.992C104.266 170.715 108.016 170.379 111.767 170.069C117.657 169.536 123.488 168.475 129.187 166.897C134.24 165.497 139.211 163.82 144.078 161.873C147.825 160.413 151.559 158.922 155.307 157.471C159.306 155.915 163.487 154.877 167.748 154.382C168 154.351 168.25 154.3 168.501 154.257L168.534 154.045C168.18 154.021 167.826 153.97 167.469 153.968ZM113.407 98.5623C112.028 98.1008 110.639 97.6618 109.27 97.1827C104.811 95.6082 100.214 94.4352 95.6197 93.2617C90.2335 91.8685 84.9372 90.1481 79.7604 88.1103C77.3629 87.1767 74.9611 86.242 72.5309 85.3888C67.8149 83.7296 62.9704 82.461 58.0465 81.5959C53.1537 80.7491 48.1918 80.3672 43.2271 80.4553C38.1048 80.5223 32.9822 80.6098 27.866 80.427C24.9621 80.3623 22.0649 80.1213 19.1903 79.7052C17.7083 79.4695 16.2457 79.1401 14.7735 78.858C14.4882 78.7391 14.1737 78.7095 13.8712 78.7728C14.1358 79.029 14.4568 79.2196 14.8084 79.3293C17.8969 80.7711 21.0802 82.0002 24.3362 83.0082C30.6466 84.9747 37.0788 86.5265 43.5917 87.6538C50.2975 88.8623 57.0283 89.9172 63.8049 90.744C69.305 91.4126 74.8058 92.0816 80.3074 92.7512C85.6958 93.4192 91.0586 94.2521 96.3944 95.195C98.5926 95.5855 100.771 96.0669 102.954 96.5224C104.851 96.9187 106.744 97.3289 108.635 97.7531C110.166 98.0986 111.688 98.4851 113.21 98.852C113.594 98.9461 113.974 99.0473 114.358 99.1452L114.413 98.9357C114.081 98.8142 113.748 98.6806 113.408 98.5662L113.407 98.5623ZM80.8298 29.3641C82.7983 30.7098 84.638 32.2348 86.3254 33.9196C87.3979 34.9508 88.4633 35.9917 89.4902 37.0612C91.9439 39.6893 94.2253 42.4731 96.3201 45.3954C98.8064 48.7675 100.988 52.3229 103.127 55.9005C104.868 58.8165 106.646 61.7127 108.401 64.6226C109.868 67.055 111.299 69.4955 112.789 71.9144C113.947 73.794 115.14 75.6533 116.368 77.4922C117.776 79.5902 119.221 81.6654 120.674 83.7347C121.584 85.0298 122.516 86.3078 123.471 87.5687C125.866 90.7454 128.017 94.0738 130.075 97.4544C131.642 100.028 133.166 102.623 134.711 105.21C135.255 106.197 135.926 107.108 136.708 107.919C137.131 108.344 137.523 108.798 137.883 109.278C138.394 109.892 139.036 110.384 139.761 110.72C139.93 110.426 139.779 110.225 139.672 110.033C139.206 109.217 138.741 108.389 138.251 107.581C135.077 102.27 132.34 96.7087 130.069 90.9531C127.928 85.6468 125.579 80.4264 122.987 75.3113C121.28 71.9419 119.442 68.6429 117.434 65.4324C115.425 62.222 113.291 59.0867 110.972 56.0732C109.533 54.2048 108.104 52.322 106.614 50.4976C103.518 46.7209 100.13 43.1937 96.4809 39.9486C93.6213 37.3954 90.712 34.8938 87.6027 32.6107C85.7771 31.267 83.7985 30.1445 81.7084 29.2669C81.2954 29.0238 80.8143 28.9223 80.3383 28.9777C80.5657 29.1582 80.6881 29.2706 80.8298 29.3641ZM144.614 128.274C143.301 128.488 141.993 128.716 140.68 128.93C137.508 129.443 134.341 129.982 131.164 130.453C127.062 131.004 123.043 132.058 119.198 133.591C117.494 134.293 115.809 135.037 114.12 135.775C105.269 139.607 95.9777 142.33 86.4582 143.883C80.2993 144.914 74.1136 145.718 67.9253 146.52C62.8346 147.177 57.7406 147.775 52.6183 148.104C51.3739 148.186 50.1284 148.339 48.8763 148.454C48.7523 148.654 48.6943 148.888 48.7107 149.122C48.7271 149.356 48.8169 149.58 48.9674 149.76C49.2315 150.134 49.5504 150.467 49.9133 150.746C50.6511 151.269 51.4767 151.656 52.3509 151.889C54.5621 152.551 56.8433 152.952 59.1479 153.083C62.4985 153.28 65.86 153.18 69.193 152.784C75.4691 152.047 81.6567 150.69 87.6649 148.732C95.8716 146.151 103.977 143.292 112.078 140.415C117.014 138.66 121.94 136.88 126.855 135.075C128.998 134.283 131.073 133.311 133.212 132.507C136.907 131.116 140.641 129.835 144.441 128.745C144.86 128.625 145.276 128.486 145.692 128.353L145.693 128.139C145.338 128.186 144.976 128.214 144.614 128.274ZM121.298 107.64C119.036 107.393 116.78 107.108 114.51 106.919C110.795 106.635 107.058 106.853 103.4 107.567C99.6938 108.264 96.043 109.192 92.3972 110.141C81.9951 112.847 71.5909 115.544 61.1845 118.233C56.3219 119.487 51.4406 120.678 46.574 121.914C42.8835 122.832 39.2875 124.095 35.8334 125.687C33.4893 126.748 31.271 128.067 29.2198 129.62C28.9019 129.866 28.5888 130.119 28.2991 130.393C28.1728 130.552 28.0657 130.726 27.9802 130.91C28.1861 130.926 28.3928 130.931 28.5992 130.924C35.261 130.299 41.8171 128.835 48.112 126.566C51.6545 125.298 55.1936 124.024 58.8203 122.992C61.5569 122.211 64.319 121.546 67.1063 120.976C70.652 120.251 74.1896 119.482 77.73 118.729C79.9688 118.255 82.2061 117.761 84.4533 117.315C87.8229 116.649 91.1419 115.75 94.3863 114.623C101.015 112.317 107.789 110.451 114.664 109.038C116.722 108.599 118.801 108.267 120.894 108.044C121.178 108.017 121.458 107.957 121.738 107.913L121.726 107.731C121.587 107.691 121.446 107.66 121.303 107.639L121.298 107.64ZM198.049 152.703C197.568 146.54 197.694 140.351 197.628 134.17C197.607 132.495 197.689 130.814 197.761 129.137C197.888 125.647 197.714 122.153 197.239 118.693C196.966 116.654 196.433 114.658 195.653 112.754C193.757 108.068 191.98 103.339 190.557 98.4885C189.858 96.1118 189.38 93.6861 188.842 91.2722C187.621 85.8006 186.41 80.3259 185.087 74.8777C184.382 71.9708 183.471 69.1104 182.611 66.2404C182.211 64.9073 181.711 63.6022 181.25 62.2873C181.17 62.1273 181.076 61.9749 180.968 61.832C180.883 62.0278 180.817 62.2313 180.772 62.4397C180.715 63.2411 180.639 64.0447 180.636 64.8458C180.659 66.9032 180.827 68.9564 181.141 70.9899C181.822 75.8923 182.703 80.7588 183.654 85.6134C185.934 97.2682 188.157 108.934 190.527 120.569C191.936 127.497 193.569 134.378 195.119 141.275C195.982 145.115 196.898 148.942 197.588 152.815C197.66 153.223 197.762 153.625 197.852 154.029L198.084 154.033C198.08 153.592 198.09 153.145 198.055 152.7L198.049 152.703ZM49.6538 147.608C54.3474 147.044 59.0475 146.509 63.7337 145.914C71.6462 144.908 79.5595 143.875 87.4194 142.485C94.8906 141.221 102.218 139.22 109.295 136.511C111.666 135.586 114.001 134.579 116.335 133.565C120.766 131.611 125.423 130.216 130.198 129.411C134.429 128.716 138.626 127.854 142.82 126.966C143.171 126.891 143.518 126.796 143.927 126.696C143.711 126.372 143.434 126.46 143.206 126.459C140.141 126.42 137.079 126.68 134.063 127.236C131.376 127.747 128.702 128.316 126.042 128.943C120.431 130.257 114.826 131.61 109.224 132.972C103.582 134.326 97.866 135.347 92.1045 136.031C85.7634 136.81 79.4225 137.603 73.0819 138.409C69.5244 138.847 65.9959 139.496 62.5151 140.352C60.3216 140.869 58.1818 141.592 56.124 142.511C54.2521 143.367 52.4906 144.446 50.8777 145.725C50.1713 146.238 49.5849 146.899 49.1592 147.661C49.4378 147.628 49.5449 147.621 49.6538 147.608ZM168.636 132.691C166.535 127.374 164.83 121.908 163.536 116.339C161.773 109.057 159.641 101.869 157.148 94.8033C153.608 84.5611 150.016 74.3358 146.372 64.1273C144.739 59.5676 142.901 55.0836 140.856 50.6753C139.664 47.9883 138.245 45.4082 136.613 42.9632C135.109 40.651 133.275 38.5707 131.17 36.7882C130.682 36.358 130.102 36.0456 129.474 35.8753C129.349 35.8159 129.208 35.7976 129.072 35.823C128.935 35.8484 128.81 35.9163 128.715 36.0168C128.75 36.1321 128.8 36.2427 128.862 36.346C131.311 39.6769 133.382 43.2699 135.037 47.0587C136.928 51.4076 138.561 55.8643 139.927 60.4056C142.996 70.1428 146.295 79.8053 150.14 89.2802C151.583 92.8317 153.176 96.3259 154.747 99.8283C156.749 104.283 158.705 108.759 160.556 113.276C161.962 116.697 163.27 120.142 164.392 123.669C164.962 125.459 165.679 127.205 166.334 128.968C166.725 130.013 167.143 131.047 167.52 132.096C167.622 132.446 167.804 132.768 168.051 133.036C168.298 133.304 168.604 133.51 168.945 133.64C168.806 133.209 168.736 132.944 168.636 132.691ZM163.007 122.927C161.912 119.179 160.606 115.496 159.097 111.895C157.378 107.661 155.466 103.509 153.438 99.406C149.505 91.4507 145.863 83.3711 142.276 75.2651C139.879 69.7288 137.87 64.0326 136.263 58.2178C135.062 53.8484 133.634 49.5446 131.985 45.3237C130.887 42.5282 129.61 39.8063 128.162 37.1748C128.095 37.0569 128.013 36.9494 127.958 36.8628C127.91 36.851 127.86 36.85 127.812 36.8598C127.763 36.8695 127.718 36.8899 127.678 36.9193C127.639 36.9487 127.606 36.9865 127.583 37.03C127.56 37.0735 127.547 37.1215 127.544 37.1707C127.372 37.8149 127.236 38.4682 127.137 39.1275C127.003 40.5206 127.017 41.924 127.18 43.3141C127.576 47.4806 128.406 51.5944 129.655 55.5888C132.103 63.6002 135.277 71.3711 139.139 78.8045C141.171 82.6725 143.3 86.4906 145.391 90.3274C147.989 95.0859 150.583 99.8424 153.015 104.68C155.899 110.425 158.791 116.165 161.888 121.807C162.141 122.267 162.366 122.739 162.619 123.199C162.735 123.409 162.882 123.6 163.014 123.799L163.2 123.713C163.138 123.451 163.079 123.187 163.007 122.927ZM185.033 64.2076C186.874 68.127 188.08 72.3142 188.607 76.6125C189.042 80.4581 189.529 84.3021 189.897 88.1509C190.511 94.2603 191.918 100.263 194.084 106.009C194.871 108.132 195.642 110.268 196.476 112.372C197.18 114.118 197.677 115.941 197.958 117.803C198.511 121.355 198.788 124.944 198.788 128.539C198.734 135.185 199.093 141.803 199.658 148.41C199.852 150.702 199.972 153.004 200.128 155.3C200.136 155.431 200.165 155.559 200.184 155.697C200.456 155.602 200.404 155.396 200.419 155.248C200.607 153.435 200.813 151.624 200.953 149.808C201.583 140.987 201.497 132.128 200.695 123.32C200.139 117.03 199.536 110.747 198.688 104.494C197.436 94.985 195.082 85.6537 191.672 76.6888C190.6 73.772 189.331 70.9313 187.874 68.1863C187.067 66.7162 186.153 65.2996 185.278 63.8666C185.16 63.6951 185.029 63.5321 184.887 63.379L184.739 63.4389C184.839 63.698 184.918 63.96 185.033 64.2076ZM79.4023 31.0093C80.2144 32.5933 80.9878 34.2004 81.8749 35.7445C83.7601 39.0203 85.6623 42.2852 87.6289 45.5135C89.361 48.3527 91.1697 51.1505 93.1269 53.8535C95.662 57.3529 98.1319 60.8982 100.696 64.3765C102.803 67.2338 105.004 70.0261 107.167 72.8439C111.13 78.0078 115.248 83.059 119.408 88.0808C121.86 91.0377 124.325 93.9843 126.803 96.9208C127.872 98.1858 128.998 99.4067 130.108 100.642C130.27 100.803 130.442 100.955 130.623 101.095C130.901 100.967 130.781 100.824 130.72 100.724C129.611 98.9808 128.503 97.2334 127.38 95.4976C124.327 90.7794 120.678 86.4738 117.247 82.0071C114.998 79.0771 112.807 76.1099 110.765 73.0446C108.761 70.0395 106.697 67.0685 104.719 64.0481C102.877 61.2324 101.116 58.366 99.3131 55.5278C98.1129 53.6322 96.9394 51.7233 95.687 49.8592C94.2591 47.7346 92.792 45.6342 91.2857 43.5578C89.5085 41.1031 87.5878 38.7556 85.5338 36.5275C84.4075 35.3076 83.3039 34.066 82.1551 32.8688C81.2312 31.9029 80.2555 30.9796 79.3022 30.038L79.09 30.1588C79.1745 30.4491 79.2789 30.7333 79.4023 31.0093ZM191.305 184.386C187.977 184.069 184.65 183.757 181.321 183.45C177.736 183.118 174.142 182.843 170.568 182.443C164.616 181.778 158.642 181.356 152.639 181.245C147.961 181.157 143.288 181.013 138.61 180.995C133.291 180.943 127.98 181.42 122.756 182.417C119.341 183.053 115.988 183.989 112.737 185.214C112.085 185.467 111.452 185.769 110.824 186.074C110.562 186.206 110.317 186.369 110.095 186.561C109.729 186.87 109.656 187.175 109.823 187.49C109.896 187.677 110.037 187.829 110.219 187.914C110.401 187.998 110.609 188.009 110.799 187.944C115.572 187.134 120.379 186.588 125.194 186.16C131.185 185.622 137.178 185.035 143.188 184.873C148.716 184.726 154.246 184.572 159.772 184.524C165.596 184.474 171.415 184.539 177.234 184.566C182.208 184.589 187.183 184.577 192.148 184.817C192.363 184.827 192.58 184.815 192.796 184.812L192.825 184.6C192.314 184.515 191.812 184.431 191.305 184.386ZM89.2231 173.481C91.4723 174.351 93.8274 174.919 96.2263 175.169C99.5216 175.558 102.85 175.581 106.15 175.238C109.086 174.932 112.016 174.543 114.939 174.118C119.728 173.423 124.474 172.477 129.207 171.464C133.501 170.522 137.733 169.32 141.882 167.866C148.512 165.581 155.107 163.214 161.626 160.639C164.2 159.624 166.769 158.602 169.359 157.631C170.669 157.14 172.021 156.756 173.356 156.324C173.658 156.283 173.944 156.166 174.188 155.983C173.826 155.862 173.44 155.831 173.064 155.893C168.776 156.007 164.522 156.685 160.411 157.911C157.552 158.782 154.743 159.807 151.996 160.983C146.697 163.13 141.358 165.176 135.887 166.868C131.328 168.258 126.701 169.414 122.025 170.334C119.195 170.879 116.335 171.257 113.46 171.464C108.052 171.898 102.639 172.193 97.2206 172.35C94.4226 172.428 91.6225 172.578 88.8208 172.698C88.6103 172.707 88.4011 172.752 88.0313 172.799C88.3659 173.12 88.7746 173.352 89.221 173.476L89.2231 173.481Z" fill="#393944"/>
</svg>
