<svg width="42" height="57" viewBox="0 0 42 57" fill="none" xmlns="http://www.w3.org/2000/svg">
<path d="M40.28 42.2879C40.2922 45.885 39.4682 49.4357 37.8731 52.6599C37.5136 53.4351 36.944 54.0941 36.2291 54.5621C35.5141 55.0302 34.6824 55.2885 33.828 55.3079H7.72805C6.87449 55.2897 6.04313 55.0325 5.32844 54.5655C4.61375 54.0984 4.04439 53.4403 3.68505 52.6659C2.12256 49.4919 1.30383 46.0036 1.29105 42.4659C1.20848 38.8889 1.99468 35.3452 3.58223 32.1388C5.16978 28.9323 7.51131 26.1588 10.406 24.0559C11.251 23.4369 11.9352 22.6243 12.4011 21.6863C12.8671 20.7482 13.1013 19.7121 13.084 18.6649V15.8389H28.48V18.6649C28.48 18.7039 28.48 18.7429 28.48 18.7819C28.4836 19.8161 28.7308 20.8349 29.2017 21.7557C29.6725 22.6765 30.3537 23.4735 31.19 24.0819C34.0522 26.167 36.3718 28.9089 37.9537 32.0771C39.5355 35.2453 40.3333 38.7471 40.28 42.2879Z" fill="#ACE4EA"/>
<path d="M16.8021 21.1347C16.8955 20.4968 17.2096 19.9118 17.6898 19.4815C18.1699 19.0512 18.7858 18.8029 19.4301 18.7797H28.4851C28.4851 18.7407 28.4851 18.7017 28.4851 18.6627V15.8367L17.0241 13.6367H14.5751L13.0811 15.8367V18.6627C13.0984 19.71 12.8642 20.7461 12.3982 21.6841C11.9322 22.6222 11.2481 23.4348 10.4031 24.0537C7.50802 26.1562 5.16604 28.9295 3.57797 32.1358C1.9899 35.3421 1.20313 38.8857 1.28511 42.4627C1.29997 46.0009 2.12074 49.4891 3.68511 52.6627C4.04437 53.437 4.61358 54.095 5.32808 54.5621C6.04257 55.0291 6.87371 55.2864 7.72711 55.3047H14.4091C13.5871 55.3047 12.8311 54.2927 12.4361 52.6627C11.653 49.3194 11.2604 45.8965 11.2661 42.4627C11.2381 34.7087 13.0211 27.8937 15.7171 24.0527C16.2774 23.1653 16.6479 22.1714 16.8051 21.1337L16.8021 21.1347Z" fill="#5BB0B7"/>
<path d="M36.986 42.2825C36.992 45.2709 36.3075 48.2202 34.986 50.9005C34.883 51.1241 34.7195 51.3144 34.5139 51.45C34.3084 51.5855 34.0691 51.6608 33.823 51.6675H7.72302C7.4787 51.6631 7.24057 51.59 7.03592 51.4565C6.83128 51.3229 6.66842 51.1344 6.56602 50.9125C5.27112 48.2723 4.59079 45.3732 4.57602 42.4325C4.50177 39.4586 5.15296 36.5114 6.47331 33.8456C7.79366 31.1798 9.74341 28.8757 12.154 27.1325C12.4 26.9605 12.637 26.7772 12.865 26.5825C16.139 24.8825 23.274 30.0655 29.43 27.1505C31.8116 28.8816 33.7412 31.1607 35.0557 33.7951C36.3702 36.4295 37.0309 39.3418 36.982 42.2855L36.986 42.2825Z" fill="#FCB52F"/>
<path d="M14.437 26.2307C13.8938 26.2239 13.3564 26.3431 12.867 26.5788C12.6396 26.7734 12.4026 26.9568 12.156 27.1288C9.74542 28.872 7.79571 31.1761 6.47537 33.8419C5.15503 36.5076 4.50379 39.4549 4.57796 42.4288C4.59293 45.3694 5.27326 48.2684 6.56796 50.9087C6.67084 51.1302 6.83382 51.3185 7.03836 51.4519C7.24289 51.5854 7.48078 51.6588 7.72496 51.6637H12.206C11.5777 48.6374 11.2614 45.5546 11.262 42.4637C11.239 36.0117 12.471 30.2108 14.438 26.2318L14.437 26.2307Z" fill="#F99830"/>
<path d="M26.2067 3.53422L25.4557 8.60622L22.5857 10.8222L20.7857 12.2172L16.1126 8.60222L15.3617 3.53022C15.3102 3.27148 15.3147 3.00473 15.3749 2.74788C15.4351 2.49104 15.5496 2.25005 15.7106 2.04109C15.8716 1.83214 16.0755 1.66006 16.3085 1.53641C16.5416 1.41277 16.7983 1.34041 17.0617 1.32422H24.5167C24.78 1.34041 25.0368 1.41277 25.2698 1.53641C25.5028 1.66006 25.7067 1.83214 25.8677 2.04109C26.0287 2.25005 26.1432 2.49104 26.2034 2.74788C26.2636 3.00473 26.2681 3.27148 26.2167 3.53022L26.2067 3.53422Z" fill="#1876A9"/>
<path d="M26.2061 3.53413L25.4551 8.60612L22.5851 10.8221L19.7151 8.60112L18.9671 3.53413C18.9157 3.27539 18.9202 3.00864 18.9804 2.75179C19.0406 2.49495 19.155 2.25395 19.3161 2.045C19.4771 1.83604 19.681 1.66396 19.914 1.54032C20.147 1.41667 20.4038 1.34432 20.6671 1.32812H24.5151C24.7776 1.34554 25.0334 1.41879 25.2654 1.54296C25.4973 1.66713 25.7001 1.83938 25.8602 2.04819C26.0202 2.257 26.1339 2.49757 26.1936 2.75381C26.2532 3.01006 26.2575 3.27609 26.2061 3.53413Z" fill="#4297D0"/>
<path d="M31.1992 12.2156C31.2422 13.1287 30.9219 14.0216 30.3084 14.6992C29.6949 15.3769 28.838 15.784 27.9252 15.8316H13.6392C13.2003 15.8282 12.7672 15.732 12.3683 15.5493C11.9693 15.3666 11.6134 15.1016 11.3242 14.7716C10.6987 14.0676 10.3569 13.1563 10.3652 12.2146C10.3222 11.3016 10.6425 10.4088 11.256 9.73134C11.8695 9.05389 12.7264 8.64698 13.6392 8.59961H27.9252C28.3637 8.60316 28.7967 8.69923 29.1956 8.88155C29.5945 9.06386 29.9504 9.32831 30.2402 9.65761C30.8659 10.3619 31.2076 11.2735 31.1992 12.2156Z" fill="#5BB0B7"/>
<path d="M31.198 12.2155C31.2411 13.1286 30.9208 14.0215 30.3073 14.6991C29.6937 15.3767 28.8369 15.7839 27.924 15.8315H19.605C19.1661 15.8291 18.7327 15.7338 18.3332 15.552C17.9337 15.3702 17.5772 15.1059 17.2871 14.7765C16.6616 14.0724 16.3198 13.1612 16.3281 12.2195C16.285 11.3065 16.6053 10.4137 17.2189 9.73622C17.8324 9.05877 18.6893 8.65186 19.6021 8.60449H27.9211C28.3596 8.60804 28.7926 8.70412 29.1915 8.88643C29.5904 9.06874 29.9463 9.3332 30.2361 9.6625C30.8617 10.3651 31.2045 11.2748 31.198 12.2155Z" fill="#ACE4EA"/>
<path d="M18.2051 37.3071C15.9473 39.8579 14.7788 43.1918 14.9501 46.594C16.5313 46.6625 18.1077 46.375 19.563 45.7528C21.0182 45.1306 22.3152 44.1895 23.3581 42.999C25.616 40.4482 26.7845 37.1143 26.6131 33.7121C25.0319 33.6436 23.4555 33.931 22.0002 34.5532C20.545 35.1755 19.248 36.1166 18.2051 37.3071Z" fill="#79A879"/>
<path d="M34.8488 41.5324C34.8488 39.4324 34.0918 37.7324 33.1588 37.7324C32.2258 37.7324 31.4688 39.4324 31.4688 41.5324C31.4688 43.6324 32.2248 45.3324 33.1588 45.3324C34.0928 45.3324 34.8488 43.6344 34.8488 41.5324Z" fill="white"/>
<path d="M31.5938 23.379C30.85 22.8405 30.2469 22.1308 29.8354 21.3099C29.4239 20.489 29.2162 19.5811 29.2298 18.663V16.422C30.0524 16.0762 30.7517 15.4905 31.2364 14.7412C31.7211 13.992 31.9686 13.1141 31.9468 12.222C31.9985 11.1006 31.6047 10.0042 30.8512 9.17208C30.0977 8.33993 29.0458 7.83951 27.9248 7.77998H26.3388L26.9478 3.66798C27.0064 3.28279 26.9876 2.88976 26.8923 2.51197C26.797 2.13418 26.6271 1.77923 26.3928 1.46798C26.1749 1.17209 25.8914 0.930765 25.5645 0.762976C25.2375 0.595186 24.8762 0.505503 24.5088 0.500977L17.0548 0.500977C16.6885 0.505269 16.3282 0.594255 16.002 0.760972C15.6759 0.92769 15.3927 1.16762 15.1748 1.46198C14.9403 1.77321 14.7705 2.12815 14.6752 2.50595C14.5799 2.88375 14.561 3.27679 14.6198 3.66198L15.2288 7.77398H13.6388C12.5168 7.83349 11.4641 8.33461 10.7105 9.16786C9.95687 10.0011 9.56366 11.0987 9.61676 12.221C9.59482 13.1129 9.84224 13.9908 10.3267 14.74C10.8112 15.4893 11.5103 16.075 12.3328 16.421V18.662C12.3509 19.5738 12.1486 20.4765 11.7431 21.2933C11.3377 22.1102 10.741 22.8171 10.0038 23.354C7.42796 25.1708 5.28021 27.5284 3.71076 30.262C3.60373 30.4471 3.56784 30.6648 3.60981 30.8745C3.65178 31.0842 3.76873 31.2713 3.93876 31.401C4.0211 31.4588 4.11485 31.4984 4.21372 31.5171C4.3126 31.5359 4.41433 31.5332 4.51212 31.5095C4.60991 31.4857 4.7015 31.4414 4.78076 31.3794C4.86003 31.3174 4.92515 31.2392 4.97176 31.15C6.42573 28.6175 8.41546 26.4332 10.8018 24.75C11.7592 24.0535 12.5344 23.1361 13.0614 22.0758C13.5884 21.0156 13.8517 19.8438 13.8288 18.66V16.66H27.7388V18.66C27.7205 19.8495 27.9889 21.0259 28.5214 22.0898C29.0538 23.1536 29.8346 24.0736 30.7978 24.772C33.5526 26.7744 35.7846 29.4109 37.3051 32.4584C38.8255 35.5059 39.5896 38.8747 39.5328 42.28C39.54 45.7386 38.7477 49.1521 37.2178 52.254C36.9165 52.9038 36.4393 53.4563 35.8401 53.8489C35.241 54.2414 34.5439 54.4583 33.8278 54.475H7.72476C7.00999 54.4598 6.31382 54.2444 5.71529 53.8534C5.11676 53.4624 4.63987 52.9114 4.33876 52.263C2.95561 49.426 2.17736 46.3324 2.05342 43.1786C1.92947 40.0249 2.46253 36.8798 3.61876 33.943C3.70114 33.7466 3.7079 33.5266 3.63773 33.3256C3.56756 33.1245 3.42544 32.9565 3.23876 32.854C3.14691 32.8116 3.04718 32.789 2.94603 32.7876C2.84489 32.7863 2.74458 32.8062 2.65162 32.846C2.55866 32.8859 2.47511 32.9449 2.4064 33.0191C2.33769 33.0934 2.28535 33.1812 2.25276 33.277C1.00381 36.4479 0.42802 39.8439 0.561956 43.2493C0.695892 46.6547 1.53663 49.995 3.03076 53.058C3.448 53.9586 4.10978 54.724 4.94072 55.2669C5.77166 55.8099 6.73837 56.1086 7.73076 56.129H33.8308C34.8233 56.1064 35.7896 55.8062 36.6203 55.2626C37.451 54.7189 38.1128 53.9535 38.5308 53.053C40.183 49.7033 41.0386 46.017 41.0308 42.282C41.0915 38.606 40.2663 34.9695 38.6249 31.6798C36.9836 28.3901 34.5743 25.544 31.6008 23.382L31.5938 23.379ZM16.0958 3.40098C16.0724 3.24907 16.0796 3.09401 16.117 2.94494C16.1545 2.79587 16.2214 2.6558 16.3138 2.53298C16.3997 2.41693 16.5113 2.32233 16.6398 2.25658C16.7684 2.19083 16.9104 2.15572 17.0548 2.15398H24.5088C24.653 2.15579 24.7948 2.19095 24.9232 2.2567C25.0516 2.32245 25.163 2.41701 25.2488 2.53298C25.3412 2.6558 25.4081 2.79587 25.4455 2.94494C25.4829 3.09401 25.4902 3.24907 25.4668 3.40098L24.8188 7.77898H16.7438L16.0958 3.40098ZM13.6388 15.011C12.9347 14.9734 12.2741 14.6591 11.8009 14.1364C11.3277 13.6138 11.0804 12.9253 11.1128 12.221C11.0801 11.5166 11.3274 10.8279 11.8006 10.3052C12.2738 9.78253 12.9346 9.46825 13.6388 9.43098H27.9248C28.6288 9.4685 29.2894 9.78287 29.7626 10.3055C30.2358 10.8282 30.4832 11.5167 30.4508 12.221C30.4832 12.9253 30.2358 13.6138 29.7626 14.1364C29.2894 14.6591 28.6288 14.9734 27.9248 15.011H13.6388Z" fill="black"/>
<path d="M36.4002 47.1261C36.5002 47.1479 36.6037 47.149 36.7041 47.1293C36.8045 47.1096 36.8999 47.0694 36.9842 47.0114C37.0686 46.9534 37.1401 46.8788 37.1945 46.792C37.2488 46.7053 37.2848 46.6083 37.3002 46.5071C37.5904 45.1182 37.7365 43.703 37.7362 42.2841C37.7875 39.2046 37.0963 36.158 35.7212 33.4021C34.3462 30.6462 32.3276 28.262 29.8362 26.4511C29.7364 26.3798 29.6194 26.3364 29.4972 26.3255C29.375 26.3146 29.2521 26.3366 29.1412 26.3891C25.8502 27.9471 22.2112 27.0231 19.0002 26.2071C16.4192 25.5511 14.1912 24.9851 12.5522 25.8331C12.5014 25.8608 12.4541 25.8943 12.4112 25.9331C12.2112 26.1071 11.9882 26.2771 11.7602 26.4331C9.23781 28.2571 7.19771 30.6682 5.81636 33.4577C4.43501 36.2472 3.754 39.3313 3.83223 42.4431C3.84803 45.519 4.55981 48.5514 5.91423 51.3131C6.07534 51.6602 6.33053 51.9551 6.65083 52.1644C6.97113 52.3736 7.3437 52.4889 7.72623 52.4971H33.8262C34.2106 52.4874 34.5846 52.3704 34.9058 52.1592C35.2271 51.948 35.4829 51.6511 35.6442 51.3021C35.8892 50.8101 36.1162 50.3021 36.3172 49.7901C36.3987 49.5932 36.4042 49.373 36.3327 49.1722C36.2613 48.9714 36.1178 48.8043 35.9302 48.7031C35.8381 48.6613 35.7383 48.6393 35.6372 48.6386C35.536 48.6378 35.4359 48.6582 35.3432 48.6985C35.2504 48.7389 35.1672 48.7982 35.0988 48.8727C35.0304 48.9472 34.9785 49.0353 34.9462 49.1311C34.7632 49.5951 34.5582 50.0581 34.3352 50.5041C34.2907 50.6025 34.2195 50.6865 34.1297 50.7466C34.04 50.8067 33.9352 50.8405 33.8272 50.8441H7.72723C7.62165 50.8418 7.51885 50.8099 7.43047 50.7521C7.34209 50.6943 7.27168 50.6129 7.22723 50.5171C5.9915 47.9988 5.34194 45.2333 5.32723 42.4281C5.2558 39.5903 5.87682 36.7778 7.13656 34.2339C8.3963 31.6901 10.2568 29.4914 12.5572 27.8281C12.8002 27.6591 13.0342 27.4791 13.2572 27.2941C14.4362 26.7411 16.3992 27.2411 18.6662 27.8161C21.8212 28.6161 25.7212 29.6091 29.3562 28.0751C31.5346 29.7403 33.2922 31.893 34.4877 34.3605C35.6833 36.8281 36.2835 39.5416 36.2402 42.2831C36.2398 43.5771 36.1057 44.8676 35.8402 46.1341C35.7902 46.3395 35.8202 46.5563 35.9242 46.7404C36.0283 46.9244 36.1984 47.063 36.4002 47.1261Z" fill="black"/>
<path d="M26.6459 32.8873C24.9594 32.8188 23.2789 33.1277 21.7269 33.7913C20.1749 34.4549 18.7906 35.4566 17.6749 36.7233C15.2719 39.4484 14.026 43.0031 14.2019 46.6322C14.2017 46.8284 14.2745 47.0176 14.4061 47.1631C14.5377 47.3086 14.7187 47.3999 14.9139 47.4192C15.0979 47.4282 15.2799 47.4332 15.4629 47.4332C17.0582 47.4172 18.6324 47.0662 20.0834 46.403C21.5344 45.7397 22.8299 44.7791 23.8859 43.5832C26.2891 40.8581 27.535 37.3034 27.3589 33.6742C27.3592 33.4781 27.2864 33.2889 27.1548 33.1434C27.0232 32.9979 26.8411 32.9066 26.6459 32.8873ZM22.8279 42.4152C21.929 43.4322 20.8321 44.255 19.6042 44.8334C18.3764 45.4118 17.0434 45.7337 15.6869 45.7793C15.7246 42.8702 16.8055 40.0714 18.7329 37.8922C19.6319 36.8757 20.7287 36.0531 21.9563 35.4749C23.184 34.8966 24.5167 34.5749 25.8729 34.5293C25.8354 37.4381 24.7548 40.2368 22.8279 42.4162V42.4152Z" fill="black"/>
</svg>
