<svg width="50" height="54" viewBox="0 0 50 54" fill="none" xmlns="http://www.w3.org/2000/svg">
<path d="M14.541 9.16992H26.069V24.6999H14.541V9.16992Z" fill="#25D4F2"/>
<path d="M7.14258 9.16992H23.1856V24.6999H7.14258V9.16992Z" fill="#6EE2F6"/>
<path d="M20.3039 1.50586L17.4219 9.16986H23.1859V1.50586H20.3039Z" fill="#FF7A3C"/>
<path d="M10.0254 1.50586H20.3044V9.16986H10.0254V1.50586Z" fill="#FF9A42"/>
<path d="M17.4219 9.16992L20.3039 15.2999H23.1859V9.16992H17.4219Z" fill="#FF5A35"/>
<path d="M10.0254 9.16992H20.3044V15.2999H10.0254V9.16992Z" fill="#FF7A3C"/>
<path d="M26.0676 15.3018H23.1855L26.0676 52.2928H28.9496C29.7381 52.2677 30.4844 51.9307 31.0248 51.3559C31.5651 50.7811 31.8553 50.0153 31.8315 49.2268V21.4318C31.8784 19.855 31.2979 18.324 30.2173 17.1747C29.1366 16.0255 27.6442 15.3519 26.0676 15.3018Z" fill="#6EE2F6"/>
<path d="M23.1866 15.3018H7.14359C5.5669 15.3519 4.0745 16.0255 2.99389 17.1747C1.91327 18.324 1.3327 19.855 1.37959 21.4318V49.2318C1.35588 50.0203 1.64604 50.7861 2.18637 51.3609C2.72671 51.9357 3.47306 52.2727 4.26159 52.2978H26.0686C26.8571 52.2727 27.6035 51.9357 28.1438 51.3609C28.6841 50.7861 28.9743 50.0203 28.9506 49.2318L26.0686 35.3318L28.9506 21.4318C28.9975 19.855 28.4169 18.324 27.3363 17.1747C26.2557 16.0255 24.7633 15.3519 23.1866 15.3018Z" fill="#B6F1FB"/>
<path d="M26.0687 22.3212L20.3047 35.3312L26.0687 49.2312H28.9507V21.4332C27.9188 21.4065 26.9066 21.7184 26.0687 22.3212Z" fill="#7CC466"/>
<path d="M22.7787 23.4776C19.6927 23.4776 19.6927 21.4336 16.6057 21.4336C13.5187 21.4336 13.5197 23.4776 10.4337 23.4776C7.34772 23.4776 7.34772 21.4336 4.26172 21.4336V49.2286H26.0687V22.3206C25.1396 23.0765 23.9764 23.4855 22.7787 23.4776Z" fill="#ADCB74"/>
<path d="M27.509 7.63867H24.627V10.7047H27.509C27.899 10.6803 28.265 10.5081 28.5325 10.2233C28.8001 9.9385 28.949 9.56243 28.949 9.17167C28.949 8.78091 28.8001 8.40484 28.5325 8.12003C28.265 7.83522 27.899 7.66308 27.509 7.63867Z" fill="#B6F1FB"/>
<path d="M26.0678 9.16777C26.0796 8.77349 25.9345 8.39061 25.6644 8.1032C25.3942 7.81578 25.021 7.6473 24.6268 7.63477H5.70177C5.31177 7.65918 4.94573 7.83132 4.67819 8.11613C4.41065 8.40094 4.26172 8.77701 4.26172 9.16777C4.26172 9.55853 4.41065 9.9346 4.67819 10.2194C4.94573 10.5042 5.31177 10.6764 5.70177 10.7008H24.6268C25.021 10.6882 25.3942 10.5198 25.6644 10.2323C25.9345 9.94493 26.0796 9.56205 26.0678 9.16777Z" fill="white"/>
<path d="M14.4688 33.8242L31.8318 52.2942C31.8318 42.0942 24.0577 33.8242 14.4688 33.8242Z" fill="#1FB55B"/>
<path d="M14.4688 33.8242C21.3418 36.7152 29.1148 44.9842 31.8318 52.2932C22.2428 52.2942 14.4688 44.0242 14.4688 33.8242Z" fill="#18966A"/>
<path d="M31.832 52.2942L49.195 33.8252C39.606 33.8242 31.832 42.0942 31.832 52.2942Z" fill="#1FB55B"/>
<path d="M49.195 33.8242C49.195 44.0242 41.421 52.2932 31.832 52.2932C34.549 44.9842 42.323 36.7152 49.195 33.8242Z" fill="#18966A"/>
<path d="M49.1952 33.0572C45.5675 33.1202 42.0422 34.2701 39.0751 36.3582C36.1081 38.4464 33.8358 41.3767 32.5522 44.7702V21.4332C32.5916 19.7845 32.0276 18.1782 30.9662 16.9159C29.9049 15.6537 28.4192 14.8224 26.7882 14.5782V11.4702H27.5092C28.1005 11.4509 28.6601 11.198 29.0653 10.7669C29.4706 10.3358 29.6884 9.76165 29.6712 9.17023C29.6884 8.57882 29.4706 8.00468 29.0653 7.57358C28.6601 7.14248 28.1005 6.88956 27.5092 6.87023H23.9092V1.50623C23.9121 1.40844 23.8957 1.31102 23.861 1.21957C23.8262 1.12812 23.7737 1.04442 23.7066 0.973265C23.6394 0.902114 23.5589 0.844907 23.4696 0.80492C23.3803 0.764934 23.284 0.742952 23.1862 0.740234H10.0252C9.828 0.746244 9.64129 0.830312 9.50608 0.973956C9.37088 1.1176 9.29825 1.30906 9.30418 1.50623V6.87023H5.70418C5.11248 6.88905 4.55239 7.14174 4.14672 7.5729C3.74106 8.00405 3.52293 8.57849 3.54018 9.17023C3.52293 9.76165 3.74078 10.3358 4.14602 10.7669C4.55125 11.198 5.11083 11.4509 5.70218 11.4702H6.42318V14.5782C4.79201 14.8222 3.30605 15.6534 2.24449 16.9157C1.18293 18.1779 0.618834 19.7844 0.658177 21.4332V49.2272C0.629861 50.2121 0.992685 51.1681 1.66731 51.8862C2.34193 52.6043 3.27345 53.0261 4.25818 53.0592H28.9502C29.2474 53.0585 29.5433 53.0189 29.8302 52.9412C30.494 53.0196 31.1618 53.059 31.8302 53.0592C41.8012 53.0592 49.9142 44.4302 49.9142 33.8242C49.9201 33.6271 49.8475 33.4356 49.7123 33.292C49.5771 33.1483 49.3904 33.0642 49.1932 33.0582L49.1952 33.0572ZM45.2362 35.0972C42.7518 36.7416 40.4721 38.6758 38.4452 40.8592C36.3666 43.0503 34.5488 45.4748 33.0282 48.0842C33.6896 45.0138 35.176 42.1819 37.3273 39.8935C39.4786 37.6051 42.2124 35.9468 45.2362 35.0972ZM15.2262 35.0042C21.3192 38.0042 27.9032 45.0042 30.7262 51.4872C22.4322 50.9032 15.7792 43.8262 15.2262 35.0042ZM30.6352 48.0842C29.1145 45.4752 27.2967 43.051 25.2182 40.8602C23.1912 38.6769 20.9115 36.7426 18.4272 35.0982C21.4506 35.9479 24.1851 37.6061 26.3362 39.8943C28.4873 42.1825 29.9737 45.0141 30.6352 48.0842ZM10.7452 2.27023H22.4652V6.87023H10.7452V2.27023ZM4.25818 51.5272C3.66683 51.5079 3.10725 51.255 2.70202 50.8239C2.29678 50.3928 2.07893 49.8186 2.09618 49.2272V21.4332C2.0571 20.0536 2.56624 18.7146 3.51215 17.7095C4.45806 16.7043 5.76367 16.1149 7.14318 16.0702C7.34035 16.0642 7.52707 15.9802 7.66227 15.8365C7.79748 15.6929 7.8701 15.5014 7.86418 15.3042V10.7042C7.8701 10.5071 7.79748 10.3156 7.66227 10.172C7.52707 10.0283 7.34035 9.94424 7.14318 9.93823H5.70218C5.50718 9.92603 5.32416 9.83996 5.19039 9.69756C5.05662 9.55515 4.98215 9.36712 4.98215 9.17173C4.98215 8.97635 5.05662 8.78832 5.19039 8.64591C5.32416 8.50351 5.50718 8.41744 5.70218 8.40523H27.5092C27.7042 8.41744 27.8872 8.50351 28.021 8.64591C28.1547 8.78832 28.2292 8.97635 28.2292 9.17173C28.2292 9.36712 28.1547 9.55515 28.021 9.69756C27.8872 9.83996 27.7042 9.92603 27.5092 9.93823H10.0252C9.828 9.94424 9.64129 10.0283 9.50608 10.172C9.37088 10.3156 9.29825 10.5071 9.30418 10.7042V15.3042C9.29825 15.5014 9.37088 15.6929 9.50608 15.8365C9.64129 15.9802 9.828 16.0642 10.0252 16.0702H23.1862C23.3834 16.0642 23.5701 15.9802 23.7053 15.8365C23.8405 15.6929 23.9131 15.5014 23.9072 15.3042V11.4702H25.3482V15.3022C25.3423 15.4994 25.4149 15.6909 25.5501 15.8345C25.6853 15.9782 25.872 16.0622 26.0692 16.0682C27.4485 16.1137 28.7537 16.7037 29.699 17.7092C30.6443 18.7147 31.1528 20.0537 31.1132 21.4332V44.7702C30.7127 43.771 30.2307 42.8065 29.6722 41.8862V21.4332C29.6781 21.2361 29.6055 21.0446 29.4703 20.901C29.3351 20.7573 29.1484 20.6732 28.9512 20.6672C27.7006 20.6468 26.4794 21.0477 25.4842 21.8052C24.7048 22.3933 23.755 22.7114 22.7787 22.7114C21.8023 22.7114 20.8526 22.3933 20.0732 21.8052C19.0773 21.0485 17.8558 20.6487 16.6052 20.6702C15.3546 20.6498 14.1334 21.0506 13.1382 21.8082C12.3685 22.4141 11.4125 22.7343 10.4332 22.7142C9.45384 22.7343 8.49786 22.4141 7.72818 21.8082C6.73215 21.0499 5.50983 20.6491 4.25818 20.6702C4.061 20.6762 3.87429 20.7603 3.73908 20.904C3.60388 21.0476 3.53125 21.2391 3.53718 21.4362V43.0962C3.53125 43.2934 3.60388 43.4849 3.73908 43.6285C3.87429 43.7722 4.061 43.8562 4.25818 43.8622C4.45535 43.8562 4.64207 43.7722 4.77727 43.6285C4.91248 43.4849 4.9851 43.2934 4.97918 43.0962V22.2462C5.70189 22.3634 6.38407 22.6586 6.96418 23.1052C7.95939 23.8629 9.18055 24.2637 10.4312 24.2432C11.6818 24.2636 12.9029 23.8628 13.8982 23.1052C14.6679 22.4994 15.6238 22.1792 16.6032 22.1992C17.5825 22.1792 18.5385 22.4994 19.3082 23.1052C20.3131 23.8442 21.5278 24.2428 22.7752 24.2428C24.0225 24.2428 25.2373 23.8442 26.2422 23.1052C26.8222 22.6585 27.5044 22.3633 28.2272 22.2462V39.8262C26.5912 37.7345 24.5039 36.0394 22.1211 34.8673C19.7383 33.6952 17.1216 33.0765 14.4662 33.0572C14.269 33.0632 14.0823 33.1473 13.9471 33.291C13.8119 33.4346 13.7393 33.6261 13.7452 33.8232C13.7273 36.5719 14.2843 39.2939 15.3805 41.8146C16.4766 44.3352 18.0876 46.5989 20.1102 48.4602H4.98118V46.1602C4.9871 45.9631 4.91448 45.7716 4.77927 45.628C4.64407 45.4843 4.45735 45.4002 4.26018 45.3942C4.063 45.4002 3.87629 45.4843 3.74108 45.628C3.60588 45.7716 3.53325 45.9631 3.53918 46.1602V49.2262C3.53325 49.4234 3.60588 49.6149 3.74108 49.7585C3.87629 49.9022 4.063 49.9862 4.26018 49.9922H22.0482C22.9047 50.5825 23.8115 51.0961 24.7582 51.5272H4.25818ZM22.4652 11.4702V14.5362H10.7452V11.4702H22.4652ZM32.9422 51.4872C35.7612 45.0062 42.3422 38.0022 48.4422 35.0042C47.8932 43.8262 41.2422 50.9042 32.9422 51.4872Z" fill="black"/>
</svg>
