<svg width="29" height="28" viewBox="0 0 29 28" fill="none" xmlns="http://www.w3.org/2000/svg">
<path d="M5.41275 21.7435C4.89785 21.9245 4.34138 21.9515 3.8114 21.8211C3.28142 21.6908 2.80092 21.4087 2.42874 21.0095C2.32363 20.504 2.39273 19.9779 2.62478 19.5166C2.85684 19.0554 3.2382 18.6864 3.70675 18.4695C5.11666 18.0552 6.61387 18.0404 8.03173 18.4265C8.06897 18.4322 8.10434 18.4467 8.13498 18.4686C8.16561 18.4905 8.19067 18.5193 8.2081 18.5527C8.22552 18.5861 8.23482 18.6231 8.23529 18.6608C8.23575 18.6985 8.22735 18.7357 8.21075 18.7695C7.61069 20.0281 6.63247 21.0679 5.41275 21.7435Z" fill="#0A472E"/>
<path d="M8.03173 18.4256C6.61387 18.0394 5.11666 18.0543 3.70675 18.4685C3.2382 18.6854 2.85684 19.0545 2.62478 19.5157C2.39273 19.9769 2.32363 20.5031 2.42874 21.0086C2.43374 21.0186 2.44273 21.0296 2.44973 21.0396C4.27357 20.0113 6.21633 19.2101 8.23474 18.6536C8.23067 18.5985 8.2086 18.5464 8.1719 18.5051C8.13521 18.4639 8.08593 18.436 8.03173 18.4256Z" fill="#BEE86E"/>
<path d="M4.69178 15.9626C4.34668 16.0839 3.97367 16.102 3.61845 16.0146C3.26322 15.9273 2.9412 15.7382 2.69178 15.4706C2.62193 15.1321 2.66855 14.7799 2.82414 14.4713C2.97972 14.1627 3.23511 13.9157 3.54878 13.7706C4.45455 13.4975 5.41793 13.4785 6.33378 13.7156C6.37214 13.7209 6.40867 13.7354 6.44032 13.7577C6.47197 13.78 6.49782 13.8096 6.51573 13.8439C6.53363 13.8783 6.54307 13.9164 6.54325 13.9551C6.54343 13.9938 6.53435 14.0321 6.51676 14.0666C6.1177 14.8711 5.48048 15.5331 4.69178 15.9626Z" fill="#BEE86E"/>
<path d="M6.33377 13.7126C5.41792 13.4756 4.45455 13.4946 3.54877 13.7677C3.2351 13.9128 2.97974 14.1597 2.82416 14.4684C2.66858 14.777 2.62192 15.1292 2.69178 15.4677C2.71336 15.5042 2.73958 15.5378 2.76978 15.5676C3.90848 14.8025 5.18685 14.2693 6.53177 13.9986C6.5381 13.9668 6.53797 13.934 6.53138 13.9023C6.52478 13.8705 6.51185 13.8404 6.49338 13.8137C6.47491 13.787 6.45128 13.7643 6.42386 13.7469C6.39644 13.7296 6.3658 13.7179 6.33377 13.7126Z" fill="#BEE86E"/>
<path d="M4.26679 14.951C4.29523 14.9512 4.32355 14.9471 4.35081 14.939C4.44481 14.911 4.54179 14.884 4.64079 14.861C4.67255 14.8552 4.70278 14.8429 4.72959 14.8249C4.7564 14.8068 4.77923 14.7835 4.79667 14.7563C4.8141 14.7292 4.82579 14.6987 4.83097 14.6668C4.83615 14.6349 4.83471 14.6023 4.82679 14.571C4.8042 14.5076 4.75848 14.455 4.69877 14.4238C4.63905 14.3927 4.56977 14.3852 4.5048 14.403C4.3958 14.429 4.28778 14.458 4.18378 14.49C4.15248 14.4976 4.12309 14.5117 4.09748 14.5312C4.07187 14.5508 4.05061 14.5754 4.03501 14.6036C4.01941 14.6318 4.0098 14.6629 4.00684 14.695C4.00388 14.7271 4.00762 14.7594 4.0178 14.79C4.03818 14.8389 4.07287 14.8804 4.11732 14.9091C4.16176 14.9379 4.21388 14.9525 4.26679 14.951Z" fill="black"/>
<path d="M22.0488 15.0679C20.8004 15.0729 19.5885 15.4894 18.6008 16.2529C18.3122 14.7564 17.5135 13.4063 16.3407 12.4329C15.168 11.4595 13.6939 10.923 12.1698 10.9149C11.6126 10.9246 11.059 11.0084 10.5238 11.1639L9.68984 9.50293L8.87484 11.1639C8.33964 11.0083 7.78612 10.9246 7.22884 10.9149C5.46955 10.9231 3.78473 11.626 2.54127 12.8706C1.2978 14.1152 0.596419 15.8006 0.589844 17.5599C0.589844 21.2209 4.30584 27.5269 8.05384 27.5269C8.61928 27.5273 9.17902 27.4141 9.69984 27.1939C10.2207 27.414 10.7804 27.5273 11.3458 27.5269C13.2008 27.5269 15.2118 25.9489 16.8208 23.2949C17.2737 24.3037 18.0074 25.1608 18.9343 25.7637C19.8612 26.3666 20.9421 26.6899 22.0478 26.6949C22.8113 26.6949 23.5674 26.5445 24.2728 26.2524C24.9782 25.9602 25.6191 25.5319 26.159 24.9921C26.6988 24.4522 27.1271 23.8112 27.4193 23.1059C27.7115 22.4005 27.8618 21.6444 27.8618 20.8809C27.8618 20.1174 27.7115 19.3614 27.4193 18.656C27.1271 17.9506 26.6988 17.3097 26.159 16.7698C25.6191 16.2299 24.9782 15.8017 24.2728 15.5095C23.5674 15.2173 22.8113 15.0669 22.0478 15.0669L22.0488 15.0679Z" fill="url(#paint0_linear_2_8436)"/>
<path d="M16.2873 0.948242C14.8741 0.95414 13.4921 1.36457 12.3048 2.13101C11.1175 2.89744 10.1745 3.98783 9.58726 5.27324C9.07051 4.45945 8.3572 3.78886 7.51309 3.32328C6.66898 2.85771 5.72124 2.61215 4.75726 2.60924C4.54198 2.61671 4.33802 2.70748 4.18837 2.86242C4.03872 3.01735 3.95508 3.22434 3.95508 3.43974C3.95508 3.65515 4.03872 3.86213 4.18837 4.01707C4.33802 4.172 4.54198 4.26277 4.75726 4.27024C5.85334 4.27659 6.90218 4.71735 7.67377 5.49588C8.44536 6.2744 8.87671 7.32714 8.87325 8.42324V11.1642C9.15284 11.2308 9.42777 11.3157 9.69626 11.4182C9.96476 11.3157 10.2397 11.2309 10.5193 11.1642V9.17024C12.333 8.96177 14.0066 8.09326 15.2212 6.73022C16.4358 5.36719 17.1064 3.60491 17.1053 1.77924C17.1066 1.56069 17.0212 1.35051 16.8679 1.19476C16.7146 1.039 16.5058 0.950355 16.2873 0.948242ZM22.0503 14.2372C20.7358 14.2365 19.4507 14.6255 18.3574 15.3552C17.2641 16.0849 16.4118 17.1224 15.9082 18.3365C15.4047 19.5507 15.2725 20.8869 15.5285 22.1762C15.7844 23.4654 16.417 24.6498 17.3461 25.5796C18.2753 26.5093 19.4593 27.1425 20.7484 27.3993C22.0375 27.656 23.3738 27.5246 24.5883 27.0218C25.8027 26.519 26.8408 25.6673 27.5711 24.5744C28.3014 23.4816 28.6913 22.1967 28.6913 20.8822C28.6942 20.009 28.5244 19.1439 28.1916 18.3366C27.8589 17.5292 27.3698 16.7957 26.7525 16.1781C26.1352 15.5605 25.4019 15.0711 24.5947 14.738C23.7875 14.4049 22.9235 14.2347 22.0503 14.2372ZM24.5203 20.8822C24.3555 20.8848 24.1937 20.8384 24.0554 20.7488C23.9171 20.6592 23.8086 20.5305 23.7436 20.379C23.6786 20.2276 23.6601 20.0603 23.6905 19.8983C23.7208 19.7364 23.7986 19.5871 23.914 19.4695C24.0294 19.3518 24.1771 19.2711 24.3385 19.2377C24.4998 19.2042 24.6675 19.2194 24.8201 19.2815C24.9728 19.3435 25.1035 19.4495 25.1958 19.5861C25.2881 19.7226 25.3376 19.8835 25.3383 20.0482C25.3401 20.2674 25.2549 20.4783 25.1013 20.6347C24.9478 20.7911 24.7394 20.8801 24.5203 20.8822Z" fill="url(#paint1_linear_2_8436)"/>
<defs>
<linearGradient id="paint0_linear_2_8436" x1="14.2258" y1="27.5269" x2="14.2258" y2="9.50293" gradientUnits="userSpaceOnUse">
<stop stop-color="#0A472E"/>
<stop offset="1" stop-color="#A8B324"/>
</linearGradient>
<linearGradient id="paint1_linear_2_8436" x1="16.3232" y1="27.5272" x2="16.3232" y2="0.948242" gradientUnits="userSpaceOnUse">
<stop stop-color="#1C532C"/>
<stop offset="1" stop-color="#97A725"/>
</linearGradient>
</defs>
</svg>
