<svg width="39" height="45" viewBox="0 0 39 45" fill="none" xmlns="http://www.w3.org/2000/svg">
<path d="M35.8586 5.483H33.5586V1.116H35.8586C36.153 1.10829 36.4461 1.15867 36.7211 1.26427C36.9961 1.36986 37.2475 1.52861 37.4611 1.73143C37.6747 1.93426 37.8463 2.17718 37.9659 2.44632C38.0856 2.71546 38.1511 3.00555 38.1586 3.3C38.1509 3.59437 38.0854 3.88435 37.9657 4.15338C37.8459 4.42241 37.6744 4.66521 37.4608 4.86793C37.2472 5.07065 36.9958 5.2293 36.7209 5.33484C36.446 5.44037 36.153 5.49072 35.8586 5.483Z" fill="#E59730"/>
<path d="M9.07288 1.11613C8.28109 1.09678 7.514 1.39249 6.94007 1.93829C6.36615 2.48409 6.03231 3.23537 6.01188 4.02713V4.37813C5.99422 5.99988 5.58239 7.593 4.81188 9.02013C2.58992 13.2402 1.42656 17.9369 1.42188 22.7061V43.3331H33.5579V3.30013C33.5731 2.70633 33.8233 2.14284 34.2536 1.73336C34.6839 1.32388 35.2591 1.10189 35.8529 1.11613H9.07288Z" fill="#F9E109"/>
<path d="M30.4969 43.3331H1.42188V22.7051C1.42597 17.9346 2.59008 13.2366 4.81388 9.01613C5.58265 7.58904 5.99439 5.997 6.01388 4.37613V4.02713C6.03431 3.23573 6.36787 2.48476 6.94137 1.93901C7.51486 1.39326 8.28143 1.09732 9.07288 1.11613H15.9589C15.1671 1.09678 14.4 1.39249 13.8261 1.93829C13.2521 2.48409 12.9183 3.23537 12.8979 4.02713V4.37613C12.879 5.99835 12.4673 7.59184 11.6979 9.02013C9.47537 13.2392 8.31196 17.9354 8.30787 22.7041C8.30787 30.8791 15.2769 37.5041 23.8709 37.5041H24.3709C25.1559 37.4844 25.9371 37.6196 26.6699 37.9019C27.4026 38.1843 28.0726 38.6082 28.6415 39.1495C29.2104 39.6908 29.667 40.3389 29.9854 41.0567C30.3037 41.7746 30.4776 42.5481 30.4969 43.3331Z" fill="#FCBC04"/>
<path d="M38.1488 43.3325H28.9668V22.7065C28.9754 17.1224 30.5673 11.6553 33.5578 6.93945C36.5481 11.6556 38.1397 17.1232 38.1478 22.7075L38.1488 43.3325Z" fill="#E59730"/>
<path d="M38.1496 22.7055V43.3335H33.5586V6.93945C35.0455 9.29623 36.1966 11.8488 36.9786 14.5235C37.7548 17.1811 38.1491 19.9357 38.1496 22.7045V22.7055Z" fill="#FCBC04"/>
<path d="M33.5578 38.2383L28.9668 43.3383H38.1488L33.5578 38.2383Z" fill="#F9E109"/>
<path d="M24.3766 13.49H8.30859L9.83859 9.12305H25.9086L24.3766 13.49Z" fill="#57B7EB"/>
<path d="M11.6446 9.12305C10.9159 10.5279 10.2993 11.9881 9.80059 13.49H8.30859L9.83859 9.12305H11.6446Z" fill="#4891D3"/>
<path d="M11.6446 9.12305C10.9159 10.5279 10.2993 11.9881 9.80059 13.49H8.30859L9.83859 9.12305H11.6446Z" fill="#4891D3"/>
<path d="M7.54297 33.1426H22.843V34.5986C22.8225 35.3903 22.4887 36.1416 21.9148 36.6874C21.3408 37.2332 20.5738 37.5289 19.782 37.5096H10.604C9.81219 37.5289 9.0451 37.2332 8.47117 36.6874C7.89724 36.1416 7.5634 35.3903 7.54297 34.5986V33.1426Z" fill="#F89C8D"/>
<path d="M6.7793 28.7754H23.6123V31.6864C23.6023 32.0823 23.4356 32.4581 23.1487 32.7311C22.8618 33.0041 22.4782 33.1521 22.0823 33.1424H8.3093C7.91337 33.1521 7.5298 33.0041 7.2429 32.7311C6.956 32.4581 6.78925 32.0823 6.7793 31.6864V28.7754Z" fill="#CC5144"/>
<path d="M8.3078 30.2308H22.0798C22.4742 30.2501 22.8683 30.1892 23.2384 30.0516C23.6085 29.914 23.9468 29.7027 24.2327 29.4304C24.5186 29.1581 24.7463 28.8306 24.9018 28.4677C25.0574 28.1048 25.1376 27.7141 25.1376 27.3193C25.1376 26.9245 25.0574 26.5338 24.9018 26.1709C24.7463 25.808 24.5186 25.4805 24.2327 25.2082C23.9468 24.9359 23.6085 24.7246 23.2384 24.587C22.8683 24.4494 22.4742 24.3885 22.0798 24.4078H8.3078C7.91345 24.3885 7.51928 24.4494 7.1492 24.587C6.77912 24.7246 6.44085 24.9359 6.15491 25.2082C5.86896 25.4805 5.64131 25.808 5.48576 26.1709C5.33021 26.5338 5.25 26.9245 5.25 27.3193C5.25 27.7141 5.33021 28.1048 5.48576 28.4677C5.64131 28.8306 5.86896 29.1581 6.15491 29.4304C6.44085 29.7027 6.77912 29.914 7.1492 30.0516C7.51928 30.1892 7.91345 30.2501 8.3078 30.2308Z" fill="#F89C8D"/>
<path d="M21.009 37.2626C20.6219 37.4269 20.2055 37.511 19.785 37.5096H10.604C9.81219 37.5289 9.0451 37.2332 8.47117 36.6874C7.89724 36.1416 7.5634 35.3903 7.54297 34.5986V33.1426H12.838L12.869 33.1716C15.1229 35.3038 17.9529 36.7265 21.009 37.2626Z" fill="#F8664F"/>
<path d="M12.8393 33.1424H8.3093C7.91382 33.1505 7.53115 33.002 7.2446 32.7293C6.95805 32.4566 6.79082 32.0818 6.7793 31.6864V28.7754H9.6793C9.91142 29.2789 10.1788 29.7655 10.4793 30.2314C11.1418 31.2972 11.9361 32.2753 12.8433 33.1424H12.8393Z" fill="#AD4038"/>
<path d="M10.4736 30.2305H8.3086C7.77363 30.2305 7.24732 30.0953 6.7786 29.8375C6.54906 29.7108 6.33582 29.5567 6.1436 29.3785C5.71888 28.9833 5.42692 28.4663 5.30785 27.8985C5.18878 27.3307 5.24843 26.74 5.4786 26.2075C5.7245 25.665 6.12308 25.2058 6.62566 24.8862C7.12823 24.5665 7.71303 24.4002 8.3086 24.4075H8.4156C8.59379 25.9225 9.02015 27.3979 9.6776 28.7745C9.90971 29.278 10.177 29.7645 10.4776 30.2305H10.4736Z" fill="#F8664F"/>
<path d="M16.7251 36.0536L13.6641 33.1426H18.2551L16.7251 36.0536Z" fill="#F8664F"/>
<path d="M12.1352 36.0536L9.07422 33.1426H13.6652L12.1352 36.0536Z" fill="#CC5144"/>
<path d="M22.57 35.7916C22.3158 36.312 21.9192 36.7497 21.4262 37.0538C20.9332 37.3579 20.3641 37.5159 19.785 37.5096H10.604C9.81219 37.5289 9.0451 37.2332 8.47117 36.6874C7.89724 36.1416 7.5634 35.3903 7.54297 34.5986V33.1426H9.07297C9.0934 33.9343 9.42724 34.6856 10.0012 35.2314C10.5751 35.7772 11.3422 36.0729 12.134 36.0536H21.316C21.7479 36.0535 22.1741 35.9643 22.57 35.7916Z" fill="#F8664F"/>
<path d="M10.604 20.0409H19.786C20.5771 20.0227 21.3431 20.3188 21.9162 20.8645C22.4892 21.4102 22.8225 22.1609 22.843 22.9519V24.4079H7.54297V22.9519C7.5634 22.1602 7.89724 21.4089 8.47117 20.8631C9.0451 20.3173 9.81219 20.0216 10.604 20.0409Z" fill="#F89C8D"/>
<path d="M12.8989 36.0536L9.83789 33.1426H14.4289L12.8989 36.0536Z" fill="#F9E109"/>
<path d="M17.4907 36.0536L14.4297 33.1426H19.0207L17.4907 36.0536Z" fill="#F7F754"/>
<path d="M16.7537 33.8986L15.9597 33.1426H14.4297L17.4907 36.0536L18.4717 34.1876C18.1885 34.3126 17.8749 34.3518 17.5697 34.3003C17.2644 34.2487 16.9811 34.1087 16.7547 33.8976L16.7537 33.8986Z" fill="#F9E109"/>
<path d="M13.664 22.2249C13.0005 22.2344 12.3523 22.0259 11.8188 21.6313C11.2854 21.2368 10.8962 20.6781 10.711 20.0409H10.603C9.81136 20.0218 9.04452 20.3177 8.47081 20.8634C7.8971 21.4092 7.5634 22.1603 7.54297 22.9519V24.4079H22.843V22.9519C22.8396 22.7055 22.8033 22.4607 22.735 22.2239L13.664 22.2249Z" fill="#F8664F"/>
<path d="M7.54297 25.8267V25.1357H22.843V26.0357C22.842 26.3993 22.7179 26.7517 22.491 27.0357L21.691 28.0617C21.541 28.2473 21.3553 28.4009 21.1449 28.5134C20.9345 28.626 20.7036 28.6951 20.466 28.7167C20.2271 28.7405 19.9859 28.7168 19.7563 28.647C19.5267 28.5771 19.3131 28.4625 19.128 28.3097L18.409 27.7097C18.051 27.4147 17.5938 27.2677 17.131 27.2987C16.6698 27.3264 16.2371 27.531 15.923 27.8697L15.663 28.1537C15.3343 28.5045 14.8799 28.7107 14.3995 28.727C13.919 28.7433 13.4517 28.5684 13.1 28.2407L12.343 27.5157C12.06 27.25 11.6994 27.0819 11.3139 27.036C10.9284 26.9901 10.5384 27.0689 10.201 27.2607C9.93216 27.4136 9.62899 27.4957 9.3198 27.4996C9.01061 27.5034 8.7055 27.4288 8.43297 27.2827C8.16622 27.144 7.94238 26.935 7.78556 26.6785C7.62873 26.4219 7.54486 26.1274 7.54297 25.8267Z" fill="#F8664F"/>
<path d="M23.6117 28.775C24.0436 28.7749 24.4708 28.6857 24.8667 28.513C24.6125 29.0334 24.2159 29.4711 23.7229 29.7752C23.2299 30.0793 22.6608 30.2373 22.0817 30.231H8.30867C7.62315 30.2433 6.95378 30.0224 6.4102 29.6045C5.86662 29.1867 5.48105 28.5966 5.31667 27.931C5.17615 27.2696 5.27328 26.58 5.59097 25.9832C5.90867 25.3864 6.42659 24.9207 7.05367 24.668C6.87321 25.0402 6.7792 25.4483 6.77867 25.862C6.7991 26.6537 7.13294 27.405 7.70687 27.9508C8.28079 28.4966 9.04788 28.7923 9.83967 28.773L23.6117 28.775Z" fill="#F8664F"/>
<path d="M8.41497 24.4087H7.54297V22.9527C7.54729 22.2111 7.84119 21.5006 8.36197 20.9727C8.32397 21.5477 8.30797 22.1297 8.30797 22.7047C8.30898 23.273 8.34472 23.8407 8.41497 24.4047V24.4087Z" fill="#CC5144"/>
<path d="M13.9309 34.0886L12.8979 36.0536L9.83789 33.1426H12.8379L12.8689 33.1716C13.2078 33.4951 13.5629 33.8011 13.9329 34.0886H13.9309Z" fill="#FCBC04"/>
<path d="M7.54297 25.8267V25.1357H8.51497C8.65562 25.9392 8.86814 26.7283 9.14997 27.4937C8.72057 27.4717 8.31561 27.2872 8.0172 26.9777C7.71879 26.6681 7.54926 26.2567 7.54297 25.8267Z" fill="#CC5144"/>
<path d="M8.30671 30.231C7.6212 30.2433 6.95182 30.0224 6.40824 29.6045C5.86466 29.1867 5.4791 28.5966 5.31471 27.931C5.1742 27.2696 5.27133 26.58 5.58902 25.9832C5.90671 25.3864 6.42463 24.9207 7.05171 24.668C6.87126 25.0402 6.77725 25.4483 6.77671 25.862C6.79693 26.6247 7.10895 27.3507 7.64849 27.8902C8.18802 28.4297 8.91396 28.7418 9.67671 28.762C9.91036 29.267 10.1776 29.7557 10.4767 30.225L8.30671 30.231Z" fill="#CC5144"/>
<path d="M21.017 37.2616C20.6269 37.4253 20.208 37.5092 19.785 37.5086H10.604C9.81219 37.5279 9.0451 37.2322 8.47117 36.6864C7.89724 36.1406 7.5634 35.3894 7.54297 34.5976V33.1416H9.07297C9.0934 33.9334 9.42724 34.6846 10.0012 35.2304C10.5751 35.7762 11.3422 36.0719 12.134 36.0526H17.134C18.371 36.6169 19.6743 37.0228 21.013 37.2606L21.017 37.2616Z" fill="#CC5144"/>
<path d="M21.017 37.2616C20.6269 37.4253 20.208 37.5092 19.785 37.5086H10.604C9.81219 37.5279 9.0451 37.2322 8.47117 36.6864C7.89724 36.1406 7.5634 35.3894 7.54297 34.5976V33.1416H9.07297C9.0934 33.9334 9.42724 34.6846 10.0012 35.2304C10.5751 35.7762 11.3422 36.0719 12.134 36.0526H17.134C18.371 36.6169 19.6743 37.0228 21.013 37.2606L21.017 37.2616Z" fill="#CC5144"/>
<path d="M9.14997 27.4937C8.72057 27.4717 8.31561 27.2872 8.0172 26.9777C7.71879 26.6681 7.54926 26.2567 7.54297 25.8267V25.1357H8.51497C8.65562 25.9392 8.86814 26.7283 9.14997 27.4937Z" fill="#CC5144"/>
<path d="M10.4727 30.231H8.30671C7.6212 30.2433 6.95182 30.0224 6.40824 29.6045C5.86466 29.1867 5.4791 28.5966 5.31471 27.931C5.1742 27.2696 5.27133 26.58 5.58902 25.9832C5.90671 25.3864 6.42463 24.9207 7.05171 24.668C6.87126 25.0402 6.77725 25.4483 6.77671 25.862C6.79693 26.6247 7.10895 27.3507 7.64849 27.8902C8.18802 28.4297 8.91396 28.7418 9.67671 28.762C9.91036 29.267 10.1776 29.7557 10.4767 30.225L10.4727 30.231Z" fill="#CC5144"/>
<path d="M10.197 26.5332C10.5342 26.3414 10.924 26.2624 11.3093 26.3077C11.6947 26.3531 12.0554 26.5204 12.339 26.7852L13.096 27.5062C13.2702 27.669 13.4748 27.7958 13.6981 27.8795C13.9213 27.9632 14.1589 28.002 14.3972 27.9938C14.6355 27.9857 14.8698 27.9306 15.0869 27.8319C15.3039 27.7331 15.4993 27.5925 15.662 27.4182L15.918 27.1362C16.231 26.7962 16.6637 26.5908 17.125 26.5632C17.5882 26.5319 18.0457 26.6797 18.403 26.9762L19.126 27.5822C19.3108 27.7355 19.5243 27.8505 19.754 27.9205C19.9837 27.9906 20.225 28.0143 20.464 27.9902C20.7016 27.9684 20.9324 27.8988 21.1425 27.7858C21.3526 27.6727 21.5378 27.5185 21.687 27.3322L22.494 26.3092C22.7193 26.0245 22.8426 25.6723 22.844 25.3092V24.4082H7.54297V25.1082C7.54588 25.4079 7.63012 25.7012 7.7867 25.9567C7.94327 26.2123 8.16629 26.4205 8.43197 26.5592C8.7041 26.7047 9.00859 26.7791 9.31717 26.7754C9.62574 26.7718 9.92838 26.6902 10.197 26.5382V26.5332Z" fill="#A1D51C"/>
<path d="M22.843 24.5832V25.3082C22.842 25.6717 22.7179 26.0242 22.491 26.3082L21.691 27.3342C21.541 27.5198 21.3553 27.6734 21.1449 27.7859C20.9345 27.8984 20.7036 27.9675 20.466 27.9892C20.2271 28.013 19.9859 27.9893 19.7563 27.9194C19.5267 27.8496 19.3131 27.735 19.128 27.5822L18.409 26.9822C18.0511 26.6871 17.5938 26.54 17.131 26.5712C16.6698 26.5989 16.2371 26.8034 15.923 27.1422L15.663 27.4262C15.3343 27.777 14.8799 27.9831 14.3995 27.9994C13.919 28.0157 13.4517 27.8409 13.1 27.5132L12.343 26.7882C12.06 26.5225 11.6994 26.3543 11.3139 26.3084C10.9284 26.2626 10.5384 26.3413 10.201 26.5332C9.93216 26.686 9.62899 26.7682 9.3198 26.772C9.01061 26.7759 8.7055 26.7013 8.43297 26.5552C8.16622 26.4164 7.94238 26.2075 7.78556 25.9509C7.62873 25.6944 7.54486 25.3999 7.54297 25.0992V24.4082H10.037C10.1905 24.714 10.4091 24.9826 10.6773 25.1951C10.9456 25.4076 11.2571 25.5588 11.59 25.6382C11.8714 25.7138 12.1293 25.8589 12.34 26.0602L13.097 26.7812C13.4487 27.1089 13.916 27.2837 14.3965 27.2674C14.8769 27.2511 15.3313 27.045 15.66 26.6942L15.92 26.4102C16.2314 26.0723 16.6613 25.8678 17.12 25.8392C17.5819 25.8078 18.0383 25.9549 18.395 26.2502L19.122 26.8502C19.3071 27.003 19.5207 27.1176 19.7503 27.1874C19.9799 27.2573 20.2211 27.281 20.46 27.2572C20.6976 27.2355 20.9285 27.1664 21.1389 27.0539C21.3493 26.9414 21.535 26.7878 21.685 26.6022L22.485 25.5762C22.7126 25.2949 22.8387 24.945 22.843 24.5832Z" fill="#7AB92D"/>
<path d="M25.9053 42.6035H2.18625V33.8694C2.17622 33.6733 2.09124 33.4885 1.94888 33.3533C1.80651 33.218 1.61763 33.1426 1.42125 33.1426C1.22487 33.1426 1.03599 33.218 0.893621 33.3533C0.751256 33.4885 0.666281 33.6733 0.65625 33.8694V43.3314C0.661228 43.5294 0.744604 43.7173 0.888053 43.8538C1.0315 43.9903 1.22329 44.0643 1.42125 44.0594H25.9053C26.0041 44.0646 26.1029 44.0496 26.1957 44.0154C26.2886 43.9812 26.3734 43.9284 26.4452 43.8603C26.517 43.7921 26.5742 43.7101 26.6132 43.6192C26.6523 43.5283 26.6724 43.4304 26.6724 43.3314C26.6724 43.2325 26.6523 43.1346 26.6132 43.0437C26.5742 42.9528 26.517 42.8708 26.4452 42.8026C26.3734 42.7345 26.2886 42.6817 26.1957 42.6475C26.1029 42.6133 26.0041 42.5983 25.9053 42.6035Z" fill="black"/>
<path d="M34.3223 6.21074H35.8563C36.648 6.23008 37.4151 5.93438 37.9891 5.38858C38.563 4.84277 38.8968 4.0915 38.9173 3.29974C38.8971 2.50781 38.5634 1.75627 37.9894 1.21026C37.4154 0.664239 36.6482 0.368401 35.8563 0.38774H9.07225C8.0828 0.364628 7.12453 0.734652 6.40739 1.41674C5.69025 2.09884 5.27271 3.03737 5.24625 4.02674V4.37774C5.23095 5.88647 4.84679 7.36855 4.12725 8.69474C1.85797 13.0171 0.667155 17.8239 0.65625 22.7057V30.9587C0.666281 31.1549 0.751256 31.3396 0.893621 31.4749C1.03599 31.6102 1.22487 31.6856 1.42125 31.6856C1.61763 31.6856 1.80651 31.6102 1.94888 31.4749C2.09124 31.3396 2.17622 31.1549 2.18625 30.9587V22.7057C2.19669 18.0503 3.33263 13.4664 5.49725 9.34474C6.32266 7.81826 6.7621 6.11303 6.77725 4.37774V4.02674C6.78477 3.73229 6.85024 3.4422 6.96991 3.17306C7.08958 2.90391 7.26112 2.66099 7.47471 2.45817C7.68831 2.25535 7.93978 2.0966 8.21475 1.991C8.48972 1.8854 8.7828 1.83502 9.07725 1.84274H33.2072C32.9384 2.28079 32.7961 2.78476 32.7962 3.29874V6.75074C29.8067 11.5363 28.2163 17.0631 28.2052 22.7057V43.3317C28.2102 43.5297 28.2936 43.7176 28.4371 43.8541C28.5805 43.9906 28.7723 44.0646 28.9702 44.0597H38.1522C38.3502 44.0646 38.542 43.9906 38.6854 43.8541C38.8289 43.7176 38.9123 43.5297 38.9173 43.3317V30.2317C38.9072 30.0356 38.8222 29.8508 38.6799 29.7156C38.5375 29.5803 38.3486 29.5049 38.1522 29.5049C37.9559 29.5049 37.767 29.5803 37.6246 29.7156C37.4823 29.8508 37.3973 30.0356 37.3872 30.2317V41.3667L34.3262 37.9667V34.5977C34.3162 34.4016 34.2312 34.2168 34.0889 34.0816C33.9465 33.9463 33.7576 33.8709 33.5612 33.8709C33.3649 33.8709 33.176 33.9463 33.0336 34.0816C32.8913 34.2168 32.8063 34.4016 32.7962 34.5977V37.9687L29.7352 41.3687V22.7057C29.7423 18.2407 30.7904 13.8389 32.7962 9.84974V17.1287C32.8063 17.3249 32.8913 17.5096 33.0336 17.6449C33.176 17.7802 33.3649 17.8556 33.5612 17.8556C33.7576 17.8556 33.9465 17.7802 34.0889 17.6449C34.2312 17.5096 34.3162 17.3249 34.3262 17.1287V9.84974C36.3307 13.8399 37.377 18.2424 37.3823 22.7077V27.3187C37.3923 27.5149 37.4773 27.6996 37.6196 27.8349C37.762 27.9702 37.9509 28.0456 38.1473 28.0456C38.3436 28.0456 38.5325 27.9702 38.6749 27.8349C38.8172 27.6996 38.9022 27.5149 38.9123 27.3187V22.7057C38.9015 17.0632 37.3115 11.5364 34.3223 6.75074V6.21074ZM33.5563 39.3557L36.4832 42.6037H30.6292L33.5563 39.3557ZM35.8563 1.84374C36.2522 1.83407 36.6357 1.98201 36.9226 2.25503C37.2095 2.52805 37.3763 2.90382 37.3862 3.29974C37.376 3.69549 37.2092 4.071 36.9223 4.3438C36.6354 4.61661 36.252 4.76441 35.8563 4.75474H34.3262V3.29874C34.3365 2.90299 34.5033 2.52748 34.7902 2.25467C35.0771 1.98187 35.4605 1.83407 35.8563 1.84374Z" fill="black"/>
<path d="M33.558 20.7678C33.36 20.763 33.1682 20.8369 33.0248 20.9734C32.8813 21.11 32.7979 21.2978 32.793 21.4958V30.2298C32.803 30.4259 32.888 30.6107 33.0303 30.746C33.1727 30.8812 33.3616 30.9567 33.558 30.9567C33.7544 30.9567 33.9432 30.8812 34.0856 30.746C34.228 30.6107 34.3129 30.4259 34.323 30.2298V21.4958C34.318 21.2978 34.2346 21.11 34.0912 20.9734C33.9477 20.8369 33.7559 20.763 33.558 20.7678Z" fill="black"/>
<path d="M6.7821 23.9885C6.18027 24.2267 5.65275 24.621 5.25378 25.1307C4.85482 25.6403 4.59882 26.2471 4.5121 26.8885C4.4378 27.5262 4.5381 28.172 4.80229 28.7571C5.06648 29.3422 5.48464 29.8446 6.0121 30.2105V31.6855C6.01522 31.9948 6.08572 32.2997 6.2187 32.579C6.35168 32.8582 6.54395 33.1052 6.7821 33.3025V34.6025C6.80856 35.5919 7.22609 36.5304 7.94324 37.2125C8.66038 37.8946 9.61865 38.2646 10.6081 38.2415H19.7821C20.7715 38.2646 21.7298 37.8946 22.447 37.2125C23.1641 36.5304 23.5816 35.5919 23.6081 34.6025V33.3025C23.8452 33.1048 24.0364 32.8578 24.1685 32.5788C24.3006 32.2997 24.3704 31.9953 24.3731 31.6865V30.2125C24.9006 29.8466 25.3187 29.3442 25.5829 28.7591C25.8471 28.174 25.9474 27.5282 25.8731 26.8905C25.7864 26.2491 25.5304 25.6423 25.1314 25.1327C24.7325 24.623 24.2049 24.2287 23.6031 23.9905V22.9515C23.5766 21.963 23.1598 21.0253 22.4437 20.3433C21.7277 19.6614 20.7707 19.2908 19.7821 19.3125H18.2521C18.1533 19.3073 18.0545 19.3223 17.9616 19.3566C17.8688 19.3908 17.7839 19.4436 17.7121 19.5117C17.6403 19.5798 17.5832 19.6618 17.5441 19.7528C17.5051 19.8437 17.4849 19.9416 17.4849 20.0405C17.4849 20.1395 17.5051 20.2374 17.5441 20.3283C17.5832 20.4192 17.6403 20.5012 17.7121 20.5693C17.7839 20.6374 17.8688 20.6902 17.9616 20.7245C18.0545 20.7587 18.1533 20.7737 18.2521 20.7685H19.7821C20.0765 20.7608 20.3696 20.8112 20.6446 20.9168C20.9196 21.0224 21.171 21.1811 21.3846 21.384C21.5982 21.5868 21.7698 21.8297 21.8894 22.0988C22.0091 22.368 22.0746 22.6581 22.0821 22.9525V23.6805H8.3081V22.9525C8.31562 22.6581 8.38108 22.368 8.50076 22.0988C8.62043 21.8297 8.79197 21.5868 9.00556 21.384C9.21916 21.1811 9.47063 21.0224 9.7456 20.9168C10.0206 20.8112 10.3136 20.7608 10.6081 20.7685H15.1991C15.2979 20.7737 15.3967 20.7587 15.4896 20.7245C15.5824 20.6902 15.6673 20.6374 15.7391 20.5693C15.8108 20.5012 15.868 20.4192 15.9071 20.3283C15.9461 20.2374 15.9663 20.1395 15.9663 20.0405C15.9663 19.9416 15.9461 19.8437 15.9071 19.7528C15.868 19.6618 15.8108 19.5798 15.7391 19.5117C15.6673 19.4436 15.5824 19.3908 15.4896 19.3566C15.3967 19.3223 15.2979 19.3073 15.1991 19.3125H10.6031C9.6145 19.2908 8.65752 19.6614 7.94147 20.3433C7.22541 21.0253 6.80856 21.963 6.7821 22.9515V23.9885ZM22.0821 25.1355V25.3075C22.0805 25.5126 22.01 25.7112 21.8821 25.8715L21.0751 26.8945C20.991 26.9993 20.8866 27.0861 20.7683 27.1497C20.6499 27.2132 20.5199 27.2523 20.3861 27.2645C20.2514 27.2781 20.1154 27.2647 19.986 27.2252C19.8566 27.1857 19.7363 27.1209 19.6321 27.0345L18.9091 26.4285C18.3958 26.0027 17.7385 25.7904 17.0731 25.8355C16.4101 25.8751 15.7882 26.1701 15.3381 26.6585L15.0821 26.9405C14.9904 27.0388 14.8803 27.1181 14.758 27.1737C14.6357 27.2294 14.5036 27.2604 14.3693 27.2649C14.2349 27.2695 14.1011 27.2475 13.9753 27.2002C13.8494 27.153 13.7342 27.0814 13.6361 26.9895L12.8791 26.2685C12.4724 25.8871 11.9542 25.646 11.4005 25.5805C10.8467 25.515 10.2866 25.6286 9.8021 25.9045C9.65367 25.9886 9.48667 26.0344 9.31612 26.0379C9.14558 26.0414 8.97685 26.0024 8.8251 25.9245C8.67687 25.8502 8.55111 25.7378 8.46077 25.5988C8.37042 25.4597 8.31876 25.2991 8.3111 25.1335L22.0821 25.1355ZM22.0821 34.5975C22.0746 34.892 22.0091 35.1821 21.8894 35.4512C21.7698 35.7203 21.5982 35.9633 21.3846 36.1661C21.171 36.3689 20.9196 36.5277 20.6446 36.6333C20.3696 36.7389 20.0765 36.7892 19.7821 36.7815H10.6031C10.3086 36.7892 10.0156 36.7389 9.7406 36.6333C9.46562 36.5277 9.21416 36.3689 9.00056 36.1661C8.78697 35.9633 8.61543 35.7203 8.49576 35.4512C8.37608 35.1821 8.31062 34.892 8.3031 34.5975V33.8695H9.5171L12.3531 36.5695C12.4995 36.7072 12.6932 36.7834 12.8941 36.7825C12.9349 36.7828 12.9757 36.7797 13.0161 36.7735C13.1339 36.7564 13.2462 36.712 13.3437 36.6437C13.4413 36.5755 13.5216 36.4853 13.5781 36.3805L14.6341 34.3725L16.9441 36.5725C17.0905 36.7101 17.2842 36.7864 17.4851 36.7855C17.5259 36.7858 17.5667 36.7828 17.6071 36.7765C17.7249 36.7594 17.8372 36.715 17.9347 36.6467C18.0323 36.5785 18.1126 36.4883 18.1691 36.3835L19.4881 33.8745H22.0821V34.5975ZM11.6821 33.8695H13.1881L12.6881 34.8245L11.6821 33.8695ZM16.2731 33.8695H17.7821L17.2821 34.8245L16.2731 33.8695ZM24.3731 27.3185C24.3656 27.613 24.3001 27.9031 24.1804 28.1722C24.0608 28.4413 23.8892 28.6843 23.6756 28.8871C23.462 29.0899 23.2106 29.2487 22.9356 29.3543C22.6606 29.4599 22.3675 29.5102 22.0731 29.5025H20.5431C20.4443 29.4973 20.3455 29.5123 20.2526 29.5466C20.1598 29.5808 20.0749 29.6336 20.0031 29.7017C19.9313 29.7698 19.8742 29.8518 19.8351 29.9427C19.7961 30.0337 19.7759 30.1316 19.7759 30.2305C19.7759 30.3295 19.7961 30.4274 19.8351 30.5183C19.8742 30.6092 19.9313 30.6912 20.0031 30.7593C20.0749 30.8274 20.1598 30.8802 20.2526 30.9145C20.3455 30.9487 20.4443 30.9637 20.5431 30.9585H22.0821C22.3388 30.9587 22.595 30.9343 22.8471 30.8855V31.6855C22.8421 31.8835 22.7587 32.0714 22.6153 32.2079C22.4718 32.3444 22.2801 32.4184 22.0821 32.4135H8.3081C8.11013 32.4184 7.91835 32.3444 7.7749 32.2079C7.63145 32.0714 7.54808 31.8835 7.5431 31.6855V30.8855C7.79518 30.9343 8.05135 30.9587 8.3081 30.9585H17.4901C17.5889 30.9637 17.6877 30.9487 17.7806 30.9145C17.8734 30.8802 17.9583 30.8274 18.0301 30.7593C18.1018 30.6912 18.159 30.6092 18.1981 30.5183C18.2371 30.4274 18.2573 30.3295 18.2573 30.2305C18.2573 30.1316 18.2371 30.0337 18.1981 29.9427C18.159 29.8518 18.1018 29.7698 18.0301 29.7017C17.9583 29.6336 17.8734 29.5808 17.7806 29.5466C17.6877 29.5123 17.5889 29.4973 17.4901 29.5025H8.3081C7.84488 29.5106 7.39017 29.3776 7.00436 29.1211C6.61855 28.8646 6.31991 28.4968 6.1481 28.0665C5.98941 27.6419 5.97181 27.1775 6.0979 26.7421C6.224 26.3067 6.48707 25.9236 6.8481 25.6495C6.94306 26.0233 7.12564 26.369 7.38074 26.6582C7.63584 26.9474 7.95612 27.1717 8.3151 27.3125C8.68132 27.4597 9.07598 27.5226 9.46982 27.4965C9.86365 27.4703 10.2466 27.3559 10.5901 27.1615C10.7799 27.0528 10.9996 27.0078 11.2168 27.0331C11.4341 27.0585 11.6375 27.1529 11.7971 27.3025L12.5541 28.0245C13.0597 28.4965 13.7321 28.7482 14.4234 28.7244C15.1147 28.7006 15.7681 28.4031 16.2401 27.8975L16.4931 27.6135C16.671 27.4229 16.915 27.3075 17.1752 27.2907C17.4354 27.274 17.6922 27.3573 17.8931 27.5235L18.6151 28.1295C19.0834 28.5185 19.6733 28.7309 20.2821 28.7295C20.3681 28.7295 20.4531 28.7295 20.5381 28.7175C20.8799 28.6861 21.2119 28.5861 21.5143 28.4236C21.8167 28.261 22.0833 28.0393 22.2981 27.7715L23.1061 26.7475C23.3502 26.4374 23.5122 26.0708 23.5771 25.6815C23.8243 25.8788 24.0245 26.1287 24.1628 26.4131C24.3012 26.6975 24.3744 27.0092 24.3771 27.3255L24.3731 27.3185Z" fill="black"/>
<path d="M9.11205 8.89457L7.58205 13.2616C7.54385 13.3711 7.53344 13.4883 7.55177 13.6028C7.57009 13.7173 7.61658 13.8255 7.68705 13.9176C7.76053 14.0119 7.85479 14.0881 7.96249 14.1401C8.07019 14.1922 8.18844 14.2187 8.30805 14.2176H24.376C24.5338 14.2194 24.6881 14.1723 24.818 14.0827C24.9478 13.9932 25.0467 13.8656 25.101 13.7176L26.6311 9.35057C26.6691 9.24122 26.6794 9.12415 26.6611 9.00984C26.6427 8.89553 26.5964 8.78755 26.5261 8.69557C26.4527 8.60133 26.3586 8.52525 26.2511 8.47322C26.1435 8.4212 26.0255 8.39463 25.906 8.39557H9.84305C9.68518 8.39356 9.53057 8.44056 9.40054 8.53012C9.2705 8.61967 9.17146 8.74736 9.11705 8.89557L9.11205 8.89457ZM24.844 9.85257L23.824 12.7636H9.36905L10.39 9.85257H24.844Z" fill="black"/>
<path d="M11.3687 15.6729C11.2699 15.6677 11.1711 15.6827 11.0783 15.7169C10.9854 15.7512 10.9005 15.804 10.8288 15.8721C10.757 15.9402 10.6998 16.0222 10.6608 16.1131C10.6217 16.204 10.6016 16.3019 10.6016 16.4009C10.6016 16.4998 10.6217 16.5977 10.6608 16.6886C10.6998 16.7796 10.757 16.8616 10.8288 16.9297C10.9005 16.9978 10.9854 17.0506 11.0783 17.0848C11.1711 17.1191 11.2699 17.1341 11.3687 17.1289H20.5507C20.6495 17.1341 20.7484 17.1191 20.8412 17.0848C20.934 17.0506 21.0189 16.9978 21.0907 16.9297C21.1625 16.8616 21.2196 16.7796 21.2587 16.6886C21.2978 16.5977 21.3179 16.4998 21.3179 16.4009C21.3179 16.3019 21.2978 16.204 21.2587 16.1131C21.2196 16.0222 21.1625 15.9402 21.0907 15.8721C21.0189 15.804 20.934 15.7512 20.8412 15.7169C20.7484 15.6827 20.6495 15.6677 20.5507 15.6729H11.3687Z" fill="black"/>
<path d="M22.8457 6.93845C22.9445 6.94363 23.0433 6.92864 23.1361 6.89439C23.229 6.86015 23.3139 6.80736 23.3856 6.73925C23.4574 6.67114 23.5146 6.58913 23.5536 6.49822C23.5927 6.40731 23.6128 6.30939 23.6128 6.21045C23.6128 6.1115 23.5927 6.01359 23.5536 5.92267C23.5146 5.83176 23.4574 5.74975 23.3856 5.68164C23.3139 5.61353 23.229 5.56075 23.1361 5.5265C23.0433 5.49225 22.9445 5.47726 22.8457 5.48245H13.6637C13.5648 5.47726 13.466 5.49225 13.3732 5.5265C13.2803 5.56075 13.1955 5.61353 13.1237 5.68164C13.0519 5.74975 12.9947 5.83176 12.9557 5.92267C12.9166 6.01359 12.8965 6.1115 12.8965 6.21045C12.8965 6.30939 12.9166 6.40731 12.9557 6.49822C12.9947 6.58913 13.0519 6.67114 13.1237 6.73925C13.1955 6.80736 13.2803 6.86015 13.3732 6.89439C13.466 6.92864 13.5648 6.94363 13.6637 6.93845H22.8457Z" fill="black"/>
</svg>
