<svg width="15" height="16" viewBox="0 0 15 16" fill="none" xmlns="http://www.w3.org/2000/svg">
<g clip-path="url(#clip0_8_1075)">
<path d="M6.16682 10.0988C6.32007 10.1116 6.46056 10.035 6.60105 9.95832C7.89097 9.2048 8.98932 8.132 9.75561 6.85485C9.8961 6.63773 10.0238 6.3823 9.97273 6.12687C9.88333 5.64155 9.2703 5.44998 9.09149 4.99021C8.92546 4.59429 9.14258 4.14729 9.39801 3.80245C9.81947 3.22774 10.3559 2.72965 10.9689 2.35927C11.2627 2.18047 11.5819 2.02721 11.9268 2.00167C13.4721 1.92504 13.5615 4.50489 13.3572 5.51384C13.1401 6.5611 12.6164 7.53174 12.0034 8.41297C10.5602 10.5075 8.58063 12.2827 6.17959 13.1257C5.33667 13.4194 4.42989 13.5982 3.56143 13.3939C3.1272 13.2917 2.71851 13.1001 2.41199 12.7681C2.10547 12.4488 1.93944 11.989 2.01607 11.5548C2.0927 11.1078 2.39922 10.7502 2.70574 10.4309C3.15274 9.9711 3.65083 9.56241 4.18723 9.2048C4.2894 9.14095 4.39158 9.07709 4.50652 9.06432C4.63423 9.05155 4.74918 9.1154 4.86412 9.17926C5.18341 9.35806 5.47715 9.57518 5.73258 9.81784C5.84753 9.93278 5.97524 10.0477 6.1285 10.0733C6.14127 10.086 6.15404 10.0988 6.16682 10.0988Z" fill="#76A713"/>
</g>
<defs>
<clipPath id="clip0_8_1075">
<rect width="15" height="15.45" fill="white" transform="matrix(-1 0 0 1 15 0)"/>
</clipPath>
</defs>
</svg>
