<svg width="45" height="45" viewBox="0 0 45 45" fill="none" xmlns="http://www.w3.org/2000/svg">
<path d="M22.6973 44.0664C34.8475 44.0664 44.6973 34.2167 44.6973 22.0664C44.6973 9.91614 34.8475 0.0664062 22.6973 0.0664062C10.547 0.0664062 0.697266 9.91614 0.697266 22.0664C0.697266 34.2167 10.547 44.0664 22.6973 44.0664Z" fill="#FBFBFD"/>
<path d="M16.7258 19.2H19.4336V28H16.7258V19.2ZM24.9918 19.2C24.8588 19.2 24.7258 19.2083 24.5928 19.225C24.4787 19.2417 24.3647 19.2667 24.2507 19.3C24.1367 19.3333 24.0417 19.3667 23.9657 19.4C23.8897 19.4167 23.7947 19.4583 23.6806 19.525C23.5666 19.575 23.4906 19.6083 23.4526 19.625C23.4336 19.6417 23.3671 19.6917 23.2531 19.775C23.1391 19.8583 23.0821 19.9 23.0821 19.9V19.2H20.3742V28H23.0821V22.45C23.0821 22.4333 23.0821 22.4 23.0821 22.35C23.0821 22.3 23.1011 22.2083 23.1391 22.075C23.1961 21.9417 23.2626 21.8333 23.3386 21.75C23.4336 21.65 23.5761 21.5583 23.7661 21.475C23.9752 21.3917 24.2127 21.35 24.4787 21.35C24.9348 21.35 25.2673 21.45 25.4764 21.65C25.7044 21.85 25.8184 22.1167 25.8184 22.45V28H28.6973V22.55C28.6973 21.9667 28.5928 21.4667 28.3837 21.05C28.1747 20.6167 27.9277 20.2917 27.6426 20.075C27.3766 19.8417 27.0536 19.6583 26.6735 19.525C26.3125 19.375 25.9989 19.2833 25.7329 19.25C25.4859 19.2167 25.2388 19.2 24.9918 19.2ZM17.0963 16.35C16.8303 16.5833 16.6973 16.8667 16.6973 17.2C16.6973 17.5333 16.8303 17.8167 17.0963 18.05C17.3623 18.2833 17.6854 18.4 18.0654 18.4C18.4455 18.4 18.7685 18.2833 19.0346 18.05C19.3006 17.8167 19.4336 17.5333 19.4336 17.2C19.4336 16.8667 19.3006 16.5833 19.0346 16.35C18.7685 16.1167 18.4455 16 18.0654 16C17.6854 16 17.3623 16.1167 17.0963 16.35Z" fill="#425580"/>
<path d="M22.6973 43.5664C34.5714 43.5664 44.1973 33.9405 44.1973 22.0664C44.1973 10.1923 34.5714 0.566406 22.6973 0.566406C10.8231 0.566406 1.19727 10.1923 1.19727 22.0664C1.19727 33.9405 10.8231 43.5664 22.6973 43.5664Z" stroke="#E2E2EB"/>
</svg>
